<?xml version="1.0" encoding="UTF-8"?>
<svg width="16px" height="16px" viewBox="0 0 16 16" version="1.1" xmlns="http://www.w3.org/2000/svg" xmlns:xlink="http://www.w3.org/1999/xlink">
    <title>Group 2</title>
    <g id="v0.1-1108-2022-chaewon.min-&gt;-1111-전달받음-" stroke="none" stroke-width="1" fill="none" fill-rule="evenodd">
        <g id="Main-&gt;--Group-List--&gt;-&gt;-Add-Group-Member" transform="translate(-372.000000, -319.000000)" fill-rule="nonzero">
            <g id="Group-3" transform="translate(372.000000, 309.000000)">
                <g id="Group-2" transform="translate(0.000000, 10.000000)">
                    <rect id="Rectangle-Copy-15" fill="#0084FF" x="0" y="0" width="16" height="16" rx="2"></rect>
                    <path d="M11.439,5.1464 C11.533,5.0527 11.66,5 11.793,5 C11.925,5 12.053,5.0527 12.146,5.1464 L12.853,5.8534 C12.947,5.9472 13,6.0743 13,6.2069 C13,6.3395 12.947,6.4666 12.853,6.5604 L7.853,11.5604 C7.76,11.6541 7.632,11.7068 7.5,11.7068 C7.367,11.7068 7.24,11.6541 7.146,11.5604 L4.146,8.5604 C4.053,8.4666 4,8.3395 4,8.2069 C4,8.0743 4.053,7.9472 4.146,7.8534 L4.853,7.1464 C4.947,7.0527 5.074,7 5.207,7 C5.339,7 5.467,7.0527 5.56,7.1464 L7.5,9.0854 L11.439,5.1464 Z" id="Path-Copy-2" fill="#FFFFFF"></path>
                </g>
            </g>
        </g>
    </g>
</svg>