<?xml version="1.0" encoding="UTF-8"?>
<svg width="24px" height="24px" viewBox="0 0 24 24" version="1.1" xmlns="http://www.w3.org/2000/svg" xmlns:xlink="http://www.w3.org/1999/xlink">
    <title>checkbox</title>
    <g id="Dispatcher_20221118_demo+container" stroke="none" stroke-width="1" fill="none" fill-rule="evenodd">
        <g id="Multi-selection" transform="translate(-84.000000, -113.000000)">
            <g id="checkbox" transform="translate(84.000000, 113.000000)">
                <rect id="check_area" x="0" y="0" width="24" height="24"></rect>
                <path d="M12,3.87692308 C7.51384615,3.87692308 3.87692308,7.51384615 3.87692308,12 C3.87692308,16.4861538 7.51384615,20.1230769 12,20.1230769 C16.4861538,20.1230769 20.1230769,16.4861538 20.1230769,12 C20.1175385,7.51569231 16.4843077,3.88246154 12,3.87692308 M12,22.1538462 C6.39230769,22.1538462 1.84615385,17.6076923 1.84615385,12 C1.84615385,6.39230769 6.39230769,1.84615385 12,1.84615385 C17.6076923,1.84615385 22.1538462,6.39230769 22.1538462,12 C22.1916923,17.5698462 17.7073846,22.116 12.1366154,22.1538462 C12.0913846,22.1538462 12.0452308,22.1538462 12,22.1538462" id="check" fill="#DDDDDD" fill-rule="nonzero"></path>
            </g>
        </g>
    </g>
</svg>