<?xml version="1.0" encoding="UTF-8"?>
<svg width="22px" height="22px" viewBox="0 0 22 22" version="1.1" xmlns="http://www.w3.org/2000/svg" xmlns:xlink="http://www.w3.org/1999/xlink">
    <title>Icon / Toggle / Checkbox /  Available</title>
    <g id="v0.1-1108-2022-chaewon.min-&gt;-1111-전달받음-" stroke="none" stroke-width="1" fill="none" fill-rule="evenodd">
        <g id="Main-&gt;-Multiple-Selection" transform="translate(-256.000000, -153.000000)">
            <g id="Card" transform="translate(24.000000, 128.000000)">
                <g id="Card-/-Idle-Copy" transform="translate(208.000000, 0.000000)">
                    <g id="ic_check_off" transform="translate(23.000000, 24.000000)">
                        <rect id="check_area" x="0" y="0" width="24" height="24"></rect>
                        <path d="M16.6666778,8.06089452 L17.339789,8.73400578 C17.5876217,8.98183851 17.5876217,9.38365474 17.339789,9.63148747 L11.218006,15.7532705 C10.9701732,16.0011033 10.568357,16.0011033 10.3205243,15.7532705 L7.10895147,12.5416977 C6.86111874,12.293865 6.86111874,11.8920488 7.10895147,11.644216 L7.78206273,10.9711048 C8.02984645,10.7232231 8.43166269,10.7232231 8.67949541,10.9710558 C8.67951175,10.9710721 8.67952808,10.9710885 8.67949541,10.9711538 L10.7692651,13.06138 L10.7692651,13.06138 L15.7692189,8.06091735 C16.0170162,7.81304919 16.4188324,7.81302874 16.6666778,8.06084886 C16.6666854,8.06085647 16.666693,8.06086408 16.6666778,8.06089452 Z" id="Check-mark" fill="#636363"></path>
                        <path d="M12,3.87692308 C7.51384615,3.87692308 3.87692308,7.51384615 3.87692308,12 C3.87692308,16.4861538 7.51384615,20.1230769 12,20.1230769 C16.4861538,20.1230769 20.1230769,16.4861538 20.1230769,12 C20.1175385,7.51569231 16.4843077,3.88246154 12,3.87692308 M12,22.1538462 C6.39230769,22.1538462 1.84615385,17.6076923 1.84615385,12 C1.84615385,6.39230769 6.39230769,1.84615385 12,1.84615385 C17.6076923,1.84615385 22.1538462,6.39230769 22.1538462,12 C22.1916923,17.5698462 17.7073846,22.116 12.1366154,22.1538462 C12.0913846,22.1538462 12.0452308,22.1538462 12,22.1538462" id="check" fill="#636363"></path>
                    </g>
                </g>
            </g>
        </g>
    </g>
</svg>