<svg width="24" height="24" viewBox="0 0 24 24" fill="none" xmlns="http://www.w3.org/2000/svg">
<g clip-path="url(#clip0_501_21329)">
<path d="M19.7941 7.50667C21.4795 10.4267 21.3929 13.92 19.5676 17.08L17.2626 15.7467C18.6017 13.4267 18.6816 10.9133 17.4891 8.84C16.3633 6.88 14.2582 5.66667 11.9999 5.66667V8.66667L5.51801 4.33333L11.9999 0V3C15.2042 3 18.1886 4.72667 19.7941 7.50667ZM11.9999 18.3333C9.74155 18.3333 7.6431 17.12 6.51061 15.16C5.31816 13.0867 5.3981 10.5667 6.73711 8.25333L4.43215 6.92C2.60683 10.0867 2.52023 13.5733 4.20565 16.4933C5.81113 19.2733 8.79558 21 11.9999 21V24L18.4817 19.6667L11.9999 15.3333V18.3333Z" fill="#EFEFEF"/>
</g>
<defs>
<clipPath id="clip0_501_21329">
<rect width="18" height="24" fill="white" transform="translate(3)"/>
</clipPath>
</defs>
</svg>
