<?xml version="1.0" encoding="UTF-8"?>
<svg width="25px" height="26px" viewBox="0 0 25 26" version="1.1" xmlns="http://www.w3.org/2000/svg" xmlns:xlink="http://www.w3.org/1999/xlink">
    <title>ic_calling copy 8</title>
    <g id="Dispatcher_20221118_데모버젼" stroke="none" stroke-width="1" fill="none" fill-rule="evenodd">
        <g id="Main-&gt;--Message-&gt;-modal" transform="translate(-505.000000, -380.000000)">
            <g id="Group-15" transform="translate(413.000000, 339.000000)">
                <g id="Group-14" transform="translate(74.000000, 38.000000)">
                    <g id="ic_calling-copy-8" transform="translate(14.000000, 0.000000)">
                        <g id="Group">
                            <rect id="Rectangle" x="0" y="0" width="32" height="32"></rect>
                        </g>
                        <path d="M11.6646566,28.2015075 C10.5792295,28.2015075 9.49380235,27.8396985 8.64958124,26.9954774 C7.80536013,26.1512563 7.44355109,25.0658291 7.44355109,23.980402 C7.44355109,22.8949749 7.92596315,21.8095477 8.64958124,20.9653266 L19.8656616,9.74924623 L21.7953099,11.6788945 L10.5792295,22.8949749 C10.3380235,23.1361809 10.0968174,23.618593 10.0968174,23.980402 C10.0968174,24.4628141 10.2174204,24.8246231 10.5792295,25.0658291 C11.1822446,25.6688442 12.2676717,25.6688442 12.8706868,25.0658291 L24.0867672,13.8497487 C24.9309883,13.0055276 25.2927973,12.0407035 25.2927973,10.8346734 C25.2927973,9.74924623 24.8103853,8.6638191 24.0867672,7.81959799 C22.398325,6.13115578 19.7450586,6.13115578 18.0566164,7.81959799 L5.99631491,19.8798995 L4.06666667,17.9502513 L16.1269682,5.88994975 C18.7802345,3.23668342 23.2425461,3.23668342 26.0164154,5.88994975 C27.3430486,7.21658291 28.0666667,8.90502513 28.0666667,10.8346734 C28.0666667,12.6437186 27.3430486,14.4527638 26.0164154,15.779397 L14.800335,26.9954774 C13.8355109,27.7190955 12.7500838,28.2015075 11.6646566,28.2015075 Z" id="Attach" fill="#FFFFFF" fill-rule="nonzero"></path>
                    </g>
                </g>
            </g>
        </g>
    </g>
</svg>