<?xml version="1.0" encoding="UTF-8"?>
<svg width="24px" height="24px" viewBox="0 0 24 24" version="1.1" xmlns="http://www.w3.org/2000/svg" xmlns:xlink="http://www.w3.org/1999/xlink">
    <title>Group 3</title>
    <defs>
        <polygon id="path-1" points="0 0 16.3636364 0 16.3636364 14.7272727 0 14.7272727"></polygon>
        <polygon id="path-3" points="0 0 1.63636364 0 1.63636364 5.72727273 0 5.72727273"></polygon>
    </defs>
    <g id="Dispatcher_20221118" stroke="none" stroke-width="1" fill="none" fill-rule="evenodd">
        <g id="Group-5-Copy-8" transform="translate(-27.000000, -186.000000)">
            <g id="Group-3" transform="translate(27.000000, 186.000000)">
                <g id="Group">
                    <rect id="Rectangle" x="0" y="0" width="24" height="24"></rect>
                </g>
                <g id="Group-9" transform="translate(3.000000, 5.000000)">
                    <g id="Group-3" transform="translate(0.818182, 0.000000)">
                        <mask id="mask-2" fill="white">
                            <use xlink:href="#path-1"></use>
                        </mask>
                        <g id="Clip-2"></g>
                        <path d="M15.3367884,8.5764145 C15.3773784,8.2662446 15.397861,7.95272929 15.397861,7.63805524 C15.397861,7.27336825 15.3703446,6.90984001 15.3158182,6.55141398 C15.5649477,6.40451501 15.6996224,6.10772675 15.6271081,5.81312515 C15.2257287,4.1822288 14.2741335,2.70559506 12.9476437,1.65523 C12.2841924,1.1299073 11.5445506,0.720739454 10.7492569,0.439145704 C9.92637177,0.147740001 9.06255904,0 8.1818088,0 C7.2973447,0 6.43008069,0.148973503 5.60411944,0.442771455 C4.80588092,0.726701384 4.064082,1.13908381 3.39931777,1.66846212 C2.06933915,2.72759252 1.11997607,4.21469235 0.726136891,5.85577444 C0.655348251,6.1508059 0.791767377,6.44682789 1.04175969,6.59226909 C0.991284803,6.93748169 0.965775383,7.28731057 0.965775383,7.63805524 C0.965775383,7.95252371 0.986389245,8.26615115 1.02696048,8.57639581 L0,8.7207904 L0.850607855,14.7272765 L2.72819494,14.4632882 C3.08223193,14.4134995 3.32873545,14.0871819 3.27878576,13.7344188 L2.6090697,9.00539315 C2.55912001,8.65264871 2.23162407,8.40703213 1.87758709,8.4568021 L1.47217488,8.51380488 C1.43451097,8.22428681 1.41537891,7.93159154 1.41537891,7.63805524 C1.41537891,7.31541948 1.43844993,6.99368082 1.48395423,6.67609122 C1.7469451,6.63592762 1.9722533,6.44208078 2.03795881,6.16833659 C2.71962303,3.3278038 5.24608723,1.34393874 8.1818088,1.34393874 C11.1001802,1.34393874 13.6231181,3.31335686 14.3171432,6.13320045 C14.384443,6.4066456 14.6108766,6.59938977 14.8741864,6.63802084 C14.923367,6.96792678 14.9482575,7.30244902 14.9482575,7.63805524 C14.9482575,7.93175974 14.9292754,8.22436157 14.8916115,8.51382357 L14.4860493,8.4568021 C14.1320123,8.40703213 13.8045164,8.65264871 13.7545667,9.00539315 L13.0848506,13.7344188 C13.0349009,14.0871819 13.2814044,14.4134995 13.6354414,14.4632882 L15.5130285,14.7272765 L16.3636364,8.7207904 L15.3367884,8.5764145 Z" id="Fill-1" fill="#FFFFFF" mask="url(#mask-2)"></path>
                    </g>
                    <path d="M17.9995064,11.3326138 C17.9956134,11.0924555 17.9739643,10.8494888 17.9269142,10.6025049 C17.916257,10.5409263 17.9016893,10.478734 17.8882841,10.4167276 C17.8726771,10.3543679 17.8578979,10.2921384 17.8394372,10.2293323 C17.8038722,10.1039248 17.7620185,9.97751289 17.7120618,9.84983636 C17.6621052,9.72214122 17.6040632,9.59318141 17.5361566,9.46265935 C17.4663301,9.33182112 17.3912189,9.20014597 17.288452,9.06408166 L17.255811,9.02089667 C17.2484479,9.01113263 17.2379316,9.00393513 17.2254601,9.0011826 C17.1969939,8.99491501 17.1691091,9.01418273 17.1631728,9.04423739 L17.1287351,9.21842799 L17.0966226,9.39299055 L17.0325562,9.74215287 L16.9151687,10.4421513 L16.8858746,10.6171603 L16.8585182,10.7924853 L16.8041226,11.1431727 L16.7009152,11.8454216 L16.6044721,12.5487491 C16.5747553,12.7835884 16.5420087,13.0179255 16.5157268,13.2533041 L16.4332349,13.9588449 L16.3972999,14.3124521 L16.3794382,14.4892651 L16.3638663,14.66645 C16.3627566,14.6789666 16.3656455,14.6920039 16.3729205,14.7031442 C16.389426,14.7284749 16.422243,14.7348913 16.4462349,14.7174648 L16.4891103,14.6863128 C16.6244653,14.5879842 16.7322878,14.4853037 16.8351429,14.381842 C16.9359193,14.2780455 17.0269546,14.1727054 17.1099573,14.066082 C17.1929953,13.9594772 17.268036,13.8516077 17.3368585,13.742734 C17.371807,13.6883901 17.4034967,13.6335254 17.4355387,13.5787166 C17.4655726,13.5236101 17.4970157,13.4686897 17.5242135,13.4131183 C17.6376729,13.1915768 17.726929,12.9661854 17.7974955,12.7378182 C17.8680971,12.5094697 17.9195511,12.2780897 17.9533722,12.04392 C17.987528,11.8097874 18.003047,11.5727164 17.9995064,11.3326138" id="Fill-4" fill="#FFFFFF"></path>
                    <g id="Group-8" transform="translate(0.000000, 9.000000)">
                        <mask id="mask-4" fill="white">
                            <use xlink:href="#path-3"></use>
                        </mask>
                        <g id="Clip-7"></g>
                        <path d="M1.6026829,5.31245379 L1.56674815,4.95884561 L1.48425676,4.25330309 C1.45799268,4.01792387 1.42522864,3.78358615 1.39552963,3.54874628 L1.29906948,2.84541695 L1.19586276,2.14316633 L1.1414674,1.79247807 L1.11411119,1.61715254 L1.08481732,1.44214318 L0.967430468,0.742142936 L0.903364441,0.392979735 L0.87125216,0.218416733 L0.836814689,0.0442256948 C0.834401424,0.0320066566 0.828077612,0.0205129494 0.81810748,0.0121251469 C0.795366419,-0.00701243345 0.762267693,-0.00306960833 0.744141782,0.0209407087 L0.711553894,0.064070008 C0.608787548,0.200134671 0.53367687,0.331810151 0.463850714,0.462648711 C0.395944601,0.5931711 0.337902931,0.722149837 0.287946579,0.849826697 C0.237990227,0.977522156 0.19613681,1.10391574 0.160571974,1.22932361 C0.142093761,1.29212984 0.127314713,1.35435953 0.111725372,1.4167194 C0.0983026855,1.4787259 0.0837350188,1.54091839 0.0730778986,1.60249713 C0.0260280343,1.84948165 0.00437910755,2.09246755 0.000486176059,2.33260791 C-0.00303683887,2.57271108 0.0124820419,2.80978274 0.0466200565,3.04391588 C0.0804586149,3.27808622 0.131894633,3.50948541 0.202513467,3.7378345 C0.273061841,3.96618359 0.362317424,4.19157556 0.475793735,4.41313629 C0.502973795,4.46870781 0.534416703,4.52360979 0.56446802,4.57873495 C0.596509841,4.63352534 0.628181745,4.68839012 0.663130053,4.74273416 C0.731969765,4.8516082 0.806992368,4.95947795 0.89002983,5.06608301 C0.973049676,5.17270667 1.06408438,5.27804706 1.16484261,5.38184379 C1.26771464,5.48530575 1.3755189,5.58798659 1.51087313,5.68631544 L1.55380107,5.71750467 C1.56361267,5.7246092 1.57573184,5.72829165 1.58850277,5.72702697 C1.61749718,5.72420004 1.63882904,5.69706522 1.63613393,5.66645253 L1.6205622,5.48926717 L1.6026829,5.31245379 Z" id="Fill-6" fill="#FFFFFF" mask="url(#mask-4)"></path>
                    </g>
                </g>
            </g>
        </g>
    </g>
</svg>