<svg width="14" height="14" viewBox="0 0 14 14" fill="none" xmlns="http://www.w3.org/2000/svg">
<path d="M13.848 0.886971C13.9453 0.98431 14 1.11631 14 1.25395C14 1.39159 13.9453 1.52359 13.848 1.62093L8.46843 7.00052L13.848 12.3801C13.9453 12.4774 14 12.6094 14 12.7471C14 12.8847 13.9453 13.0167 13.848 13.1141L13.1141 13.848C13.0167 13.9453 12.8847 14 12.7471 14C12.6094 14 12.4774 13.9453 12.3801 13.848L7.00052 8.46843L1.62093 13.848C1.52359 13.9453 1.39159 14 1.25395 14C1.11631 14 0.98431 13.9453 0.886971 13.848L0.153013 13.1141C0.0557037 13.0167 0.00103813 12.8847 0.00103813 12.7471C0.00103813 12.6094 0.0557037 12.4774 0.153013 12.3801L5.53157 7.00052L0.151975 1.62093C0.0546655 1.52359 0 1.39159 0 1.25395C0 1.11631 0.0546655 0.98431 0.151975 0.886971L0.886971 0.151975C0.98431 0.0546655 1.11631 0 1.25395 0C1.39159 0 1.52359 0.0546655 1.62093 0.151975L7.00052 5.53157L12.3801 0.151975C12.4774 0.0546655 12.6094 0 12.7471 0C12.8847 0 13.0167 0.0546655 13.1141 0.151975L13.848 0.886971Z" fill="#9B9FA4"/>
</svg>
