<svg width="32" height="32" viewBox="0 0 32 32" fill="none" xmlns="http://www.w3.org/2000/svg">
<g clip-path="url(#clip0_501_11002)">
<path d="M25.0136 15.7077C25.0136 13.681 23.8677 11.9147 22.1733 10.9741V20.444C23.8677 19.5034 25.0136 17.7371 25.0136 15.7105V15.7077Z" fill="white"/>
<path d="M5.06564 20.9313C5.08873 20.9313 5.11471 20.9341 5.1378 20.9341H6.37607V25.6649C6.37607 26.3983 6.99088 26.9945 7.75 26.9945H9.57421C10.3276 26.9945 10.9453 26.3983 10.9453 25.6509L10.876 21.1273L17.4079 23.1875V8.03516L9.90614 10.6385H5.1378C5.11471 10.6385 5.09739 10.6385 5.07142 10.6385C2.26871 10.7084 0 13.0066 0 15.7863C0 18.5659 2.26583 20.8641 5.06564 20.9341V20.9313Z" fill="white"/>
<path d="M19.792 25.7207C20.629 25.7207 21.3073 24.9901 21.3073 24.0944V7.62637C21.3073 6.73061 20.6261 6 19.792 6C18.9578 6 18.2766 6.73061 18.2766 7.62637V24.0944C18.2766 24.9901 18.9549 25.7207 19.792 25.7207Z" fill="white"/>
<path d="M25.6256 12.4297C25.7353 12.4297 25.8507 12.4073 25.9575 12.3597L29.0633 11.0049C29.4732 10.8285 29.655 10.361 29.4732 9.96633C29.2884 9.56884 28.8093 9.39248 28.3994 9.56884L25.2908 10.9209C24.8838 11.1 24.699 11.5647 24.8838 11.9622C25.0194 12.2533 25.3139 12.4269 25.6256 12.4269V12.4297Z" fill="white"/>
<path d="M30.9999 15.6572C30.971 15.2401 30.5987 14.9294 30.1744 14.9518L26.5433 15.1758C26.1132 15.201 25.7899 15.5593 25.8159 15.9735C25.8419 16.3738 26.1825 16.679 26.5924 16.679H26.6443L30.2754 16.4522C30.7055 16.427 31.0288 16.0687 31.0028 15.6544L30.9999 15.6572Z" fill="white"/>
<path d="M25.0424 20.1559L27.3255 22.4317C27.4843 22.5885 27.6921 22.6696 27.9086 22.6696C28.1106 22.6696 28.3155 22.5968 28.4743 22.4457C28.7976 22.1434 28.8033 21.6451 28.4916 21.3344L26.2085 19.0558C25.8967 18.7451 25.383 18.7395 25.0626 19.0418C24.7422 19.3469 24.7335 19.8452 25.0481 20.1559H25.0424Z" fill="white"/>
</g>
<defs>
<clipPath id="clip0_501_11002">
<rect width="31" height="21" fill="white" transform="translate(0 6)"/>
</clipPath>
</defs>
</svg>
