<svg width="68" height="69" viewBox="0 0 68 69" fill="none" xmlns="http://www.w3.org/2000/svg">
<g filter="url(#filter0_d_344_64525)">
<path d="M64.5294 33.3203C64.5294 50.3452 50.7538 64.1435 33.7647 64.1435C16.7756 64.1435 3 50.3452 3 33.3203C3 16.2954 16.7756 2.49707 33.7647 2.49707C50.7538 2.49707 64.5294 16.2954 64.5294 33.3203Z" fill="#343434" stroke="#6191AE" stroke-width="2" stroke-miterlimit="10"/>
</g>
<path d="M47.3206 26.9247C47.1296 26.9272 46.9427 26.9808 46.7793 27.0798L41.525 30.0733V26.0614C41.518 25.5102 41.2932 24.9842 40.8999 24.598C40.5065 24.2119 39.9764 23.9969 39.4252 24H22.2764C21.7251 23.9969 21.195 24.2119 20.8017 24.598C20.4083 24.9842 20.1836 25.5102 20.1765 26.0614V39.441C20.1839 39.9917 20.4088 40.5172 20.8022 40.9028C21.1956 41.2883 21.7256 41.5026 22.2764 41.4988H39.4252C39.976 41.5026 40.5059 41.2883 40.8993 40.9028C41.2927 40.5172 41.5177 39.9917 41.525 39.441V35.4186L46.7747 38.3957C46.9424 38.5122 47.1409 38.5764 47.3451 38.58C47.4612 38.5776 47.5756 38.5513 47.6812 38.5029C47.7868 38.4545 47.8813 38.385 47.9589 38.2986C48.0365 38.2123 48.0956 38.1109 48.1325 38.0008C48.1694 37.8906 48.1833 37.7741 48.1734 37.6584V27.8591C48.183 27.7408 48.1682 27.6218 48.1298 27.5095C48.0914 27.3972 48.0303 27.294 47.9503 27.2063C47.8703 27.1187 47.7731 27.0484 47.6648 27C47.5565 26.9515 47.4393 26.9259 47.3206 26.9247Z" fill="#6191AE"/>
<defs>
<filter id="filter0_d_344_64525" x="0" y="0.49707" width="67.5293" height="67.6465" filterUnits="userSpaceOnUse" color-interpolation-filters="sRGB">
<feFlood flood-opacity="0" result="BackgroundImageFix"/>
<feColorMatrix in="SourceAlpha" type="matrix" values="0 0 0 0 0 0 0 0 0 0 0 0 0 0 0 0 0 0 127 0" result="hardAlpha"/>
<feOffset dy="1"/>
<feGaussianBlur stdDeviation="1"/>
<feColorMatrix type="matrix" values="0 0 0 0 0 0 0 0 0 0 0 0 0 0 0 0 0 0 0.502 0"/>
<feBlend mode="normal" in2="BackgroundImageFix" result="effect1_dropShadow_344_64525"/>
<feBlend mode="normal" in="SourceGraphic" in2="effect1_dropShadow_344_64525" result="shape"/>
</filter>
</defs>
</svg>
