<svg width="64" height="64" viewBox="0 0 64 64" fill="none" xmlns="http://www.w3.org/2000/svg">
<g clip-path="url(#clip0_499_9210)">
<path d="M36.619 39.6497H34.1782C33.9952 44.2851 30.1753 47.9959 25.5011 47.9959C20.8269 47.9959 16.8158 44.0937 16.8158 39.2994V26.8513C14.6028 26.1222 13 24.0326 13 21.5642C13 18.4929 15.4896 16 18.5569 16C21.6242 16 24.1139 18.4929 24.1139 21.5642C24.1139 24.0285 22.5111 26.1181 20.294 26.8513V39.3035C20.294 42.1792 22.6331 44.5214 25.5052 44.5214C28.3772 44.5214 30.7163 42.1833 30.7163 39.3035V34.7821L36.6231 39.6497H36.619ZM20.6438 21.5642C20.6438 20.4114 19.7123 19.4786 18.561 19.4786C17.4098 19.4786 16.4782 20.4114 16.4782 21.5642C16.4782 22.7169 17.4098 23.6497 18.561 23.6497C19.7123 23.6497 20.6438 22.7169 20.6438 21.5642Z" fill="yellow"/>
</g>
<defs>
<clipPath id="clip0_499_9210">
<rect width="23.619" height="32" fill="white" transform="translate(13 16)"/>
</clipPath>
</defs>
</svg>
