<?xml version="1.0" encoding="UTF-8"?>
<svg width="36px" height="36px" viewBox="0 0 36 36" version="1.1" xmlns="http://www.w3.org/2000/svg" xmlns:xlink="http://www.w3.org/1999/xlink">
    <title>Call type / Top / Group Copy 2</title>
    <g id="v0.1-1108-2022-chaewon.min-&gt;-1111-전달받음-" stroke="none" stroke-width="1" fill="none" fill-rule="evenodd">
        <g id="Channel-Information" transform="translate(-58.000000, -437.000000)" fill-rule="nonzero">
            <g id="Call-type-/-Top-/-Group-Copy-2" transform="translate(58.000000, 437.000000)">
                <g id="Group" transform="translate(0.000000, 0.000000)">
                    <path d="M25,14 C31.0751322,14 36,18.9248678 36,25 C36,31.0751322 31.0751322,36 25,36 C18.9248678,36 14,31.0751322 14,25 C14,18.9248678 18.9248678,14 25,14 Z" id="Combined-Shape-path" fill="#54595F"></path>
                    <path d="M11,0 C17.0751322,0 22,4.92486775 22,11 C22,11.4639004 21.9712834,11.9210937 21.9155309,12.3698992 C17.2131687,13.5129762 13.5129762,17.2131687 12.3684991,21.913961 C11.9210937,21.9712834 11.4639004,22 11,22 C4.92486775,22 0,17.0751322 0,11 C0,4.92486775 4.92486775,0 11,0 Z" id="Combined-Shape-path" fill="#54595F"></path>
                    <g id="Common/group" transform="translate(5.837989, 6.285000)" fill="#FFFFFF">
                        <path d="M7.1925,4.2525 C8.00435858,4.2525 8.6625,3.59435858 8.6625,2.7825 C8.6625,1.97064142 8.00435858,1.3125 7.1925,1.3125 C6.38064142,1.3125 5.7225,1.97064142 5.7225,2.7825 C5.7225,3.59435858 6.38064142,4.2525 7.1925,4.2525 Z M7.035,5.04 C6.7725,5.04 6.51,5.0925 6.2475,5.145 C6.825,5.775 7.1925,6.615 7.1925,7.455 L7.1925,9.03 L9.44522727,9.03 C9.70881772,9.03 9.9225,8.81631772 9.9225,8.55272727 C9.9225,8.22181818 9.9225,7.89090909 9.9225,7.56 C9.975,6.2475 8.6625,5.04 7.035,5.04 Z M6.195,7.455 C6.195,6.0375 4.7775,4.7775 3.0975,4.7775 C1.4175,4.7775 0,6.09 0,7.455 C0,7.82090909 0,8.18681818 0,8.55272727 C2.66395868e-16,8.81631772 0.213682278,9.03 0.477272727,9.03 L5.75026245,9.03 C6.0138527,9.02967387 6.22727073,8.81572767 6.22694496,8.55213742 C6.22693582,8.54473961 6.22675467,8.53734301 6.22656461,8.52994583 C6.20552154,8.00328598 6.195,7.6449707 6.195,7.455 Z M3.045,3.78 C4.08881818,3.78 4.935,2.93381818 4.935,1.89 C4.935,0.846181823 4.08881818,0 3.045,0 C2.00118182,0 1.155,0.846181823 1.155,1.89 C1.155,2.93381818 2.00118182,3.78 3.045,3.78 Z" id="Group"></path>
                    </g>
                    <g id="Common/group" transform="translate(20.237989, 20.685000)" fill="#FFFFFF">
                        <path d="M7.1925,4.2525 C8.00435858,4.2525 8.6625,3.59435858 8.6625,2.7825 C8.6625,1.97064142 8.00435858,1.3125 7.1925,1.3125 C6.38064142,1.3125 5.7225,1.97064142 5.7225,2.7825 C5.7225,3.59435858 6.38064142,4.2525 7.1925,4.2525 Z M7.035,5.04 C6.7725,5.04 6.51,5.0925 6.2475,5.145 C6.825,5.775 7.1925,6.615 7.1925,7.455 L7.1925,9.03 L9.44522727,9.03 C9.70881772,9.03 9.9225,8.81631772 9.9225,8.55272727 C9.9225,8.22181818 9.9225,7.89090909 9.9225,7.56 C9.975,6.2475 8.6625,5.04 7.035,5.04 Z M6.195,7.455 C6.195,6.0375 4.7775,4.7775 3.0975,4.7775 C1.4175,4.7775 0,6.09 0,7.455 C0,7.82090909 0,8.18681818 0,8.55272727 C2.66395868e-16,8.81631772 0.213682278,9.03 0.477272727,9.03 L5.75026245,9.03 C6.0138527,9.02967387 6.22727073,8.81572767 6.22694496,8.55213742 C6.22693582,8.54473961 6.22675467,8.53734301 6.22656461,8.52994583 C6.20552154,8.00328598 6.195,7.6449707 6.195,7.455 Z M3.045,3.78 C4.08881818,3.78 4.935,2.93381818 4.935,1.89 C4.935,0.846181823 4.08881818,0 3.045,0 C2.00118182,0 1.155,0.846181823 1.155,1.89 C1.155,2.93381818 2.00118182,3.78 3.045,3.78 Z" id="Group"></path>
                    </g>
                </g>
            </g>
        </g>
    </g>
</svg>