<?xml version="1.0" encoding="UTF-8"?>
<svg width="12px" height="9px" viewBox="0 0 12 9" version="1.1" xmlns="http://www.w3.org/2000/svg" xmlns:xlink="http://www.w3.org/1999/xlink">
    <title>ic_call_incoming copy 2</title>
    <g id="Dispatcher_20221118" stroke="none" stroke-width="1" fill="none" fill-rule="evenodd">
        <g id="Channel-Information" transform="translate(-952.000000, -731.000000)">
            <g id="ic_call_incoming-copy-2" transform="translate(950.000000, 727.000000)">
                <rect id="icon_area" fill="#3BA4FF" fill-rule="nonzero" opacity="0" transform="translate(8.000000, 8.000000) scale(-1, -1) translate(-8.000000, -8.000000) " x="0" y="0" width="16" height="16"></rect>
                <g id="waiting" transform="translate(2.000000, 4.000000)" fill="#434547">
                    <path d="M0.518988858,5.35158632 C0.232358931,5.35158632 0,5.12072518 0,4.83594286 L0,3.90812388 C0,3.6232523 0.232358931,3.39239116 0.518988858,3.39239116 C0.805618785,3.39239116 1.03797772,3.6232523 1.03797772,3.90812388 L1.03797772,4.83594286 C1.03797772,5.12072518 0.805618785,5.35158632 0.518988858,5.35158632" id="Fill-1"></path>
                    <path d="M2.31604169,6.59230875 C2.02941176,6.59230875 1.79705283,6.3614476 1.79705283,6.07666529 L1.79705283,2.56893284 C1.79705283,2.2842398 2.02941176,2.05328938 2.31604169,2.05328938 C2.60267162,2.05328938 2.83503055,2.2842398 2.83503055,2.56893284 L2.83503055,6.07666529 C2.83503055,6.3614476 2.60267162,6.59230875 2.31604169,6.59230875" id="Fill-3"></path>
                    <path d="M4.11309452,7.67412443 C3.8264646,7.67412443 3.59410567,7.44326329 3.59410567,7.15848098 L3.59410567,1.58692487 C3.59410567,1.30214256 3.8264646,1.07128142 4.11309452,1.07128142 C4.39972445,1.07128142 4.63208338,1.30214256 4.63208338,1.58692487 L4.63208338,7.15848098 C4.63208338,7.44326329 4.39972445,7.67412443 4.11309452,7.67412443" id="Fill-5"></path>
                    <path d="M6.08985264,8.66666667 C5.80322271,8.66666667 5.57086378,8.43580552 5.57086378,8.15102321 L5.57086378,0.515643456 C5.57086378,0.230861145 5.80322271,0 6.08985264,0 C6.37648257,0 6.6088415,0.230861145 6.6088415,0.515643456 L6.6088415,8.15102321 C6.6088415,8.43580552 6.37648257,8.66666667 6.08985264,8.66666667" id="Fill-7"></path>
                    <path d="M7.36791662,6.34448565 L7.36791662,2.30111248 C7.36791662,2.01641945 7.60027555,1.78546903 7.88690548,1.78546903 C8.1735354,1.78546903 8.40589433,2.01641945 8.40589433,2.30111248 L8.40589433,6.34448565 C8.40589433,6.62926796 8.1735354,6.8601291 7.88690548,6.8601291 C7.60027555,6.8601291 7.36791662,6.62926796 7.36791662,6.34448565 Z" id="Fill-9"></path>
                    <path d="M9.68395831,5.59967724 C9.39732838,5.59967724 9.16496945,5.3688161 9.16496945,5.08403379 L9.16496945,3.64021426 C9.16496945,3.35543195 9.39732838,3.1245708 9.68395831,3.1245708 C9.97058824,3.1245708 10.2029472,3.35543195 10.2029472,3.64021426 L10.2029472,5.08403379 C10.2029472,5.3688161 9.97058824,5.59967724 9.68395831,5.59967724" id="Fill-11"></path>
                    <path d="M10.9620223,5.73010575 L10.9620223,3.0153001 C10.9620223,2.73051779 11.1943812,2.49965664 11.4810111,2.49965664 C11.7676411,2.49965664 12,2.73051779 12,3.0153001 L12,5.73010575 C12,6.01488806 11.7676411,6.24574921 11.4810111,6.24574921 C11.1943812,6.24574921 10.9620223,6.01488806 10.9620223,5.73010575 Z" id="Fill-15"></path>
                </g>
            </g>
        </g>
    </g>
</svg>