<svg width="48" height="48" viewBox="0 0 48 48" fill="none" xmlns="http://www.w3.org/2000/svg">
<path d="M11.3877 37.0418C11.3877 38.2591 12.3836 39.2635 13.6093 39.2635H33.3997C34.6169 39.2635 35.6213 38.2676 35.6213 37.0418V14.627H11.3877V37.0418ZM29.4246 18.9766C29.4246 18.2105 30.046 17.5891 30.812 17.5891C31.5781 17.5891 32.1995 18.2105 32.1995 18.9766V34.6415C32.1995 35.4075 31.5781 36.0289 30.812 36.0289C30.046 36.0289 29.4246 35.4075 29.4246 34.6415V18.9766ZM22.1213 18.9766C22.1213 18.2105 22.7427 17.5891 23.5088 17.5891C24.2748 17.5891 24.8962 18.2105 24.8962 18.9766V34.6415C24.8962 35.4075 24.2748 36.0289 23.5088 36.0289C22.7427 36.0289 22.1213 35.4075 22.1213 34.6415V18.9766ZM14.818 18.9766C14.818 18.2105 15.4394 17.5891 16.2055 17.5891C16.9716 17.5891 17.5929 18.2105 17.5929 18.9766V34.6415C17.5929 35.4075 16.9716 36.0289 16.2055 36.0289C15.4394 36.0289 14.818 35.4075 14.818 34.6415V18.9766Z" fill="white"/>
<path d="M34.7869 10.0047H29.203L28.6242 7.53625C28.5476 7.22131 28.2667 7 27.9518 7H19.0653C18.7418 7 18.4609 7.22131 18.3928 7.53625L17.814 10.0047H12.2216C11.0044 10.0047 10 11.0006 10 12.2264V13.7074H37V12.2264C37 11.0091 36.0041 10.0047 34.7784 10.0047H34.7869ZM19.2355 10.0047L19.6185 8.38745H27.3985L27.7815 10.0047H19.2355Z" fill="white"/>
</svg>
