<svg width="48" height="48" viewBox="0 0 48 48" fill="none" xmlns="http://www.w3.org/2000/svg">
    <g clip-path="url(#ki1iw0759a)" fill="#fff">
        <path d="M42.42 42.667c-.494-2.566-2.1-4.59-3.585-4.59H9.17c-1.487 0-3.092 2.024-3.584 4.59l-.423 2.2H42.84l-.42-2.2zM36.83 23.202a12.831 12.831 0 0 0-25.66 0v13.335h25.67V23.202h-.01zM23.793 7.273a1.128 1.128 0 0 1-1.134-1.121V3.634a1.134 1.134 0 0 1 2.267 0v2.518a1.127 1.127 0 0 1-1.133 1.121zM34.757 11.596a1.112 1.112 0 0 1 0-1.586l1.8-1.78a1.142 1.142 0 0 1 1.6 0 1.114 1.114 0 0 1 0 1.586l-1.8 1.78a1.142 1.142 0 0 1-1.6 0zM39.42 22.324a1.128 1.128 0 0 1 1.133-1.122h2.544a1.123 1.123 0 1 1 0 2.243h-2.544a1.128 1.128 0 0 1-1.133-1.12zM8.581 22.735a1.128 1.128 0 0 1-1.134 1.122H4.903a1.122 1.122 0 0 1 0-2.243h2.545a1.128 1.128 0 0 1 1.133 1.12zM12.95 11.887a1.142 1.142 0 0 1-1.6 0l-1.8-1.78a1.114 1.114 0 0 1 0-1.586 1.142 1.142 0 0 1 1.6 0l1.8 1.78a1.112 1.112 0 0 1 0 1.586z"/>
    </g>
    <defs>
        <clipPath id="ki1iw0759a">
            <path fill="#fff" d="M0 0h48v48H0z"/>
        </clipPath>
    </defs>
</svg>
