<svg width="10" height="10" viewBox="0 0 10 10" xmlns="http://www.w3.org/2000/svg">
    <path d="m2.57 3.453.883.884-1.547 1.547a1.563 1.563 0 0 0-.07 2.135l.07.075c.586.585 1.521.609 2.135.07l.075-.07 1.547-1.547.884.884L5 8.977a2.813 2.813 0 0 1-3.882.092l-.095-.092A2.813 2.813 0 0 1 .93 5.096L1.023 5l1.546-1.547zM5 1.023a2.812 2.812 0 0 1 4.069 3.881L8.977 5 7.431 6.547l-.884-.884 1.547-1.547c.585-.586.609-1.52.07-2.135l-.07-.075a1.563 1.563 0 0 0-2.135-.07l-.075.07-1.547 1.547-.884-.884L5 1.023zM6.326 2.79l.884.884L3.674 7.21l-.884-.884L6.326 2.79z" fill="#FFF" fill-rule="evenodd"/>
</svg>
