<?xml version="1.0" encoding="UTF-8"?>
<svg width="16px" height="16px" viewBox="0 0 16 16" version="1.1" xmlns="http://www.w3.org/2000/svg" xmlns:xlink="http://www.w3.org/1999/xlink">
    <title>btn_filter</title>
    <g id="Dispatcher_20221118" stroke="none" stroke-width="1" fill="none" fill-rule="evenodd">
        <g id="Main-&gt;-GIS" transform="translate(-998.000000, -92.000000)" fill="#9A9A9A">
            <g id="Group" transform="translate(970.000000, 90.000000)">
                <g id="Group-4" transform="translate(26.000000, 0.000000)">
                    <g id="Basic-/-mosaic-view" transform="translate(2.125000, 2.125000)">
                        <path d="M1.25,0 L5.640625,0 C6.33098094,-1.26816328e-16 6.890625,0.559644063 6.890625,1.25 L6.890625,5.640625 C6.890625,6.33098094 6.33098094,6.890625 5.640625,6.890625 L1.25,6.890625 C0.559644063,6.890625 8.45442189e-17,6.33098094 0,5.640625 L0,1.25 C-8.45442189e-17,0.559644063 0.559644063,1.26816328e-16 1.25,0 Z M1.25,8.859375 L5.640625,8.859375 C6.33098094,8.859375 6.890625,9.41901906 6.890625,10.109375 L6.890625,14.5 C6.890625,15.1903559 6.33098094,15.75 5.640625,15.75 L1.25,15.75 C0.559644063,15.75 8.45442189e-17,15.1903559 0,14.5 L0,10.109375 C-8.45442189e-17,9.41901906 0.559644063,8.859375 1.25,8.859375 Z M10.109375,0 L14.5,0 C15.1903559,-1.26816328e-16 15.75,0.559644063 15.75,1.25 L15.75,5.640625 C15.75,6.33098094 15.1903559,6.890625 14.5,6.890625 L10.109375,6.890625 C9.41901906,6.890625 8.859375,6.33098094 8.859375,5.640625 L8.859375,1.25 C8.859375,0.559644063 9.41901906,1.26816328e-16 10.109375,0 Z M10.109375,8.859375 L14.5,8.859375 C15.1903559,8.859375 15.75,9.41901906 15.75,10.109375 L15.75,14.5 C15.75,15.1903559 15.1903559,15.75 14.5,15.75 L10.109375,15.75 C9.41901906,15.75 8.859375,15.1903559 8.859375,14.5 L8.859375,10.109375 C8.859375,9.41901906 9.41901906,8.859375 10.109375,8.859375 Z" id="Icon-color"></path>
                    </g>
                </g>
            </g>
        </g>
    </g>
</svg>