<?xml version="1.0" encoding="UTF-8"?>
<svg width="24px" height="24px" viewBox="0 0 24 24" version="1.1" xmlns="http://www.w3.org/2000/svg" xmlns:xlink="http://www.w3.org/1999/xlink">
    <title>Group</title>
    <g id="Symbols" stroke="none" stroke-width="1" fill="none" fill-rule="evenodd">
        <g id="Group">
            <rect id="Rectangle-Copy-19" fill-opacity="0" fill="#D8D8D8" x="0" y="0" width="24" height="24"></rect>
            <path d="M12.0701244,17.7514697 L6.94196059,20.621996 C6.77454754,20.7157067 6.56286495,20.6559591 6.4691543,20.488546 C6.42877737,20.4164131 6.41544658,20.3322457 6.43155701,20.2511661 L7.57690002,14.4869511 L3.26217747,10.4968189 C3.12131987,10.3665578 3.1127297,10.1467726 3.24299079,10.005915 C3.29911612,9.945224 3.37504456,9.90653653 3.45713429,9.89680348 L9.29315902,9.204849 L11.7546777,3.86828534 C11.8350359,3.69406891 12.0414095,3.61798183 12.2156259,3.6983401 C12.2906902,3.7329639 12.3509474,3.79322105 12.3855712,3.86828534 L14.8470898,9.204849 L20.6831145,9.89680348 C20.8736363,9.91939289 21.0097723,10.0921536 20.9871829,10.2826754 C20.9774499,10.3647651 20.9387624,10.4406935 20.8780713,10.4968189 L16.5633488,14.4869511 L17.7086918,20.2511661 C17.7460825,20.4393436 17.6238456,20.6222026 17.4356681,20.6595933 C17.3545885,20.6757037 17.2704212,20.6623729 17.1982882,20.621996 L12.0701244,17.7514697 Z" id="Star-Copy-2" fill="#FFC300"></path>
        </g>
    </g>
</svg>