<?xml version="1.0" encoding="UTF-8"?>
<svg width="20px" height="19px" viewBox="0 0 20 19" version="1.1" xmlns="http://www.w3.org/2000/svg" xmlns:xlink="http://www.w3.org/1999/xlink">
    <title>ic_calling copy 9</title>
    <g id="Dispatcher_20221118_demo" stroke="none" stroke-width="1" fill="none" fill-rule="evenodd">
        <g id="Main-&gt;-GIS-&gt;-Information-Modal" transform="translate(-466.000000, -375.000000)">
            <g id="Group-9" transform="translate(440.000000, 152.000000)">
                <g id="Group-7-Copy" transform="translate(0.000000, 208.000000)">
                    <g id="Group-2" transform="translate(24.000000, 12.000000)">
                        <g id="Group-3">
                            <rect id="Rectangle" x="0" y="0" width="24" height="24"></rect>
                        </g>
                        <g id="Group" transform="translate(2.000000, 3.000000)" fill="#FFFFFF">
                            <path d="M19.2411045,14.0072537 L19.2411045,14.2727702 C19.2411045,15.504239 18.2334685,16.5061225 16.9948189,16.5061225 L4.87547453,16.5070121 C4.54736476,17.505077 3.60774588,18.2256501 2.50005788,18.2256501 C1.11944618,18.2256501 0,17.1064354 0,15.7257079 C0,14.3449805 1.11944618,13.2256501 2.50005788,13.2256501 C3.63444156,13.2256501 4.59255745,13.981452 4.89812547,15.0170326 L16.9948189,15.0172507 C17.4076124,15.0172507 17.7435508,14.6832598 17.7435508,14.2727702 L17.7435508,14.0072537 C17.7435508,13.5967641 17.4076124,13.2627732 16.9948189,13.2627732 L16.0561384,13.2634963 C16.4375072,12.8685115 16.8961785,12.3756448 17.3874987,11.8097458 C18.439849,11.9935393 19.2411045,12.9091153 19.2411045,14.0072537 Z M10.1027999,8.50551389 C10.4345552,9.02019702 10.7863487,9.51947475 11.1431418,9.99497871 L5.61214105,9.99499428 C5.19925782,9.99499428 4.86331938,10.3289852 4.86331938,10.7393856 L4.86331938,11.0294209 C4.86331938,11.4399997 5.19925782,11.7739014 5.61214105,11.7739014 L12.5822173,11.7745024 C13.0851005,12.3551939 13.5549301,12.8603336 13.9442183,13.2634963 L5.61214105,13.2627732 C4.37340169,13.2627732 3.36576574,12.2609789 3.36576574,11.0294209 L3.36576574,10.7393856 C3.36576574,9.50800597 4.37340169,8.50612248 5.61214105,8.50612248 Z" id="Combined-Shape"></path>
                            <g id="Group-Copy-3" transform="translate(15.000000, 6.500000) scale(-1, 1) translate(-15.000000, -6.500000) translate(10.000000, 0.000000)" fill-rule="nonzero">
                                <path d="M4.99985,0 C3.6738,0 2.4020775,0.509955636 1.4644225,1.41768523 C0.5267675,2.32541483 0,3.55655012 0,4.84027903 C0,8.43606079 4.99985,13 4.99985,13 C4.99985,13 10,8.43606079 10,4.84027903 C10,4.20461032 9.870675,3.57518575 9.619375,2.98792128 C9.3681,2.40064955 8.999775,1.86704844 8.535475,1.41758359 C8.07115,0.968118732 7.51995,0.611592444 6.9133,0.368361125 C6.30665,0.125131985 5.656475,0 4.99985,0 M4.99985,7.10845343 C4.47995,7.10845343 3.971725,6.95919895 3.539425,6.67956764 C3.10715,6.39996053 2.770225,6.0025133 2.57125,5.53751794 C2.3723025,5.07249838 2.320245,4.56084134 2.421675,4.06719067 C2.5231,3.57356421 2.77345,3.12011327 3.1411,2.76422107 C3.508725,2.40832404 3.9771,2.16595674 4.487025,2.06776631 C4.996925,1.96957347 5.525475,2.01996954 6.0058,2.2125797 C6.486125,2.40518745 6.896675,2.73135459 7.185525,3.14985767 C7.474375,3.56833655 7.62855,4.06034147 7.62855,4.56364879 C7.62855,4.89785588 7.56055,5.22877148 7.42845,5.53751794 C7.29635,5.8462644 7.1027,6.12679119 6.858625,6.3631007 C6.614525,6.59941021 6.324725,6.78685564 6.0058,6.91473965 C5.686875,7.04262366 5.34505,7.10845343 4.99985,7.10845343 Z" id="Shape"></path>
                            </g>
                        </g>
                    </g>
                </g>
            </g>
        </g>
    </g>
</svg>