<?xml version="1.0" encoding="UTF-8"?>
<svg width="9px" height="16px" viewBox="0 0 9 16" version="1.1" xmlns="http://www.w3.org/2000/svg" xmlns:xlink="http://www.w3.org/1999/xlink">
    <title>arrow</title>
    <g id="Dispatcher_20221118" stroke="none" stroke-width="1" fill="none" fill-rule="evenodd">
        <g id="Main-&gt;-GIS-&gt;-Add-Geofence-(Polygon)" transform="translate(-4.000000, -405.000000)" fill="#FFFFFF">
            <g id="Group-13" transform="translate(0.000000, 72.000000)">
                <path d="M11.108434,348.177434 L4.25143404,341.320434 C4.09046408,341.159845 4,340.941811 4,340.714434 C4,340.487057 4.09046408,340.269023 4.25143404,340.108434 L11.108434,333.251434 C11.2690231,333.090464 11.4870573,333 11.714434,333 C11.9418108,333 12.159845,333.090464 12.320434,333.251434 C12.481404,333.412023 12.5718681,333.630057 12.5718681,333.857434 C12.5718681,334.084811 12.481404,334.302845 12.320434,334.463434 L6.06943404,340.714434 L12.320434,346.965434 C12.4811585,347.126153 12.571453,347.344139 12.571453,347.571434 C12.571453,347.798729 12.4811585,348.016715 12.320434,348.177434 C12.1598363,348.338338 11.9417703,348.428659 11.714434,348.428435 C11.4870978,348.428659 11.2690318,348.338338 11.108434,348.177434 Z" id="arrow" transform="translate(8.285934, 340.714217) scale(-1, -1) translate(-8.285934, -340.714217) "></path>
            </g>
        </g>
    </g>
</svg>