<svg width="24" height="23" viewBox="0 0 24 23" xmlns="http://www.w3.org/2000/svg">
    <path d="M19.749 0H4.25C1.903 0 0 1.875 0 4.187v10.065c0 2.312 1.903 4.187 4.251 4.187h.944v3.443c0 .455.279.864.706 1.035.427.172.917.072 1.24-.253l4.29-4.225h8.318c2.348 0 4.251-1.875 4.251-4.187V4.192a4.155 4.155 0 0 0-1.243-2.964A4.285 4.285 0 0 0 19.749 0zM5.996 11.116c-1.064 0-1.926-.85-1.926-1.897 0-1.048.862-1.898 1.926-1.898s1.927.85 1.927 1.898c0 .503-.202.986-.564 1.342a1.942 1.942 0 0 1-1.363.557v-.002zm6.009 0c-1.064 0-1.927-.85-1.927-1.897 0-1.048.863-1.898 1.927-1.898s1.926.85 1.926 1.898c0 .504-.203.988-.566 1.344a1.942 1.942 0 0 1-1.366.555l.006-.002zm6.008 0c-1.064 0-1.927-.85-1.927-1.897 0-1.048.863-1.898 1.927-1.898s1.926.85 1.926 1.898c0 .504-.203.987-.565 1.344a1.942 1.942 0 0 1-1.365.555l.004-.002z" fill="#AFAFAF" fill-rule="evenodd"/>
</svg>
