<?xml version="1.0" encoding="UTF-8"?>
<svg width="36px" height="36px" viewBox="0 0 36 36" version="1.1" xmlns="http://www.w3.org/2000/svg" xmlns:xlink="http://www.w3.org/1999/xlink">
    <title>Group</title>
    <g id="v0.1-1108-2022-chaewon.min-&gt;-1111-전달받음-" stroke="none" stroke-width="1" fill="none" fill-rule="evenodd">
        <g id="Channel-Information" transform="translate(-640.000000, -679.000000)" fill-rule="nonzero">
            <g id="Group" transform="translate(640.000000, 679.000000)">
                <circle id="타원_135" fill="#FF9F0A" cx="18" cy="18" r="18"></circle>
                <path d="M25.3604061,13.6065294 L25.3604061,19.8491665 C26.7817259,19.8491665 28,18.4721142 28,16.7278479 C28,15.0753852 26.7817259,13.6065294 25.3604061,13.6065294 Z M21.6040609,9.19996211 L13.3807107,13.8819399 L13.3807107,13.8819399 L9.11675127,13.8819399 C8.50761421,13.8819399 8,14.3409573 8,14.8917782 L8,18.4721142 C8,19.0229351 8.50761421,19.4819525 9.11675127,19.4819525 L11.7563452,19.4819525 L11.7563452,24.9901617 C11.7563452,25.5409826 12.2639594,26 12.8730964,26 L14.9035533,26 C15.5126904,26 16.0203046,25.5409826 16.0203046,24.9901617 L16.0203046,21.0426118 L21.7055838,24.2557338 C22.5177665,24.7147512 23.1269036,24.3475373 23.1269036,23.5213059 L23.1269036,9.93439 C23.0253807,9.10815862 22.4162437,8.74094468 21.6040609,9.19996211 Z" id="Notice,-Announcement-Megaphone" fill="#FFFFFF"></path>
            </g>
        </g>
    </g>
</svg>