<?xml version="1.0" encoding="UTF-8"?>
<svg width="24px" height="23px" viewBox="0 0 24 23" version="1.1" xmlns="http://www.w3.org/2000/svg" xmlns:xlink="http://www.w3.org/1999/xlink">
    <title>Shape</title>
    <g id="Dispatcher_20221118" stroke="none" stroke-width="1" fill="none" fill-rule="evenodd">
        <g id="message" transform="translate(-201.000000, -287.000000)" fill="#EFEFEF">
            <path d="M224.811025,306.876 L214.347225,287.797 C214.214725,287.556 214.019825,287.355 213.782825,287.214 C213.545925,287.074 213.275525,287 213.000225,287 C212.724825,287 212.454525,287.074 212.217525,287.214 C211.980525,287.355 211.785625,287.556 211.653125,287.797 L201.189312,306.876 C201.061081,307.11 200.995976,307.374 201.000193,307.64 C201.004833,307.907 201.078642,308.168 201.214569,308.398 C201.350496,308.627 201.543855,308.818 201.775618,308.95 C202.007385,309.082 202.269565,309.151 202.536355,309.152 L223.464025,309.152 C223.730825,309.151 223.993025,309.082 224.224725,308.95 C224.456525,308.818 224.649925,308.627 224.785825,308.398 C224.921725,308.168 224.995525,307.907 225.000234,307.64 C225.004425,307.374 224.939325,307.11 224.811025,306.876 Z M211.753025,304.164 C211.588125,304.411 211.500225,304.701 211.500225,304.997 C211.500225,305.395 211.658225,305.777 211.939525,306.058 C212.220825,306.339 212.602425,306.497 213.000225,306.497 C213.296925,306.497 213.586925,306.409 213.833625,306.245 C214.080325,306.08 214.272525,305.846 214.386125,305.571 C214.499625,305.297 214.529325,304.996 214.471425,304.705 C214.413625,304.414 214.270725,304.146 214.060925,303.937 C213.851125,303.727 213.583825,303.584 213.292925,303.526 C213.001925,303.468 212.700325,303.498 212.426225,303.612 C212.152125,303.725 211.917825,303.917 211.753025,304.164 Z M212.337825,301.9 C212.406925,301.963 212.496625,301.997 212.589725,301.997 L213.411725,301.997 C213.504625,301.997 213.594125,301.963 213.662925,301.9 C213.731725,301.838 213.775025,301.752 213.784225,301.66 L214.414825,295.424 C214.440025,295.172 214.390525,294.917 214.272325,294.692 C214.154225,294.468 213.972625,294.283 213.750225,294.161 C213.520625,294.034 213.262625,293.967 213.000225,293.967 C212.737925,293.967 212.479825,294.034 212.250225,294.161 C212.027825,294.283 211.846325,294.468 211.728325,294.692 C211.610325,294.917 211.561125,295.172 211.586725,295.424 L212.215725,301.66 C212.225225,301.752 212.268725,301.838 212.337825,301.9 Z" id="Shape"></path>
        </g>
    </g>
</svg>