<?xml version="1.0" encoding="UTF-8"?>
<svg width="20px" height="20px" viewBox="0 0 20 20" version="1.1" xmlns="http://www.w3.org/2000/svg" xmlns:xlink="http://www.w3.org/1999/xlink">
    <title>Group 8</title>
    <g id="v0.1-1108-2022-chaewon.min-&gt;-1111-전달받음-" stroke="none" stroke-width="1" fill="none" fill-rule="evenodd">
        <g id="Main-&gt;-Groups-&gt;-Groups-Detail" transform="translate(-1036.000000, -90.000000)">
            <g id="Group-8" transform="translate(1036.000000, 90.000000)">
                <rect id="Rectangle" fill-opacity="0" fill="#D8D8D8" x="0" y="0" width="20" height="20"></rect>
                <g id="Group-4" transform="translate(9.573696, 9.421590) rotate(50.000000) translate(-9.573696, -9.421590) translate(7.073696, 0.000000)" fill="#FFFFFF">
                    <polygon id="Fill-1" transform="translate(2.499772, 9.221918) scale(-1, 1) translate(-2.499772, -9.221918) " points="0 15.2219183 4.99954413 15.2219183 4.99954413 3.22191831 0 3.22191831"></polygon>
                    <polygon id="Fill-2" transform="translate(2.500456, 1.110959) scale(-1, 1) translate(-2.500456, -1.110959) " points="0.000911743278 2.22191831 5 2.22191831 5 0 0.000911743278 0"></polygon>
                    <polygon id="Fill-3" transform="translate(2.500182, 17.532549) scale(-1, 1) translate(-2.500182, -17.532549) " points="0.31587345 16.2219183 2.50041028 18.8431802 4.68449125 16.2219183"></polygon>
                </g>
                <g id="Group-12" transform="translate(1.000000, 16.970367)" fill="#FFFFFF">
                    <polygon id="Fill-10" points="0 2 19 2 19 0 0 0"></polygon>
                </g>
            </g>
        </g>
    </g>
</svg>