<?xml version="1.0" encoding="UTF-8"?>
<svg width="24px" height="24px" viewBox="0 0 24 24" version="1.1" xmlns="http://www.w3.org/2000/svg" xmlns:xlink="http://www.w3.org/1999/xlink">
    <title>Group</title>
    <g id="Symbols" stroke="none" stroke-width="1" fill="none" fill-rule="evenodd">
        <g id="Group">
            <rect id="Rectangle" x="0" y="0" width="24" height="24"></rect>
            <path d="M19.3392057,8.33555711 L19.3392057,14.2109802 C20.6769185,14.2109802 21.8235294,12.914931 21.8235294,11.2732686 C21.8235294,9.7180096 20.6769185,8.33555711 19.3392057,8.33555711 Z M15.803822,4.18819963 L8.06419827,8.59476695 L8.06419827,8.59476695 L4.05106002,8.59476695 C3.47775455,8.59476695 3,9.02678335 3,9.54520304 L3,12.914931 C3,13.4333507 3.47775455,13.8653671 4.05106002,13.8653671 L6.5353837,13.8653671 L6.5353837,19.0495639 C6.5353837,19.5679836 7.01313825,20 7.58644371,20 L9.49746193,20 C10.0707674,20 10.5485219,19.5679836 10.5485219,19.0495639 L10.5485219,15.3342228 L15.8993729,18.3583377 C16.6637802,18.7903541 17.2370857,18.4447409 17.2370857,17.6671114 L17.2370857,4.87942588 C17.1415348,4.10179635 16.5682293,3.75618323 15.803822,4.18819963 Z" id="Notice,-Announcement-Megaphone" fill="#FFFFFF" fill-rule="nonzero"></path>
        </g>
    </g>
</svg>