<?xml version="1.0" encoding="UTF-8"?>
<svg width="24px" height="16px" viewBox="0 0 24 16" version="1.1" xmlns="http://www.w3.org/2000/svg" xmlns:xlink="http://www.w3.org/1999/xlink">
    <title>Call / video</title>
    <g id="v0.1-1108-2022-chaewon.min-&gt;-1111-전달받음-" stroke="none" stroke-width="1" fill="none" fill-rule="evenodd">
        <g id="PTT-BTN" transform="translate(-966.000000, -531.000000)" fill="#3E91FF">
            <g id="Call-/-video" transform="translate(966.000000, 531.500000)">
                <path d="M23.268247,2.50710685 C23.1118254,2.50710685 22.9564752,2.55226859 22.8043391,2.64049153 L18.3002545,5.20630864 L18.3002545,1.766559 C18.3002545,0.796106682 17.4892192,0 16.5003348,0 L1.80099103,0 C0.809963841,0 0,0.796106682 0,1.766559 L0,13.235541 C0,14.2059933 0.809963841,15 1.80099103,15 L16.5003348,15 C17.4892192,15 18.3002545,14.2059933 18.3002545,13.235541 L18.3002545,9.78843999 L22.8011249,12.3406036 C22.9607607,12.4456309 23.1257533,12.4981445 23.2896746,12.4981445 C23.6421588,12.4981445 24,12.2250735 24,11.7083392 L24,3.30636465 C24,2.78227839 23.6325164,2.50710685 23.268247,2.50710685 Z" id="Icon-color"></path>
            </g>
        </g>
    </g>
</svg>