<svg width="28" height="28" viewBox="0 0 28 28" fill="none" xmlns="http://www.w3.org/2000/svg">
    <g clip-path="url(#tn8ms7zq4a)">
        <path d="m13.367 25.089-5.96-6.434h-5.03a.75.75 0 0 1-.72-.772V10.12a.749.749 0 0 1 .72-.775h5.029l5.96-6.433a.713.713 0 0 1 1.227.549v21.08a.746.746 0 0 1-.723.778.676.676 0 0 1-.503-.23zm6.138-4.235A10.06 10.06 0 0 0 22.139 14a10.072 10.072 0 0 0-2.634-6.854l1.522-1.645a12.48 12.48 0 0 1 3.266 8.5 12.477 12.477 0 0 1-3.266 8.5l-1.522-1.647zm-3.047-3.291a5.325 5.325 0 0 0 0-7.128l1.524-1.645a7.782 7.782 0 0 1 0 10.419l-1.524-1.646z" fill="#fff"/>
    </g>
    <defs>
        <clipPath id="tn8ms7zq4a">
            <path fill="#fff" d="M0 0h28v28H0z"/>
        </clipPath>
    </defs>
</svg>
