<?xml version="1.0" encoding="UTF-8"?>
<svg width="16px" height="16px" viewBox="0 0 16 16" version="1.1" xmlns="http://www.w3.org/2000/svg" xmlns:xlink="http://www.w3.org/1999/xlink">
    <title>Group 3 Copy 11</title>
    <g id="Dispatcher_20221118_demo" stroke="none" stroke-width="1" fill="none" fill-rule="evenodd">
        <g id="Main-&gt;-GIS-&gt;-POI-Search--" transform="translate(-145.000000, -92.000000)">
            <g id="Group-3-Copy-11" transform="translate(145.000000, 92.000000)">
                <g id="Group-3-Copy">
                    <rect id="Rectangle" x="0" y="0" width="16" height="16"></rect>
                </g>
                <g id="Group-2" transform="translate(0.000000, 2.000000)">
                    <path d="M14.6,2.5 C14.5666667,4.15984121 14.5484848,5.24317454 14.5454545,5.75 C14.5454545,9.47792206 11.6149547,12.5 8,12.5 C4.38504527,12.5 1.45454545,9.47792206 1.45454545,5.75 L1.45535354,5.50468932 C1.45885522,4.91050864 1.47373737,3.90894553 1.5,2.5 L14.6,2.5 Z M8,3.5 C6.06700338,3.5 4.5,5.06700338 4.5,7 C4.5,8.93299662 6.06700338,10.5 8,10.5 C9.93299662,10.5 11.5,8.93299662 11.5,7 C11.5,5.06700338 9.93299662,3.5 8,3.5 Z M8,5 C9.1045695,5 10,5.8954305 10,7 C10,8.1045695 9.1045695,9 8,9 C6.8954305,9 6,8.1045695 6,7 C6,5.8954305 6.8954305,5 8,5 Z M8,6 C7.44771525,6 7,6.44771525 7,7 C7,7.55228475 7.44771525,8 8,8 C8.55228475,8 9,7.55228475 9,7 C9,6.44771525 8.55228475,6 8,6 Z" id="Combined-Shape" fill="#000000"></path>
                    <path d="M15.5,2 L0.5,2 C0.223857625,2 0,1.77614237 0,1.5 L0,0.5 C0,0.223857625 0.223857625,-2.22044605e-15 0.5,-2.22044605e-15 L15.5,-4.4408921e-16 C15.7761424,-4.4408921e-16 16,0.223857625 16,0.5 L16,1.5 C16,1.77614237 15.7761424,2 15.5,2 Z M12.5,0.5 L14.5,0.5 C14.7761424,0.5 15,0.723857625 15,1 C15,1.27614237 14.7761424,1.5 14.5,1.5 L12.5,1.5 C12.2238576,1.5 12,1.27614237 12,1 C12,0.723857625 12.2238576,0.5 12.5,0.5 Z" id="Combined-Shape" fill="#000000"></path>
                    <g id="Group" transform="translate(7.500000, 6.500000)"></g>
                </g>
            </g>
        </g>
    </g>
</svg>