<?xml version="1.0" encoding="UTF-8"?>
<svg width="42px" height="42px" viewBox="0 0 42 42" version="1.1" xmlns="http://www.w3.org/2000/svg" xmlns:xlink="http://www.w3.org/1999/xlink">
    <title>Group 10</title>
    <g id="Symbols" stroke="none" stroke-width="1" fill="none" fill-rule="evenodd">
        <g id="Group-10">
            <g id="Icon-/-Ghost-btn-/-More-Copy" transform="translate(9.000000, 9.000000)" fill="#FFFFFF">
                <g id="Basic-/-more-navigation-Copy-3" transform="translate(0.000000, 9.750000)">
                    <path d="M12,4.5 C13.2426407,4.5 14.25,3.49264069 14.25,2.25 C14.25,1.00735931 13.2426407,0 12,0 C10.7573593,0 9.75,1.00735931 9.75,2.25 C9.75,3.49264069 10.7573593,4.5 12,4.5 Z M21.75,4.5 C22.9926407,4.5 24,3.49264069 24,2.25 C24,1.00735931 22.9926407,0 21.75,0 C20.5073593,0 19.5,1.00735931 19.5,2.25 C19.5,3.49264069 20.5073593,4.5 21.75,4.5 Z M2.25,4.5 C3.49264069,4.5 4.5,3.49264069 4.5,2.25 C4.5,1.00735931 3.49264069,0 2.25,0 C1.00735931,0 0,1.00735931 0,2.25 C0,3.49264069 1.00735931,4.5 2.25,4.5 Z" id="Icon-color"></path>
                </g>
            </g>
            <rect id="Rectangle" x="0" y="0" width="42" height="42"></rect>
        </g>
    </g>
</svg>