<?xml version="1.0" encoding="UTF-8"?>
<svg width="5px" height="6px" viewBox="0 0 5 6" version="1.1" xmlns="http://www.w3.org/2000/svg" xmlns:xlink="http://www.w3.org/1999/xlink">
    <title>Tree / tree-collapse-navigation</title>
    <g id="Dispatcher_20221118_demo" stroke="none" stroke-width="1" fill="none" fill-rule="evenodd">
        <g id="Main-&gt;-GIS-&gt;-Contacts" transform="translate(-254.000000, -410.000000)" fill="#FFFFFF">
            <g id="Group-3" transform="translate(250.000000, 392.000000)">
                <g id="Tree-/-tree-collapse-navigation" transform="translate(6.375000, 21.000000) scale(-1, 1) translate(-6.375000, -21.000000) translate(3.875000, 17.875000)">
                    <path d="M0,0.563827388 L0,5.68617261 C-2.16688774e-16,5.8587616 0.139911016,5.99867261 0.3125,5.99867261 C0.371068661,5.99867261 0.428458543,5.98221341 0.478124669,5.95117208 L4.57600085,3.38999947 C4.72235601,3.29852749 4.76684763,3.1057305 4.67537565,2.95937533 C4.65022543,2.91913498 4.6162412,2.88515075 4.57600085,2.86000053 L0.478124669,0.298827918 C0.331769503,0.207355939 0.138972509,0.251847553 0.04750053,0.398202719 C0.0164592015,0.447868845 1.33351151e-16,0.505258727 0,0.563827388 Z" id="Icon-color"></path>
                </g>
            </g>
        </g>
    </g>
</svg>