<svg width="64" height="64" viewBox="0 0 64 64" fill="none" xmlns="http://www.w3.org/2000/svg">
<path d="M17.8321 48V44.779H26.3244V48H17.8321ZM11.0026 30.2501H14.3256L14.3342 30.6695C14.3876 32.8419 15.2219 34.9089 16.6641 36.4416C18.1063 37.9743 20.0456 38.855 22.0795 38.9009C24.181 38.8502 26.1779 37.9108 27.6316 36.2888C29.0854 34.6669 29.8772 32.4951 29.8333 30.2501H33.1564L33.1502 30.7037C33.1066 33.832 31.9282 36.8202 29.8632 39.039C27.7982 41.2578 25.0078 42.5341 22.0795 42.5992C19.0777 42.5302 16.2245 41.1905 14.1472 38.8747C12.07 36.5589 10.9389 33.4566 11.0026 30.2501ZM16.6985 29.673V20.5016C16.6985 16.6429 19.1059 16 22.0795 16C25.053 16 27.4604 16.6429 27.4604 20.5016V29.673C27.4604 33.5316 25.053 36.0112 22.0795 36.0112C19.1059 36.0112 16.6985 33.5277 16.6985 29.673Z" fill="#ed2214"/>
</svg>
