<svg width="24" height="24" viewBox="0 0 24 24" fill="none" xmlns="http://www.w3.org/2000/svg">
<path d="M22.9734 9.35592C22.9043 9.12935 22.714 8.96169 22.4892 8.92544L15.6154 7.88321L12.5373 1.35345C12.4379 1.14047 12.226 1 11.9969 1C11.7678 1 11.5603 1.13594 11.4565 1.35345L8.38272 7.88321L1.51319 8.92544C1.28839 8.96169 1.09817 9.12482 1.029 9.35592C0.959825 9.58249 1.01603 9.83625 1.18031 10.0039L6.15628 15.0836L4.98038 22.2614C4.94147 22.497 5.03226 22.7372 5.21815 22.8777C5.40405 23.0181 5.65047 23.0363 5.84934 22.9275L11.9969 19.538L18.1445 22.9275C18.2309 22.9773 18.3303 23 18.4255 23C18.5508 23 18.6719 22.9592 18.78 22.8777C18.9659 22.7372 19.0566 22.497 19.0177 22.2614L17.8418 15.0836L22.8178 10.0039C22.9821 9.83625 23.0426 9.58702 22.9691 9.35592H22.9734Z" fill="white"/>
</svg>
