<svg width="48" height="48" viewBox="0 0 48 48" fill="none" xmlns="http://www.w3.org/2000/svg">
<path d="M42 0H6C2.68629 0 0 2.68629 0 6V42C0 45.3137 2.68629 48 6 48H42C45.3137 48 48 45.3137 48 42V6C48 2.68629 45.3137 0 42 0Z" fill="#33363A"/>
<path d="M42 0.75H6C3.10051 0.75 0.75 3.10051 0.75 6V42C0.75 44.8995 3.10051 47.25 6 47.25H42C44.8995 47.25 47.25 44.8995 47.25 42V6C47.25 3.10051 44.8995 0.75 42 0.75Z" stroke="#3F4246" stroke-width="1.25" stroke-miterlimit="10"/>
<path d="M33.68 32.1524L29.2996 27.7681C29.9978 26.8708 30.5085 25.842 30.8011 24.743C31.0937 23.6441 31.1622 22.4974 31.0027 21.3713C30.8157 19.9692 30.2775 18.6373 29.4382 17.4993C28.6595 16.4358 27.6459 15.5668 26.4764 14.96C25.3069 14.3533 24.0132 14.0252 22.6961 14.0014C21.379 13.9776 20.0743 14.2587 18.8837 14.8228C17.6931 15.3869 16.6488 16.2188 15.8323 17.2534C14.7851 18.5726 14.1565 20.1755 14.0278 21.8555C13.8944 23.5065 14.2433 25.1607 15.0318 26.617C15.8203 28.0733 17.0146 29.2689 18.4695 30.0585C19.9243 30.848 21.577 31.1975 23.2266 31.0644C24.8761 30.9313 26.4515 30.3214 27.7612 29.3088L32.1121 33.6631C32.3279 33.8787 32.6204 33.9998 32.9253 34H32.9701C33.1173 33.9955 33.2619 33.9602 33.3946 33.8965C33.5274 33.8327 33.6453 33.7418 33.7409 33.6297C33.9181 33.4209 34.0103 33.153 33.9991 32.8792C33.9879 32.6055 33.8737 32.346 33.68 32.1524ZM18.0415 18.0411C19.0825 16.9995 20.4521 16.3513 21.9171 16.2071C23.382 16.0628 24.8515 16.4314 26.0754 17.2501C27.2992 18.0687 28.2016 19.2868 28.6287 20.6967C29.0559 22.1066 28.9814 23.6211 28.4179 24.9822C27.8545 26.3433 26.837 27.4668 25.5387 28.1612C24.2405 28.8556 22.7418 29.0779 21.2982 28.7904C19.8545 28.5028 18.5551 27.7231 17.6214 26.5842C16.6876 25.4452 16.1774 24.0174 16.1775 22.5441C16.1766 21.7077 16.3408 20.8793 16.6607 20.1065C16.9806 19.3338 17.4498 18.6319 18.0415 18.0411Z" fill="#CDD0D3"/>
</svg>
