<svg width="36" height="36" viewBox="0 0 36 36" fill="none" xmlns="http://www.w3.org/2000/svg">
<path d="M32 8.53702C32 7.33452 31.1887 6.35682 30.191 6H21.809C20.8083 6.35682 20 7.33452 20 8.53702V10H32V8.53702Z" fill="#CDD0D3"/>
<path d="M31.9911 11H5.81799C4.81362 11 4 11.8098 4 12.8095V28.1905C4 29.1902 4.81362 30 5.81799 30H30.1701C31.1745 30 31.9911 29.1902 31.9911 28.1905V14.1563L32 11.0564H31.9911V11Z" fill="#CDD0D3"/>
<g clip-path="url(#clip0_420_8377)">
<path d="M21.1966 19.4698L16.9626 17.2422C15.8897 16.6769 15 17.1444 15 18.2749V22.7301C15 23.8606 15.8897 24.328 16.9626 23.7628L21.1966 21.5352C22.2695 20.97 22.2695 20.035 21.1966 19.4698Z" fill="#33363A"/>
</g>
<defs>
<clipPath id="clip0_420_8377">
<rect width="7" height="7" fill="white" transform="translate(15 17)"/>
</clipPath>
</defs>
</svg>
