<svg width="50" height="50" viewBox="0 0 50 50" fill="none" xmlns="http://www.w3.org/2000/svg">
<g clip-path="url(#clip0_113_1898)">
<path d="M44.1863 44.4443C43.6727 41.7714 41.9988 39.6631 40.4529 39.6631H9.55189C8.00293 39.6631 6.33105 41.7714 5.81855 44.4443L5.37793 46.736H44.6238L44.1863 44.4443Z" fill="white"/>
<path d="M38.3655 24.1685C38.3343 20.6443 36.9125 17.275 34.4095 14.794C31.9064 12.3129 28.5247 10.9209 25.0004 10.9209C21.476 10.9209 18.0943 12.3129 15.5912 14.794C13.0882 17.275 11.6664 20.6443 11.6353 24.1685V38.0592H38.3748V24.1685H38.3655Z" fill="white"/>
<path d="M24.7843 7.57585C24.4728 7.57751 24.1735 7.45545 23.952 7.23649C23.7305 7.01753 23.605 6.71959 23.603 6.40814V3.78522C23.603 3.47207 23.7274 3.17175 23.9489 2.95032C24.1703 2.72889 24.4706 2.60449 24.7838 2.60449C25.0969 2.60449 25.3972 2.72889 25.6187 2.95032C25.8401 3.17175 25.9645 3.47207 25.9645 3.78522V6.40814C25.9637 6.5623 25.9325 6.7148 25.8727 6.85692C25.813 6.99904 25.7258 7.12799 25.6162 7.23643C25.5066 7.34486 25.3768 7.43064 25.234 7.48888C25.0913 7.54712 24.9384 7.57667 24.7843 7.57585Z" fill="white"/>
<path d="M36.2052 12.0793C36.0957 11.9715 36.0087 11.8429 35.9493 11.7011C35.89 11.5592 35.8594 11.407 35.8594 11.2533C35.8594 11.0996 35.89 10.9473 35.9493 10.8055C36.0087 10.6637 36.0957 10.5351 36.2052 10.4273L38.0802 8.57309C38.3027 8.35475 38.6019 8.23242 38.9136 8.23242C39.2252 8.23242 39.5245 8.35475 39.7469 8.57309C39.8564 8.68096 39.9434 8.80955 40.0028 8.95137C40.0622 9.09318 40.0928 9.24539 40.0928 9.39913C40.0928 9.55287 40.0622 9.70508 40.0028 9.84689C39.9434 9.9887 39.8564 10.1173 39.7469 10.2252L37.8719 12.0793C37.6495 12.2977 37.3502 12.42 37.0386 12.42C36.7269 12.42 36.4277 12.2977 36.2052 12.0793Z" fill="white"/>
<path d="M41.0625 23.2542C41.0642 22.9428 41.1894 22.6447 41.4107 22.4256C41.632 22.2064 41.9313 22.0841 42.2427 22.0855H44.8927C45.0491 22.0808 45.2048 22.1076 45.3506 22.1642C45.4964 22.2208 45.6293 22.3061 45.7416 22.415C45.8538 22.524 45.9431 22.6543 46.004 22.7984C46.0649 22.9425 46.0963 23.0973 46.0963 23.2537C46.0963 23.4101 46.0649 23.565 46.004 23.709C45.9431 23.8531 45.8538 23.9834 45.7416 24.0924C45.6293 24.2013 45.4964 24.2866 45.3506 24.3432C45.2048 24.3999 45.0491 24.4266 44.8927 24.4219H42.2427C41.9314 24.4233 41.6323 24.3011 41.4111 24.0822C41.1898 23.8633 41.0644 23.5655 41.0625 23.2542Z" fill="white"/>
<path d="M8.93844 23.6824C8.93763 23.8367 8.90642 23.9893 8.84662 24.1316C8.78681 24.2738 8.69957 24.4029 8.58988 24.5114C8.48019 24.6199 8.3502 24.7058 8.20733 24.7641C8.06445 24.8224 7.9115 24.8519 7.75719 24.8511H5.10719C4.79736 24.8511 4.50022 24.728 4.28113 24.509C4.06205 24.2899 3.93896 23.9927 3.93896 23.6829C3.93896 23.3731 4.06205 23.0759 4.28113 22.8568C4.50022 22.6377 4.79736 22.5147 5.10719 22.5147H7.75824C8.06951 22.5133 8.36861 22.6355 8.58988 22.8544C8.81116 23.0733 8.93652 23.3711 8.93844 23.6824Z" fill="white"/>
<path d="M13.4896 12.3821C13.2672 12.6004 12.9679 12.7227 12.6562 12.7227C12.3446 12.7227 12.0453 12.6004 11.8229 12.3821L9.94791 10.5279C9.83837 10.42 9.75138 10.2914 9.69201 10.1496C9.63263 10.0078 9.60205 9.8556 9.60205 9.70186C9.60205 9.54812 9.63263 9.39591 9.69201 9.2541C9.75138 9.11229 9.83837 8.9837 9.94791 8.87582C10.1703 8.65748 10.4696 8.53516 10.7812 8.53516C11.0929 8.53516 11.3922 8.65748 11.6146 8.87582L13.4896 10.73C13.5991 10.8379 13.6861 10.9665 13.7455 11.1083C13.8049 11.2501 13.8354 11.4023 13.8354 11.556C13.8354 11.7098 13.8049 11.862 13.7455 12.0038C13.6861 12.1456 13.5991 12.2742 13.4896 12.3821Z" fill="white"/>
</g>
<defs>
<clipPath id="clip0_113_1898">
<rect width="50" height="50" fill="white"/>
</clipPath>
</defs>
</svg>
