<?xml version="1.0" encoding="UTF-8"?>
<svg width="24px" height="24px" viewBox="0 0 24 24" version="1.1" xmlns="http://www.w3.org/2000/svg" xmlns:xlink="http://www.w3.org/1999/xlink">
    <title>ic_calling copy 8</title>
    <g id="Dispatcher_20221118" stroke="none" stroke-width="1" fill="none" fill-rule="evenodd">
        <g id="Group">
            <rect id="Rectangle" fill-opacity="0" fill="#D8D8D8" x="0" y="0" width="24" height="24"></rect>
            <g id="Combined-Shape" transform="translate(6.000000, 2.000000)" fill="#FFFFFF">
                <path d="M9.25,0 C9.94035594,-1.26816328e-16 10.5,0.559644063 10.5,1.25 L10.5,3.004 L10.5335866,3.00531704 C11.6325486,3.08286233 12.5,3.99895263 12.5,5.11764706 L12.5,16.3823529 C12.5,17.5518971 11.5518971,18.5 10.3823529,18.5 L3.11764706,18.5 C1.94810288,18.5 1,17.5518971 1,16.3823529 L1,10.5 C0.44771525,10.5 6.76353751e-17,10.0522847 0,9.5 L0,7.5 C-6.76353751e-17,6.94771525 0.44771525,6.5 1,6.5 L1,5.11764706 C1,3.94810288 1.94810288,3 3.11764706,3 L8,2.999 L8,1.25 C8,0.559644063 8.55964406,1.26816328e-16 9.25,0 Z M9.256875,10.24425 L4.14645788,10.24425 C3.86168605,10.24425 3.63083288,10.4751032 3.63083288,10.759875 C3.63083288,11.0446468 3.86168605,11.2755 4.14645788,11.2755 L9.256875,11.2755 C9.54164682,11.2755 9.7725,11.0446468 9.7725,10.759875 C9.7725,10.4751032 9.54164682,10.24425 9.256875,10.24425 Z M10.1735421,8.04424999 L3.22979212,8.04424999 C2.9450203,8.04424999 2.71416712,8.27510316 2.71416712,8.55987499 C2.71416712,8.84464681 2.9450203,9.07549999 3.22979212,9.07549999 L10.1735421,9.07549999 C10.4583139,9.07549999 10.6891671,8.84464681 10.6891671,8.55987499 C10.6891671,8.27510316 10.4583139,8.04424999 10.1735421,8.04424999 Z M9.256875,5.84424999 L4.14645787,5.84424999 C3.86168605,5.84424999 3.63083287,6.07510316 3.63083287,6.35987499 C3.63083287,6.64464681 3.86168605,6.87549999 4.14645787,6.87549999 L9.256875,6.87549999 C9.54164682,6.87549999 9.7725,6.64464681 9.7725,6.35987499 C9.7725,6.07510316 9.54164682,5.84424999 9.256875,5.84424999 Z"></path>
            </g>
        </g>
    </g>
</svg>