<svg width="50" height="50" viewBox="0 0 50 50" fill="none" xmlns="http://www.w3.org/2000/svg">
<path d="M18.4199 46.8753H13.323L22.3147 28.893C21.7428 28.3573 21.3452 27.6619 21.1736 26.8973C21.002 26.1327 21.0642 25.3342 21.3523 24.6054C21.6403 23.8766 22.1408 23.2513 22.7888 22.8106C23.4368 22.3699 24.2024 22.1343 24.986 22.1343C25.7697 22.1343 26.5352 22.3699 27.1832 22.8106C27.8312 23.2513 28.3317 23.8766 28.6198 24.6054C28.9078 25.3342 28.9701 26.1327 28.7985 26.8973C28.6268 27.6619 28.2293 28.3573 27.6574 28.893L36.6563 46.8753H31.5522L30.0938 43.9462H19.8855L18.4272 46.8753H18.4199ZM27.8126 39.3847L24.9897 33.7389L22.1657 39.3868L27.8126 39.3847ZM38.149 42.1733L36.0542 37.9785C38.454 35.7543 40.1277 32.8586 40.8571 29.669C41.5865 26.4794 41.3378 23.144 40.1432 20.0979C38.9487 17.0518 36.8639 14.4364 34.1607 12.5929C31.4576 10.7493 28.2616 9.76327 24.9897 9.76327C21.7177 9.76327 18.5217 10.7493 15.8186 12.5929C13.1154 14.4364 11.0306 17.0518 9.8361 20.0979C8.64158 23.144 8.39279 26.4794 9.1222 29.669C9.8516 32.8586 11.5253 35.7543 13.9251 37.9785L11.8272 42.1764C8.49678 39.4594 6.08869 35.7785 4.93328 31.6387C3.77787 27.4988 3.93175 23.1029 5.37382 19.054C6.81588 15.0051 9.47547 11.5016 12.9877 9.02416C16.4999 6.54674 20.6927 5.2168 24.9907 5.2168C29.2888 5.2168 33.4815 6.54674 36.9937 9.02416C40.5059 11.5016 43.1655 15.0051 44.6076 19.054C46.0497 23.1029 46.2035 27.4988 45.0481 31.6387C43.8927 35.7785 41.4846 39.4594 38.1542 42.1764L38.149 42.1733ZM34.5188 34.9128L32.2574 30.3847C33.0234 29.1 33.4354 27.6352 33.4512 26.1395C33.467 24.6438 33.0861 23.1707 32.3474 21.87C31.6086 20.5694 30.5384 19.4878 29.2457 18.7354C27.9529 17.9829 26.4839 17.5865 24.9881 17.5865C23.4923 17.5865 22.0233 17.9829 20.7305 18.7354C19.4378 19.4878 18.3676 20.5694 17.6288 21.87C16.8901 23.1707 16.5092 24.6438 16.525 26.1395C16.5408 27.6352 16.9528 29.1 17.7188 30.3847L15.4574 34.9108C13.7299 33.0547 12.5819 30.7348 12.1543 28.2355C11.7267 25.7363 12.0381 23.1666 13.0502 20.8419C14.0623 18.5171 15.7312 16.5385 17.852 15.1488C19.9727 13.7591 22.4531 13.0188 24.9886 13.0188C27.5242 13.0188 30.0045 13.7591 32.1253 15.1488C34.246 16.5385 35.9149 18.5171 36.927 20.8419C37.9392 23.1666 38.2506 25.7363 37.823 28.2355C37.3953 30.7348 36.2473 33.0547 34.5199 34.9108L34.5188 34.9128Z" fill="white"/>
</svg>
