<?xml version="1.0" encoding="UTF-8"?>
<svg width="14px" height="14px" viewBox="0 0 14 14" version="1.1" xmlns="http://www.w3.org/2000/svg" xmlns:xlink="http://www.w3.org/1999/xlink">
    <title>Basic / close-edit</title>
    <g id="v0.1-1108-2022-chaewon.min-&gt;-1111-전달받음-" stroke="none" stroke-width="1" fill="none" fill-rule="evenodd">
        <g id="Main-&gt;-Multiple-Selection" transform="translate(-25.000000, -89.000000)" fill="#FFFFFF">
            <g id="Toolbar_selected" transform="translate(0.000000, 72.000000)">
                <g id="Basic-/-close-edit" transform="translate(25.257359, 17.257359)">
                    <path d="M13.3388346,0.853553391 C13.5340967,1.04881554 13.5340967,1.36539803 13.3388346,1.56066017 L8.15685416,6.7426406 L13.3388346,11.924621 C13.5340967,12.1198832 13.5340967,12.4364657 13.3388346,12.6317278 L12.6317278,13.3388346 C12.4364657,13.5340967 12.1198832,13.5340967 11.924621,13.3388346 L6.7426406,8.15685416 L1.56066017,13.3388346 C1.36539803,13.5340967 1.04881554,13.5340967 0.853553391,13.3388346 L0.146446609,12.6317278 C-0.0488155365,12.4364657 -0.0488155365,12.1198832 0.146446609,11.924621 L5.32842704,6.7426406 L0.146446609,1.56066017 C-0.0488155365,1.36539803 -0.0488155365,1.04881554 0.146446609,0.853553391 L0.853553391,0.146446609 C1.04881554,-0.0488155365 1.36539803,-0.0488155365 1.56066017,0.146446609 L6.7426406,5.32842704 L11.924621,0.146446609 C12.1198832,-0.0488155365 12.4364657,-0.0488155365 12.6317278,0.146446609 L13.3388346,0.853553391 Z" id="Icon-color"></path>
                </g>
            </g>
        </g>
    </g>
</svg>