<?xml version="1.0" encoding="UTF-8"?>
<svg width="28px" height="28px" viewBox="0 0 28 28" version="1.1" xmlns="http://www.w3.org/2000/svg" xmlns:xlink="http://www.w3.org/1999/xlink">
    <title>Call type / Card / Group Copy 3</title>
    <g id="Symbols" stroke="none" stroke-width="1" fill="none" fill-rule="evenodd">
        <g id="List-/-Ad-hoc-group-List" transform="translate(-12.000000, -17.000000)">
            <g id="Call-type-/-Card-/-Group-Copy-3" transform="translate(12.000000, 17.000000)">
                <circle id="타원_109" fill="#6E51CC" fill-rule="nonzero" cx="14" cy="14" r="14"></circle>
                <g id="Group-2" transform="translate(5.600000, 5.723529)">
                    <path d="M11.3739854,8.05 C12.4564635,8.05 13.3339854,7.17247811 13.3339854,6.09 C13.3339854,5.00752189 12.4564635,4.13 11.3739854,4.13 C10.2915072,4.13 9.41398535,5.00752189 9.41398535,6.09 C9.41398535,7.17247811 10.2915072,8.05 11.3739854,8.05 Z M11.1639854,9.1 C10.8139854,9.1 10.4639854,9.17 10.1139854,9.24 C10.8839854,10.08 11.3739854,11.2 11.3739854,12.32 L11.3739854,14.42 L14.3139854,14.42 C14.7005847,14.42 15.0139854,14.1065993 15.0139854,13.72 C15.0139854,13.3 15.0139854,12.88 15.0139854,12.46 C15.0839854,10.71 13.3339854,9.1 11.1639854,9.1 Z M10.0439854,12.32 C10.0439854,10.43 8.15398535,8.75 5.91398535,8.75 C3.67398535,8.75 1.78398535,10.5 1.78398535,12.32 C1.78398535,12.7866667 1.78398535,13.2533333 1.78398535,13.72 C1.78398535,14.1065993 2.09738603,14.42 2.48398535,14.42 L9.38592383,14.42 C9.77252199,14.4190541 10.0851566,14.1048893 10.0842128,13.7182911 C10.0841921,13.7097922 10.0840166,13.7012944 10.0836686,13.6928026 C10.0572131,13.0235579 10.0439854,12.565957 10.0439854,12.32 Z M5.84398535,7.42 C7.23574292,7.42 8.36398535,6.29175757 8.36398535,4.9 C8.36398535,3.50824243 7.23574292,2.38 5.84398535,2.38 C4.45222778,2.38 3.32398535,3.50824243 3.32398535,4.9 C3.32398535,6.29175757 4.45222778,7.42 5.84398535,7.42 Z" id="Group" fill="#FFFFFF" fill-rule="nonzero"></path>
                    <rect id="Rectangle" x="0" y="0" width="16.8" height="16.8"></rect>
                </g>
            </g>
        </g>
    </g>
</svg>