<svg width="48" height="48" viewBox="0 0 48 48" fill="none" xmlns="http://www.w3.org/2000/svg">
    <g clip-path="url(#o6iy3prfva)">
        <path d="m44.957 40.711-9.2-9.2a17.783 17.783 0 0 0 3.577-13.423 17.6 17.6 0 0 0-3.286-8.125 17.957 17.957 0 0 0-28.576-.516 17.7 17.7 0 0 0-3.79 9.657 17.937 17.937 0 0 0 28.844 15.64l9.138 9.137a2.42 2.42 0 0 0 1.708.707h.094a2.219 2.219 0 0 0 1.62-.777 2.288 2.288 0 0 0-.128-3.1m-32.846-29.61a13.363 13.363 0 1 1-3.915 9.448 13.326 13.326 0 0 1 3.915-9.449z" fill="#fff"/>
    </g>
    <defs>
        <clipPath id="o6iy3prfva">
            <path fill="#fff" d="M0 0h48v48H0z"/>
        </clipPath>
    </defs>
</svg>
