<svg width="68" height="68" viewBox="0 0 68 68" fill="none" xmlns="http://www.w3.org/2000/svg">
<g filter="url(#filter0_d_344_63808)">
<path d="M65 33C65 50.1208 51.1208 64 34 64C16.8792 64 3 50.1208 3 33C3 15.8792 16.8792 2 34 2C51.1208 2 65 15.8792 65 33Z" fill="#343434" stroke="#2AB627" stroke-width="2" stroke-miterlimit="10"/>
</g>
<path d="M42.7461 47.666H26.9594C26.4504 47.6653 25.9625 47.4628 25.6026 47.1029C25.2426 46.743 25.0401 46.255 25.0394 45.746V33.8287H24.6128C24.2734 33.8283 23.948 33.6934 23.7081 33.4534C23.4681 33.2134 23.3331 32.8881 23.3328 32.5487V28.1887C23.3331 27.8493 23.4681 27.5239 23.7081 27.284C23.948 27.044 24.2734 26.909 24.6128 26.9087H25.0394V22.7753C25.0401 22.2663 25.2426 21.7784 25.6026 21.4185C25.9625 21.0586 26.4504 20.8561 26.9594 20.8553H36.9861V16.946C36.9865 16.6066 37.1214 16.2813 37.3614 16.0413C37.6014 15.8013 37.9267 15.6664 38.2661 15.666H39.9728C40.3119 15.6667 40.6369 15.8018 40.8766 16.0418C41.1163 16.2817 41.2511 16.6069 41.2514 16.946V20.8553H42.7448C43.254 20.8557 43.7423 21.0581 44.1025 21.418C44.4627 21.778 44.6654 22.2661 44.6661 22.7753V45.746C44.6654 46.255 44.4629 46.743 44.103 47.1029C43.743 47.4628 43.2551 47.6653 42.7461 47.666ZM30.4208 33.3847C30.1842 33.3847 29.9573 33.4787 29.79 33.6459C29.6227 33.8132 29.5288 34.0401 29.5288 34.2767C29.5288 34.5133 29.6227 34.7401 29.79 34.9074C29.9573 35.0747 30.1842 35.1687 30.4208 35.1687H39.1194C39.356 35.1687 39.5829 35.0747 39.7502 34.9074C39.9175 34.7401 40.0114 34.5133 40.0114 34.2767C40.0114 34.0401 39.9175 33.8132 39.7502 33.6459C39.5829 33.4787 39.356 33.3847 39.1194 33.3847H30.4208ZM28.8568 29.5807C28.6202 29.5807 28.3933 29.6747 28.226 29.8419C28.0587 30.0092 27.9648 30.2361 27.9648 30.4727C27.9648 30.7093 28.0587 30.9361 28.226 31.1034C28.3933 31.2707 28.6202 31.3647 28.8568 31.3647H40.6834C40.92 31.3647 41.1469 31.2707 41.3142 31.1034C41.4815 30.9361 41.5754 30.7093 41.5754 30.4727C41.5754 30.2361 41.4815 30.0092 41.3142 29.8419C41.1469 29.6747 40.92 29.5807 40.6834 29.5807H28.8568ZM30.4208 25.7753C30.1903 25.7843 29.9723 25.8821 29.8124 26.0483C29.6526 26.2144 29.5632 26.4361 29.5632 26.6667C29.5632 26.8973 29.6526 27.1189 29.8124 27.2851C29.9723 27.4513 30.1903 27.5491 30.4208 27.558H39.1194C39.2394 27.5627 39.359 27.543 39.4712 27.5003C39.5834 27.4576 39.6858 27.3927 39.7723 27.3095C39.8588 27.2263 39.9277 27.1264 39.9747 27.016C40.0217 26.9055 40.0459 26.7867 40.0459 26.6667C40.0459 26.5466 40.0217 26.4278 39.9747 26.3174C39.9277 26.2069 39.8588 26.1071 39.7723 26.0239C39.6858 25.9406 39.5834 25.8757 39.4712 25.833C39.359 25.7903 39.2394 25.7707 39.1194 25.7753H30.4208Z" fill="#2AB627"/>
<defs>
<filter id="filter0_d_344_63808" x="0" y="0" width="68" height="68" filterUnits="userSpaceOnUse" color-interpolation-filters="sRGB">
<feFlood flood-opacity="0" result="BackgroundImageFix"/>
<feColorMatrix in="SourceAlpha" type="matrix" values="0 0 0 0 0 0 0 0 0 0 0 0 0 0 0 0 0 0 127 0" result="hardAlpha"/>
<feOffset dy="1"/>
<feGaussianBlur stdDeviation="1"/>
<feColorMatrix type="matrix" values="0 0 0 0 0 0 0 0 0 0 0 0 0 0 0 0 0 0 0.502 0"/>
<feBlend mode="normal" in2="BackgroundImageFix" result="effect1_dropShadow_344_63808"/>
<feBlend mode="normal" in="SourceGraphic" in2="effect1_dropShadow_344_63808" result="shape"/>
</filter>
</defs>
</svg>
