<?xml version="1.0" encoding="UTF-8"?>
<svg width="20px" height="18px" viewBox="0 0 20 18" version="1.1" xmlns="http://www.w3.org/2000/svg" xmlns:xlink="http://www.w3.org/1999/xlink">
    <title>ic_calling copy 9</title>
    <g id="Dispatcher_20221118_demo" stroke="none" stroke-width="1" fill="none" fill-rule="evenodd">
        <g id="Main-&gt;-GIS-&gt;-Information-Modal" transform="translate(-466.000000, -423.000000)">
            <g id="Group-9" transform="translate(440.000000, 152.000000)">
                <g id="Group-5" transform="translate(0.000000, 256.000000)">
                    <g id="Group-2" transform="translate(24.000000, 12.000000)">
                        <g id="Group-3-Copy">
                            <rect id="Rectangle" x="0" y="0" width="24" height="24"></rect>
                        </g>
                        <g id="Group" transform="translate(2.000000, 3.000000)" fill="#FFFFFF">
                            <path d="M16.0847648,10.743 L20,17.743 L0,17.743 L3.91523516,10.743 L6.72303781,10.7430368 C8.39570966,12.834502 10.00021,14.3076923 10.00021,14.3076923 C10.00021,14.3076923 11.6046141,12.834502 13.2771856,10.7430368 L16.0847648,10.743 Z" id="Combined-Shape"></path>
                            <g id="Group-Copy-4" transform="translate(10.000000, 6.500000) scale(-1, 1) translate(-10.000000, -6.500000) translate(5.000000, 0.000000)" fill-rule="nonzero">
                                <path d="M4.99985,0 C3.6738,0 2.4020775,0.509955636 1.4644225,1.41768523 C0.5267675,2.32541483 0,3.55655012 0,4.84027903 C0,8.43606079 4.99985,13 4.99985,13 C4.99985,13 10,8.43606079 10,4.84027903 C10,4.20461032 9.870675,3.57518575 9.619375,2.98792128 C9.3681,2.40064955 8.999775,1.86704844 8.535475,1.41758359 C8.07115,0.968118732 7.51995,0.611592444 6.9133,0.368361125 C6.30665,0.125131985 5.656475,0 4.99985,0 M4.99985,7.10845343 C4.47995,7.10845343 3.971725,6.95919895 3.539425,6.67956764 C3.10715,6.39996053 2.770225,6.0025133 2.57125,5.53751794 C2.3723025,5.07249838 2.320245,4.56084134 2.421675,4.06719067 C2.5231,3.57356421 2.77345,3.12011327 3.1411,2.76422107 C3.508725,2.40832404 3.9771,2.16595674 4.487025,2.06776631 C4.996925,1.96957347 5.525475,2.01996954 6.0058,2.2125797 C6.486125,2.40518745 6.896675,2.73135459 7.185525,3.14985767 C7.474375,3.56833655 7.62855,4.06034147 7.62855,4.56364879 C7.62855,4.89785588 7.56055,5.22877148 7.42845,5.53751794 C7.29635,5.8462644 7.1027,6.12679119 6.858625,6.3631007 C6.614525,6.59941021 6.324725,6.78685564 6.0058,6.91473965 C5.686875,7.04262366 5.34505,7.10845343 4.99985,7.10845343 Z" id="Shape"></path>
                            </g>
                        </g>
                    </g>
                </g>
            </g>
        </g>
    </g>
</svg>