<svg width="14" height="14" viewBox="0 0 14 14" xmlns="http://www.w3.org/2000/svg">
    <g fill="none" fill-rule="evenodd">
        <path d="M0 0h14v14H0z"/>
        <path d="M8.886.778c.44 0 .796.356.796.795L9.68 2.687H10c.527 0 .955.427.955.954v7.955a.955.955 0 0 1-.955.955H4.59a.955.955 0 0 1-.954-.955V7.46A.636.636 0 0 1 3 6.823V5.551c0-.352.285-.637.636-.637V3.641c0-.527.428-.954.955-.954H8.09V1.573c0-.44.357-.795.796-.795zm.005 6.519H5.639a.328.328 0 0 0 0 .656H8.89a.328.328 0 0 0 0-.656zm.583-1.4H5.055a.328.328 0 0 0 0 .656h4.42a.328.328 0 0 0 0-.656zm-.583-1.4H5.639a.328.328 0 0 0 0 .656H8.89a.328.328 0 0 0 0-.656z" fill="#FFF"/>
    </g>
</svg>
