<?xml version="1.0" encoding="UTF-8"?>
<svg width="24px" height="24px" viewBox="0 0 24 24" version="1.1" xmlns="http://www.w3.org/2000/svg" xmlns:xlink="http://www.w3.org/1999/xlink">
    <title>Group 3</title>
    <g id="Symbols" stroke="none" stroke-width="1" fill="none" fill-rule="evenodd">
        <g id="Group-3">
            <g id="Group">
                <rect id="Rectangle" x="0" y="0" width="24" height="24"></rect>
            </g>
            <g id="Group-4" transform="translate(2.000000, 2.000000)">
                <g id="Group-2" transform="translate(0.000000, 2.000000)">
                    <path d="M12.1864129,8.625 C13.3462108,8.625 14.2864129,7.68479797 14.2864129,6.525 C14.2864129,5.36520203 13.3462108,4.425 12.1864129,4.425 C11.0266149,4.425 10.0864129,5.36520203 10.0864129,6.525 C10.0864129,7.68479797 11.0266149,8.625 12.1864129,8.625 Z M11.9614129,9.75 C11.5864129,9.75 11.2114129,9.825 10.8364129,9.9 C11.6614129,10.8 12.1864129,12 12.1864129,13.2 L12.1864129,15.45 L15.3864129,15.45 C15.7730122,15.45 16.0864129,15.1365993 16.0864129,14.75 C16.0864129,14.2833333 16.0864129,13.8166667 16.0864129,13.35 C16.1614129,11.475 14.2864129,9.75 11.9614129,9.75 Z M10.7614129,13.2 C10.7614129,11.175 8.73641288,9.375 6.33641288,9.375 C3.93641288,9.375 1.91141288,11.25 1.91141288,13.2 C1.91141288,13.7166667 1.91141288,14.2333333 1.91141288,14.75 C1.91141288,15.1365993 2.22481355,15.45 2.61141288,15.45 L10.1086419,15.45 C10.4952394,15.4488108 10.8076772,15.1344503 10.8064914,14.7478528 C10.8064644,14.73905 10.8062713,14.7302485 10.805939,14.721452 C10.7762549,13.9768284 10.7614129,13.4696777 10.7614129,13.2 Z M6.26141288,7.95 C7.7525817,7.95 8.96141288,6.74116882 8.96141288,5.25 C8.96141288,3.75883118 7.7525817,2.55 6.26141288,2.55 C4.77024405,2.55 3.56141288,3.75883118 3.56141288,5.25 C3.56141288,6.74116882 4.77024405,7.95 6.26141288,7.95 Z" id="Group" fill="#FFFFFF" fill-rule="nonzero"></path>
                    <rect id="Rectangle" x="0" y="0" width="18" height="18"></rect>
                </g>
                <path d="M16.5,0 C18.4329966,0 20,1.56700338 20,3.5 C20,5.43299662 18.4329966,7 16.5,7 C14.5670034,7 13,5.43299662 13,3.5 C13,1.56700338 14.5670034,0 16.5,0 Z M17.0645305,1 L15.9354695,1 L15.9354695,2.93529033 L14,2.93529033 L14,4.06448746 L15.9356917,4.06448746 L15.9356917,6 L17.0646416,6 L17.0646416,4.06448746 L19,4.06448746 L19,2.93551254 L17.0645305,2.93551254 L17.0645305,1 Z" id="Combined-Shape" fill="#FFFFFF"></path>
            </g>
        </g>
    </g>
</svg>