<svg width="24" height="24" viewBox="0 0 24 24" fill="none" xmlns="http://www.w3.org/2000/svg">
<path d="M19.999 24H6.35966C6.09486 23.9989 5.84123 23.8843 5.65424 23.6811C5.46725 23.4778 5.36212 23.2026 5.36184 22.9156V13.6212H4.66678C4.49007 13.621 4.32063 13.5449 4.19563 13.4095C4.07063 13.2741 4.00028 13.0905 4 12.899V9.15478C4.00014 8.96315 4.07043 8.7794 4.19545 8.6439C4.32046 8.50839 4.48998 8.4322 4.66678 8.43205H5.36184V4.97566C5.36212 4.6887 5.46727 4.41354 5.65427 4.21042C5.84128 4.0073 6.09491 3.89275 6.35966 3.89185H14.8796V0.722731C14.8797 0.531097 14.95 0.347355 15.075 0.211849C15.2 0.0763433 15.3695 0.00015036 15.5463 0L17.6132 0C17.79 0.00015036 17.9595 0.0763433 18.0845 0.211849C18.2095 0.347355 18.2798 0.531097 18.28 0.722731V3.89185H19.9996C20.2647 3.89215 20.5189 4.00641 20.7065 4.20958C20.894 4.41276 20.9996 4.68825 21 4.97566V22.9162C20.9996 23.2037 20.894 23.4793 20.7063 23.6825C20.5186 23.8857 20.2643 23.9999 19.999 24V24ZM9.63856 13.2896C9.55092 13.2775 9.46191 13.2858 9.37745 13.3139C9.29299 13.342 9.21502 13.3893 9.14872 13.4526C9.08242 13.5159 9.02932 13.5937 8.99295 13.681C8.95658 13.7683 8.93776 13.8629 8.93776 13.9587C8.93776 14.0545 8.95658 14.1491 8.99295 14.2364C9.02932 14.3237 9.08242 14.4015 9.14872 14.4648C9.21502 14.5281 9.29299 14.5754 9.37745 14.6035C9.46191 14.6316 9.55092 14.6399 9.63856 14.6278H16.5887C16.6763 14.6399 16.7653 14.6316 16.8498 14.6035C16.9342 14.5754 17.0122 14.5281 17.0785 14.4648C17.1448 14.4015 17.1979 14.3237 17.2343 14.2364C17.2707 14.1491 17.2895 14.0545 17.2895 13.9587C17.2895 13.8629 17.2707 13.7683 17.2343 13.681C17.1979 13.5937 17.1448 13.5159 17.0785 13.4526C17.0122 13.3893 16.9342 13.342 16.8498 13.3139C16.7653 13.2858 16.6763 13.2775 16.5887 13.2896H9.63856ZM8.39195 10.4356C8.30417 10.4232 8.21496 10.4312 8.13027 10.4591C8.04559 10.487 7.96737 10.5342 7.90085 10.5975C7.83433 10.6608 7.78103 10.7388 7.74452 10.8262C7.70801 10.9136 7.68912 11.0084 7.68912 11.1044C7.68912 11.2003 7.70801 11.2952 7.74452 11.3826C7.78103 11.47 7.83433 11.548 7.90085 11.6113C7.96737 11.6746 8.04559 11.7217 8.13027 11.7497C8.21496 11.7776 8.30417 11.7856 8.39195 11.7732H17.8358C17.9236 11.7856 18.0128 11.7776 18.0975 11.7497C18.1822 11.7217 18.2604 11.6746 18.3269 11.6113C18.3934 11.548 18.4467 11.47 18.4832 11.3826C18.5197 11.2952 18.5386 11.2003 18.5386 11.1044C18.5386 11.0084 18.5197 10.9136 18.4832 10.8262C18.4467 10.7388 18.3934 10.6608 18.3269 10.5975C18.2604 10.5342 18.1822 10.487 18.0975 10.4591C18.0128 10.4312 17.9236 10.4232 17.8358 10.4356H8.39195ZM9.63856 7.58214C9.46402 7.57108 9.2925 7.63512 9.16127 7.76035C9.03005 7.88558 8.94971 8.06188 8.93773 8.25094C8.94971 8.44 9.03005 8.6163 9.16127 8.74153C9.2925 8.86676 9.46402 8.9308 9.63856 8.91974H16.5887C16.7632 8.9308 16.9347 8.86676 17.066 8.74153C17.1972 8.6163 17.2775 8.44 17.2895 8.25094C17.2775 8.06188 17.1972 7.88558 17.066 7.76035C16.9347 7.63512 16.7632 7.57108 16.5887 7.58214H9.63856Z" fill="#EFEFEF"/>
</svg>
