<?xml version="1.0" encoding="UTF-8"?>
<svg width="18px" height="18px" viewBox="0 0 18 18" version="1.1" xmlns="http://www.w3.org/2000/svg" xmlns:xlink="http://www.w3.org/1999/xlink">
    <title>Group 21</title>
    <g id="Dispatcher_20221118_demo" stroke="none" stroke-width="1" fill="none" fill-rule="evenodd">
        <g id="Main-&gt;-GIS-&gt;-GeoGroup-&gt;-Geogroup-Option--" transform="translate(-616.000000, -409.000000)">
            <g id="Group-12-Copy-2" transform="translate(400.000000, 226.000000)">
                <g id="Text-Field" transform="translate(142.000000, 175.000000)">
                    <g id="Group-21" transform="translate(74.000000, 8.000000)">
                        <rect id="Rectangle" x="0" y="0" width="18" height="18"></rect>
                        <path d="M13.2222222,10 C13.2222222,12.328 11.328,14.2222222 9,14.2222222 C6.672,14.2222222 4.77777778,12.328 4.77777778,10 C4.77777778,7.672 6.672,5.77777778 9,5.77777778 L9,7.77777778 L13.3235556,4.88888889 L9,2 L9,4 C5.69155556,4 3,6.69155556 3,10 C3,13.3084444 5.69155556,16 9,16 C12.3084444,16 15,13.3084444 15,10 L13.2222222,10 Z" id="Fill-1" fill="#AFAFAF"></path>
                    </g>
                </g>
            </g>
        </g>
    </g>
</svg>