<?xml version="1.0" encoding="UTF-8"?>
<svg width="24px" height="24px" viewBox="0 0 24 24" version="1.1" xmlns="http://www.w3.org/2000/svg" xmlns:xlink="http://www.w3.org/1999/xlink">
    <title>Group 5 Copy</title>
    <g id="v0.1-1108-2022-chaewon.min-&gt;-1111-전달받음-" stroke="none" stroke-width="1" fill="none" fill-rule="evenodd">
        <g id="Call-type" transform="translate(-540.000000, -426.000000)">
            <g id="Group-5-Copy" transform="translate(540.000000, 426.000000)">
                <rect id="Rectangle" fill-opacity="0" fill="#D8D8D8" x="0" y="0" width="24" height="24"></rect>
                <g id="확성기" transform="translate(1.238999, 5.000000)" fill="#FFFFFF">
                    <path d="M20.1610009,7.27480625 C20.1610009,5.8815875 19.3540432,4.66686875 18.1610009,4.0204625 L18.1610009,10.5311187 C19.3540432,9.88405625 20.1610009,8.66999375 20.1610009,7.276775 L20.1610009,7.27480625 Z" id="Fill-1"></path>
                    <path d="M3.4708992,10.8979579 L4.30802538,10.8979579 L4.30802538,14.14174 C4.30802538,14.6444084 4.72298862,15.053481 5.23612929,15.053481 L6.46858322,15.053481 C6.9777968,15.053481 7.39472359,14.6444084 7.39472359,14.1319222 L7.34825295,11.0301702 L11.7610009,12.4432705 L11.7610009,2.053481 L6.69308227,3.83834657 L3.4708992,3.83834657 L3.42639211,3.83834657 C1.53287685,3.88612625 0,5.46220116 0,7.36815223 C0,9.27410329 1.5309133,10.8501782 3.42246501,10.8979579 C3.4381734,10.8959943 3.45584533,10.8979579 3.4708992,10.8979579 Z" id="Fill-3"></path>
                    <rect id="Rectangle" x="13.4610009" y="0" width="3" height="15" rx="1.5"></rect>
                </g>
            </g>
        </g>
    </g>
</svg>