<?xml version="1.0" encoding="UTF-8"?>
<svg width="22px" height="23px" viewBox="0 0 22 23" version="1.1" xmlns="http://www.w3.org/2000/svg" xmlns:xlink="http://www.w3.org/1999/xlink">
    <title>satellite copy</title>
    <defs>
        <polygon id="path-1" points="0 0 9.74300865 0 9.74300865 9.74334106 0 9.74334106"></polygon>
        <polygon id="path-3" points="0 0 8.02060703 0 8.02060703 8.1048157 0 8.1048157"></polygon>
    </defs>
    <g id="Dispatcher_20221118" stroke="none" stroke-width="1" fill="none" fill-rule="evenodd">
        <g id="satellite-copy">
            <path d="M18.9045573,18.3797332 L18.3078065,18.976484 C18.2359432,19.0483473 18.1197588,19.0483473 18.0478955,18.976484 L17.4511447,18.3797332 C17.3795979,18.3078699 17.3795979,18.1916855 17.4511447,18.1198221 L18.0478955,17.5230714 C18.1197588,17.4515246 18.2359432,17.4515246 18.3078065,17.5230714 L18.9045573,18.1198221 C18.9764206,18.1916855 18.9764206,18.3078699 18.9045573,18.3797332 L18.9045573,18.3797332 Z M17.7328997,19.5513908 L17.136149,20.1481415 C17.0642856,20.2200049 16.9481012,20.2200049 16.8762379,20.1481415 L16.2794871,19.5513908 C16.2079404,19.4795274 16.2079404,19.3633431 16.2794871,19.2914797 L16.8762379,18.694729 C16.9481012,18.6231822 17.0642856,18.6231822 17.136149,18.694729 L17.7328997,19.2914797 C17.8047631,19.3633431 17.8047631,19.4795274 17.7328997,19.5513908 L17.7328997,19.5513908 Z M16.5612421,20.7230484 L15.9644914,21.3197991 C15.892628,21.3916625 15.7764437,21.3916625 15.7045803,21.3197991 L15.1078296,20.7230484 C15.0359662,20.651185 15.0359662,20.5350006 15.1078296,20.4631373 L15.7045803,19.8663865 C15.7764437,19.7948398 15.892628,19.7948398 15.9644914,19.8663865 L16.5612421,20.4631373 C16.6331055,20.5350006 16.6331055,20.651185 16.5612421,20.7230484 L16.5612421,20.7230484 Z M14.8384211,20.1937289 C14.7668744,20.2655922 14.6503734,20.2655922 14.5788266,20.1937289 L13.9820759,19.5972947 C13.9102125,19.5254313 13.9102125,19.4089304 13.9820759,19.3373836 L14.5788266,18.7406329 C14.6503734,18.6687695 14.7668744,18.6687695 14.8384211,18.7406329 L15.4351719,19.3373836 C15.5070352,19.4089304 15.5070352,19.5254313 15.4351719,19.5972947 L14.8384211,20.1937289 Z M13.4527564,19.0679752 L12.8560056,18.4712244 C12.7841423,18.3993611 12.7841423,18.2831767 12.8560056,18.2113134 L13.4527564,17.6145626 C13.5246197,17.5430158 13.6408041,17.5430158 13.7126675,17.6145626 L14.3094182,18.2113134 C14.380965,18.2831767 14.380965,18.3993611 14.3094182,18.4712244 L13.7126675,19.0679752 C13.6408041,19.1398385 13.5246197,19.1398385 13.4527564,19.0679752 L13.4527564,19.0679752 Z M12.3266861,17.9419049 L11.7299354,17.3451542 C11.6583886,17.2736074 11.6583886,17.1571065 11.7299354,17.0855597 L12.3266861,16.4888089 C12.3985495,16.4169456 12.5147339,16.4169456 12.5865972,16.4888089 L13.183348,17.0855597 C13.2552113,17.1571065 13.2552113,17.2736074 13.183348,17.3451542 L12.5865972,17.9419049 C12.5150504,18.0137683 12.3985495,18.0137683 12.3266861,17.9419049 L12.3266861,17.9419049 Z M11.2009325,16.8161513 L10.6041817,16.2194005 C10.5323184,16.1475372 10.5323184,16.0313528 10.6041817,15.9594894 L11.2009325,15.3627387 C11.2724792,15.2908753 11.3889802,15.2908753 11.4608435,15.3627387 L12.0575943,15.9594894 C12.1291411,16.0313528 12.1291411,16.1475372 12.0575943,16.2194005 L11.4608435,16.8161513 C11.3889802,16.887698 11.2724792,16.887698 11.2009325,16.8161513 L11.2009325,16.8161513 Z M11.7758393,14.7878319 L12.37259,14.1910811 C12.4444534,14.1192178 12.5606378,14.1192178 12.6325011,14.1910811 L13.2292519,14.7878319 C13.3007986,14.8596952 13.3007986,14.9758796 13.2292519,15.0477429 L12.6325011,15.6444937 C12.5606378,15.7160405 12.4444534,15.7160405 12.37259,15.6444937 L11.7758393,15.0477429 C11.7039759,14.9758796 11.7039759,14.8596952 11.7758393,14.7878319 L11.7758393,14.7878319 Z M12.9474969,13.6161743 L13.5442476,13.0194235 C13.616111,12.9475602 13.7322953,12.9475602 13.8041587,13.0194235 L14.4009094,13.6161743 C14.4724562,13.6880376 14.4724562,13.804222 14.4009094,13.8760854 L13.8041587,14.4728361 C13.7322953,14.5443829 13.616111,14.5443829 13.5442476,14.4728361 L12.9474969,13.8760854 C12.8756335,13.804222 12.8756335,13.6880376 12.9474969,13.6161743 L12.9474969,13.6161743 Z M14.6703179,14.1454938 C14.7418646,14.0736304 14.8583656,14.0736304 14.9299124,14.1454938 L15.5266631,14.741928 C15.5985265,14.8137913 15.5985265,14.9302923 15.5266631,15.001839 L14.9299124,15.5985898 C14.8583656,15.6704531 14.7418646,15.6704531 14.6703179,15.5985898 L14.0735671,15.001839 C14.0017038,14.9302923 14.0017038,14.8137913 14.0735671,14.741928 L14.6703179,14.1454938 Z M16.0559826,15.2712475 L16.6527334,15.8679982 C16.7245967,15.9398616 16.7245967,16.0560459 16.6527334,16.1279093 L16.0559826,16.72466 C15.9841193,16.7962068 15.8679349,16.7962068 15.7960715,16.72466 L15.1993208,16.1279093 C15.1274574,16.0560459 15.1274574,15.9398616 15.1993208,15.8679982 L15.7960715,15.2712475 C15.8679349,15.1993841 15.9841193,15.1993841 16.0559826,15.2712475 L16.0559826,15.2712475 Z M15.1537335,18.165726 L15.7501676,17.5689753 C15.822031,17.4971119 15.9385319,17.4971119 16.0100787,17.5689753 L16.6068295,18.165726 C16.6786928,18.2372728 16.6786928,18.3537738 16.6068295,18.4253205 L16.0100787,19.0220713 C15.9385319,19.0939346 15.822031,19.0939346 15.7501676,19.0220713 L15.1537335,18.4253205 C15.0818701,18.3537738 15.0818701,18.2372728 15.1537335,18.165726 L15.1537335,18.165726 Z M13.7582548,16.7702474 C13.686708,16.8421107 13.5702071,16.8421107 13.4983437,16.7702474 L12.901593,16.1734966 C12.8300462,16.1019498 12.8300462,15.9854489 12.901593,15.9139021 L13.4983437,15.3171514 C13.5702071,15.245288 13.686708,15.245288 13.7582548,15.3171514 L14.3550055,15.9139021 C14.4268689,15.9854489 14.4268689,16.1019498 14.3550055,16.1734966 L13.7582548,16.7702474 Z M14.0276632,17.0396558 L14.624414,16.442905 C14.6962773,16.3710417 14.8124617,16.3710417 14.884325,16.442905 L15.4810758,17.0396558 C15.5526226,17.1115191 15.5526226,17.2277035 15.4810758,17.2995669 L14.884325,17.8963176 C14.8124617,17.968181 14.6962773,17.968181 14.624414,17.8963176 L14.0276632,17.2995669 C13.9557999,17.2277035 13.9557999,17.1115191 14.0276632,17.0396558 L14.0276632,17.0396558 Z M17.1820529,16.3973177 L17.778487,16.9940685 C17.8503504,17.0656152 17.8503504,17.1821162 17.778487,17.253663 L17.1820529,17.8504137 C17.1101895,17.9222771 16.9936886,17.9222771 16.9221418,17.8504137 L16.325391,17.253663 C16.2535277,17.1821162 16.2535277,17.0656152 16.325391,16.9940685 L16.9221418,16.3973177 C16.9936886,16.3254544 17.1101895,16.3254544 17.1820529,16.3973177 L17.1820529,16.3973177 Z M14.4841696,12.5901429 C14.0947779,12.2007512 13.4635201,12.2007512 13.0744449,12.5901429 L10.1749011,15.4896867 C9.78550933,15.8790785 9.78550933,16.5100197 10.1749011,16.8994115 L15.0245694,21.7490798 C15.4136445,22.1384715 16.0449024,22.1384715 16.4342941,21.7490798 L19.3338379,18.8495359 C19.7232297,18.4604608 19.7232297,17.8288864 19.3338379,17.4398112 L14.4841696,12.5901429 Z" id="Fill-1" fill="#3F4246"></path>
            <g id="Group-5" transform="translate(0.000000, 2.415147)">
                <mask id="mask-2" fill="white">
                    <use xlink:href="#path-1"></use>
                </mask>
                <g id="Clip-4"></g>
                <path d="M4.6958744,7.89594635 L4.09912365,7.2991956 C4.0272603,7.22733225 4.0272603,7.11114789 4.09912365,7.03928453 L4.6958744,6.44253378 C4.76773776,6.37098701 4.88392212,6.37098701 4.95578547,6.44253378 L5.55253623,7.03928453 C5.624083,7.11114789 5.624083,7.22733225 5.55253623,7.2991956 L4.95578547,7.89594635 C4.88392212,7.96780971 4.76773776,7.96780971 4.6958744,7.89594635 L4.6958744,7.89594635 Z M3.56980415,6.7698761 L2.9730534,6.17312535 C2.90150663,6.10157858 2.90150663,5.98507763 2.9730534,5.91353086 L3.56980415,5.31678011 C3.64166751,5.24491675 3.75785187,5.24491675 3.82971522,5.31678011 L4.42646597,5.91353086 C4.49832933,5.98507763 4.49832933,6.10157858 4.42646597,6.17312535 L3.82971522,6.7698761 C3.75816845,6.84173946 3.64166751,6.84173946 3.56980415,6.7698761 L3.56980415,6.7698761 Z M2.44405048,5.64412243 L1.84729973,5.04737168 C1.77543637,4.97550832 1.77543637,4.85932396 1.84729973,4.78746061 L2.44405048,4.19070986 C2.51559725,4.1188465 2.6320982,4.1188465 2.70396155,4.19070986 L3.3007123,4.78746061 C3.37225908,4.85932396 3.37225908,4.97550832 3.3007123,5.04737168 L2.70396155,5.64412243 C2.6320982,5.71598578 2.51559725,5.71598578 2.44405048,5.64412243 L2.44405048,5.64412243 Z M1.31798023,4.51805218 L0.721229476,3.92130143 C0.649682702,3.84975465 0.649682702,3.73325371 0.721229476,3.66170693 L1.31798023,3.06495618 C1.38984358,2.99309283 1.50602795,2.99309283 1.5778913,3.06495618 L2.17464205,3.66170693 C2.2465054,3.73325371 2.2465054,3.84975465 2.17464205,3.92130143 L1.5778913,4.51805218 C1.50602795,4.58991553 1.38984358,4.58991553 1.31798023,4.51805218 L1.31798023,4.51805218 Z M1.89288705,2.48973278 L2.48963781,1.89298203 C2.56150116,1.82143525 2.67768552,1.82143525 2.74954888,1.89298203 L3.34629963,2.48973278 C3.41816298,2.56159613 3.41816298,2.67809707 3.34629963,2.74964385 L2.74954888,3.3463946 C2.67768552,3.41825795 2.56150116,3.41825795 2.48963781,3.3463946 L1.89288705,2.74964385 C1.82134028,2.67809707 1.82134028,2.56159613 1.89288705,2.48973278 L1.89288705,2.48973278 Z M3.06454463,1.3180752 L3.66129538,0.72132445 C3.73315874,0.649777675 3.84965968,0.649777675 3.92120645,0.72132445 L4.5179572,1.3180752 C4.58982056,1.38993855 4.58982056,1.50612292 4.5179572,1.57798627 L3.92120645,2.17473702 C3.8493431,2.24660038 3.73315874,2.24660038 3.66129538,2.17473702 L3.06454463,1.57798627 C2.99299786,1.50612292 2.99299786,1.38993855 3.06454463,1.3180752 L3.06454463,1.3180752 Z M4.78736563,1.8473947 C4.85922899,1.77553135 4.97541335,1.77553135 5.0472767,1.8473947 L5.64402746,2.44414545 C5.71557423,2.51600881 5.71557423,2.63219317 5.64402746,2.70405652 L5.0472767,3.30080728 C4.97541335,3.37235405 4.85922899,3.37235405 4.78736563,3.30080728 L4.19061488,2.70405652 C4.11875153,2.63219317 4.11875153,2.51600881 4.19061488,2.44414545 L4.78736563,1.8473947 Z M6.17303038,2.97346495 L6.76978113,3.57021571 C6.84164448,3.64176248 6.84164448,3.75826342 6.76978113,3.8298102 L6.17303038,4.42656095 C6.1014836,4.4984243 5.98498266,4.4984243 5.91311931,4.42656095 L5.31668513,3.8298102 C5.24482178,3.75826342 5.24482178,3.64176248 5.31668513,3.57021571 L5.91311931,2.97346495 C5.98498266,2.9016016 6.1014836,2.9016016 6.17303038,2.97346495 L6.17303038,2.97346495 Z M7.29910063,4.09921863 L7.89585138,4.69596938 C7.96771473,4.76783273 7.96771473,4.8840171 7.89585138,4.95588045 L7.29910063,5.5526312 C7.22723728,5.62449455 7.11105291,5.62449455 7.03918956,5.5526312 L6.44243881,4.95588045 C6.37057545,4.8840171 6.37057545,4.76783273 6.44243881,4.69596938 L7.03918956,4.09921863 C7.11105291,4.02735527 7.22723728,4.02735527 7.29910063,4.09921863 L7.29910063,4.09921863 Z M8.42517088,5.22528888 L9.02160505,5.82203963 C9.09346841,5.8935864 9.09346841,6.01008735 9.02160505,6.08163412 L8.42517088,6.67838487 C8.35330753,6.75024823 8.23680658,6.75024823 8.16525981,6.67838487 L7.56850906,6.08163412 C7.49664571,6.01008735 7.49664571,5.8935864 7.56850906,5.82203963 L8.16525981,5.22528888 C8.23680658,5.15342552 8.35330753,5.15342552 8.42517088,5.22528888 L8.42517088,5.22528888 Z M7.84994748,7.25360828 L7.25319672,7.85004245 C7.18164995,7.9219058 7.06514901,7.9219058 6.99360223,7.85004245 L6.39685148,7.25360828 C6.32498813,7.18174492 6.32498813,7.06524398 6.39685148,6.99369721 L6.99360223,6.39694646 C7.06514901,6.3250831 7.18164995,6.3250831 7.25319672,6.39694646 L7.84994748,6.99369721 C7.92181083,7.06524398 7.92181083,7.18174492 7.84994748,7.25360828 L7.84994748,7.25360828 Z M5.27078123,5.86762696 L5.86753198,5.2708762 C5.93939533,5.19932943 6.0555797,5.19932943 6.12744305,5.2708762 L6.7241938,5.86762696 C6.79574058,5.93949031 6.79574058,6.05567467 6.7241938,6.12753803 L6.12744305,6.72428878 C6.0555797,6.79615213 5.93939533,6.79615213 5.86753198,6.72428878 L5.27078123,6.12753803 C5.19891788,6.05567467 5.19891788,5.93949031 5.27078123,5.86762696 L5.27078123,5.86762696 Z M3.87561913,4.47246485 C3.80375577,4.54401163 3.68757141,4.54401163 3.61570806,4.47246485 L3.01895731,3.8757141 C2.94709395,3.80385075 2.94709395,3.68766638 3.01895731,3.61580303 L3.61570806,3.01905228 C3.68757141,2.94718893 3.80375577,2.94718893 3.87561913,3.01905228 L4.47236988,3.61580303 C4.54391665,3.68766638 4.54391665,3.80385075 4.47236988,3.8757141 L3.87561913,4.47246485 Z M4.14471098,4.7415567 L4.74146173,4.14512253 C4.81332508,4.07325918 4.92982603,4.07325918 5.0013728,4.14512253 L5.59812355,4.7415567 C5.66998691,4.81342006 5.66998691,4.929921 5.59812355,5.00146777 L5.0013728,5.59821853 C4.92982603,5.67008188 4.81332508,5.67008188 4.74146173,5.59821853 L4.14471098,5.00146777 C4.0731642,4.929921 4.0731642,4.81342006 4.14471098,4.7415567 L4.14471098,4.7415567 Z M6.6782899,8.42526585 L6.08153915,9.02201661 C6.00999237,9.09356338 5.89349143,9.09356338 5.82162808,9.02201661 L5.2251939,8.42526585 C5.15333055,8.3534025 5.15333055,8.23721814 5.2251939,8.16535478 L5.82162808,7.56860403 C5.89349143,7.49674068 6.00999237,7.49674068 6.08153915,7.56860403 L6.6782899,8.16535478 C6.75015325,8.23721814 6.75015325,8.3534025 6.6782899,8.42526585 L6.6782899,8.42526585 Z M6.55165844,9.45129725 L9.45120228,6.55175341 C9.84027744,6.16236168 9.84027744,5.53110385 9.45120228,5.14171211 L4.60153397,0.292043803 C4.21214223,-0.0973479343 3.58088441,-0.0973479343 3.19149267,0.292043803 L0.291948829,3.19158764 C-0.0974429079,3.58097938 -0.0974429079,4.2122372 0.291948829,4.60162894 L5.14161714,9.45129725 C5.53100888,9.84068899 6.1622667,9.84068899 6.55165844,9.45129725 L6.55165844,9.45129725 Z" id="Fill-3" fill="#3F4246" mask="url(#mask-2)"></path>
            </g>
            <path d="M11.9965896,7.95945203 C11.6657649,7.62862734 9.31485186,9.44293958 8.98371059,9.77408084 L5.80874333,12.9490481 C5.47760206,13.2801894 5.47760206,13.8167902 5.80874333,14.1476149 L7.89341373,16.2326018 C8.22455499,16.5634265 8.7611558,16.5634265 9.09198049,16.2326018 L12.2672643,13.057318 C12.598089,12.7264933 14.4124012,10.3752637 14.0815766,10.044439 L11.9965896,7.95945203 Z" id="Fill-6" fill="#3F4246"></path>
            <path d="M15.8447297,9.35828645 L14.4451355,7.95869224 L14.9101895,7.49395479 L14.5473904,7.13083908 L14.0823364,7.59589311 L12.6827421,6.19629891 C12.4291626,7.06119177 12.6431698,8.03403796 13.3250802,8.71594837 C14.0073072,9.39817536 14.9801534,9.61186594 15.8447297,9.35828645" id="Fill-8" fill="#3F4246"></path>
            <path d="M7.10928007,15.8635661 L6.17758911,14.9318752 C5.77996633,14.5342524 5.13572878,14.5342524 4.738106,14.9318752 L4.35757846,15.3127193 C3.95995568,15.7100255 3.95995568,16.3545796 4.35757846,16.7518858 L5.28926942,17.6835768 C5.68657563,18.0811995 6.33112975,18.0811995 6.72843596,17.6835768 L7.10928007,17.3030492 C7.50658627,16.9054264 7.50658627,16.2608723 7.10928007,15.8635661" id="Fill-10" fill="#3F4246"></path>
            <path d="M7.85282834,17.5045199 C7.76956816,17.4212597 7.63438908,17.4212597 7.55081231,17.5045199 L6.93031816,18.1253306 C6.8467414,18.2085908 6.8467414,18.3437699 6.93031816,18.4270301 L7.96837955,19.465408 C8.05195631,19.5486682 8.18681882,19.5486682 8.27039558,19.465408 L8.89120631,18.8445973 C8.97446649,18.7613371 8.97446649,18.626158 8.89120631,18.5428978 L7.85282834,17.5045199 Z" id="Fill-12" fill="#3F4246"></path>
            <path d="M4.53657203,14.1883269 L3.49819406,13.1499489 C3.41493388,13.0666887 3.2797548,13.0666887 3.19649461,13.1499489 L2.57568388,13.7707596 C2.4924237,13.8540198 2.4924237,13.9891989 2.57568388,14.0727757 L3.61406185,15.1108371 C3.69732203,15.1944138 3.83250112,15.1944138 3.9157613,15.1108371 L4.53657203,14.4900263 C4.61983221,14.4067661 4.61983221,14.2715871 4.53657203,14.1883269" id="Fill-14" fill="#3F4246"></path>
            <path d="M14.1517937,2.16755069 C13.9574144,2.1792641 13.7972256,2.33628711 13.7788641,2.53319903 L13.7769646,2.55472638 C13.7658843,2.6743931 13.8079893,2.79184378 13.893149,2.87700344 C13.9745097,2.95836415 14.0872117,3.00110227 14.2024463,2.99413754 C15.499469,2.91530946 16.7695825,3.39619242 17.6867109,4.31363734 C18.6196682,5.24627804 19.0992848,6.53728577 19.0030449,7.85520268 C18.9944973,7.9720202 19.0369188,8.0863051 19.1195459,8.16893212 C19.2037558,8.25314204 19.3196236,8.29556358 19.438024,8.28574964 L19.458285,8.28385017 C19.6545638,8.26770466 19.8134863,8.10941534 19.8277323,7.9156692 C19.9417006,6.3574691 19.3747082,4.83124343 18.2717482,3.7286 C17.1868332,2.64368498 15.6853007,2.07479314 14.1517937,2.16755069" id="Fill-16" fill="#3F4246"></path>
            <path d="M14.0563136,4.9204553 C14.8914481,4.78559279 15.7458938,5.0613328 16.3426446,5.65776697 C16.9488927,6.26433166 17.2227332,7.13175716 17.0752076,7.97797188 C17.0527305,8.10460334 17.0945189,8.23535032 17.1866433,8.32747471 C17.2721195,8.41295094 17.3905199,8.45632222 17.5108198,8.4461917 L17.5383621,8.44397565 C17.7226109,8.42877988 17.8733023,8.28948527 17.9043271,8.10555308 C18.0923748,6.99562834 17.7305254,5.85879441 16.935913,5.06449858 C16.1558632,4.28444879 15.038024,3.91943361 13.9448779,4.08785345 C13.7590462,4.11666211 13.617219,4.26608723 13.5998072,4.45065258 L13.596958,4.48294361 C13.5855611,4.60387665 13.6282993,4.72259364 13.7144086,4.80901961 C13.8058999,4.90019426 13.9303153,4.94071633 14.0563136,4.9204553" id="Fill-18" fill="#3F4246"></path>
            <g id="Group-22" transform="translate(13.979393, 0.000000)">
                <mask id="mask-4" fill="white">
                    <use xlink:href="#path-3"></use>
                </mask>
                <g id="Clip-21"></g>
                <path d="M5.81823269,2.20272258 C4.36988538,0.754375261 2.44382088,-0.0275740003 0.394923868,0.000601499432 C0.189780904,0.00345070727 0.0210444847,0.161106874 0.00173318717,0.366882995 C-0.00934706552,0.487182882 0.0330744733,0.605266718 0.11823413,0.690426374 C0.19547932,0.767671564 0.297734223,0.809143367 0.406637278,0.807877052 C2.23582871,0.782550761 3.95516735,1.48092326 5.24775797,2.7731973 C6.5609262,4.08668211 7.25834896,5.83387967 7.21054559,7.69377923 C7.20801296,7.8039486 7.24948476,7.90810297 7.32767969,7.9862979 C7.41188961,8.07050782 7.52839055,8.11324594 7.64742412,8.103432 L7.66768515,8.10121595 C7.86396392,8.07493992 8.01307246,7.9122185 8.01813772,7.71467342 C8.07100635,5.63158592 7.28969025,3.67418013 5.81823269,2.20272258" id="Fill-20" fill="#3F4246" mask="url(#mask-4)"></path>
            </g>
        </g>
    </g>
</svg>