<svg width="48" height="48" viewBox="0 0 48 48" fill="none" xmlns="http://www.w3.org/2000/svg">
    <path d="M37.192 36v-5.06a11.205 11.205 0 0 0-3.048-7.419 13.13 13.13 0 0 1 2.54-.335c5.248 0 9.48 3.878 9.311 8.093v3.034a1.678 1.678 0 0 1-.495 1.193 1.693 1.693 0 0 1-1.197.494h-7.111zm-21.504 0a1.696 1.696 0 0 1-1.195-.496A1.682 1.682 0 0 1 14 34.31V30.94c0-4.383 4.57-8.598 9.988-8.598 5.418 0 9.987 4.047 9.987 8.598l.112 3.315a1.677 1.677 0 0 1-.474 1.232 1.693 1.693 0 0 1-1.22.514H15.689zm16.764-20.065c0-.933.278-1.846.799-2.622a4.735 4.735 0 0 1 2.127-1.739 4.758 4.758 0 0 1 5.166 1.024 4.702 4.702 0 0 1 1.027 5.144 4.723 4.723 0 0 1-1.746 2.118 4.754 4.754 0 0 1-5.985-.587 4.71 4.71 0 0 1-1.388-3.338zM17.724 13.07c0-1.2.357-2.374 1.027-3.372a6.089 6.089 0 0 1 2.735-2.235 6.117 6.117 0 0 1 6.641 1.316 6.046 6.046 0 0 1 1.321 6.614 6.073 6.073 0 0 1-2.245 2.723 6.111 6.111 0 0 1-7.694-.755 6.057 6.057 0 0 1-1.785-4.291z" fill="#fff"/>
    <circle cx="13" cy="34" r="10.5" fill="#fff" stroke="#151515" stroke-width="3"/>
    <path d="M16.518 34.753c0 1.966-1.577 3.565-3.518 3.565-1.94 0-3.519-1.599-3.519-3.565S11.06 31.19 13 31.19v1.688l3.604-2.438L13 28v1.688c-2.756 0-5 2.274-5 5.065 0 2.792 2.244 5.065 5 5.065s5-2.273 5-5.065h-1.482z" fill="#262626" stroke="#262626"/>
</svg>
