<?xml version="1.0" encoding="UTF-8"?>
<svg width="54px" height="54px" viewBox="0 0 54 54" version="1.1" xmlns="http://www.w3.org/2000/svg" xmlns:xlink="http://www.w3.org/1999/xlink">
    <title>ic_callout</title>
    <g id="v0.1-1108-2022-chaewon.min-&gt;-1111-전달받음-" stroke="none" stroke-width="1" fill="none" fill-rule="evenodd">
        <g id="Card-status" transform="translate(-720.000000, -319.000000)">
            <g id="Card-/-Idle-Copy-8" transform="translate(648.000000, 128.000000)">
                <g id="ic_callout" transform="translate(72.000000, 191.000000)">
                    <rect id="Rectangle-Copy" x="0" y="0" width="54" height="54"></rect>
                    <g fill-rule="nonzero" id="Path">
                        <path d="M27,54 C41.9115938,54 54,41.9115938 54,27 C54,12.0884062 41.9115938,0 27,0 C12.0884062,0 0,12.0884062 0,27 C0,41.9115938 12.0884062,54 27,54 Z" fill="#DEDEDE"></path>
                        <path d="M32.5471563,30.9709819 C32.5471563,31.2434446 32.6543125,31.504769 32.8441563,31.6975492 C33.034,31.8903295 33.2913438,31.9991432 33.5596562,31.9991432 L38.8752813,31.9991432 C39.15625,32.0034272 39.4279375,31.8997543 39.6363437,31.7086876 C39.84475,31.5184778 39.9746875,31.254583 40,30.9709819 L40,28.0004525 C39.9974687,27.0982409 39.7224062,26.219163 39.2110937,25.4814572 C38.6997813,24.7428947 37.978375,24.1825468 37.1430625,23.8749552 C33.7317812,22.6197416 30.1289687,21.9848519 26.5,22.0002744 C22.871875,21.9848519 19.2690625,22.6197416 15.8577813,23.8766688 C15.0224687,24.1842604 14.3010625,24.7446083 13.78975,25.482314 C13.2784375,26.2200198 13.003375,27.0999545 13,28.0013093 L13,30.9718387 C13,31.2443014 13.1071562,31.5064826 13.297,31.6992628 C13.4868437,31.8920431 13.7441875,32 14.0125,32 L19.4395,32 C19.5728125,32 19.7044375,31.9734392 19.827625,31.9220311 C19.9499687,31.8697662 20.0621875,31.7943677 20.1558437,31.6992628 C20.2495,31.6033011 20.3245937,31.4902033 20.3752188,31.3651104 C20.4258437,31.2408742 20.452,31.1072133 20.452,30.9718387 L20.452,27.5583431 C20.452,27.364706 20.5152812,27.1762098 20.6325625,27.0236992 C20.7498437,26.8711886 20.9152188,26.7632317 21.1,26.7178212 C22.8693438,26.2877071 24.680875,26.0632252 26.5,26.0495164 C28.3199687,26.0632252 30.1315,26.2877071 31.9,26.7178212 C32.085625,26.7632317 32.2501562,26.8711886 32.3674375,27.0236992 C32.4847187,27.1762098 32.548,27.364706 32.5471563,27.5583431 L32.5471563,30.9709819 Z" fill="#C12335"></path>
                    </g>
                </g>
            </g>
        </g>
    </g>
</svg>