<?xml version="1.0" encoding="UTF-8"?>
<svg width="24px" height="24px" viewBox="0 0 24 24" version="1.1" xmlns="http://www.w3.org/2000/svg" xmlns:xlink="http://www.w3.org/1999/xlink">
    <title>icon_sharing</title>
    <g id="Dispatcher_20221118_demo" stroke="none" stroke-width="1" fill="none" fill-rule="evenodd">
        <g id="Main-&gt;-GIS-&gt;-Location-sharing--" transform="translate(-662.000000, -301.000000)">
            <g id="Group-22" transform="translate(401.000000, 281.000000)">
                <g id="icon_sharing" transform="translate(261.000000, 20.000000)">
                    <rect id="Rectangle" x="0" y="0" width="24" height="24"></rect>
                    <path d="M4.15001244,16.0692186 C4.19130289,3.82301004 16.2301616,4.0447218 16.2301616,4.0447218 L16.2301616,1 L23,7.10201026 L16.2920973,13.5101084 L16.2714521,10.2571391 C16.2714521,10.2571391 7.11125573,7.702517 4.15001244,16.0692186" id="Fill-1" fill="#3E91FF"></path>
                    <path d="M19.3859188,12.277409 L19.3859188,19.5220875 C19.3859188,21.158446 18.0547506,22.4887165 16.4192898,22.4887165 L3.96662899,22.4887165 C2.33027055,22.4887165 1,21.158446 1,19.5220875 L1,7.06942671 C1,5.43396588 2.33027055,4.10279771 3.96662899,4.10279771 L10.1826368,4.10279771 C9.89270603,4.23025953 9.60098004,4.37028801 9.30925404,4.52378077 C8.68271636,4.85320674 8.09926436,5.22392316 7.55979567,5.63503242 L3.96662899,5.63503242 C3.1740319,5.63503242 2.5322347,6.27772723 2.5322347,7.06942671 L2.5322347,19.5220875 C2.5322347,20.3146846 3.1740319,20.9564818 3.96662899,20.9564818 L16.4192898,20.9564818 C17.2118869,20.9564818 17.8536841,20.3146846 17.8536841,19.5220875 L17.8536841,13.7414247 L19.3859188,12.277409 Z" id="Fill-3" fill="#3E91FF"></path>
                </g>
            </g>
        </g>
    </g>
</svg>