<?xml version="1.0" encoding="UTF-8"?>
<svg width="54px" height="54px" viewBox="0 0 54 54" version="1.1" xmlns="http://www.w3.org/2000/svg" xmlns:xlink="http://www.w3.org/1999/xlink">
    <title>icon_fishing54</title>
    <g id="v0.1-1108-2022-chaewon.min-&gt;-1111-전달받음-" stroke="none" stroke-width="1" fill="none" fill-rule="evenodd">
        <g id="Card-status" transform="translate(-872.000000, -319.000000)">
            <g id="icon_fishing54" transform="translate(872.000000, 319.000000)">
                <rect id="Rectangle-Copy-3" x="0" y="0" width="54" height="54"></rect>
                <path d="M24.7164646,32.7397175 L22.8854857,32.7397175 C22.7482185,36.2164021 19.8828604,39 16.3769221,39 C12.8709839,39 9.86235779,36.0731341 9.86235779,32.4764346 L9.86235779,23.1392674 C8.2024003,22.5924491 7,21.0255032 7,19.1735217 C7,16.8699837 8.86773347,15 11.168271,15 C13.4688086,15 15.3365421,16.8699837 15.3365421,19.1735217 C15.3365421,21.0225028 14.1341418,22.5894487 12.4711839,23.1392674 L12.4711839,32.4794349 C12.4711839,34.6367046 14.2256532,36.3934242 16.3799225,36.3934242 C18.5341918,36.3934242 20.2886611,34.639705 20.2886611,32.4794349 L20.2886611,29.088261 L24.7194649,32.7397175 L24.7164646,32.7397175 Z M12.7337167,19.1735217 C12.7337167,18.3086636 12.0346293,17.6095762 11.1712714,17.6095762 C10.3079135,17.6095762 9.6088261,18.3086636 9.6088261,19.1735217 C9.6088261,20.0383798 10.3079135,20.7382173 11.1712714,20.7382173 C12.0346293,20.7382173 12.7337167,20.0383798 12.7337167,19.1735217 Z" id="Shape" fill="#EFEFEF" fill-rule="nonzero"></path>
            </g>
        </g>
    </g>
</svg>