<?xml version="1.0" encoding="UTF-8"?>
<svg width="24px" height="24px" viewBox="0 0 24 24" version="1.1" xmlns="http://www.w3.org/2000/svg" xmlns:xlink="http://www.w3.org/1999/xlink">
    <title>icon_speaker </title>
    <g id="Dispatcher_20221118" stroke="none" stroke-width="1" fill="none" fill-rule="evenodd">
        <g id="Main-&gt;-Settings-&gt;-Device--" transform="translate(-547.000000, -374.000000)">
            <g id="icon_speaker-" transform="translate(547.000000, 374.000000)">
                <rect id="Rectangle" fill-opacity="0" fill="#D8D8D8" x="0" y="0" width="24" height="24"></rect>
                <path d="M12.3460397,21.7966713 L7.0799989,16.1097311 L2.63569296,16.1097311 C2.4613249,16.1025384 2.29679857,16.0268992 2.17785503,15.8991323 C2.05891149,15.7713654 1.9951528,15.6018346 2.00041771,15.4273539 L2.00041771,8.56568563 C1.99420187,8.39066359 2.05756627,8.220282 2.17663351,8.09189641 C2.29570075,7.96351082 2.46076826,7.88756224 2.63569296,7.88067891 L7.07910982,7.88067891 L12.3460397,2.19456628 C12.4358755,2.10058184 12.5526156,2.03671388 12.6802567,2.01173283 C12.8078205,1.98675178 12.9400229,2.00187962 13.0586959,2.0550359 C13.1773688,2.10819217 13.2766366,2.19677823 13.3430471,2.30864384 C13.4093802,2.42050172 13.4394544,2.55016343 13.4292493,2.67982514 L13.4292493,21.3122864 C13.4328829,21.3995267 13.4192761,21.4866123 13.3890473,21.5685161 C13.3588186,21.65042 13.3126637,21.7255178 13.2532886,21.7894786 C13.1939134,21.8534393 13.1224004,21.9049483 13.0429243,21.9411437 C12.9634483,21.9772618 12.8776326,21.9972157 12.7904254,22 C12.7062333,21.9992266 12.6231236,21.9807422 12.5465853,21.9457068 C12.4699698,21.9106715 12.4016265,21.859936 12.3460397,21.7966713 Z M17.7692776,18.0533806 C19.280251,16.3993721 20.1114256,14.2357655 20.0965818,11.995205 C20.1104978,9.75479914 19.2794779,7.59150198 17.7692776,5.93697525 L19.1140316,4.48296979 C20.9874407,6.53441681 22.0180013,9.21751319 21.9997558,11.9960557 C22.0182332,14.7746756 20.9876726,17.4578571 19.1140316,19.5091649 L17.7692776,18.0533806 Z M15.0770638,15.1445189 C15.855512,14.2800044 16.2862909,13.1577906 16.2862909,11.9942769 C16.2862909,10.8308405 15.855512,9.70854939 15.0770638,8.84411221 L16.4235959,7.39009902 C17.5616966,8.65354469 18.1915523,10.2940186 18.1915523,11.994741 C18.1915523,13.6954633 17.5616966,15.3359372 16.4235959,16.5993752 L15.0770638,15.1445189 Z" id="Shape" fill="#AFAFAF" fill-rule="nonzero"></path>
            </g>
        </g>
    </g>
</svg>