<?xml version="1.0" encoding="UTF-8"?>
<svg width="24px" height="24px" viewBox="0 0 24 24" version="1.1" xmlns="http://www.w3.org/2000/svg" xmlns:xlink="http://www.w3.org/1999/xlink">
    <title>ic_message </title>
    <g id="Dispatcher_20221118_demo" stroke="none" stroke-width="1" fill="none" fill-rule="evenodd">
        <g id="Group-9" transform="translate(-24.000000, -76.000000)">
            <g id="Group-7-Copy" transform="translate(0.000000, 64.000000)">
                <g id="ic_message-" transform="translate(24.000000, 12.000000)">
                    <g id="Group">
                        <rect id="Rectangle" x="0" y="0" width="24" height="24"></rect>
                    </g>
                    <g id="Group-2">
                        <path d="M15.4166667,11.75 C16.7053311,11.75 17.75,10.7053311 17.75,9.41666667 C17.75,8.12800225 16.7053311,7.08333333 15.4166667,7.08333333 C14.1280023,7.08333333 13.0833333,8.12800225 13.0833333,9.41666667 C13.0833333,10.7053311 14.1280023,11.75 15.4166667,11.75 Z M15.1666667,13 C14.75,13 14.3333333,13.0833333 13.9166667,13.1666667 C14.8333333,14.1666667 15.4166667,15.5 15.4166667,16.8333333 L15.4166667,19.3333333 L19.05,19.3333333 C19.4365993,19.3333333 19.75,19.0199327 19.75,18.6333333 C19.75,18.0888889 19.75,17.5444444 19.75,17 C19.8333333,14.9166667 17.75,13 15.1666667,13 Z M13.8333333,16.8333333 C13.8333333,14.5833333 11.5833333,12.5833333 8.91666667,12.5833333 C6.25,12.5833333 4,14.6666667 4,16.8333333 C4,17.4333333 4,18.0333333 4,18.6333333 C4,19.0199327 4.31340068,19.3333333 4.7,19.3333333 L13.1855062,19.3333333 C13.572105,19.3339861 13.8860351,19.0211158 13.8866889,18.634517 C13.8867047,18.6251706 13.8865333,18.6158248 13.8861212,18.6064873 C13.8509293,17.7339007 13.8333333,17.1428494 13.8333333,16.8333333 Z M8.83333333,11 C10.4901876,11 11.8333333,9.65685425 11.8333333,8 C11.8333333,6.34314575 10.4901876,5 8.83333333,5 C7.17647908,5 5.83333333,6.34314575 5.83333333,8 C5.83333333,9.65685425 7.17647908,11 8.83333333,11 Z" id="Group" fill="#FFFFFF" fill-rule="nonzero"></path>
                        <rect id="Rectangle" x="0" y="0" width="24" height="24"></rect>
                    </g>
                </g>
            </g>
        </g>
    </g>
</svg>