<?xml version="1.0" encoding="UTF-8"?>
<svg width="16px" height="16px" viewBox="0 0 16 16" version="1.1" xmlns="http://www.w3.org/2000/svg" xmlns:xlink="http://www.w3.org/1999/xlink">
    <title>Basic / close-edit</title>
    <g id="Dispatcher_20221118" stroke="none" stroke-width="1" fill="none" fill-rule="evenodd">
        <g id="Main-&gt;-Settings-&gt;-Account-&gt;-Change-Password" transform="translate(-739.000000, -199.000000)" fill="#FFFFFF">
            <g id="Group-5" transform="translate(400.000000, 174.000000)">
                <g id="Group-20" transform="translate(25.000000, 24.000000)">
                    <g id="Basic-/-close-edit" transform="translate(314.414529, 1.414529)">
                        <path d="M15.0061889,0.960247564 C15.2258588,1.17991748 15.2258588,1.53607278 15.0061889,1.75574269 L9.17646093,7.58547067 L15.0061889,13.4151987 C15.2258588,13.6348686 15.2258588,13.9910239 15.0061889,14.2106938 L14.2106938,15.0061889 C13.9910239,15.2258588 13.6348686,15.2258588 13.4151987,15.0061889 L7.58547067,9.17646093 L1.75574269,15.0061889 C1.53607278,15.2258588 1.17991748,15.2258588 0.960247564,15.0061889 L0.164752436,14.2106938 C-0.0549174785,13.9910239 -0.0549174785,13.6348686 0.164752436,13.4151987 L5.99448042,7.58547067 L0.164752436,1.75574269 C-0.0549174785,1.53607278 -0.0549174785,1.17991748 0.164752436,0.960247564 L0.960247564,0.164752436 C1.17991748,-0.0549174785 1.53607278,-0.0549174785 1.75574269,0.164752436 L7.58547067,5.99448042 L13.4151987,0.164752436 C13.6348686,-0.0549174785 13.9910239,-0.0549174785 14.2106938,0.164752436 L15.0061889,0.960247564 Z" id="Icon-color"></path>
                    </g>
                </g>
            </g>
        </g>
    </g>
</svg>