<svg width="24" height="24" viewBox="0 0 24 24" xmlns="http://www.w3.org/2000/svg">
    <g fill="none" fill-rule="evenodd">
        <path d="M0 0h24v24H0z"/>
        <path d="M21.389 8.1a.762.762 0 0 0-.387.112l-3.753 2.15V7.48a1.504 1.504 0 0 0-.447-1.05A1.488 1.488 0 0 0 15.75 6H3.5a1.488 1.488 0 0 0-1.052.43A1.504 1.504 0 0 0 2 7.48v9.61c.005.395.166.772.447 1.05.28.276.66.43 1.053.427h12.25c.392.003.771-.151 1.052-.428s.442-.654.447-1.05v-2.888l3.75 2.138c.12.083.261.13.407.132a.603.603 0 0 0 .563-.416.613.613 0 0 0 .029-.246V8.772a.625.625 0 0 0-.364-.617.615.615 0 0 0-.245-.055z" fill="#FFF" fill-rule="nonzero"/>
    </g>
</svg>
