<svg width="28" height="28" viewBox="0 0 28 28" fill="none" xmlns="http://www.w3.org/2000/svg">
    <path d="M6.91 17.993c2.162 2.948 4.83 4.785 7.324 5.037 1.675.17 4.68-.78 4.624-2.692-.028-1.001-.96-1.691-1.639-2.363-.21-.208-.419-.417-.628-.622-1.728-1.703-2.788.612-4.584.081-1.013-.301-1.58-1.301-2.187-2.031a3.222 3.222 0 0 1-1.047-2.312c.223-1.562 3.015-1.825 2.082-3.837-.123-.263-.246-.534-.37-.8-.476-1.021-1.058-2.538-2.562-2.45-3.224.192-4.197 3.478-3.86 5.995a13.015 13.015 0 0 0 2.809 5.956c.012.016.026.03.038.043" fill="#9B9FA4"/>
</svg>
