<?xml version="1.0" encoding="UTF-8"?>
<svg width="10px" height="8px" viewBox="0 0 10 8" version="1.1" xmlns="http://www.w3.org/2000/svg" xmlns:xlink="http://www.w3.org/1999/xlink">
    <title>Icon / Call / Incoming</title>
    <g id="Symbols" stroke="none" stroke-width="1" fill="none" fill-rule="evenodd">
        <g id="Group-2" transform="translate(-2.000000, -27.000000)" fill="#FFFFFF">
            <g id="Icon-/-Call-/-Incoming" transform="translate(2.000000, 27.548507)">
                <g id="waiting" transform="translate(0.000000, 0.000000)">
                    <path d="M0.431044776,4.47358209 C0.192985075,4.47358209 0,4.28059701 0,4.04253731 L0,3.2669403 C0,3.02880597 0.192985075,2.8358209 0.431044776,2.8358209 C0.669104478,2.8358209 0.862089552,3.02880597 0.862089552,3.2669403 L0.862089552,4.04253731 C0.862089552,4.28059701 0.669104478,4.47358209 0.431044776,4.47358209" id="Fill-1"></path>
                    <path d="M1.92358209,5.51074627 C1.68552239,5.51074627 1.49253731,5.31776119 1.49253731,5.07970149 L1.49253731,2.14746269 C1.49253731,1.90947761 1.68552239,1.71641791 1.92358209,1.71641791 C2.16164179,1.71641791 2.35462687,1.90947761 2.35462687,2.14746269 L2.35462687,5.07970149 C2.35462687,5.31776119 2.16164179,5.51074627 1.92358209,5.51074627" id="Fill-3"></path>
                    <path d="M3.4161194,6.41507463 C3.1780597,6.41507463 2.98507463,6.22208955 2.98507463,5.98402985 L2.98507463,1.32656716 C2.98507463,1.08850746 3.1780597,0.895522388 3.4161194,0.895522388 C3.6541791,0.895522388 3.84716418,1.08850746 3.84716418,1.32656716 L3.84716418,5.98402985 C3.84716418,6.22208955 3.6541791,6.41507463 3.4161194,6.41507463" id="Fill-5"></path>
                    <path d="M5.05791045,7.24477612 C4.81985075,7.24477612 4.62686567,7.05179104 4.62686567,6.81373134 L4.62686567,0.431044776 C4.62686567,0.192985075 4.81985075,0 5.05791045,0 C5.29597015,0 5.48895522,0.192985075 5.48895522,0.431044776 L5.48895522,6.81373134 C5.48895522,7.05179104 5.29597015,7.24477612 5.05791045,7.24477612" id="Fill-7"></path>
                    <path d="M6.11940299,5.30358209 L6.11940299,1.92358209 C6.11940299,1.68559701 6.31238806,1.49253731 6.55044776,1.49253731 C6.78850746,1.49253731 6.98149254,1.68559701 6.98149254,1.92358209 L6.98149254,5.30358209 C6.98149254,5.54164179 6.78850746,5.73462687 6.55044776,5.73462687 C6.31238806,5.73462687 6.11940299,5.54164179 6.11940299,5.30358209 Z" id="Fill-9"></path>
                    <path d="M8.04298507,4.68097015 C7.80492537,4.68097015 7.6119403,4.48798507 7.6119403,4.24992537 L7.6119403,3.04298507 C7.6119403,2.80492537 7.80492537,2.6119403 8.04298507,2.6119403 C8.28104478,2.6119403 8.47402985,2.80492537 8.47402985,3.04298507 L8.47402985,4.24992537 C8.47402985,4.48798507 8.28104478,4.68097015 8.04298507,4.68097015" id="Fill-11"></path>
                    <path d="M9.10447761,4.79 L9.10447761,2.52059701 C9.10447761,2.28253731 9.29746269,2.08955224 9.53552239,2.08955224 C9.77358209,2.08955224 9.96656716,2.28253731 9.96656716,2.52059701 L9.96656716,4.79 C9.96656716,5.0280597 9.77358209,5.22104478 9.53552239,5.22104478 C9.29746269,5.22104478 9.10447761,5.0280597 9.10447761,4.79 Z" id="Fill-15"></path>
                </g>
            </g>
        </g>
    </g>
</svg>