<svg width="48" height="48" viewBox="0 0 48 48" fill="none" xmlns="http://www.w3.org/2000/svg">
<path d="M24 48C37.2548 48 48 37.2548 48 24C48 10.7452 37.2548 0 24 0C10.7452 0 0 10.7452 0 24C0 37.2548 10.7452 48 24 48Z" fill="#2AB627"/>
<path d="M16.6666 34.3883C16.3425 34.3883 16.0317 34.2597 15.8025 34.0307C15.5732 33.8017 15.4443 33.491 15.4439 33.167V32.8723C15.5268 30.6601 16.4639 28.5662 18.0583 27.0304C19.6526 25.4947 21.7802 24.6367 23.9939 24.6367C26.2076 24.6367 28.3352 25.4947 29.9296 27.0304C31.5239 28.5662 32.461 30.6601 32.5439 32.8723V33.167C32.5439 33.4912 32.4151 33.8022 32.1858 34.0315C31.9565 34.2608 31.6455 34.3896 31.3212 34.3896L16.6666 34.3883ZM19.7212 17.8883C19.7215 17.0424 19.9726 16.2156 20.4427 15.5124C20.9128 14.8092 21.5808 14.2612 22.3623 13.9376C23.1439 13.6141 24.0038 13.5295 24.8334 13.6946C25.663 13.8596 26.425 14.267 27.0231 14.8651C27.6212 15.4632 28.0286 16.2252 28.1937 17.0548C28.3587 17.8844 28.2741 18.7444 27.9506 19.5259C27.627 20.3074 27.079 20.9755 26.3758 21.4456C25.6726 21.9157 24.8458 22.1667 23.9999 22.167C23.438 22.1671 22.8815 22.0566 22.3623 21.8416C21.8431 21.6267 21.3714 21.3115 20.974 20.9142C20.5767 20.5168 20.2615 20.0451 20.0466 19.5259C19.8316 19.0067 19.7211 18.4502 19.7212 17.8883Z" fill="white"/>
</svg>
