<?xml version="1.0" encoding="UTF-8"?>
<svg width="24px" height="24px" viewBox="0 0 24 24" version="1.1" xmlns="http://www.w3.org/2000/svg" xmlns:xlink="http://www.w3.org/1999/xlink">
    <title>Group 2</title>
    <g id="Symbols" stroke="none" stroke-width="1" fill="none" fill-rule="evenodd">
        <g id="Group-2">
            <g id="Group-3-Copy">
                <rect id="Rectangle" x="0" y="0" width="24" height="24"></rect>
            </g>
            <g id="Group" transform="translate(7.000000, 6.000000)" fill="#FFFFFF" fill-rule="nonzero">
                <g id="Group-Copy-4" transform="translate(5.000000, 6.500000) scale(-1, 1) translate(-5.000000, -6.500000) ">
                    <path d="M4.99985,0 C3.6738,0 2.4020775,0.509955636 1.4644225,1.41768523 C0.5267675,2.32541483 0,3.55655012 0,4.84027903 C0,8.43606079 4.99985,13 4.99985,13 C4.99985,13 10,8.43606079 10,4.84027903 C10,4.20461032 9.870675,3.57518575 9.619375,2.98792128 C9.3681,2.40064955 8.999775,1.86704844 8.535475,1.41758359 C8.07115,0.968118732 7.51995,0.611592444 6.9133,0.368361125 C6.30665,0.125131985 5.656475,0 4.99985,0 M4.99985,7.10845343 C4.47995,7.10845343 3.971725,6.95919895 3.539425,6.67956764 C3.10715,6.39996053 2.770225,6.0025133 2.57125,5.53751794 C2.3723025,5.07249838 2.320245,4.56084134 2.421675,4.06719067 C2.5231,3.57356421 2.77345,3.12011327 3.1411,2.76422107 C3.508725,2.40832404 3.9771,2.16595674 4.487025,2.06776631 C4.996925,1.96957347 5.525475,2.01996954 6.0058,2.2125797 C6.486125,2.40518745 6.896675,2.73135459 7.185525,3.14985767 C7.474375,3.56833655 7.62855,4.06034147 7.62855,4.56364879 C7.62855,4.89785588 7.56055,5.22877148 7.42845,5.53751794 C7.29635,5.8462644 7.1027,6.12679119 6.858625,6.3631007 C6.614525,6.59941021 6.324725,6.78685564 6.0058,6.91473965 C5.686875,7.04262366 5.34505,7.10845343 4.99985,7.10845343 Z" id="Shape"></path>
                </g>
            </g>
            <polygon id="Fill-1" fill="#FFFFFF" points="3 2.25 3 6.25 4.08070175 6.24980351 4.08070175 3.33070175 7 3.33070175 7 2.25"></polygon>
            <polygon id="Fill-1-Copy-2" fill="#FFFFFF" transform="translate(19.250000, 4.250000) scale(-1, 1) translate(-19.250000, -4.250000) " points="17.25 2.25 17.25 6.25 18.3307018 6.24980351 18.3307018 3.33070175 21.25 3.33070175 21.25 2.25"></polygon>
            <polygon id="Fill-1-Copy" fill="#FFFFFF" transform="translate(5.000000, 20.250000) scale(1, -1) translate(-5.000000, -20.250000) " points="3 18.25 3 22.25 4.08070175 22.2498035 4.08070175 19.3307018 7 19.3307018 7 18.25"></polygon>
            <polygon id="Fill-1-Copy-3" fill="#FFFFFF" transform="translate(19.250000, 20.250000) scale(-1, -1) translate(-19.250000, -20.250000) " points="17.25 18.25 17.25 22.25 18.3307018 22.2498035 18.3307018 19.3307018 21.25 19.3307018 21.25 18.25"></polygon>
        </g>
    </g>
</svg>