<?xml version="1.0" encoding="UTF-8"?>
<svg width="24px" height="24px" viewBox="0 0 24 24" version="1.1" xmlns="http://www.w3.org/2000/svg" xmlns:xlink="http://www.w3.org/1999/xlink">
    <title>ic_cancel modal </title>
    <g id="ic_cancel-modal-" stroke="none" stroke-width="1" fill="none" fill-rule="evenodd">
        <g id="Menu-/-Disable-PTT-set">
            <g id="Basic-/-close-edit" transform="translate(5.257359, 5.255431)" fill="#FFFFFF">
                <path d="M13.3388346,0.85224426 C13.5340967,1.04720692 13.5340967,1.36330386 13.3388346,1.55826652 L8.15685416,6.73229913 L13.3388346,11.9063317 C13.5340967,12.1012944 13.5340967,12.4173913 13.3388346,12.612354 L12.6317278,13.3183763 C12.4364657,13.5133389 12.1198832,13.5133389 11.924621,13.3183763 L6.7426406,8.14434365 L1.56066017,13.3183763 C1.36539803,13.5133389 1.04881554,13.5133389 0.853553391,13.3183763 L0.146446609,12.612354 C-0.0488155365,12.4173913 -0.0488155365,12.1012944 0.146446609,11.9063317 L5.32842704,6.73229913 L0.146446609,1.55826652 C-0.0488155365,1.36330386 -0.0488155365,1.04720692 0.146446609,0.85224426 L0.853553391,0.146221998 C1.04881554,-0.048740666 1.36539803,-0.048740666 1.56066017,0.146221998 L6.7426406,5.3202546 L11.924621,0.146221998 C12.1198832,-0.048740666 12.4364657,-0.048740666 12.6317278,0.146221998 L13.3388346,0.85224426 Z" id="Icon-color"></path>
            </g>
            <rect id="Rectangle" x="0" y="0" width="24" height="24"></rect>
        </g>
    </g>
</svg>