<?xml version="1.0" encoding="UTF-8"?>
<svg width="24px" height="24px" viewBox="0 0 24 24" version="1.1" xmlns="http://www.w3.org/2000/svg" xmlns:xlink="http://www.w3.org/1999/xlink">
    <title>icon_trashcan</title>
    <defs>
        <polygon id="path-1" points="0 0 14.824223 0 14.824223 6.16317261 0 6.16317261"></polygon>
    </defs>
    <g id="Dispatcher_20221118" stroke="none" stroke-width="1" fill="none" fill-rule="evenodd">
        <g id="Main-&gt;-Contacts-&gt;-Contact-Detail" transform="translate(-1032.000000, -88.000000)">
            <g id="Top" transform="translate(720.000000, 72.000000)">
                <g id="icon_trashcan" transform="translate(312.000000, 16.000000)">
                    <rect id="Rectangle" x="0" y="0" width="24" height="24"></rect>
                    <g id="Group-6" transform="translate(4.000000, 2.000000)">
                        <path d="M11.5056088,17.6134688 C11.4992631,17.83009 11.2828244,18.0030217 11.0179485,18.0030217 C10.7439421,18.0030217 10.5237143,17.8184486 10.5302883,17.594386 L10.7755336,9.209433 C10.7818793,8.99281178 10.9983636,8.81988003 11.2631939,8.81988003 C11.5371546,8.81988003 11.7574281,9.00440752 11.7508541,9.22851575 L11.5056088,17.6134688 Z M8.01319084,17.6039274 C8.01319084,17.8243378 7.79478918,18.0030217 7.52539364,18.0030217 L7.52511973,18.0030217 C7.2557242,18.0030217 7.03732253,17.8243378 7.03732253,17.6039274 L7.03732253,9.21897438 C7.03732253,8.998564 7.2557242,8.81988003 7.52511973,8.81988003 L7.52539364,8.81988003 C7.79478918,8.81988003 8.01319084,8.998564 8.01319084,9.21897438 L8.01319084,17.6039274 Z M4.03256486,18.0030217 C3.76768893,18.0030217 3.55125032,17.83009 3.54490462,17.6134688 L3.29961362,9.22851575 C3.29308531,9.00440752 3.51331307,8.81988003 3.78727386,8.81988003 C4.05214979,8.81988003 4.26863405,8.99281178 4.27493409,9.209433 L4.52017944,17.594386 C4.5267534,17.8184486 4.30652564,18.0030217 4.03256486,18.0030217 L4.03256486,18.0030217 Z M7.42628202,6.82290177 L7.3979318,6.82290177 L0.716274371,6.82290177 L1.05985525,18.5698435 C1.08313804,19.365156 1.87785713,20 2.85025585,20 L7.3979318,20 L7.42628202,20 L11.973958,20 C12.9463567,20 13.7410758,19.365156 13.7643586,18.5698435 L14.1079395,6.82290177 L7.42628202,6.82290177 Z" id="Fill-1" fill="#AFAFAF"></path>
                        <g id="Group-5">
                            <mask id="mask-2" fill="white">
                                <use xlink:href="#path-1"></use>
                            </mask>
                            <g id="Clip-4"></g>
                            <path d="M5.52619211,1.57938551 L9.29800346,1.57938551 C9.56196634,1.57938551 9.7848876,1.75674556 9.85491857,1.99843001 L4.96927699,1.99843001 C5.03935362,1.75674556 5.26222923,1.57938551 5.52619211,1.57938551 M12.0371548,2.28133869 L11.5872035,2.13935934 C11.2911926,2.04595428 10.9826272,1.99843001 10.6722357,1.99843001 L10.667853,1.99843001 L10.667853,1.36979479 C10.667853,0.613286847 10.054557,-9.1305044e-06 9.29800346,-9.1305044e-06 L5.52619211,-9.1305044e-06 C4.76963852,-9.1305044e-06 4.15634254,0.613286847 4.15634254,1.36979479 L4.15634254,1.99843001 C3.84873585,1.99843001 3.5429096,2.04508689 3.24931824,2.13684846 L2.78708645,2.28133869 L0.898487281,2.28133869 C0.402244369,2.28133869 0,2.68358306 0,3.17982597 L0,6.16317261 L14.8242412,6.16317261 L14.8242412,3.17982597 C14.8242412,2.68358306 14.4219512,2.28133869 13.9257083,2.28133869 L12.0371548,2.28133869 Z" id="Fill-3" fill="#AFAFAF" mask="url(#mask-2)"></path>
                        </g>
                    </g>
                </g>
            </g>
        </g>
    </g>
</svg>