<svg width="10" height="10" viewBox="0 0 10 10" xmlns="http://www.w3.org/2000/svg">
    <path d="m7.103 6.084.008.03a2.169 2.169 0 0 1 .071.42l.005.156v2.06l-.117.001c-.184.37-.566.624-1.008.624H3.938c-.44 0-.823-.254-1.007-.624l-.118-.001V6.69c0-.06.003-.12.008-.178l-.007.178a2.212 2.212 0 0 1 .084-.606l.043-.131a2.172 2.172 0 0 1 .36-.64c.4-.494 1.014-.81 1.7-.81.751 0 1.414.378 1.808.955l.017.026c.026.039.05.078.074.119l.016.029c.021.038.041.077.06.116l.016.035.01.022c.04.09.074.183.102.28zm-4.99-1.37c.171 0 .338.02.497.06a3.05 3.05 0 0 0-.672 1.916v2.06h-.813A1.125 1.125 0 0 1 0 7.625v-.893c0-1.115.904-2.019 2.018-2.019h.095zm5.869 0c1.114 0 2.018.903 2.018 2.018v.893c0 .621-.504 1.125-1.125 1.125h-.813V6.69a3.05 3.05 0 0 0-.672-1.914c.159-.041.326-.063.497-.063h.095zM2.065 2.04a1.04 1.04 0 1 1 0 2.08 1.04 1.04 0 0 1 0-2.08zm5.869 0a1.04 1.04 0 1 1-.001 2.08 1.04 1.04 0 0 1 0-2.08zM5 .75a1.563 1.563 0 1 1 0 3.125A1.563 1.563 0 0 1 5 .75z" fill="#FFF" fill-rule="evenodd"/>
</svg>
