<svg width="26" height="24" viewBox="0 0 26 24" xmlns="http://www.w3.org/2000/svg">
    <path d="M18.844 11.302c2.127 0 3.85-1.749 3.85-3.907 0-2.157-1.723-3.907-3.85-3.907s-3.852 1.75-3.852 3.907c0 2.158 1.725 3.907 3.852 3.907zm-.413 2.093c-.688 0-1.375.14-2.063.28 1.513 1.674 2.476 3.906 2.476 6.139V24h5.884c.7 0 1.268-.568 1.268-1.269v-2.638c.138-3.488-3.301-6.698-7.565-6.698zm-2.2 6.419c0-3.767-3.714-7.116-8.116-7.116C3.714 12.698 0 16.186 0 19.814v2.917C0 23.432.568 24 1.268 24h13.777a1.268 1.268 0 0 0 1.268-1.321 88.28 88.28 0 0 1-.083-2.865zm-8.253-9.767c2.734 0 4.951-2.25 4.951-5.024S10.712 0 7.978 0C5.243 0 3.026 2.249 3.026 5.023c0 2.775 2.217 5.024 4.952 5.024z" fill="#3e91ff" fill-rule="nonzero"/>
</svg>
