<?xml version="1.0" encoding="UTF-8"?>
<svg width="16px" height="16px" viewBox="0 0 16 16" version="1.1" xmlns="http://www.w3.org/2000/svg" xmlns:xlink="http://www.w3.org/1999/xlink">
    <title>Group 16</title>
    <g id="Dispatcher_20221118_데모버젼" stroke="none" stroke-width="1" fill="none" fill-rule="evenodd">
        <g id="message-copy" transform="translate(-759.000000, -288.000000)">
            <g id="Group-16" transform="translate(759.000000, 288.000000)">
                <g id="그룹_2454" transform="translate(2.000000, 2.000000)">
                    <rect id="사각형_2309" x="0" y="0" width="13" height="11.9826087"></rect>
                    <g id="Status-/-alert-2" transform="translate(0.116943, 0.921739)">
                        <path d="M9.69071304,0 C10.2316854,-1.06033501e-15 10.6857449,0.407612102 10.7438969,0.945449873 L11.681,9.623 L12.2961193,9.62358143 C12.5578407,9.62358143 12.7700078,9.83574853 12.7700078,10.0974699 C12.7700078,10.3591913 12.5578407,10.5713584 12.2961193,10.5713584 L0.473888479,10.5713584 C0.212167099,10.5713584 3.20516251e-17,10.3591913 0,10.0974699 C-3.20516251e-17,9.83574853 0.212167099,9.62358143 0.473888479,9.62358143 L1.088,9.623 L2.02611087,0.945449873 C2.08426287,0.407612102 2.53832237,-1.2266959e-16 3.07929476,0 L9.69071304,0 Z" id="Combined-Shape" fill="#BF1024" fill-rule="nonzero"></path>
                        <path d="M6.3850039,9.11323999 C6.82579644,9.11323999 7.18312939,8.78682907 7.18312939,8.38418079 C7.18312939,7.98153251 6.82579644,7.65512159 6.3850039,7.65512159 C5.94421137,7.65512159 5.58687841,7.98153251 5.58687841,8.38418079 C5.58687841,8.78682907 5.94421137,9.11323999 6.3850039,9.11323999 Z M5.9194307,1.68139278 C6.21376465,1.5402394 6.55624315,1.5402394 6.8505771,1.68139278 C7.13002015,1.81540495 7.29561498,2.11007036 7.26478466,2.41844865 L6.86845914,6.38266886 C6.85830777,6.48420731 6.77286614,6.56153279 6.67082151,6.56153279 L6.09918629,6.56153279 C5.99714167,6.56153279 5.91170003,6.48420731 5.90154866,6.38266886 L5.50522314,2.41844865 C5.47439282,2.11007036 5.63998765,1.81540495 5.9194307,1.68139278 Z" id="Exclamation-mark" fill="#FFFFFF"></path>
                    </g>
                </g>
                <rect id="Rectangle" x="0" y="0" width="16" height="16"></rect>
            </g>
        </g>
    </g>
</svg>