<svg width="24" height="24" viewBox="0 0 24 24" xmlns="http://www.w3.org/2000/svg">
    <g fill="none" fill-rule="evenodd">
        <path d="M0 0h24v24H0z"/>
        <path d="M16.046 11.713a2.666 2.666 0 1 0 0-5.332 2.666 2.666 0 0 0 0 5.332zm-.286 1.428c-.476 0-.952.096-1.428.19 1.047 1.144 1.714 2.667 1.714 4.19v2.857h4.101c.47 0 .85-.38.85-.85v-1.816c.095-2.38-2.285-4.57-5.237-4.57zm-1.524 4.38c0-2.57-2.57-4.856-5.618-4.856-3.047 0-5.618 2.38-5.618 4.857v2.006c0 .47.38.85.85.85h9.594a.85.85 0 0 0 .85-.881 59.945 59.945 0 0 1-.058-1.975zm-5.713-6.665a3.428 3.428 0 1 0 0-6.856 3.428 3.428 0 0 0 0 6.856z" fill="#FFF" fill-rule="nonzero"/>
    </g>
</svg>
