<svg width="24" height="24" viewBox="0 0 24 24" xmlns="http://www.w3.org/2000/svg">
    <g fill="none" fill-rule="evenodd">
        <path d="M7.444 9.1 9.1 10.758l-2.9 2.9a2.93 2.93 0 0 0-.132 4.001l.132.141a2.93 2.93 0 0 0 4.002.132l.14-.132 2.9-2.9 1.656 1.657-2.899 2.9c-2 2-5.207 2.057-7.276.171l-.18-.171c-2-2-2.057-5.207-.171-7.276l.171-.18 2.9-2.9zM12 4.545a5.272 5.272 0 0 1 7.627 7.276l-.171.18-2.9 2.9-1.657-1.657 2.9-2.9a2.93 2.93 0 0 0 .132-4.001l-.132-.141a2.93 2.93 0 0 0-4.002-.132l-.14.132-2.9 2.9-1.656-1.657L12 4.544zm2.485 3.314 1.657 1.657-6.627 6.627-1.657-1.657 6.627-6.627z" fill="#FFF"/>
        <path fill="none" d="M0 0h24v24H0z"/>
    </g>
</svg>
