<svg width="34" height="34" viewBox="0 0 34 34" xmlns="http://www.w3.org/2000/svg">
    <g fill="none" fill-rule="evenodd">
        <circle fill="#54595F" fill-rule="nonzero" cx="17" cy="17" r="17"/>
        <path d="m13.281 14.633 1.352 1.353-2.366 2.366a2.39 2.39 0 0 0-.108 3.266l.108.115a2.39 2.39 0 0 0 3.266.108l.115-.108 2.366-2.366 1.353 1.352L17 23.086a4.303 4.303 0 0 1-5.939.14l-.147-.14a4.303 4.303 0 0 1-.14-5.94l.14-.146 2.367-2.367zM17 10.914a4.303 4.303 0 0 1 6.225 5.94l-.14.146-2.366 2.367-1.352-1.353 2.366-2.366a2.39 2.39 0 0 0 .108-3.266l-.108-.115a2.39 2.39 0 0 0-3.266-.108l-.115.108-2.366 2.366-1.353-1.352L17 10.914zm2.029 2.705 1.352 1.352-5.41 5.41-1.352-1.352 5.41-5.41z" fill="#FFF"/>
    </g>
</svg>
