<svg width="48" height="48" viewBox="0 0 48 48" fill="none" xmlns="http://www.w3.org/2000/svg">
    <g clip-path="url(#cwxdkd7xza)">
        <path d="M36.351 44H13.886a1.549 1.549 0 0 1-1.161-.558 2.056 2.056 0 0 1-.482-1.34V25.837h-1.145c-.29 0-.57-.133-.776-.37a1.37 1.37 0 0 1-.322-.894v-6.552c0-.335.116-.657.322-.894.206-.237.485-.37.776-.37h1.145v-6.05c0-.502.174-.983.482-1.339a1.548 1.548 0 0 1 1.162-.557h14.032V3.265c0-.336.116-.657.322-.894.206-.237.485-.37.776-.371h3.405c.29 0 .57.134.776.37.206.238.322.56.322.895V8.81h2.832c.437 0 .856.2 1.165.556.308.355.482.837.483 1.34v31.396c0 .503-.175.986-.484 1.341-.309.356-.728.556-1.165.556zM19.287 25.257a.898.898 0 0 0-.43.042.998.998 0 0 0-.377.243c-.109.11-.196.247-.256.4a1.333 1.333 0 0 0 0 .972c.06.152.147.289.256.4.11.11.238.193.377.242.14.05.286.064.43.043h11.447c.145.02.291.006.43-.043a.997.997 0 0 0 .377-.243c.11-.11.197-.247.257-.4a1.334 1.334 0 0 0 0-.971 1.184 1.184 0 0 0-.257-.4.997.997 0 0 0-.377-.243.898.898 0 0 0-.43-.042H19.287zm-2.053-4.995a.896.896 0 0 0-.431.041.995.995 0 0 0-.378.243c-.11.11-.197.247-.258.4a1.335 1.335 0 0 0 0 .973c.06.154.148.29.258.4.11.111.238.194.378.243.14.049.286.063.43.041h15.555a.896.896 0 0 0 .431-.041.997.997 0 0 0 .378-.242c.11-.111.198-.247.258-.4a1.332 1.332 0 0 0 0-.974 1.185 1.185 0 0 0-.258-.4.995.995 0 0 0-.378-.242.896.896 0 0 0-.43-.042H17.233zm2.053-4.993c-.287-.02-.57.092-.786.312-.216.219-.349.527-.368.858.02.331.152.64.368.859.216.219.499.33.786.312h11.447c.288.019.57-.093.786-.312.216-.22.349-.528.369-.859-.02-.33-.152-.64-.369-.858a1.007 1.007 0 0 0-.786-.312H19.287z" fill="#fff"/>
    </g>
    <defs>
        <clipPath id="cwxdkd7xza">
            <path fill="#fff" d="M0 0h48v48H0z"/>
        </clipPath>
    </defs>
</svg>
