<?xml version="1.0" encoding="UTF-8"?>
<svg width="34px" height="34px" viewBox="0 0 34 34" version="1.1" xmlns="http://www.w3.org/2000/svg" xmlns:xlink="http://www.w3.org/1999/xlink">
    <title>Call type / Card / Group</title>
    <g id="Symbols" stroke="none" stroke-width="1" fill="none" fill-rule="evenodd">
        <g id="Top-/-Active-session-bar-" transform="translate(-791.000000, -19.000000)">
            <g id="ic_full-duplex_middle" transform="translate(791.000000, 19.000000)">
                <circle id="타원_109" fill="#54595F" fill-rule="nonzero" cx="17" cy="17" r="17"></circle>
                <g id="Basic-/-user" transform="translate(10.306250, 9.350000)" fill="#FFFFFF">
                    <path d="M6.69375,6.69375 C8.54217802,6.69375 10.040625,5.19530302 10.040625,3.346875 C10.040625,1.49844698 8.54217802,0 6.69375,0 C4.84532198,0 3.346875,1.49844698 3.346875,3.346875 C3.346875,5.19530302 4.84532198,6.69375 6.69375,6.69375 Z M1.77635684e-15,14.34375 L1.77635684e-15,14.34375 L1.77635684e-15,14.34375 L0.00388143625,14.1136287 C0.125174384,10.5233241 3.07391179,7.65 6.69375,7.65 C10.3135882,7.65 13.2623256,10.5233241 13.3836186,14.1136287 L13.3875,14.34375 C13.3875,14.8718723 12.9593723,15.3 12.43125,15.3 L0.95625,15.3 C0.428127708,15.3 1.84103317e-15,14.8718723 1.77635684e-15,14.34375 Z" id="Icon-color"></path>
                </g>
            </g>
        </g>
    </g>
</svg>