<?xml version="1.0" encoding="UTF-8"?>
<svg width="18px" height="18px" viewBox="0 0 18 18" version="1.1" xmlns="http://www.w3.org/2000/svg" xmlns:xlink="http://www.w3.org/1999/xlink">
    <title>Basic / mosaic-view</title>
    <g id="Dispatcher_20221118" stroke="none" stroke-width="1" fill="none" fill-rule="evenodd">
        <g id="Main-&gt;-GIS" transform="translate(-1030.000000, -91.000000)" fill="#3E91FF">
            <g id="Group" transform="translate(1022.000000, 83.000000)">
                <g id="Basic-/-mosaic-view" transform="translate(8.250000, 8.250000)">
                    <path d="M1.25,0 L6.40625,0 C7.09660594,-1.26816328e-16 7.65625,0.559644063 7.65625,1.25 L7.65625,6.40625 C7.65625,7.09660594 7.09660594,7.65625 6.40625,7.65625 L1.25,7.65625 C0.559644063,7.65625 -1.37500386e-16,7.09660594 0,6.40625 L0,1.25 C-8.45442189e-17,0.559644063 0.559644063,-9.52282766e-17 1.25,0 Z M1.25,9.84375 L6.40625,9.84375 C7.09660594,9.84375 7.65625,10.4033941 7.65625,11.09375 L7.65625,16.25 C7.65625,16.9403559 7.09660594,17.5 6.40625,17.5 L1.25,17.5 C0.559644063,17.5 -1.37500386e-16,16.9403559 0,16.25 L0,11.09375 C-8.45442189e-17,10.4033941 0.559644063,9.84375 1.25,9.84375 Z M11.09375,0 L16.25,0 C16.9403559,-1.26816328e-16 17.5,0.559644063 17.5,1.25 L17.5,6.40625 C17.5,7.09660594 16.9403559,7.65625 16.25,7.65625 L11.09375,7.65625 C10.4033941,7.65625 9.84375,7.09660594 9.84375,6.40625 L9.84375,1.25 C9.84375,0.559644063 10.4033941,-9.52282766e-17 11.09375,0 Z M11.09375,9.84375 L16.25,9.84375 C16.9403559,9.84375 17.5,10.4033941 17.5,11.09375 L17.5,16.25 C17.5,16.9403559 16.9403559,17.5 16.25,17.5 L11.09375,17.5 C10.4033941,17.5 9.84375,16.9403559 9.84375,16.25 L9.84375,11.09375 C9.84375,10.4033941 10.4033941,9.84375 11.09375,9.84375 Z" id="Icon-color"></path>
                </g>
            </g>
        </g>
    </g>
</svg>