<svg width="48" height="48" viewBox="0 0 48 48" fill="none" xmlns="http://www.w3.org/2000/svg">
<path d="M42 0H6C2.68629 0 0 2.68629 0 6V42C0 45.3137 2.68629 48 6 48H42C45.3137 48 48 45.3137 48 42V6C48 2.68629 45.3137 0 42 0Z" fill="#33363A"/>
<path d="M42 0.75H6C3.10051 0.75 0.75 3.10051 0.75 6V42C0.75 44.8995 3.10051 47.25 6 47.25H42C44.8995 47.25 47.25 44.8995 47.25 42V6C47.25 3.10051 44.8995 0.75 42 0.75Z" stroke="#3F4246" stroke-width="1.25" stroke-miterlimit="10"/>
<path d="M13.1344 34.3662C12.9203 34.3662 12.7061 34.291 12.5383 34.1405C12.2952 33.9263 12.1852 33.6022 12.2431 33.2839L13.7537 25.4706C13.8463 24.9787 14.3267 24.6546 14.8186 24.753C15.3106 24.8456 15.6289 25.3259 15.5363 25.8179L14.3209 32.1032L20.3168 30.1007C20.7914 29.9445 21.3065 30.1991 21.4628 30.6737C21.6191 31.1483 21.3644 31.6634 20.8898 31.8196L13.4238 34.3141C13.3312 34.343 13.2328 34.3604 13.1344 34.3604V34.3662Z" fill="#CDD0D3"/>
<path d="M30.4393 20.9442C30.2252 20.9442 30.011 20.869 29.8374 20.7127L23.882 15.3939C23.5116 15.0582 23.4768 14.4852 23.8125 14.1148L26.3185 11.302C26.4806 11.1226 26.7063 11.0127 26.9436 11.0011C27.1809 10.9895 27.4182 11.0705 27.5976 11.2326L33.5531 16.5514C33.7325 16.7135 33.8424 16.9392 33.854 17.1765C33.8656 17.4196 33.7846 17.6511 33.6225 17.8305L31.1107 20.6433C30.9313 20.8458 30.6824 20.9442 30.4335 20.9442H30.4393ZM25.7687 14.6473L30.3699 18.7565L31.6721 17.298L27.0709 13.1888L25.7687 14.6473Z" fill="#CDD0D3"/>
<path d="M16.7111 32.6063L13.5626 29.7588L13.1401 33.4571L16.7111 32.6063Z" fill="#CDD0D3"/>
<path d="M20.6004 31.8714C20.3863 31.8714 20.1721 31.7961 19.9985 31.6399L14.0488 26.3211C13.8694 26.159 13.7594 25.9333 13.7479 25.696C13.7363 25.4529 13.8173 25.2214 13.9794 25.042L23.8415 14.1092C24.1771 13.7388 24.7443 13.7098 25.1205 14.0397L31.076 19.3585C31.2554 19.5206 31.3654 19.7463 31.3769 19.9836C31.3885 20.2267 31.3075 20.4582 31.1454 20.6376L21.2775 31.5646C21.0981 31.7614 20.8493 31.8656 20.6062 31.8656L20.6004 31.8714ZM15.9356 25.5744L20.5367 29.6837L29.1834 20.1052L24.5823 15.9959L15.9356 25.5744Z" fill="#CDD0D3"/>
<path d="M35 35.1885H12V37H35V35.1885Z" fill="#CDD0D3"/>
</svg>
