<?xml version="1.0" encoding="UTF-8"?>
<svg width="24px" height="24px" viewBox="0 0 24 24" version="1.1" xmlns="http://www.w3.org/2000/svg" xmlns:xlink="http://www.w3.org/1999/xlink">
    <title>icon_ calender</title>
    <defs>
        <polygon id="path-1" points="0 0 18 0 18 15.6521739 0 15.6521739"></polygon>
    </defs>
    <g id="Dispatcher_20221118_demo" stroke="none" stroke-width="1" fill="none" fill-rule="evenodd">
        <g id="Main-&gt;-GIS-&gt;-Recent-route-Search-Modal--" transform="translate(-714.000000, -358.000000)">
            <g id="Group-21" transform="translate(400.000000, 165.000000)">
                <g id="Text-Field" transform="translate(147.000000, 188.000000)">
                    <g id="icon_-calender" transform="translate(167.000000, 5.000000)">
                        <rect id="Rectangle" x="0" y="0" width="24" height="24"></rect>
                        <g id="Group-18" transform="translate(3.000000, 4.000000)">
                            <mask id="mask-2" fill="white">
                                <use xlink:href="#path-1"></use>
                            </mask>
                            <g id="Clip-17"></g>
                            <path d="M16.8260183,14.0668643 C16.8260183,14.3020658 16.632198,14.4933456 16.3938729,14.4933456 L1.60612711,14.4933456 C1.36780197,14.4933456 1.17398174,14.3020658 1.17398174,14.0668643 L1.17398174,3.57558141 C1.17398174,3.34063988 1.36780197,3.14910016 1.60612711,3.14910016 L3.29520716,3.14910016 L3.29520716,4.12707028 C3.29520716,4.44699619 3.55802317,4.70636748 3.88219803,4.70636748 C4.20637289,4.70636748 4.4691889,4.44699619 4.4691889,4.12707028 L4.4691889,3.14910016 L13.5308111,3.14910016 L13.5308111,4.12707028 C13.5308111,4.44699619 13.7936271,4.70636748 14.117802,4.70636748 C14.4419768,4.70636748 14.7050562,4.44699619 14.7050562,4.12707028 L14.7050562,3.14910016 L16.3938729,3.14910016 C16.632198,3.14910016 16.8260183,3.34063988 16.8260183,3.57558141 L16.8260183,14.0668643 Z M16.3938729,1.99050575 L14.7050562,1.99050575 L14.7050562,0.579297207 C14.7050562,0.259371293 14.4419768,0 14.117802,0 C13.7936271,0 13.5308111,0.259371293 13.5308111,0.579297207 L13.5308111,1.99050575 L4.4691889,1.99050575 L4.4691889,0.579297207 C4.4691889,0.259371293 4.20637289,0 3.88219803,0 C3.55802317,0 3.29520716,0.259371293 3.29520716,0.579297207 L3.29520716,1.99050575 L1.60612711,1.99050575 C0.720505618,1.99050575 0,2.70156773 0,3.57558141 L0,14.0668643 C0,14.940878 0.720505618,15.6521999 1.60612711,15.6521999 L16.3938729,15.6521999 C17.2794944,15.6521999 18,14.940878 18,14.0668643 L18,3.57558141 C18,2.70156773 17.2794944,1.99050575 16.3938729,1.99050575 L16.3938729,1.99050575 Z" id="Fill-16" fill="#FFFFFF" mask="url(#mask-2)"></path>
                        </g>
                        <rect id="Rectangle" fill="#FFFFFF" x="6" y="11" width="4.8" height="1.5" rx="0.75"></rect>
                        <rect id="Rectangle-Copy-5" fill="#FFFFFF" x="6" y="14" width="4.8" height="1.5" rx="0.75"></rect>
                        <rect id="Rectangle-Copy-4" fill="#FFFFFF" x="13.2" y="11" width="4.8" height="1.5" rx="0.75"></rect>
                        <rect id="Rectangle-Copy-6" fill="#FFFFFF" x="13.2" y="14" width="4.8" height="1.5" rx="0.75"></rect>
                    </g>
                </g>
            </g>
        </g>
    </g>
</svg>