<svg width="48" height="48" viewBox="0 0 48 48" fill="none" xmlns="http://www.w3.org/2000/svg">
    <path d="M32.049 38.344v-5.445a12.08 12.08 0 0 0-3.266-7.981 14.01 14.01 0 0 1 2.722-.36c5.622 0 10.157 4.171 9.976 8.706v3.265a1.811 1.811 0 0 1-1.814 1.815H32.05zm-23.04 0A1.813 1.813 0 0 1 7.2 36.527v-3.628c0-4.716 4.897-9.25 10.702-9.25 5.804 0 10.7 4.353 10.7 9.25l.12 3.567a1.813 1.813 0 0 1-1.814 1.878h-17.9zM26.97 16.757a5.078 5.078 0 1 1 10.156 0 5.078 5.078 0 0 1-10.156 0zm-15.78-3.084a6.529 6.529 0 1 1 13.058 0 6.529 6.529 0 0 1-13.058 0z" fill="#fff"/>
</svg>
