<?xml version="1.0" encoding="UTF-8"?>
<svg width="24px" height="24px" viewBox="0 0 24 24" version="1.1" xmlns="http://www.w3.org/2000/svg" xmlns:xlink="http://www.w3.org/1999/xlink">
    <title>ic_Files </title>
    <g id="ic_Files-" stroke="none" stroke-width="1" fill="none" fill-rule="evenodd">
        <g id="Group-2">
            <g id="Group">
                <rect id="Rectangle" x="0" y="0" width="24" height="24"></rect>
            </g>
            <path d="M8.74849246,21.1511307 C7.93442211,21.1511307 7.12035176,20.8797739 6.48718593,20.246608 C5.8540201,19.6134422 5.58266332,18.7993719 5.58266332,17.9853015 C5.58266332,17.1712312 5.94447236,16.3571608 6.48718593,15.723995 L14.8992462,7.31193467 L16.3464824,8.75917085 L7.93442211,17.1712312 C7.75351759,17.3521357 7.57261307,17.7139447 7.57261307,17.9853015 C7.57261307,18.3471106 7.66306533,18.6184673 7.93442211,18.7993719 C8.38668342,19.2516332 9.20075377,19.2516332 9.65301508,18.7993719 L18.0650754,10.3873116 C18.6982412,9.75414573 18.969598,9.03052764 18.969598,8.12600503 C18.969598,7.31193467 18.6077889,6.49786432 18.0650754,5.86469849 C16.7987437,4.59836683 14.808794,4.59836683 13.5424623,5.86469849 L4.49723618,14.9099246 L3.05,13.4626884 L12.0952261,4.41746231 C14.0851759,2.42751256 17.4319095,2.42751256 19.5123116,4.41746231 C20.5072864,5.41243719 21.05,6.67876884 21.05,8.12600503 C21.05,9.48278894 20.5072864,10.8395729 19.5123116,11.8345477 L11.1002513,20.246608 C10.3766332,20.7893216 9.56256281,21.1511307 8.74849246,21.1511307 Z" id="Attach" fill="#FFFFFF" fill-rule="nonzero"></path>
        </g>
    </g>
</svg>