<?xml version="1.0" encoding="UTF-8"?>
<svg width="20px" height="18px" viewBox="0 0 20 18" version="1.1" xmlns="http://www.w3.org/2000/svg" xmlns:xlink="http://www.w3.org/1999/xlink">
    <title>Group 25</title>
    <g id="Dispatcher_20221118_demo" stroke="none" stroke-width="1" fill="none" fill-rule="evenodd">
        <g id="Group-6" transform="translate(-11.000000, -12.000000)" fill="#3E91FF">
            <g id="mapw-copy-2" transform="translate(11.000000, 12.000000)">
                <polygon id="Fill-1" points="16.743977 7.74686908 19.9999566 7.23402407 19.9999566 2.1524726 16.743977 1.13850723"></polygon>
                <polygon id="Fill-2" points="16.3019576 8.92910493 20 12.1238558 20 8.34721474"></polygon>
                <polygon id="Fill-3" points="15.0610985 9.12412499 13.6988675 9.33864272 13.4982456 9.46935089 13.4982456 9.48237828 6.09998958 14.3003422 6.09998958 17.9032846 13.5077991 15.4801897 19.9997829 17.6284067 19.9997829 13.4843932 15.0823765 9.1167428"></polygon>
                <polygon id="Fill-4" points="13.4982022 0 13.4982022 8.25719546 16.0567821 7.85508329 16.0567821 0.96011881 16.0576506 0.96011881"></polygon>
                <polygon id="Fill-5" points="0 10.4728509 0 15.7506818 0.93232704 16.0572597 4.72590367 12.6358323 2.20987997 8.6976516"></polygon>
                <polygon id="Fill-6" points="1.9533272 16.4258481 6.09994615 17.9031544 6.09994615 14.3002119 6.06520644 14.3002119 5.34522589 13.2918918"></polygon>
                <polygon id="Fill-7" points="5.31070331 5.89980198 2.96924667 8.16005454 5.31070331 11.884586"></polygon>
                <polygon id="Fill-8" points="0 9.29608657 5.31083358 4.61708152 5.31083358 2.69206719 0 0.594657032"></polygon>
                <polygon id="Fill-9" points="13.4982022 0 6.2276146 2.6480346 6.2276146 12.8610759 6.24237898 12.8836567 13.2962776 8.2893297 13.4982022 8.25719546"></polygon>
            </g>
        </g>
    </g>
</svg>