<svg width="48" height="48" viewBox="0 0 48 48" fill="none" xmlns="http://www.w3.org/2000/svg">
    <g clip-path="url(#22ywxdlkfa)" fill="#fff">
        <rect x="11" y="11" width="26" height="26" rx="4"/>
        <rect x="39" y="17" width="7" height="3" rx="1.5"/>
        <rect x="2" y="17" width="7" height="3" rx="1.5"/>
        <rect x="31" y="2" width="7" height="3" rx="1.5" transform="rotate(90 31 2)"/>
        <rect x="31" y="39" width="7" height="3" rx="1.5" transform="rotate(90 31 39)"/>
        <rect x="39" y="27" width="7" height="3" rx="1.5"/>
        <rect x="2" y="27" width="7" height="3" rx="1.5"/>
        <rect x="21" y="2" width="7" height="3" rx="1.5" transform="rotate(90 21 2)"/>
        <rect x="21" y="39" width="7" height="3" rx="1.5" transform="rotate(90 21 39)"/>
    </g>
    <defs>
        <clipPath id="22ywxdlkfa">
            <path fill="#fff" d="M0 0h48v48H0z"/>
        </clipPath>
    </defs>
</svg>
