<?xml version="1.0" encoding="UTF-8"?>
<svg width="24px" height="24px" viewBox="0 0 24 24" version="1.1" xmlns="http://www.w3.org/2000/svg" xmlns:xlink="http://www.w3.org/1999/xlink">
    <title>icon_mic_off</title>
    <g id="Dispatcher_20221118" stroke="none" stroke-width="1" fill="none" fill-rule="evenodd">
        <g id="Main-&gt;-Settings-&gt;-Device--" transform="translate(-931.000000, -454.000000)">
            <g id="icon_mic_off" transform="translate(931.000000, 454.000000)">
                <rect id="Rectangle-Copy-3" fill-opacity="0" fill="#D8D8D8" x="0" y="0" width="24" height="24"></rect>
                <path d="M14.323282,22 L9.01332705,22 L9.01332705,19.9881537 L14.3266474,19.9881537 L14.3266474,22 L14.323282,22 Z M18.8645756,21.6574006 L15.1848287,17.5569765 C14.1327994,18.2475601 12.935384,18.6164098 11.7137376,18.6251599 C10.4927644,18.634583 9.29131049,18.2839066 8.23053106,17.6088039 C7.17042472,16.9337013 6.28868547,15.9584034 5.6755065,14.7811806 C5.06232752,13.6046308 4.73924749,12.2678872 4.73857441,10.9069126 L6.8143636,10.9069126 L6.81974827,11.168742 C6.8587871,12.0477889 7.08898162,12.9026048 7.49081241,13.6591506 C7.89331628,14.4163694 8.45466783,15.0524332 9.12707814,15.5128222 C9.80016154,15.9732113 10.562765,16.2437908 11.3509457,16.301676 C12.1384533,16.3588881 12.9266339,16.2013866 13.6475062,15.8433062 L12.3720132,14.4217541 C12.1397994,14.4742546 11.9035471,14.5005048 11.6659487,14.4998317 C11.2075789,14.5038702 10.7525745,14.4022346 10.3305513,14.2016558 C9.90852797,14.0010769 9.52823585,13.7062664 9.21255974,13.3353975 C8.89688362,12.9645285 8.65322743,12.525005 8.496399,12.0444235 C8.33957057,11.564515 8.27293532,11.0529717 8.30053174,10.5427744 L8.30053174,9.88517197 L3,3.97886518 L4.4673218,2.34394561 L8.30053174,6.61600592 L14.2236656,13.210877 L15.3335801,14.4486774 L16.8049404,16.0862893 L20.3345898,20.0211348 L18.867268,21.6560544 L18.8645756,21.6574006 Z M17.9666824,14.114828 L16.3512822,12.315003 C16.462341,11.8559602 16.5182069,11.3821094 16.5175338,10.9069126 L18.593323,10.9069126 L18.5879383,11.1909538 C18.5569765,12.201925 18.3463014,13.1953961 17.9680285,14.114828 L17.9666824,14.114828 Z M15.025981,10.8348926 L8.48697584,3.55011106 C8.96890355,2.18375177 10.3648785,2 11.6659487,2 C13.4139463,2 15.0320388,2.3405802 15.0320388,4.81416167 L15.0320388,10.5441206 C15.0320388,10.643737 15.0320388,10.7372956 15.0253079,10.8328734 L15.025981,10.8348926 Z" id="Shape" fill="#AFAFAF" fill-rule="nonzero"></path>
            </g>
        </g>
    </g>
</svg>