<?xml version="1.0" encoding="UTF-8"?>
<svg width="24px" height="24px" viewBox="0 0 24 24" version="1.1" xmlns="http://www.w3.org/2000/svg" xmlns:xlink="http://www.w3.org/1999/xlink">
    <title>icon_mic</title>
    <g id="Dispatcher_20221118" stroke="none" stroke-width="1" fill="none" fill-rule="evenodd">
        <g id="Main-&gt;-Settings-&gt;-Device--" transform="translate(-547.000000, -490.000000)">
            <g id="icon_mic" transform="translate(547.000000, 490.000000)">
                <rect id="Rectangle-Copy-2" fill-opacity="0" fill="#D8D8D8" x="0" y="0" width="24" height="24"></rect>
                <path d="M9.27023637,22 L9.27023637,19.9868292 L14.5781149,19.9868292 L14.5781149,22 L9.27023637,22 Z M5.00158745,10.9062916 L7.07870043,10.9062916 L7.08408504,11.1684548 C7.11706578,12.526184 7.63869979,13.8180864 8.53994875,14.7760083 C9.44187078,15.7339303 10.6534078,16.284372 11.9248487,16.313045 C13.2380203,16.2813431 14.4865765,15.6942188 15.3952293,14.6804988 C16.303209,13.6668462 16.7985931,12.3094535 16.7709969,10.9062916 L18.8481099,10.9062916 L18.8440715,11.1897913 C18.8164754,13.1450102 18.08013,15.0125946 16.7898431,16.3994007 C15.498883,17.7861395 13.7549427,18.583802 11.9248487,18.6244558 C10.0489855,18.5813116 8.26533368,17.7440049 6.96696979,16.2966893 C5.66860591,14.8493063 4.96187595,12.9103759 5.00158745,10.9062916 Z M8.56148719,10.5455901 L8.56148719,4.81347175 C8.56148719,2.40180627 10.0664854,2 11.9248487,2 C13.7832119,2 15.2882102,2.40180627 15.2882102,4.81347175 L15.2882102,10.5455901 C15.2882102,12.9572893 13.7832119,14.5069798 11.9248487,14.5069798 C10.0664854,14.5069798 8.56148719,12.9547989 8.56148719,10.5455901 Z" id="Shape" fill="#AFAFAF" fill-rule="nonzero"></path>
            </g>
        </g>
    </g>
</svg>