<?xml version="1.0" encoding="UTF-8"?>
<svg width="23px" height="22px" viewBox="0 0 23 22" version="1.1" xmlns="http://www.w3.org/2000/svg" xmlns:xlink="http://www.w3.org/1999/xlink">
    <title>satellite copy</title>
    <defs>
        <polygon id="path-1" points="0 0 9.81262174 0 9.81262174 9.69085229 0 9.69085229"></polygon>
        <polygon id="path-3" points="0 0 8.07791369 0 8.07791369 8.0611539 0 8.0611539"></polygon>
    </defs>
    <g id="Dispatcher_20221118_demo" stroke="none" stroke-width="1" fill="none" fill-rule="evenodd">
        <g id="Group-11" transform="translate(-52.000000, -10.000000)">
            <g id="satellite-copy" transform="translate(52.000000, 10.000000)">
                <path d="M19.039629,18.280719 L18.4386145,18.8742549 C18.3662377,18.9457311 18.2492232,18.9457311 18.1768464,18.8742549 L17.5758319,18.280719 C17.5037739,18.2092427 17.5037739,18.0936843 17.5758319,18.0222081 L18.1768464,17.4286721 C18.2492232,17.3575108 18.3662377,17.3575108 18.4386145,17.4286721 L19.039629,18.0222081 C19.1120058,18.0936843 19.1120058,18.2092427 19.039629,18.280719 L19.039629,18.280719 Z M17.8596,19.4460647 L17.2585855,20.0396006 C17.1862087,20.1110768 17.0691942,20.1110768 16.9968174,20.0396006 L16.3958029,19.4460647 C16.3237449,19.3745884 16.3237449,19.25903 16.3958029,19.1875538 L16.9968174,18.5940178 C17.0691942,18.5228564 17.1862087,18.5228564 17.2585855,18.5940178 L17.8596,19.1875538 C17.9319768,19.25903 17.9319768,19.3745884 17.8596,19.4460647 L17.8596,19.4460647 Z M16.679571,20.6114103 L16.0785565,21.2049463 C16.0061797,21.2764225 15.8891652,21.2764225 15.8167884,21.2049463 L15.2157739,20.6114103 C15.1433971,20.5399341 15.1433971,20.4243757 15.2157739,20.3528995 L15.8167884,19.7593635 C15.8891652,19.6882021 16.0061797,19.6882021 16.0785565,19.7593635 L16.679571,20.3528995 C16.7519478,20.4243757 16.7519478,20.5399341 16.679571,20.6114103 L16.679571,20.6114103 Z M14.9444406,20.0849424 C14.8723826,20.1564186 14.7550493,20.1564186 14.6829913,20.0849424 L14.0819768,19.4917213 C14.0096,19.4202451 14.0096,19.3043717 14.0819768,19.2332104 L14.6829913,18.6396744 C14.7550493,18.5681982 14.8723826,18.5681982 14.9444406,18.6396744 L15.5454551,19.2332104 C15.6178319,19.3043717 15.6178319,19.4202451 15.5454551,19.4917213 L14.9444406,20.0849424 Z M13.5488754,18.9652533 L12.9478609,18.3717173 C12.8754841,18.3002411 12.8754841,18.1846826 12.9478609,18.1132064 L13.5488754,17.5196705 C13.6212522,17.4485091 13.7382667,17.4485091 13.8106435,17.5196705 L14.411658,18.1132064 C14.4837159,18.1846826 14.4837159,18.3002411 14.411658,18.3717173 L13.8106435,18.9652533 C13.7382667,19.0367295 13.6212522,19.0367295 13.5488754,18.9652533 L13.5488754,18.9652533 Z M12.4147594,17.8452493 L11.8137449,17.2517134 C11.741687,17.180552 11.741687,17.0646787 11.8137449,16.9935173 L12.4147594,16.3999814 C12.4871362,16.3285052 12.6041507,16.3285052 12.6765275,16.3999814 L13.277542,16.9935173 C13.3499188,17.0646787 13.3499188,17.180552 13.277542,17.2517134 L12.6765275,17.8452493 C12.6044696,17.9167256 12.4871362,17.9167256 12.4147594,17.8452493 L12.4147594,17.8452493 Z M11.2809623,16.7255603 L10.6799478,16.1320243 C10.607571,16.0605481 10.607571,15.9449896 10.6799478,15.8735134 L11.2809623,15.2799774 C11.3530203,15.2085012 11.4703536,15.2085012 11.5427304,15.2799774 L12.1437449,15.8735134 C12.2158029,15.9449896 12.2158029,16.0605481 12.1437449,16.1320243 L11.5427304,16.7255603 C11.4703536,16.7967216 11.3530203,16.7967216 11.2809623,16.7255603 L11.2809623,16.7255603 Z M11.8599768,14.7081677 L12.4609913,14.1146317 C12.5333681,14.0431555 12.6503826,14.0431555 12.7227594,14.1146317 L13.3237739,14.7081677 C13.3958319,14.7796439 13.3958319,14.8952024 13.3237739,14.9666786 L12.7227594,15.5602146 C12.6503826,15.6313759 12.5333681,15.6313759 12.4609913,15.5602146 L11.8599768,14.9666786 C11.7876,14.8952024 11.7876,14.7796439 11.8599768,14.7081677 L11.8599768,14.7081677 Z M13.0400058,13.542822 L13.6410203,12.949286 C13.7133971,12.8778098 13.8304116,12.8778098 13.9027884,12.949286 L14.5038029,13.542822 C14.5758609,13.6142982 14.5758609,13.7298567 14.5038029,13.8013329 L13.9027884,14.3948689 C13.8304116,14.4660302 13.7133971,14.4660302 13.6410203,14.3948689 L13.0400058,13.8013329 C12.967629,13.7298567 12.967629,13.6142982 13.0400058,13.542822 L13.0400058,13.542822 Z M14.7751362,14.06929 C14.8471942,13.9978138 14.9645275,13.9978138 15.0365855,14.06929 L15.6376,14.6625111 C15.7099768,14.7339873 15.7099768,14.8498606 15.6376,14.921022 L15.0365855,15.514558 C14.9645275,15.5860342 14.8471942,15.5860342 14.7751362,15.514558 L14.1741217,14.921022 C14.1017449,14.8498606 14.1017449,14.7339873 14.1741217,14.6625111 L14.7751362,14.06929 Z M16.1707014,15.1889791 L16.7717159,15.782515 C16.8440928,15.8539913 16.8440928,15.9695497 16.7717159,16.0410259 L16.1707014,16.6345619 C16.0983246,16.7057232 15.9813101,16.7057232 15.9089333,16.6345619 L15.3079188,16.0410259 C15.235542,15.9695497 15.235542,15.8539913 15.3079188,15.782515 L15.9089333,15.1889791 C15.9813101,15.1175029 16.0983246,15.1175029 16.1707014,15.1889791 L16.1707014,15.1889791 Z M15.2620058,18.0678647 L15.8627014,17.4743287 C15.9350783,17.4028525 16.0524116,17.4028525 16.1244696,17.4743287 L16.7254841,18.0678647 C16.7978609,18.139026 16.7978609,18.2548994 16.7254841,18.3260607 L16.1244696,18.9195967 C16.0524116,18.9910729 15.9350783,18.9910729 15.8627014,18.9195967 L15.2620058,18.3260607 C15.189629,18.2548994 15.189629,18.139026 15.2620058,18.0678647 L15.2620058,18.0678647 Z M13.8565565,16.6799036 C13.7844986,16.7513799 13.6671652,16.7513799 13.5947884,16.6799036 L12.9937739,16.0863677 C12.9217159,16.0152063 12.9217159,15.899333 12.9937739,15.8281717 L13.5947884,15.2346357 C13.6671652,15.1631595 13.7844986,15.1631595 13.8565565,15.2346357 L14.457571,15.8281717 C14.5299478,15.899333 14.5299478,16.0152063 14.457571,16.0863677 L13.8565565,16.6799036 Z M14.1278899,16.9478607 L14.7289043,16.3543248 C14.8012812,16.2828485 14.9182957,16.2828485 14.9906725,16.3543248 L15.591687,16.9478607 C15.6637449,17.0193369 15.6637449,17.1348954 15.591687,17.2063716 L14.9906725,17.7999076 C14.9182957,17.8713838 14.8012812,17.8713838 14.7289043,17.7999076 L14.1278899,17.2063716 C14.055513,17.1348954 14.055513,17.0193369 14.1278899,16.9478607 L14.1278899,16.9478607 Z M17.3048174,16.308983 L17.905513,16.902519 C17.9778899,16.9736803 17.9778899,17.0895537 17.905513,17.160715 L17.3048174,17.754251 C17.2324406,17.8257272 17.1151072,17.8257272 17.0430493,17.754251 L16.4420348,17.160715 C16.369658,17.0895537 16.369658,16.9736803 16.4420348,16.902519 L17.0430493,16.308983 C17.1151072,16.2375068 17.2324406,16.2375068 17.3048174,16.308983 L17.3048174,16.308983 Z M14.587658,12.522318 C14.1954841,12.135024 13.5597159,12.135024 13.1678609,12.522318 L10.2476,15.4062416 C9.85542609,15.7935356 9.85542609,16.4210779 10.2476,16.8083719 L15.1319188,21.6319144 C15.5237739,22.0192084 16.159542,22.0192084 16.5517159,21.6319144 L19.4719768,18.7479908 C19.8641507,18.3610116 19.8641507,17.7328396 19.4719768,17.3458604 L14.587658,12.522318 Z" id="Fill-1" fill="#3F4246"></path>
                <g id="Group-5" transform="translate(0.000000, 2.402136)">
                    <mask id="mask-2" fill="white">
                        <use xlink:href="#path-1"></use>
                    </mask>
                    <g id="Clip-4"></g>
                    <path d="M4.72942609,7.85340976 L4.12841159,7.25987379 C4.05603478,7.18839758 4.05603478,7.07283912 4.12841159,7.0013629 L4.72942609,6.40782693 C4.8018029,6.33666559 4.91881739,6.33666559 4.9911942,6.40782693 L5.5922087,7.0013629 C5.66426667,7.07283912 5.66426667,7.18839758 5.5922087,7.25987379 L4.9911942,7.85340976 C4.91881739,7.92488598 4.8018029,7.92488598 4.72942609,7.85340976 L4.72942609,7.85340976 Z M3.59531014,6.73340581 L2.99429565,6.13986984 C2.92223768,6.0687085 2.92223768,5.95283517 2.99429565,5.88167382 L3.59531014,5.28813785 C3.66768696,5.21666164 3.78470145,5.21666164 3.85707826,5.28813785 L4.45809275,5.88167382 C4.53046957,5.95283517 4.53046957,6.0687085 4.45809275,6.13986984 L3.85707826,6.73340581 C3.78502029,6.80488203 3.66768696,6.80488203 3.59531014,6.73340581 L3.59531014,6.73340581 Z M2.46151304,5.61371674 L1.86049855,5.02018077 C1.78812174,4.94870455 1.78812174,4.83314609 1.86049855,4.76166987 L2.46151304,4.1681339 C2.53357101,4.09665769 2.65090435,4.09665769 2.72328116,4.1681339 L3.32429565,4.76166987 C3.39635362,4.83314609 3.39635362,4.94870455 3.32429565,5.02018077 L2.72328116,5.61371674 C2.65090435,5.68519295 2.53357101,5.68519295 2.46151304,5.61371674 L2.46151304,5.61371674 Z M1.3273971,4.49371279 L0.726382609,3.90017682 C0.654324638,3.82901547 0.654324638,3.71314214 0.726382609,3.6419808 L1.3273971,3.04844483 C1.39977391,2.97696861 1.51678841,2.97696861 1.58916522,3.04844483 L2.19017971,3.6419808 C2.26255652,3.71314214 2.26255652,3.82901547 2.19017971,3.90017682 L1.58916522,4.49371279 C1.51678841,4.565189 1.39977391,4.565189 1.3273971,4.49371279 L1.3273971,4.49371279 Z M1.90641159,2.47632023 L2.50742609,1.88278426 C2.5798029,1.81162292 2.69681739,1.81162292 2.7691942,1.88278426 L3.3702087,2.47632023 C3.44258551,2.54779645 3.44258551,2.66366978 3.3702087,2.73483112 L2.7691942,3.3283671 C2.69681739,3.39984331 2.5798029,3.39984331 2.50742609,3.3283671 L1.90641159,2.73483112 C1.83435362,2.66366978 1.83435362,2.54779645 1.90641159,2.47632023 L1.90641159,2.47632023 Z M3.08644058,1.31097454 L3.68745507,0.717438572 C3.75983188,0.64627723 3.87716522,0.64627723 3.94922319,0.717438572 L4.55023768,1.31097454 C4.62261449,1.38245076 4.62261449,1.49800922 4.55023768,1.56948543 L3.94922319,2.1630214 C3.87684638,2.23449762 3.75983188,2.23449762 3.68745507,2.1630214 L3.08644058,1.56948543 C3.01438261,1.49800922 3.01438261,1.38245076 3.08644058,1.31097454 L3.08644058,1.31097454 Z M4.82157101,1.83744252 C4.89394783,1.76596631 5.01096232,1.76596631 5.08333913,1.83744252 L5.68435362,2.43097849 C5.75641159,2.50245471 5.75641159,2.61801317 5.68435362,2.68948938 L5.08333913,3.28302536 C5.01096232,3.3541867 4.89394783,3.3541867 4.82157101,3.28302536 L4.22055652,2.68948938 C4.14817971,2.61801317 4.14817971,2.50245471 4.22055652,2.43097849 L4.82157101,1.83744252 Z M6.21713623,2.95744647 L6.81815072,3.55098244 C6.89052754,3.62214378 6.89052754,3.73801712 6.81815072,3.80917846 L6.21713623,4.40271443 C6.14507826,4.47419065 6.02774493,4.47419065 5.95536812,4.40271443 L5.35467246,3.80917846 C5.28229565,3.73801712 5.28229565,3.62214378 5.35467246,3.55098244 L5.95536812,2.95744647 C6.02774493,2.88597026 6.14507826,2.88597026 6.21713623,2.95744647 L6.21713623,2.95744647 Z M7.35125217,4.07713555 L7.95226667,4.67067152 C8.02464348,4.74214774 8.02464348,4.8577062 7.95226667,4.92918241 L7.35125217,5.52271838 C7.27887536,5.5941946 7.16186087,5.5941946 7.08948406,5.52271838 L6.48846957,4.92918241 C6.41609275,4.8577062 6.41609275,4.74214774 6.48846957,4.67067152 L7.08948406,4.07713555 C7.16186087,4.00565933 7.27887536,4.00565933 7.35125217,4.07713555 L7.35125217,4.07713555 Z M8.48536812,5.1971395 L9.08606377,5.79067547 C9.15844058,5.86183681 9.15844058,5.97771015 9.08606377,6.04887149 L8.48536812,6.64240746 C8.4129913,6.71388367 8.29565797,6.71388367 8.2236,6.64240746 L7.62258551,6.04887149 C7.5502087,5.97771015 7.5502087,5.86183681 7.62258551,5.79067547 L8.2236,5.1971395 C8.29565797,5.12566329 8.4129913,5.12566329 8.48536812,5.1971395 L8.48536812,5.1971395 Z M7.90603478,7.21453205 L7.30502029,7.80775315 C7.23296232,7.87922937 7.11562899,7.87922937 7.04357101,7.80775315 L6.44255652,7.21453205 C6.37017971,7.14305584 6.37017971,7.0271825 6.44255652,6.95602116 L7.04357101,6.36248519 C7.11562899,6.29100898 7.23296232,6.29100898 7.30502029,6.36248519 L7.90603478,6.95602116 C7.97841159,7.0271825 7.97841159,7.14305584 7.90603478,7.21453205 L7.90603478,7.21453205 Z M5.30844058,5.83601721 L5.90945507,5.24248124 C5.98183188,5.1713199 6.09884638,5.1713199 6.17122319,5.24248124 L6.77223768,5.83601721 C6.84429565,5.90749343 6.84429565,6.02305189 6.77223768,6.0945281 L6.17122319,6.68806407 C6.09884638,6.75954029 5.98183188,6.75954029 5.90945507,6.68806407 L5.30844058,6.0945281 C5.23606377,6.02305189 5.23606377,5.90749343 5.30844058,5.83601721 L5.30844058,5.83601721 Z M3.90331014,4.44837105 C3.83093333,4.51953239 3.71391884,4.51953239 3.64154203,4.44837105 L3.04052754,3.85483508 C2.96815072,3.78335886 2.96815072,3.6678004 3.04052754,3.59632418 L3.64154203,3.00278821 C3.71391884,2.931312 3.83093333,2.931312 3.90331014,3.00278821 L4.50432464,3.59632418 C4.57638261,3.6678004 4.57638261,3.78335886 4.50432464,3.85483508 L3.90331014,4.44837105 Z M4.17432464,4.71601326 L4.77533913,4.12279216 C4.84771594,4.05131595 4.96504928,4.05131595 5.03710725,4.12279216 L5.63812174,4.71601326 C5.71049855,4.78748948 5.71049855,4.90336281 5.63812174,4.97452415 L5.03710725,5.56806012 C4.96504928,5.63953634 4.84771594,5.63953634 4.77533913,5.56806012 L4.17432464,4.97452415 C4.10226667,4.90336281 4.10226667,4.78748948 4.17432464,4.71601326 L4.17432464,4.71601326 Z M6.7260058,8.37987774 L6.1249913,8.97341371 C6.05293333,9.04457506 5.9356,9.04457506 5.86322319,8.97341371 L5.26252754,8.37987774 C5.19015072,8.30840153 5.19015072,8.19284307 5.26252754,8.12136685 L5.86322319,7.52783088 C5.9356,7.45635467 6.05293333,7.45635467 6.1249913,7.52783088 L6.7260058,8.12136685 C6.79838261,8.19284307 6.79838261,8.30840153 6.7260058,8.37987774 L6.7260058,8.37987774 Z M6.59846957,9.40038176 L9.51873043,6.51645818 C9.91058551,6.12916415 9.91058551,5.50130701 9.51873043,5.11401298 L4.63441159,0.290470521 C4.24223768,-0.0968235071 3.60646957,-0.0968235071 3.21429565,0.290470521 L0.294034783,3.1743941 C-0.0981391304,3.56168813 -0.0981391304,4.18954528 0.294034783,4.57683931 L5.17835362,9.40038176 C5.57052754,9.78767579 6.20629565,9.78767579 6.59846957,9.40038176 L6.59846957,9.40038176 Z" id="Fill-3" fill="#3F4246" mask="url(#mask-2)"></path>
                </g>
                <path d="M12.0823043,7.91657333 C11.7491159,7.58753084 9.3814058,9.39206911 9.04789855,9.72142647 L5.85024638,12.8792897 C5.51673913,13.2086471 5.51673913,13.7423572 5.85024638,14.0713996 L7.94981159,16.1451545 C8.28331884,16.474197 8.82375362,16.474197 9.15694203,16.1451545 L12.354913,12.9869764 C12.6881014,12.6579339 14.5153768,10.3193707 14.1821884,9.99032818 L12.0823043,7.91657333 Z" id="Fill-6" fill="#3F4246"></path>
                <path d="M15.9579391,9.30787202 L14.5483449,7.91581763 L15.0167217,7.45358378 L14.6513304,7.09242423 L14.1829536,7.55497295 L12.7733594,6.16291856 C12.5179681,7.02315213 12.7335043,7.99075745 13.420287,8.66899431 C14.1073884,9.34754604 15.0871855,9.56008545 15.9579391,9.30787202" id="Fill-8" fill="#3F4246"></path>
                <path d="M7.16007536,15.7781068 L6.22172754,14.851435 C5.82126377,14.4559543 5.17242319,14.4559543 4.77195942,14.851435 L4.38871304,15.2302275 C3.98824928,15.6253933 3.98824928,16.2664751 4.38871304,16.661641 L5.32706087,17.5883128 C5.7272058,17.9837935 6.37636522,17.9837935 6.77651014,17.5883128 L7.16007536,17.2098352 C7.56022029,16.8143545 7.56022029,16.1732727 7.16007536,15.7781068" id="Fill-10" fill="#3F4246"></path>
                <path d="M7.90893623,17.4102205 C7.82508116,17.3274089 7.68893623,17.3274089 7.60476232,17.4102205 L6.97983478,18.0276869 C6.89566087,18.1104985 6.89566087,18.2449494 6.97983478,18.327761 L8.02531304,19.3605451 C8.10948696,19.4433567 8.24531304,19.4433567 8.32948696,19.3605451 L8.95473333,18.7430788 C9.03858841,18.6602671 9.03858841,18.5258163 8.95473333,18.4430046 L7.90893623,17.4102205 Z" id="Fill-12" fill="#3F4246"></path>
                <path d="M4.56898551,14.1118923 L3.52318841,13.0791083 C3.43933333,12.9962966 3.30318841,12.9962966 3.21933333,13.0791083 L2.59408696,13.6965746 C2.51023188,13.7793862 2.51023188,13.9138371 2.59408696,13.9969636 L3.63988406,15.0294328 C3.72373913,15.1125593 3.85988406,15.1125593 3.94373913,15.0294328 L4.56898551,14.4119665 C4.65284058,14.3291548 4.65284058,14.194704 4.56898551,14.1118923" id="Fill-14" fill="#3F4246"></path>
                <path d="M14.2529072,2.15587378 C14.0571391,2.16752409 13.8958058,2.3237012 13.877313,2.51955232 L13.8754,2.5409637 C13.8642406,2.65998577 13.9066464,2.77680372 13.9924145,2.86150461 C14.0743565,2.94242702 14.1878638,2.9849349 14.3039217,2.97800769 C15.6102116,2.89960427 16.8894,3.37789665 17.8130812,4.29039916 C18.7527043,5.21801559 19.2357478,6.50206848 19.1388203,7.81288558 C19.1302116,7.92907379 19.1729362,8.04274301 19.2561536,8.12492492 C19.3409652,8.20868119 19.4576609,8.2508742 19.5769072,8.24111313 L19.597313,8.23922389 C19.7949942,8.22316535 19.9550522,8.06572876 19.9694,7.87302636 C20.0841826,6.3232205 19.5131391,4.80521684 18.4022986,3.7085135 C17.3096319,2.62944307 15.797371,2.06361594 14.2529072,2.15587378" id="Fill-16" fill="#3F4246"></path>
                <path d="M14.1567449,4.8939481 C14.9978464,4.75981212 15.8583971,5.03406667 16.4594116,5.62728777 C17.0699913,6.23058481 17.3457884,7.09333736 17.1972087,7.93499341 C17.174571,8.06094269 17.216658,8.19098531 17.3094406,8.28261341 C17.3955275,8.36762918 17.5147739,8.4107668 17.6359333,8.40069086 L17.6636725,8.39848675 C17.8492377,8.38337284 18.0010058,8.24482863 18.0322522,8.0618873 C18.2216435,6.95794189 17.8572087,5.82723225 17.0569188,5.03721541 C16.2712957,4.26136786 15.1454696,3.89831906 14.044513,4.0658316 C13.8573536,4.09448506 13.714513,4.24310521 13.6969768,4.42667628 L13.6941072,4.45879335 C13.682629,4.57907491 13.7256725,4.69715236 13.8123971,4.78311274 C13.904542,4.87379622 14.0298464,4.91409999 14.1567449,4.8939481" id="Fill-18" fill="#3F4246"></path>
                <g id="Group-22" transform="translate(14.079275, -0.000000)">
                    <mask id="mask-4" fill="white">
                        <use xlink:href="#path-3"></use>
                    </mask>
                    <g id="Clip-21"></g>
                    <path d="M5.85980354,2.1908562 C4.40110789,0.750311334 2.4612818,-0.0274254552 0.397745571,0.000598259068 C0.191136875,0.00343211781 0.021194846,0.160238968 0.00174557067,0.364906544 C-0.00941384962,0.484558358 0.0333107881,0.602006059 0.119078904,0.686706948 C0.196876005,0.763536008 0.299861513,0.804784396 0.409542672,0.803524903 C2.25180354,0.778335048 3.98342673,1.47294531 5.28525282,2.75825769 C6.60780354,4.06466657 7.31020934,5.80245173 7.26206441,7.65233174 C7.25951369,7.76190761 7.3012818,7.86550089 7.38003543,7.94327457 C7.46484702,8.02703084 7.58218035,8.06953872 7.70206441,8.05977765 L7.72247021,8.05757354 C7.92015137,8.03143907 8.07032528,7.86959425 8.07542673,7.67311337 C8.12867311,5.60124776 7.34177456,3.6543868 5.85980354,2.1908562" id="Fill-20" fill="#3F4246" mask="url(#mask-4)"></path>
                </g>
            </g>
        </g>
    </g>
</svg>