<?xml version="1.0" encoding="UTF-8"?>
<svg width="54px" height="54px" viewBox="0 0 54 54" version="1.1" xmlns="http://www.w3.org/2000/svg" xmlns:xlink="http://www.w3.org/1999/xlink">
    <title>ic_mic54</title>
    <g id="v0.1-1108-2022-chaewon.min-&gt;-1111-전달받음-" stroke="none" stroke-width="1" fill="none" fill-rule="evenodd">
        <g id="Card-status" transform="translate(-664.000000, -319.000000)">
            <g id="Card-/-Idle-Copy-8" transform="translate(648.000000, 128.000000)">
                <g id="ic_mic54" transform="translate(16.000000, 191.000000)">
                    <rect id="Rectangle" x="0" y="0" width="54" height="54"></rect>
                    <path d="M13.1234112,38.99706 L13.1234112,36.5816059 L19.4918559,36.5816059 L19.4918559,38.99706 L13.1234112,38.99706 Z M8.00191363,25.6861908 L10.4938583,25.6861908 L10.5003075,26.0011522 C10.5403526,27.6299526 11.166001,29.1800127 12.2475185,30.3296219 C13.329036,31.4784811 14.7833328,32.1391502 16.3085709,32.173646 C17.8845029,32.1354007 19.3819944,31.4312369 20.4721358,30.2148859 C21.5623523,28.998535 22.1561295,27.3697345 22.1232086,25.6861908 L24.6152283,25.6861908 L24.6105788,26.0266491 C24.5778828,28.3723617 23.6941911,30.6130872 22.1456308,32.2771333 C20.5970705,33.9411794 18.5045269,34.8980622 16.3085709,34.9468062 C14.0574967,34.8950626 11.9178589,33.8901857 10.3600747,32.1541484 C8.80236557,30.4173611 7.95414449,28.0911461 8.00191363,25.6861908 Z M12.2733153,25.2534938 L12.2733153,18.3760864 C12.2733153,15.4821909 14.0786441,15 16.3085709,15 C18.5384228,15 20.3437516,15.4821909 20.3437516,18.3760864 L20.3437516,25.2534938 C20.3437516,28.1473892 18.5384228,30.0064115 16.3085709,30.0064115 C14.0786441,30.0064115 12.2733153,28.1443896 12.2733153,25.2534938 Z" fill="#ffffff" fill-rule="nonzero"></path>
                </g>
            </g>
        </g>
    </g>
</svg>