<?xml version="1.0" encoding="UTF-8"?>
<svg width="48px" height="48px" viewBox="0 0 48 48" version="1.1" xmlns="http://www.w3.org/2000/svg" xmlns:xlink="http://www.w3.org/1999/xlink">
    <title>Group 13</title>
    <g id="v0.1-1108-2022-chaewon.min-&gt;-1111-전달받음-" stroke="none" stroke-width="1" fill="none" fill-rule="evenodd">
        <g id="Main-&gt;--Message-&gt;-Group-Message-List-Copy" transform="translate(-720.000000, -705.000000)">
            <g id="Group-13" transform="translate(720.000000, 705.000000)">
                <path d="M42.5806452,0 L5.41935484,0 C2.42632258,0 0,2.42632258 0,5.41935484 L0,42.5806452 C0,45.5736774 2.42632258,48 5.41935484,48 L42.5806452,48 C45.5736774,48 48,45.5736774 48,42.5806452 L48,5.41935484 C48,2.42632258 45.5736774,0 42.5806452,0 Z" id="Path"></path>
                <path d="M33.5806452,24.9096774 C33.5806452,25.0739097 33.5154065,25.2314323 33.3992774,25.3476645 C33.2830452,25.4637935 33.1255226,25.5290323 32.9612903,25.5290323 L25.5290323,25.5290323 L25.5290323,32.9612903 C25.5290323,33.1255226 25.4637935,33.2830452 25.3476645,33.3992774 C25.2314323,33.5154065 25.0739097,33.5806452 24.9096774,33.5806452 L23.6709677,33.5806452 C23.5067355,33.5806452 23.3492129,33.5154065 23.2329806,33.3992774 C23.1168516,33.2830452 23.0516129,33.1255226 23.0516129,32.9612903 L23.0516129,25.5290323 L15.6193548,25.5290323 C15.4551226,25.5290323 15.2976,25.4637935 15.1813677,25.3476645 C15.0652387,25.2314323 15,25.0739097 15,24.9096774 L15,23.6709677 C15,23.5067355 15.0652387,23.3492129 15.1813677,23.2329806 C15.2976,23.1168516 15.4551226,23.0516129 15.6193548,23.0516129 L23.0516129,23.0516129 L23.0516129,15.6193548 C23.0516129,15.4551226 23.1168516,15.2976 23.2329806,15.1813677 C23.3492129,15.0652387 23.5067355,15 23.6709677,15 L24.9096774,15 C25.0739097,15 25.2314323,15.0652387 25.3476645,15.1813677 C25.4637935,15.2976 25.5290323,15.4551226 25.5290323,15.6193548 L25.5290323,23.0516129 L32.9612903,23.0516129 C33.1255226,23.0516129 33.2830452,23.1168516 33.3992774,23.2329806 C33.5154065,23.3492129 33.5806452,23.5067355 33.5806452,23.6709677 L33.5806452,24.9096774 Z" id="Path" fill="#AFAFAF" fill-rule="nonzero"></path>
            </g>
        </g>
    </g>
</svg>