<svg width="27" height="32" viewBox="0 0 27 32" fill="none" xmlns="http://www.w3.org/2000/svg">
<path fill-rule="evenodd" clip-rule="evenodd" d="M4 0C1.79086 0 0 1.79086 0 4V28C0 30.2091 1.79086 32 4 32H22.6667C24.8758 32 26.6667 30.2091 26.6667 28V4C26.6667 1.79086 24.8758 0 22.6667 0H4ZM4.7777 5.33333C4.04132 5.33333 3.44437 5.93029 3.44437 6.66667C3.44437 7.40305 4.04132 8 4.7777 8H19.8888C20.6252 8 21.2221 7.40305 21.2221 6.66667C21.2221 5.93029 20.6252 5.33333 19.8888 5.33333H4.7777ZM3.44437 12.8892C3.44437 12.1528 4.04132 11.5559 4.7777 11.5559H19.8888C20.6252 11.5559 21.2221 12.1528 21.2221 12.8892C21.2221 13.6256 20.6252 14.2225 19.8888 14.2225H4.7777C4.04132 14.2225 3.44437 13.6256 3.44437 12.8892ZM4.7777 17.7775C4.04132 17.7775 3.44437 18.3744 3.44437 19.1108C3.44437 19.8472 4.04132 20.4441 4.7777 20.4441H19.8888C20.6252 20.4441 21.2221 19.8472 21.2221 19.1108C21.2221 18.3744 20.6252 17.7775 19.8888 17.7775H4.7777Z" fill="white"/>
<path fill-rule="evenodd" clip-rule="evenodd" d="M4 0C1.79086 0 0 1.79086 0 4V28C0 30.2091 1.79086 32 4 32H22.6667C24.8758 32 26.6667 30.2091 26.6667 28V4C26.6667 1.79086 24.8758 0 22.6667 0H4ZM4.7777 5.33333C4.04132 5.33333 3.44437 5.93029 3.44437 6.66667C3.44437 7.40305 4.04132 8 4.7777 8H19.8888C20.6252 8 21.2221 7.40305 21.2221 6.66667C21.2221 5.93029 20.6252 5.33333 19.8888 5.33333H4.7777ZM3.44437 12.8892C3.44437 12.1528 4.04132 11.5559 4.7777 11.5559H19.8888C20.6252 11.5559 21.2221 12.1528 21.2221 12.8892C21.2221 13.6256 20.6252 14.2225 19.8888 14.2225H4.7777C4.04132 14.2225 3.44437 13.6256 3.44437 12.8892ZM4.7777 17.7775C4.04132 17.7775 3.44437 18.3744 3.44437 19.1108C3.44437 19.8472 4.04132 20.4441 4.7777 20.4441H19.8888C20.6252 20.4441 21.2221 19.8472 21.2221 19.1108C21.2221 18.3744 20.6252 17.7775 19.8888 17.7775H4.7777Z" fill="white"/>
</svg>
