<svg width="24" height="24" viewBox="0 0 24 24" fill="none" xmlns="http://www.w3.org/2000/svg">
<path d="M22.8245 7.45925C22.6639 7.4614 22.5068 7.50644 22.3694 7.58971L17.9512 10.1068V6.73335C17.9453 6.26988 17.7563 5.82756 17.4255 5.50285C17.0948 5.17815 16.649 4.9974 16.1855 5.00003H1.76569C1.30219 4.9974 0.85645 5.17815 0.525681 5.50285C0.194912 5.82756 0.00594827 6.26988 0 6.73335L0 17.9838C0.00620625 18.4469 0.195347 18.8887 0.526144 19.2129C0.856942 19.5371 1.30254 19.7173 1.76569 19.7141H16.1855C16.6487 19.7173 17.0943 19.5371 17.4251 19.2129C17.7559 18.8887 17.945 18.4469 17.9512 17.9838V14.6015L22.3654 17.1048C22.5065 17.2028 22.6734 17.2567 22.8451 17.2598C22.9428 17.2578 23.0389 17.2357 23.1277 17.195C23.2165 17.1543 23.2959 17.0958 23.3612 17.0232C23.4265 16.9506 23.4762 16.8653 23.5072 16.7727C23.5382 16.6801 23.5499 16.5822 23.5416 16.4849V8.24498C23.5497 8.14551 23.5372 8.04545 23.5049 7.95102C23.4727 7.85659 23.4213 7.76981 23.354 7.6961C23.2867 7.62239 23.205 7.56332 23.1139 7.52257C23.0228 7.48182 22.9243 7.46026 22.8245 7.45925Z" fill="#EFEFEF"/>
</svg>
