<svg width="32" height="33" viewBox="0 0 32 33" fill="none" xmlns="http://www.w3.org/2000/svg">
<path d="M28.2792 29.3688C27.9506 27.6296 26.8792 26.2578 25.8899 26.2578H6.11323C5.12189 26.2578 4.05189 27.6296 3.72389 29.3688L3.44189 30.8599H28.5592L28.2792 29.3688Z" fill="white"/>
<path d="M24.5541 16.1757C24.5342 13.8826 23.6242 11.6903 22.0223 10.076C20.4203 8.46165 18.256 7.55591 16.0004 7.55591C13.7449 7.55591 11.5806 8.46165 9.97861 10.076C8.37665 11.6903 7.46669 13.8826 7.44678 16.1757V25.2139H24.5601V16.1757H24.5541Z" fill="white"/>
<path d="M15.862 5.37947C15.6626 5.38055 15.471 5.30113 15.3293 5.15866C15.1875 5.01619 15.1072 4.82233 15.106 4.61968V2.91304C15.106 2.70928 15.1856 2.51387 15.3273 2.36979C15.469 2.22572 15.6612 2.14478 15.8616 2.14478C16.062 2.14478 16.2542 2.22572 16.396 2.36979C16.5377 2.51387 16.6173 2.70928 16.6173 2.91304V4.61968C16.6168 4.71999 16.5968 4.81922 16.5586 4.91169C16.5203 5.00416 16.4645 5.08807 16.3944 5.15862C16.3243 5.22917 16.2411 5.28499 16.1498 5.32288C16.0584 5.36078 15.9606 5.38 15.862 5.37947Z" fill="white"/>
<path d="M23.1713 8.30946C23.1012 8.23926 23.0455 8.15559 23.0075 8.06332C22.9695 7.97105 22.95 7.87201 22.95 7.77198C22.95 7.67194 22.9695 7.57291 23.0075 7.48063C23.0455 7.38836 23.1012 7.30469 23.1713 7.2345L24.3713 6.02806C24.5137 5.88599 24.7052 5.8064 24.9046 5.8064C25.1041 5.8064 25.2956 5.88599 25.438 6.02806C25.5081 6.09825 25.5637 6.18192 25.6017 6.27419C25.6397 6.36646 25.6593 6.4655 25.6593 6.56553C25.6593 6.66557 25.6397 6.7646 25.6017 6.85688C25.5637 6.94915 25.5081 7.03282 25.438 7.10301L24.238 8.30946C24.0956 8.45152 23.9041 8.53111 23.7046 8.53111C23.5052 8.53111 23.3137 8.45152 23.1713 8.30946Z" fill="white"/>
<path d="M26.28 15.5806C26.2811 15.378 26.3612 15.184 26.5029 15.0415C26.6445 14.8989 26.836 14.8193 27.0354 14.8202H28.7314C28.8314 14.8171 28.9311 14.8345 29.0244 14.8714C29.1177 14.9082 29.2028 14.9637 29.2746 15.0346C29.3465 15.1055 29.4036 15.1903 29.4426 15.284C29.4816 15.3778 29.5017 15.4785 29.5017 15.5803C29.5017 15.6821 29.4816 15.7828 29.4426 15.8765C29.4036 15.9703 29.3465 16.0551 29.2746 16.126C29.2028 16.1969 29.1177 16.2524 29.0244 16.2892C28.9311 16.326 28.8314 16.3435 28.7314 16.3404H27.0354C26.8361 16.3413 26.6447 16.2618 26.5031 16.1194C26.3615 15.9769 26.2813 15.7832 26.28 15.5806Z" fill="white"/>
<path d="M5.72066 15.8592C5.72014 15.9596 5.70017 16.0589 5.66189 16.1514C5.62362 16.244 5.56778 16.328 5.49758 16.3986C5.42738 16.4692 5.34419 16.5251 5.25275 16.563C5.16131 16.6009 5.06342 16.6202 4.96466 16.6196H3.26866C3.07037 16.6196 2.8802 16.5395 2.73998 16.397C2.59977 16.2544 2.521 16.0611 2.521 15.8595C2.521 15.6579 2.59977 15.4646 2.73998 15.322C2.8802 15.1795 3.07037 15.0994 3.26866 15.0994H4.96533C5.16454 15.0985 5.35597 15.178 5.49758 15.3204C5.6392 15.4629 5.71943 15.6566 5.72066 15.8592Z" fill="white"/>
<path d="M8.63328 8.50672C8.49093 8.64879 8.29942 8.72838 8.09995 8.72838C7.90047 8.72838 7.70897 8.64879 7.56661 8.50672L6.36662 7.30028C6.29651 7.23008 6.24084 7.14642 6.20284 7.05414C6.16483 6.96187 6.14526 6.86283 6.14526 6.7628C6.14526 6.66276 6.16483 6.56373 6.20284 6.47145C6.24084 6.37918 6.29651 6.29551 6.36662 6.22532C6.50897 6.08325 6.70047 6.00366 6.89995 6.00366C7.09942 6.00366 7.29093 6.08325 7.43328 6.22532L8.63328 7.43177C8.70339 7.50196 8.75906 7.58563 8.79706 7.6779C8.83506 7.77017 8.85463 7.86921 8.85463 7.96924C8.85463 8.06928 8.83506 8.16831 8.79706 8.26059C8.75906 8.35286 8.70339 8.43653 8.63328 8.50672Z" fill="white"/>
</svg>
