<?xml version="1.0" encoding="UTF-8"?>
<svg width="20px" height="19px" viewBox="0 0 20 19" version="1.1" xmlns="http://www.w3.org/2000/svg" xmlns:xlink="http://www.w3.org/1999/xlink">
    <title>Basic / mosaic-view</title>
    <g id="Dispatcher_20221118_demo" stroke="none" stroke-width="1" fill="none" fill-rule="evenodd">
        <g id="Main-&gt;-GIS-&gt;-Location-sharing--" transform="translate(-636.000000, -91.000000)" fill="#000000">
            <g id="Group-Copy" transform="translate(431.000000, 82.000000)">
                <g id="Basic-/-mosaic-view" transform="translate(205.000000, 9.000000)">
                    <path d="M7.5,0 C11.6421356,0 15,3.18997116 15,7.125 C15,8.66364049 14.4866168,10.0883693 13.6137041,11.2530254 L19.1569102,16.5196861 C19.407164,16.7574272 19.4173075,17.1530253 19.1795664,17.4032791 C19.1722092,17.4110236 19.1646546,17.4185781 19.1569102,17.4259353 L18.2965849,18.2432443 C18.0553564,18.4724114 17.6768767,18.4724114 17.4356481,18.2432443 L11.8457846,12.9326842 C10.6197395,13.7621548 9.11983942,14.25 7.5,14.25 C3.35786438,14.25 0,11.0600288 0,7.125 C0,3.18997116 3.35786438,0 7.5,0 Z M7.5,2.375 C4.73857625,2.375 2.5,4.50164744 2.5,7.125 C2.5,9.74835256 4.73857625,11.875 7.5,11.875 C10.2614237,11.875 12.5,9.74835256 12.5,7.125 C12.5,4.50164744 10.2614237,2.375 7.5,2.375 Z" id="Icon-color"></path>
                </g>
            </g>
        </g>
    </g>
</svg>