<svg width="24" height="24" viewBox="0 0 24 24" xmlns="http://www.w3.org/2000/svg">
    <path d="M14.414 0a.75.75 0 0 1 .728.568l.841 3.36c.352.173.691.37 1.015.586l3.331-.951a.75.75 0 0 1 .856.346L23.6 8.091a.75.75 0 0 1-.129.914l-2.49 2.41a9.136 9.136 0 0 1 0 1.172l2.49 2.408c.248.24.3.616.129.914l-2.415 4.182a.75.75 0 0 1-.856.346L17 19.486a8.99 8.99 0 0 1-1.016.587l-.841 3.359a.75.75 0 0 1-.728.568H9.586a.75.75 0 0 1-.728-.568l-.84-3.359a8.99 8.99 0 0 1-1.016-.587l-3.331.951a.75.75 0 0 1-.856-.346L.4 15.909a.75.75 0 0 1 .129-.914l2.49-2.408a9.136 9.136 0 0 1 0-1.173L.529 9.005A.75.75 0 0 1 .4 8.091l2.415-4.182a.75.75 0 0 1 .856-.346L7 4.514a8.99 8.99 0 0 1 1.017-.587l.84-3.359A.75.75 0 0 1 9.586 0h4.828zM12 7.5a4.5 4.5 0 1 0 0 9 4.5 4.5 0 0 0 0-9z" fill="#AFAFAF" fill-rule="evenodd"/>
</svg>
