<svg width="24" height="24" viewBox="0 0 24 24" xmlns="http://www.w3.org/2000/svg">
    <g fill="#FFF" fill-rule="nonzero">
        <path d="M16.667 9.333a7.333 7.333 0 1 1 0 14.667 7.333 7.333 0 0 1 0-14.667zm2.046 7.465c-.238 0-.476.047-.714.093.524.559.857 1.303.857 2.047v1.395h2.025a.45.45 0 0 0 .451-.45v-.852c.048-1.163-1.143-2.233-2.619-2.233zm-3.57-.232c-1.524 0-2.81 1.163-2.81 2.372v.945c0 .249.202.45.451.45h4.742a.45.45 0 0 0 .453-.47c-.018-.452-.027-.76-.027-.925 0-1.256-1.286-2.372-2.81-2.372zm3.713-3.07c-.736 0-1.333.583-1.333 1.302 0 .72.597 1.303 1.333 1.303s1.333-.583 1.333-1.303c0-.719-.597-1.302-1.333-1.302zm-3.761-1.163c-.947 0-1.714.75-1.714 1.675s.767 1.674 1.714 1.674c.946 0 1.714-.75 1.714-1.674 0-.925-.768-1.675-1.714-1.675z"/>
        <path d="M7.333 0a7.333 7.333 0 0 1 7.277 8.247 8.616 8.616 0 0 0-2.63 1.13c-.157-1.032-1.261-1.912-2.6-1.912-.238 0-.476.047-.714.093.524.558.857 1.302.857 2.047V11l.587-.001a8.64 8.64 0 0 0-1.864 3.61A7.333 7.333 0 1 1 7.334 0zM5.81 7.233C4.286 7.233 3 8.395 3 9.605v.944c0 .25.202.451.45.451h4.743a.45.45 0 0 0 .453-.471c-.019-.451-.028-.76-.028-.924 0-1.256-1.285-2.372-2.809-2.372zm3.714-3.07c-.736 0-1.333.583-1.333 1.302 0 .72.597 1.302 1.333 1.302s1.333-.583 1.333-1.302c0-.72-.597-1.302-1.333-1.302zM5.76 3c-.946 0-1.714.75-1.714 1.674 0 .925.768 1.675 1.714 1.675.947 0 1.715-.75 1.715-1.675C7.476 3.75 6.708 3 5.76 3z"/>
    </g>
</svg>
