<?xml version="1.0" encoding="UTF-8"?>
<svg width="24px" height="24px" viewBox="0 0 24 24" version="1.1" xmlns="http://www.w3.org/2000/svg" xmlns:xlink="http://www.w3.org/1999/xlink">
    <title>ic_video</title>
    <g id="ic_video" stroke="none" stroke-width="1" fill="none" fill-rule="evenodd">
        <rect id="Rectangle" x="0" y="0" width="24" height="24"></rect>
        <path d="M21.3886337,8.10045045 C21.2522198,8.10226025 21.1186714,8.14079398 21.0020145,8.21190417 L17.2489349,10.3617242 L17.2489349,7.48044201 C17.2438826,7.08462295 17.0833379,6.70682651 16.802366,6.42947416 C16.521394,6.15219722 16.1427681,5.99783608 15.7490605,6 L3.49988955,6 C3.10616685,5.99783608 2.72752584,6.15219722 2.44654634,6.42947416 C2.16556684,6.70682651 2.00505237,7.08462295 2,7.48044201 L2,17.0893663 C2.00527105,17.4848837 2.16593634,17.8623031 2.44693846,18.139203 C2.72794058,18.4160275 3.10646094,18.5699362 3.49988955,18.5672568 L15.7490605,18.5672568 C16.1424665,18.5699362 16.521017,18.4160275 16.8019889,18.139203 C17.0829609,17.8623031 17.2436563,17.4848837 17.2489349,17.0893663 L17.2489349,14.2005432 L20.9986965,16.338675 C21.1184452,16.4223784 21.2602885,16.4683776 21.4061285,16.4710169 C21.4890778,16.4692825 21.5707452,16.4504303 21.6461536,16.415667 C21.7215621,16.3809037 21.7890527,16.3309833 21.8445533,16.2689222 C21.8999786,16.2069364 21.9422073,16.1340918 21.9685249,16.0550637 C21.9949178,15.9759603 22.0048717,15.8922569 21.9977833,15.8091567 L21.9977833,8.77151043 C22.0046455,8.68660049 21.9940129,8.60108728 21.9666396,8.52047563 C21.939191,8.43978857 21.8955295,8.36573745 21.8384452,8.30277138 C21.7812856,8.2398053 21.7118344,8.18935704 21.6344653,8.15451832 C21.5570962,8.11975502 21.4733928,8.10127994 21.3886337,8.10045045 Z" id="Path" fill="#FFFFFF" fill-rule="nonzero"></path>
    </g>
</svg>