<svg width="20" height="20" viewBox="0 0 20 20" fill="none" xmlns="http://www.w3.org/2000/svg">
    <path d="M2.628 17a.628.628 0 0 1 0-1.255h.735L4.54 4.239a1.38 1.38 0 0 1 1.372-1.24h8.176a1.38 1.38 0 0 1 1.372 1.24l1.176 11.506h.735a.628.628 0 1 1 0 1.255H2.628z" fill="#EE2113"/>
    <path d="M9.097 14.033a.936.936 0 0 1 .9-.967.97.97 0 0 1 0 1.935.936.936 0 0 1-.9-.968zm.615-2.418a.258.258 0 0 1-.257-.238l-.458-5.34a.938.938 0 0 1 .474-.9 1.069 1.069 0 0 1 1.05 0 .938.938 0 0 1 .473.9l-.449 5.342a.26.26 0 0 1-.258.237l-.575-.002z" fill="#fff"/>
</svg>
