<?xml version="1.0" encoding="UTF-8"?>
<svg width="24px" height="24px" viewBox="0 0 24 24" version="1.1" xmlns="http://www.w3.org/2000/svg" xmlns:xlink="http://www.w3.org/1999/xlink">
    <title>Group</title>
    <g id="Symbols" stroke="none" stroke-width="1" fill="none" fill-rule="evenodd">
        <g id="Group">
            <rect id="Rectangle" fill-opacity="0" fill="#D8D8D8" x="0" y="0" width="24" height="24"></rect>
            <g id="Icon-/-Call-/-PTT" transform="translate(4.000000, 5.000000)">
                <path d="M11.9741833,0 C12.7455125,8.03537201e-17 13.3911086,0.584974628 13.4669204,1.35256917 L14.636,13.199 L15.35,13.2 C15.7089851,13.2 16,13.4910149 16,13.85 C16,14.2089851 15.7089851,14.5 15.35,14.5 L0.65,14.5 C0.291014913,14.5 4.39629938e-17,14.2089851 0,13.85 C-4.39629938e-17,13.4910149 0.291014913,13.2 0.65,13.2 L1.363,13.199 L2.53307959,1.35256917 C2.60889139,0.584974628 3.25448747,-5.2444293e-16 4.02581672,0 L11.9741833,0 Z" id="Combined-Shape" fill="#FF291B" fill-rule="nonzero"></path>
                <path d="M8,12.0404588 C8.55228475,12.0404588 9,11.5927435 9,11.0404588 C9,10.488174 8.55228475,10.0404588 8,10.0404588 C7.44771525,10.0404588 7,10.488174 7,11.0404588 C7,11.5927435 7.44771525,12.0404588 8,12.0404588 Z M7.41666667,2.30625 C7.78191732,2.11449341 8.21808268,2.11449341 8.58333333,2.30625 C8.93641612,2.49161846 9.14301594,2.87147548 9.1067482,3.26860717 L8.58333333,9 L8.58333333,9 L7.41666667,9 L6.8932518,3.26860717 C6.85698406,2.87147548 7.06358388,2.49161846 7.41666667,2.30625 Z" id="Exclamation-mark" fill="#FFFFFF"></path>
            </g>
        </g>
    </g>
</svg>