<?xml version="1.0" encoding="UTF-8"?>
<svg width="24px" height="24px" viewBox="0 0 24 24" version="1.1" xmlns="http://www.w3.org/2000/svg" xmlns:xlink="http://www.w3.org/1999/xlink">
    <title>Shape Copy 2</title>
    <g id="Dispatcher_20221118" stroke="none" stroke-width="1" fill="none" fill-rule="evenodd">
        <g id="message" transform="translate(-201.000000, -138.000000)" fill="#EFEFEF">
            <path d="M213,162 C219.6274,162 225,156.6274 225,150 C225,143.37258 219.6274,138 213,138 C206.37258,138 201,143.37258 201,150 C201,156.6274 206.37258,162 213,162 Z M212.25,149.5 L212.25,155.5 L210,155.5 L210,158 L216.5,158 L216.5,155.5 L214.5,155.5 L214.5,147.375 C214.5,147.34185 214.4868,147.31005 214.4634,147.28661 C214.4399,147.26317 214.4082,147.25 214.375,147.25 L210,147.25 L210,149.5 L212.25,149.5 Z M211.5,143.499997 C211.5,143.20333 211.588,142.91332 211.7528,142.66665 C211.9176,142.41997 212.1519,142.22771 212.426,142.11418 C212.7001,142.00065 213.0017,141.97094 213.2926,142.02882 C213.5836,142.0867 213.8509,142.22956 214.0607,142.43934 C214.2704,142.64912 214.4133,142.91639 214.4712,143.20737 C214.5291,143.49834 214.4994,143.79994 214.3858,144.07403 C214.2723,144.34811 214.08,144.58238 213.8334,144.74721 C213.5867,144.91203 213.2967,144.999997 213,144.999997 C212.6022,144.999997 212.2206,144.84197 211.9393,144.56066 C211.658,144.27936 211.5,143.89783 211.5,143.499997 Z" id="Shape-Copy-2"></path>
        </g>
    </g>
</svg>