<?xml version="1.0" encoding="UTF-8"?>
<svg width="24px" height="24px" viewBox="0 0 24 24" version="1.1" xmlns="http://www.w3.org/2000/svg" xmlns:xlink="http://www.w3.org/1999/xlink">
    <title>Group</title>
    <g id="Symbols" stroke="none" stroke-width="1" fill="none" fill-rule="evenodd">
        <g id="Group">
            <g id="Group-Copy">
                <rect id="Rectangle" fill-opacity="0" fill="#D8D8D8" x="0" y="0" width="24" height="24"></rect>
                <path d="M21.4497703,7.89040541 C21.3269978,7.89203423 21.2068043,7.92671458 21.101813,7.99071375 L17.7240414,9.92555182 L17.7240414,7.33239781 C17.7194943,6.97616065 17.5750041,6.63614386 17.3221294,6.38652674 C17.0692546,6.13697749 16.7284913,5.99805247 16.3741544,6 L5.3499006,6 C4.99555016,5.99805247 4.65477325,6.13697749 4.4018917,6.38652674 C4.14901015,6.63614386 4.00454713,6.97616065 4,7.33239781 L4,15.9804297 C4.00474395,16.3363954 4.1493427,16.6760728 4.40224462,16.9252827 C4.65514653,17.1744248 4.99581485,17.3129426 5.3499006,17.3105311 L16.3741544,17.3105311 C16.7282198,17.3129426 17.0689153,17.1744248 17.32179,16.9252827 C17.5746648,16.6760728 17.7192907,16.3363954 17.7240414,15.9804297 L17.7240414,13.3804889 L21.0988269,15.3048075 C21.2066007,15.3801406 21.3342597,15.4215398 21.4655156,15.4239152 C21.54017,15.4223542 21.6136707,15.4053873 21.6815383,15.3741003 C21.7494059,15.3428134 21.8101474,15.297885 21.860098,15.2420299 C21.9099807,15.1862428 21.9479866,15.1206826 21.9716724,15.0495574 C21.995426,14.9783642 22.0043846,14.9030312 21.998005,14.828241 L21.998005,8.49435938 C22.004181,8.41794044 21.9946116,8.34097856 21.9699757,8.26842807 C21.9452719,8.19580971 21.9059765,8.1291637 21.8546007,8.07249424 C21.8031571,8.01582477 21.740651,7.97042133 21.6710188,7.93906649 C21.6013866,7.90777952 21.5260536,7.89115195 21.4497703,7.89040541 Z" id="Path" fill="#FF291B" fill-rule="nonzero"></path>
            </g>
            <g id="icon_change" transform="translate(6.000000, 6.000000)">
                <rect id="Rectangle" x="0" y="0" width="11" height="11"></rect>
                <path d="M5.2735627,7.91898148 C4.41138678,7.91898148 3.60777567,7.45453704 3.1766877,6.70668981 C2.71988215,5.9150463 2.75120159,4.95356481 3.26300715,4.06847222 L2.38122474,3.5587037 C1.68226641,4.76743056 1.65069233,6.10041667 2.29439604,7.21569444 C2.90703493,8.27775463 4.04853956,8.9375 5.2735627,8.9375 L5.2735627,10.0833333 L7.75059974,8.42824074 L5.2735627,6.77314815 L5.2735627,7.91898148 Z M8.25272937,3.78430556 C8.89643308,4.89958333 8.864859,6.23256944 8.16590067,7.4412963 L7.28411826,6.93152778 C7.79592382,6.04643519 7.82724326,5.0849537 7.3704377,4.29331019 C6.93909511,3.54546296 6.13573863,3.08101852 5.2735627,3.08101852 L5.2735627,4.22685185 L2.79652567,2.57175926 L5.2735627,0.916666667 L5.2735627,2.0625 C6.49858585,2.0625 7.64009048,2.72224537 8.25272937,3.78430556 L8.25272937,3.78430556 Z" id="Fill-1" fill="#FFFFFF"></path>
            </g>
        </g>
    </g>
</svg>