<?xml version="1.0" encoding="UTF-8"?>
<svg width="22px" height="19px" viewBox="0 0 22 19" version="1.1" xmlns="http://www.w3.org/2000/svg" xmlns:xlink="http://www.w3.org/1999/xlink">
    <title>Group</title>
    <g id="Dispatcher_20221118" stroke="none" stroke-width="1" fill="none" fill-rule="evenodd">
        <g id="Main-&gt;-GIS" transform="translate(-1024.000000, -174.000000)" fill="#3F4246" fill-rule="nonzero">
            <g id="Group-9" transform="translate(1011.000000, 160.000000)">
                <g id="Group" transform="translate(13.000000, 14.929870)">
                    <polygon id="Path" points="11.0008412 15.6887559 1.37098824 10.2142857 0 11.032023 11.0008412 17.2857143 22 11.032023 20.6306294 10.2142857"></polygon>
                    <polygon id="Path" points="19.2694765 8.63131706 18.8529 8.86759359 18.4363882 9.10387013 11.0008412 13.331613 3.56361176 9.10387013 3.14871765 8.86759359 2.73214118 8.63131706 1.37098824 7.85714286 0 8.67488013 1.36115294 9.44905434 1.77772941 9.68533087 2.19424118 9.9216074 11.0008412 14.9285714 19.8073765 9.9216074 20.2239529 9.68533087 20.6404647 9.44905434 22 8.67488013 20.6306294 7.85714286"></polygon>
                    <polygon id="Path" points="1.77772941 7.43042476 2.19424118 7.66216756 3.55377647 8.42148675 3.97035294 8.65322955 4.38686471 8.88497236 11.0008412 12.5714286 17.6131353 8.88497236 18.0296471 8.65322955 18.4462235 8.42148675 19.8073765 7.66216756 20.2239529 7.43042476 20.6404647 7.19705363 22 6.43936276 11.0008412 0 0 6.43936276 1.36115294 7.19705363"></polygon>
                </g>
            </g>
        </g>
    </g>
</svg>