<svg width="27" height="25" viewBox="0 0 27 25" fill="none" xmlns="http://www.w3.org/2000/svg">
    <path d="M3.697 18.465c2.575 3.51 5.75 5.696 8.72 5.996 1.994.202 5.57-.928 5.504-3.205-.033-1.192-1.142-2.012-1.95-2.813-.25-.248-.499-.495-.749-.74-2.057-2.027-3.318.729-5.457.097-1.206-.359-1.88-1.55-2.602-2.418a3.836 3.836 0 0 1-1.247-2.752c.265-1.86 3.589-2.173 2.479-4.568-.147-.313-.294-.636-.441-.953-.567-1.215-1.26-3.02-3.05-2.917-3.839.23-4.996 4.14-4.595 7.137a15.493 15.493 0 0 0 3.343 7.09c.015.02.032.037.045.052M13.316 5.011a1.052 1.052 0 0 0-.67.346 1.037 1.037 0 0 0 .02 1.399c.176.19.418.306.678.328a6.346 6.346 0 0 1 4.28 1.803c1.138 1.25 1.584 3.11 1.322 5.538a1.03 1.03 0 0 0 .537 1.021 1.048 1.048 0 0 0 1.54-.799c.329-3.051-.298-5.464-1.868-7.172a8.4 8.4 0 0 0-5.838-2.464" fill="#fff"/>
    <path d="M23.293 3.959A13.495 13.495 0 0 0 13.91 0c-.276.005-.54.12-.732.316a1.038 1.038 0 0 0-.296.736c.004.275.118.537.317.728.199.191.466.296.743.292 2.93.06 5.725 1.236 7.808 3.284 2.099 2.292 2.93 5.661 2.46 10.023-.03.274.051.547.225.761a1.045 1.045 0 0 0 1.85-.54c.533-4.973-.472-8.89-2.992-11.641z" fill="#fff"/>
</svg>
