<?xml version="1.0" encoding="UTF-8"?>
<svg width="16px" height="16px" viewBox="0 0 16 16" version="1.1" xmlns="http://www.w3.org/2000/svg" xmlns:xlink="http://www.w3.org/1999/xlink">
    <title>Icon / Call / PTT</title>
    <g id="Dispatcher_20221118_demo" stroke="none" stroke-width="1" fill="none" fill-rule="evenodd">
        <g id="Group-6-Copy-2" transform="translate(-12.000000, -10.000000)">
            <g id="ic_call_voice-copy" transform="translate(12.000000, 10.000000)">
                <rect id="Rectangle_2435" x="0" y="0" width="16" height="16"></rect>
                <path d="M10.16,1 C10.6570563,1 11.06,1.40294373 11.06,1.9 L11.06,3.27 L11.3648649,3.27027027 C11.9917827,3.27027027 12.5,3.77848758 12.5,4.40540541 L12.5,13.8648649 C12.5,14.4917827 11.9917827,15 11.3648649,15 L5.35513514,15 C4.72821731,15 4.22,14.4917827 4.22,13.8648649 L4.219,8.945 L4.12230026,8.93937319 C3.77086773,8.89169727 3.5,8.59045388 3.5,8.22594595 L3.5,6.63891892 C3.5,6.24161203 3.82180699,5.9194672 4.21898576,5.91891962 L4.22,4.40540541 C4.22,3.77848758 4.72821731,3.27027027 5.35513514,3.27027027 L9.26,3.27 L9.26,1.9 C9.26,1.40294373 9.66294373,1 10.16,1 Z M10.1459973,8.7524054 L6.50440237,8.7524054 C6.28889937,8.7524054 6.11419967,8.9271051 6.11419967,9.1426081 C6.11419967,9.3581111 6.28889937,9.5328108 6.50440237,9.5328108 L10.1459973,9.5328108 C10.3615003,9.5328108 10.5362,9.3581111 10.5362,9.1426081 C10.5362,8.9271051 10.3615003,8.7524054 10.1459973,8.7524054 Z M10.8059976,7.08754053 L5.84440303,7.08754053 C5.62890003,7.08754053 5.45420033,7.26224023 5.45420033,7.47774323 C5.45420033,7.69324624 5.62890003,7.86794594 5.84440303,7.86794594 L10.8059976,7.86794594 C11.0215006,7.86794594 11.1962003,7.69324624 11.1962003,7.47774323 C11.1962003,7.26224023 11.0215006,7.08754053 10.8059976,7.08754053 Z M10.1459973,5.42267567 L6.50440237,5.42267567 C6.28889937,5.42267567 6.11419967,5.59737537 6.11419967,5.81287837 C6.11419967,6.02838137 6.28889937,6.20308107 6.50440237,6.20308107 L10.1459973,6.20308107 C10.3615003,6.20308107 10.5362,6.02838137 10.5362,5.81287837 C10.5362,5.59737537 10.3615003,5.42267567 10.1459973,5.42267567 Z" id="Combined-Shape" fill="#000000"></path>
            </g>
        </g>
    </g>
</svg>