<?xml version="1.0" encoding="UTF-8"?>
<svg width="24px" height="24px" viewBox="0 0 24 24" version="1.1" xmlns="http://www.w3.org/2000/svg" xmlns:xlink="http://www.w3.org/1999/xlink">
    <title>Group</title>
    <g id="Symbols" stroke="none" stroke-width="1" fill="none" fill-rule="evenodd">
        <g id="Group">
            <rect id="Rectangle" fill-opacity="0" fill="#D8D8D8" x="0" y="0" width="24" height="24"></rect>
            <g id="Combined-Shape" transform="translate(6.000000, 2.000000)" fill="#FFFFFF">
                <path d="M8.89423077,0 C9.55803456,-1.21938777e-16 10.0961538,0.538119291 10.0961538,1.20192308 L10.0969442,2.92994401 C11.1749104,3.0285445 12.0192308,3.93502129 12.0192308,5.03869969 L12.0192308,15.8955108 C12.0192308,17.065055 11.0711279,18.0131579 9.90158371,18.0131579 L3.07918552,18.0131579 C1.90964134,18.0131579 0.961538462,17.065055 0.961538462,15.8955108 L0.961538462,10.2236842 C0.430495433,10.2236842 6.50340145e-17,9.79318878 0,9.26214575 L0,7.29048583 C-1.76056317e-16,6.7594428 0.430495433,6.32894737 0.961538462,6.32894737 L0.961538462,5.03869969 C0.961538462,3.86915551 1.90964134,2.92105263 3.07918552,2.92105263 L7.692,2.921 L7.69230769,1.20192308 C7.69230769,0.538119291 8.23042698,1.21938777e-16 8.89423077,0 Z M8.89457869,9.97466446 L3.99324138,9.97466446 C3.71596355,9.97466446 3.49118546,10.1994426 3.49118546,10.4767204 C3.49118546,10.7539982 3.71596355,10.9787763 3.99324138,10.9787763 L8.89457869,10.9787763 C9.17185652,10.9787763 9.39663462,10.7539982 9.39663462,10.4767204 C9.39663462,10.1994426 9.17185652,9.97466446 8.89457869,9.97466446 Z M9.77598939,7.8325592 L3.111832,7.8325592 C2.83455417,7.8325592 2.60977608,8.05733729 2.60977608,8.33461512 C2.60977608,8.61189295 2.83455417,8.83667104 3.111832,8.83667104 L9.77598939,8.83667104 C10.0532672,8.83667104 10.2780453,8.61189295 10.2780453,8.33461512 C10.2780453,8.05733729 10.0532672,7.8325592 9.77598939,7.8325592 Z M8.89457869,5.69045393 L3.99324138,5.69045393 C3.71596355,5.69045393 3.49118546,5.91523203 3.49118546,6.19250986 C3.49118546,6.46978768 3.71596355,6.69456578 3.99324138,6.69456578 L8.89457869,6.69456578 C9.17185652,6.69456578 9.39663462,6.46978768 9.39663462,6.19250986 C9.39663462,5.91523203 9.17185652,5.69045393 8.89457869,5.69045393 Z"></path>
            </g>
        </g>
    </g>
</svg>