<svg width="24" height="22" viewBox="0 0 24 22" fill="none" xmlns="http://www.w3.org/2000/svg">
<g clip-path="url(#clip0_379_10412)">
<path d="M23.217 8.65296H0.783029C0.351134 8.65296 0 8.29877 0 7.8631C0 7.42744 0.351134 7.07324 0.783029 7.07324H23.217C23.6489 7.07324 24 7.42744 24 7.8631C24 8.29877 23.6489 8.65296 23.217 8.65296Z" fill="#CDD0D3"/>
<path d="M5.86398 10.3535H5.33728C4.75162 10.3535 4.27686 10.8324 4.27686 11.4232V11.9545C4.27686 12.5453 4.75162 13.0242 5.33728 13.0242H5.86398C6.44964 13.0242 6.9244 12.5453 6.9244 11.9545V11.4232C6.9244 10.8324 6.44964 10.3535 5.86398 10.3535Z" fill="#CDD0D3"/>
<path d="M12.2616 10.3535H11.7349C11.1492 10.3535 10.6744 10.8324 10.6744 11.4232V11.9545C10.6744 12.5453 11.1492 13.0242 11.7349 13.0242H12.2616C12.8472 13.0242 13.322 12.5453 13.322 11.9545V11.4232C13.322 10.8324 12.8472 10.3535 12.2616 10.3535Z" fill="#CDD0D3"/>
<path d="M18.6628 10.3535H18.1361C17.5505 10.3535 17.0757 10.8324 17.0757 11.4232V11.9545C17.0757 12.5453 17.5505 13.0242 18.1361 13.0242H18.6628C19.2485 13.0242 19.7232 12.5453 19.7232 11.9545V11.4232C19.7232 10.8324 19.2485 10.3535 18.6628 10.3535Z" fill="#CDD0D3"/>
<path d="M5.86398 14.5615H5.33728C4.75162 14.5615 4.27686 15.0404 4.27686 15.6312V16.1625C4.27686 16.7533 4.75162 17.2322 5.33728 17.2322H5.86398C6.44964 17.2322 6.9244 16.7533 6.9244 16.1625V15.6312C6.9244 15.0404 6.44964 14.5615 5.86398 14.5615Z" fill="#CDD0D3"/>
<path d="M12.2616 14.5615H11.7349C11.1492 14.5615 10.6744 15.0404 10.6744 15.6312V16.1625C10.6744 16.7533 11.1492 17.2322 11.7349 17.2322H12.2616C12.8472 17.2322 13.322 16.7533 13.322 16.1625V15.6312C13.322 15.0404 12.8472 14.5615 12.2616 14.5615Z" fill="#CDD0D3"/>
<path d="M18.6628 14.5615H18.1361C17.5505 14.5615 17.0757 15.0404 17.0757 15.6312V16.1625C17.0757 16.7533 17.5505 17.2322 18.1361 17.2322H18.6628C19.2485 17.2322 19.7232 16.7533 19.7232 16.1625V15.6312C19.7232 15.0404 19.2485 14.5615 18.6628 14.5615Z" fill="#CDD0D3"/>
<path d="M21.8581 2.71315H19.6073V0.789861C19.6073 0.354198 19.2562 0 18.8243 0C18.3924 0 18.0413 0.354198 18.0413 0.789861V2.71315H5.95874V0.789861C5.95874 0.354198 5.60761 0 5.17571 0C4.74382 0 4.39268 0.354198 4.39268 0.789861V2.71315H2.14192C0.962107 2.71315 0 3.68366 0 4.87376V19.1727C0 20.3628 0.962107 21.3333 2.14192 21.3333H21.8581C23.0379 21.3333 24 20.3628 24 19.1727V4.87376C24 3.68366 23.0379 2.71315 21.8581 2.71315ZM22.4339 19.1727C22.4339 19.495 22.1741 19.7536 21.8581 19.7536H2.14192C1.8259 19.7536 1.56606 19.4915 1.56606 19.1727V4.87376C1.56606 4.55498 1.8259 4.29288 2.14192 4.29288H4.39268V5.62466C4.39268 6.06032 4.74382 6.41452 5.17571 6.41452C5.60761 6.41452 5.95874 6.06032 5.95874 5.62466V4.29288H18.0413V5.62466C18.0413 6.06032 18.3924 6.41452 18.8243 6.41452C19.2562 6.41452 19.6073 6.06032 19.6073 5.62466V4.29288H21.8581C22.1741 4.29288 22.4339 4.55498 22.4339 4.87376V19.1727Z" fill="#CDD0D3"/>
</g>
<defs>
<clipPath id="clip0_379_10412">
<rect width="24" height="21.3333" fill="white"/>
</clipPath>
</defs>
</svg>
