<?xml version="1.0" encoding="UTF-8"?>
<svg width="24px" height="24px" viewBox="0 0 24 24" version="1.1" xmlns="http://www.w3.org/2000/svg" xmlns:xlink="http://www.w3.org/1999/xlink">
    <title>Group 3</title>
    <g id="Symbols" stroke="none" stroke-width="1" fill="none" fill-rule="evenodd">
        <g id="Group-3-Copy">
            <rect id="Rectangle" x="0" y="0" width="24" height="24"></rect>
            <g id="Status-/-alert-2" transform="translate(5.000000, 5.000000)" fill="#FFFFFF">
                <path d="M4,0 L4,1.25 L10,1.25 L10,0 L14,0 L14,4 L12.75,4 L12.75,10 L14,10 L14,14 L10,14 L10,12.75 L4,12.75 L4,14 L0,14 L0,10 L1.25,10 L1.25,4 L0,4 L0,0 L4,0 Z M10,2.75 L4,2.75 L4,4 L2.75,4 L2.75,10 L4,10 L4,11.25 L10,11.25 L10,10 L11.25,10 L11.25,4 L10,4 L10,2.75 Z" id="Icon-color"></path>
            </g>
        </g>
    </g>
</svg>