<?xml version="1.0" encoding="UTF-8"?>
<svg width="24px" height="24px" viewBox="0 0 24 24" version="1.1" xmlns="http://www.w3.org/2000/svg" xmlns:xlink="http://www.w3.org/1999/xlink">
    <title>Group</title>
    <g id="Symbols" stroke="none" stroke-width="1" fill="none" fill-rule="evenodd">
        <g id="Group">
            <rect id="Rectangle" x="0" y="0" width="24" height="24"></rect>
            <path d="M20.4497703,7.89040541 C20.3269978,7.89203423 20.2068043,7.92671458 20.101813,7.99071375 L16.7240414,9.92555182 L16.7240414,7.33239781 C16.7194943,6.97616065 16.5750041,6.63614386 16.3221294,6.38652674 C16.0692546,6.13697749 15.7284913,5.99805247 15.3741544,6 L4.3499006,6 C3.99555016,5.99805247 3.65477325,6.13697749 3.4018917,6.38652674 C3.14901015,6.63614386 3.00454713,6.97616065 3,7.33239781 L3,15.9804297 C3.00474395,16.3363954 3.1493427,16.6760728 3.40224462,16.9252827 C3.65514653,17.1744248 3.99581485,17.3129426 4.3499006,17.3105311 L15.3741544,17.3105311 C15.7282198,17.3129426 16.0689153,17.1744248 16.32179,16.9252827 C16.5746648,16.6760728 16.7192907,16.3363954 16.7240414,15.9804297 L16.7240414,13.3804889 L20.0988269,15.3048075 C20.2066007,15.3801406 20.3342597,15.4215398 20.4655156,15.4239152 C20.54017,15.4223542 20.6136707,15.4053873 20.6815383,15.3741003 C20.7494059,15.3428134 20.8101474,15.297885 20.860098,15.2420299 C20.9099807,15.1862428 20.9479866,15.1206826 20.9716724,15.0495574 C20.995426,14.9783642 21.0043846,14.9030312 20.998005,14.828241 L20.998005,8.49435938 C21.004181,8.41794044 20.9946116,8.34097856 20.9699757,8.26842807 C20.9452719,8.19580971 20.9059765,8.1291637 20.8546007,8.07249424 C20.8031571,8.01582477 20.740651,7.97042133 20.6710188,7.93906649 C20.6013866,7.90777952 20.5260536,7.89115195 20.4497703,7.89040541 Z" id="Path" fill="#FFFFFF" fill-rule="nonzero"></path>
        </g>
    </g>
</svg>