<svg width="20" height="20" viewBox="0 0 20 20" fill="none" xmlns="http://www.w3.org/2000/svg">
    <path d="M6.566 17.5a.728.728 0 0 1-.729-.729v-2.245h-.606A2.734 2.734 0 0 1 2.5 11.8V5.231A2.734 2.734 0 0 1 5.231 2.5h9.954a2.712 2.712 0 0 1 1.932.8c.51.514.798 1.208.8 1.933V11.8a2.734 2.734 0 0 1-2.731 2.731H9.842l-2.756 2.751a.732.732 0 0 1-.52.218zm7.5-7.75a1.24 1.24 0 0 0 1.23-1.115 1.237 1.237 0 1 0-1.23 1.115zm-3.855-2.475a1.238 1.238 0 1 0 0 2.476 1.238 1.238 0 0 0 0-2.476zm-3.859 0a1.237 1.237 0 1 0 0 2.474 1.237 1.237 0 0 0 0-2.474z" fill="#fff"/>
</svg>
