<svg width="34" height="34" viewBox="0 0 34 34" xmlns="http://www.w3.org/2000/svg">
    <g fill="none" fill-rule="evenodd">
        <circle fill="#54595F" fill-rule="nonzero" cx="17" cy="17" r="17"/>
        <path d="M20.611 15.725a2.38 2.38 0 1 0 0-4.76 2.38 2.38 0 0 0 0 4.76zM20.356 17c-.425 0-.85.085-1.275.17.935 1.02 1.53 2.38 1.53 3.74v2.55h3.57c.47 0 .85-.38.85-.85v-1.53c.085-2.125-2.04-4.08-4.675-4.08zm-1.36 3.91c0-2.295-2.295-4.335-5.015-4.335-2.72 0-5.015 2.125-5.015 4.335v1.7c0 .47.38.85.85.85h8.381a.85.85 0 0 0 .847-.883 50.838 50.838 0 0 1-.048-1.667zm-5.1-5.95a3.06 3.06 0 1 0 0-6.12 3.06 3.06 0 0 0 0 6.12z" fill="#FFF" fill-rule="nonzero"/>
        <path d="M6.8 5.95h20.4v20.4H6.8z"/>
    </g>
</svg>
