<?xml version="1.0" encoding="UTF-8"?>
<svg width="24px" height="24px" viewBox="0 0 24 24" version="1.1" xmlns="http://www.w3.org/2000/svg" xmlns:xlink="http://www.w3.org/1999/xlink">
    <title>Group</title>
    <g id="Symbols" stroke="none" stroke-width="1" fill="none" fill-rule="evenodd">
        <g id="Group">
            <rect id="Rectangle-Copy-20" fill-opacity="0" fill="#D8D8D8" x="0" y="0" width="24" height="24"></rect>
            <path d="M3.35358168,16.4423359 C3.43315868,16.5219129 3.57046522,16.5298706 3.65872341,16.4601321 L7.27890031,14.1754019 C7.38032487,14.1269323 7.46351908,13.9951237 7.46351913,13.8825584 L7.46351967,12.4296266 C7.4635197,12.3395743 7.52028276,12.2462811 7.59817682,12.1964907 L7.66882271,12.1656414 L7.76851682,12.1390979 C9.72278415,11.6121733 11.7817202,11.5724143 13.7517508,12.0197051 L14.3401325,12.168322 C14.4482126,12.1997187 14.53676,12.3174926 14.53676,12.4297686 L14.5366148,13.8834239 C14.5366147,13.9732446 14.5897664,14.0756588 14.6630305,14.1379222 L18.3412639,16.4602713 C18.429522,16.5300097 18.5671179,16.522052 18.646695,16.4424749 L19.7264833,15.3623972 C19.7861661,15.3027144 19.8427563,15.1995717 19.8718381,15.1044862 L19.8928777,14.9926004 L19.9563056,14.1844328 L19.9896565,13.5442225 L19.9997439,13.1118055 C20.0031391,12.6220616 19.9734398,12.2082226 19.8708807,12.125493 C17.2886792,10.0421674 14.1440848,8.99985414 11.0005028,9 C7.85561867,9 4.71145755,10.042172 2.12925454,12.125789 C2.02648211,12.2085187 1.99678536,12.6223381 2.00026876,13.1120571 L2.01044979,13.544452 L2.03129927,13.9783105 L2.08267145,14.7075713 L2.10972092,15.0141458 C2.12057229,15.1259876 2.19465121,15.2828267 2.27422821,15.3624037 L3.35358168,16.4423359 Z" id="Icon-color" fill="#FF291B" fill-rule="nonzero" transform="translate(11.000000, 12.753891) scale(1, -1) rotate(-45.000000) translate(-11.000000, -12.753891) "></path>
            <polygon id="Fill-1" fill="#FF291B" transform="translate(16.500563, 7.793979) rotate(45.000000) translate(-16.500563, -7.793979) " points="15.710281 4.29390108 15.710281 7.00361864 13.0005634 7.00361864 13.0005634 8.58433907 15.7099699 8.58433907 15.7099699 11.2940566 17.2908458 11.2940566 17.2908458 8.58402796 20.0005634 8.58402796 20.0005634 7.00346308 17.2908458 7.00346308 17.2908458 4.29390108"></polygon>
        </g>
    </g>
</svg>