<?xml version="1.0" encoding="UTF-8"?>
<svg width="24px" height="24px" viewBox="0 0 24 24" version="1.1" xmlns="http://www.w3.org/2000/svg" xmlns:xlink="http://www.w3.org/1999/xlink">
    <title>Group</title>
    <g id="Symbols" stroke="none" stroke-width="1" fill="none" fill-rule="evenodd">
        <g id="Group">
            <g id="Group-Copy">
                <polygon id="Rectangle" fill-opacity="0" fill="#D8D8D8" points="0 0 24 0 24 20.730217 24 24 0 24"></polygon>
                <g id="Combined-Shape" transform="translate(6.000000, 2.000000)" fill="#FF291B">
                    <path d="M8.89423077,0 C9.55803456,-1.21938777e-16 10.0961538,0.538119291 10.0961538,1.20192308 L10.0969442,2.92994401 C11.1749104,3.0285445 12.0192308,3.93502129 12.0192308,5.03869969 L12.0192308,15.8955108 C12.0192308,17.065055 11.0711279,18.0131579 9.90158371,18.0131579 L3.07918552,18.0131579 C1.90964134,18.0131579 0.961538462,17.065055 0.961538462,15.8955108 L0.961538462,10.2236842 C0.430495433,10.2236842 6.50340145e-17,9.79318878 0,9.26214575 L0,7.29048583 C-1.76056317e-16,6.7594428 0.430495433,6.32894737 0.961538462,6.32894737 L0.961538462,5.03869969 C0.961538462,3.86915551 1.90964134,2.92105263 3.07918552,2.92105263 L7.692,2.921 L7.69230769,1.20192308 C7.69230769,0.538119291 8.23042698,1.21938777e-16 8.89423077,0 Z M8.89457869,9.97466446 L3.99324138,9.97466446 C3.71596355,9.97466446 3.49118546,10.1994426 3.49118546,10.4767204 C3.49118546,10.7539982 3.71596355,10.9787763 3.99324138,10.9787763 L8.89457869,10.9787763 C9.17185652,10.9787763 9.39663462,10.7539982 9.39663462,10.4767204 C9.39663462,10.1994426 9.17185652,9.97466446 8.89457869,9.97466446 Z M9.77598939,7.8325592 L3.111832,7.8325592 C2.83455417,7.8325592 2.60977608,8.05733729 2.60977608,8.33461512 C2.60977608,8.61189295 2.83455417,8.83667104 3.111832,8.83667104 L9.77598939,8.83667104 C10.0532672,8.83667104 10.2780453,8.61189295 10.2780453,8.33461512 C10.2780453,8.05733729 10.0532672,7.8325592 9.77598939,7.8325592 Z M8.89457869,5.69045393 L3.99324138,5.69045393 C3.71596355,5.69045393 3.49118546,5.91523203 3.49118546,6.19250986 C3.49118546,6.46978768 3.71596355,6.69456578 3.99324138,6.69456578 L8.89457869,6.69456578 C9.17185652,6.69456578 9.39663462,6.46978768 9.39663462,6.19250986 C9.39663462,5.91523203 9.17185652,5.69045393 8.89457869,5.69045393 Z"></path>
                </g>
            </g>
            <g id="icon_change" transform="translate(11.000000, 2.000000)">
                <rect id="Rectangle" x="0" y="0" width="12" height="12"></rect>
                <path d="M5.7529775,8.63888889 C4.81242194,8.63888889 3.93575527,8.13222222 3.4654775,7.31638889 C2.96714416,6.45277778 3.00131083,5.40388889 3.55964416,4.43833333 L2.59769972,3.88222222 C1.83519972,5.20083333 1.80075527,6.655 2.5029775,7.87166667 C3.17131083,9.03027778 4.41658861,9.75 5.7529775,9.75 L5.7529775,11 L8.45519972,9.19444444 L5.7529775,7.38888889 L5.7529775,8.63888889 Z M9.0029775,4.12833333 C9.70519972,5.345 9.67075527,6.79916667 8.90825527,8.11777778 L7.94631083,7.56166667 C8.50464416,6.59611111 8.53881083,5.54722222 8.0404775,4.68361111 C7.56992194,3.86777778 6.69353305,3.36111111 5.7529775,3.36111111 L5.7529775,4.61111111 L3.05075527,2.80555556 L5.7529775,1 L5.7529775,2.25 C7.08936639,2.25 8.33464416,2.96972222 9.0029775,4.12833333 L9.0029775,4.12833333 Z" id="Fill-1" fill="#FFFFFF"></path>
            </g>
        </g>
    </g>
</svg>