<?xml version="1.0" encoding="UTF-8"?>
<svg width="24px" height="24px" viewBox="0 0 24 24" version="1.1" xmlns="http://www.w3.org/2000/svg" xmlns:xlink="http://www.w3.org/1999/xlink">
    <title>Group 2 Copy 2</title>
    <g id="Symbols" stroke="none" stroke-width="1" fill="none" fill-rule="evenodd">
        <g id="Group-2-Copy">
            <g id="Group" fill="#D8D8D8" fill-opacity="0">
                <rect id="Rectangle" x="0" y="0" width="24" height="24"></rect>
            </g>
            <g id="Combined-Shape" transform="translate(5.000000, 2.000000)" fill="#FF291B">
                <path d="M9.25,0 C9.94035594,-1.26816328e-16 10.5,0.559644063 10.5,1.25 L10.5,3.004 L10.5335866,3.00531704 C11.6325486,3.08286233 12.5,3.99895263 12.5,5.11764706 L12.5,16.3823529 C12.5,17.5518971 11.5518971,18.5 10.3823529,18.5 L3.11764706,18.5 C1.94810288,18.5 1,17.5518971 1,16.3823529 L0.999,10.499 L0.883378875,10.4932723 C0.38604019,10.4355072 6.28042769e-17,10.0128358 0,9.5 L0,7.5 C-6.75940837e-17,6.94805242 0.447168756,6.5005467 0.998988606,6.5000005 L1,5.11764706 C1,3.94810288 1.94810288,3 3.11764706,3 L8,2.999 L8,1.25 C8,0.559644063 8.55964406,1.26816328e-16 9.25,0 Z M9.256875,10.24425 L4.14645788,10.24425 C3.86168605,10.24425 3.63083288,10.4751032 3.63083288,10.759875 C3.63083288,11.0446468 3.86168605,11.2755 4.14645788,11.2755 L9.256875,11.2755 C9.54164682,11.2755 9.7725,11.0446468 9.7725,10.759875 C9.7725,10.4751032 9.54164682,10.24425 9.256875,10.24425 Z M10.1735421,8.04424999 L3.22979212,8.04424999 C2.9450203,8.04424999 2.71416712,8.27510316 2.71416712,8.55987499 C2.71416712,8.84464681 2.9450203,9.07549999 3.22979212,9.07549999 L10.1735421,9.07549999 C10.4583139,9.07549999 10.6891671,8.84464681 10.6891671,8.55987499 C10.6891671,8.27510316 10.4583139,8.04424999 10.1735421,8.04424999 Z M9.256875,5.84424999 L4.14645787,5.84424999 C3.86168605,5.84424999 3.63083287,6.07510316 3.63083287,6.35987499 C3.63083287,6.64464681 3.86168605,6.87549999 4.14645787,6.87549999 L9.256875,6.87549999 C9.54164682,6.87549999 9.7725,6.64464681 9.7725,6.35987499 C9.7725,6.07510316 9.54164682,5.84424999 9.256875,5.84424999 Z"></path>
            </g>
            <rect id="Rectangle" fill="#FF291B" x="7" y="7" width="10" height="9"></rect>
            <g id="icon_change" transform="translate(7.000000, 7.000000)">
                <rect id="Rectangle" x="0" y="0" width="10" height="10"></rect>
                <path d="M4.79414791,7.19907407 C4.01035162,7.19907407 3.27979606,6.77685185 2.88789791,6.09699074 C2.47262014,5.37731481 2.50109236,4.50324074 2.96637014,3.69861111 L2.16474977,3.23518519 C1.5293331,4.33402778 1.5006294,5.54583333 2.08581458,6.55972222 C2.64275902,7.52523148 3.68049051,8.125 4.79414791,8.125 L4.79414791,9.16666667 L7.04599977,7.66203704 L4.79414791,6.15740741 L4.79414791,7.19907407 Z M7.50248125,3.44027778 C8.08766643,4.45416667 8.05896273,5.66597222 7.42354606,6.76481481 L6.62192569,6.30138889 C7.08720347,5.49675926 7.11567569,4.62268519 6.70039791,3.90300926 C6.30826828,3.22314815 5.57794421,2.80092593 4.79414791,2.80092593 L4.79414791,3.84259259 L2.54229606,2.33796296 L4.79414791,0.833333333 L4.79414791,1.875 C5.90780532,1.875 6.9455368,2.47476852 7.50248125,3.44027778 L7.50248125,3.44027778 Z" id="Fill-1" fill="#FFFFFF"></path>
            </g>
        </g>
    </g>
</svg>