<?xml version="1.0" encoding="UTF-8"?>
<svg width="33px" height="32px" viewBox="0 0 33 32" version="1.1" xmlns="http://www.w3.org/2000/svg" xmlns:xlink="http://www.w3.org/1999/xlink">
    <title>Group 3</title>
    <g id="Dispatcher_20221118" stroke="none" stroke-width="1" fill="none" fill-rule="evenodd">
        <g id="Main-&gt;--대기상태에서-카드-더보기-클릭시" transform="translate(-496.000000, -283.000000)">
            <g id="Group-5" transform="translate(440.000000, 187.000000)">
                <g id="Group-8-Copy-3" transform="translate(41.500000, 96.000000)">
                    <g id="Group-3" transform="translate(15.000000, 0.000000)">
                        <g id="Group">
                            <rect id="Rectangle" x="0" y="0" width="32" height="32"></rect>
                            <path d="M28.5996938,10.5205405 C28.4359971,10.5227123 28.275739,10.5689528 28.1357507,10.654285 L23.6320553,13.2340691 L23.6320553,9.77653041 C23.6259924,9.30154754 23.4333389,8.84819182 23.0961725,8.51536899 C22.7590061,8.18263666 22.304655,7.99740329 21.8322059,8 L7.1332008,8 C6.66073355,7.99740329 6.20636434,8.18263666 5.86918894,8.51536899 C5.53201354,8.84819182 5.33939617,9.30154754 5.33333333,9.77653041 L5.33333333,21.3072396 C5.3396586,21.7818605 5.53245694,22.2347638 5.86965949,22.5670436 C6.20686204,22.899233 6.66108646,23.0839235 7.1332008,23.0807082 L21.8322059,23.0807082 C22.3042931,23.0839235 22.7585537,22.899233 23.0957201,22.5670436 C23.4328864,22.2347638 23.6257209,21.7818605 23.6320553,21.3072396 L23.6320553,17.8406519 L28.1317692,20.40641 C28.2754675,20.5068541 28.4456795,20.5620531 28.6206875,20.5652202 C28.7202267,20.563139 28.8182275,20.5405164 28.9087177,20.4988005 C28.9992079,20.4570845 29.0801966,20.39718 29.1467973,20.3227066 C29.2133076,20.2483237 29.2639821,20.1609102 29.2955632,20.0660765 C29.3272347,19.9711523 29.3391794,19.8707082 29.3306733,19.7709881 L29.3306733,11.3258125 C29.3389079,11.2239206 29.3261488,11.1213047 29.2933009,11.0245708 C29.2603625,10.9277463 29.2079687,10.8388849 29.1394676,10.7633257 C29.0708761,10.6877664 28.9875346,10.6272284 28.8946917,10.585422 C28.8018488,10.543706 28.7014047,10.5215359 28.5996938,10.5205405 Z" id="Path" fill="#434547" fill-rule="nonzero"></path>
                        </g>
                        <g id="icon_change" transform="translate(8.000000, 8.000000)">
                            <rect id="Rectangle" x="0" y="0" width="16" height="16"></rect>
                            <path d="M7.67063666,11.5185185 C6.41656259,11.5185185 5.2476737,10.842963 4.62063666,9.75518519 C3.95619222,8.6037037 4.00174777,7.20518519 4.74619222,5.91777778 L3.46359962,5.1762963 C2.44693296,6.93444444 2.40100703,8.87333333 3.33730333,10.4955556 C4.22841444,12.0403704 5.88878481,13 7.67063666,13 L7.67063666,14.6666667 L11.2735996,12.2592593 L7.67063666,9.85185185 L7.67063666,11.5185185 Z M12.00397,5.50444444 C12.9402663,7.12666667 12.8943404,9.06555556 11.8776737,10.8237037 L10.5950811,10.0822222 C11.3395256,8.79481481 11.3850811,7.3962963 10.7206367,6.24481481 C10.0932293,5.15703704 8.92471074,4.48148148 7.67063666,4.48148148 L7.67063666,6.14814815 L4.0676737,3.74074074 L7.67063666,1.33333333 L7.67063666,3 C9.45248851,3 11.1128589,3.95962963 12.00397,5.50444444 L12.00397,5.50444444 Z" id="Fill-1" fill="#FFFFFF"></path>
                        </g>
                    </g>
                </g>
            </g>
        </g>
    </g>
</svg>