<svg width="28" height="28" viewBox="0 0 28 28" fill="none" xmlns="http://www.w3.org/2000/svg">
    <path d="M17.454 27h-6.903v-2.616h6.908V27h-.005zm5.904-.446-4.784-5.33a8.32 8.32 0 0 1-4.512 1.389 8.3 8.3 0 0 1-4.528-1.322c-1.379-.877-2.525-2.145-3.322-3.675a10.932 10.932 0 0 1-1.218-5.037h2.699l.007.34c.05 1.143.35 2.254.872 3.238a6.734 6.734 0 0 0 2.128 2.41c.874.598 1.866.95 2.89 1.025a5.746 5.746 0 0 0 2.986-.596l-1.658-1.847c-.302.067-.61.101-.918.101a3.97 3.97 0 0 1-1.736-.388 4.38 4.38 0 0 1-1.454-1.126 4.97 4.97 0 0 1-.93-1.678 5.362 5.362 0 0 1-.255-1.952v-.855l-6.89-7.678 1.907-2.126 4.983 5.554 7.7 8.573 1.443 1.61 1.912 2.128 4.589 5.115-1.908 2.126-.003.001zM22.19 16.75l-2.1-2.34a7.811 7.811 0 0 0 .216-1.83h2.699l-.008.368a10.896 10.896 0 0 1-.806 3.802zm-3.823-4.264-8.5-9.471C10.494 1.239 12.308 1 14 1c2.273 0 4.376.443 4.376 3.658v7.45c0 .13 0 .25-.01.375l.002.002z" fill="#fff"/>
</svg>
