<svg width="69" height="69" viewBox="0 0 69 69" fill="none" xmlns="http://www.w3.org/2000/svg">
<g filter="url(#filter0_d_344_64289)">
<path d="M65.3529 33.3203C65.3529 50.3452 51.5773 64.1435 34.5882 64.1435C17.599 64.1435 3.82349 50.3452 3.82349 33.3203C3.82349 16.2954 17.599 2.49707 34.5882 2.49707C51.5773 2.49707 65.3529 16.2954 65.3529 33.3203Z" fill="#343434" stroke="#DB762D" stroke-width="2" stroke-miterlimit="10"/>
</g>
<path d="M48.1441 26.9247C47.9531 26.9272 47.7662 26.9808 47.6028 27.0798L42.3485 30.0733V26.0614C42.3414 25.5102 42.1167 24.9842 41.7234 24.598C41.33 24.2119 40.7999 23.9969 40.2487 24H23.0999C22.5486 23.9969 22.0185 24.2119 21.6252 24.598C21.2318 24.9842 21.0071 25.5102 21 26.0614V39.441C21.0074 39.9917 21.2323 40.5172 21.6257 40.9028C22.0191 41.2883 22.549 41.5026 23.0999 41.4988H40.2487C40.7995 41.5026 41.3294 41.2883 41.7228 40.9028C42.1162 40.5172 42.3411 39.9917 42.3485 39.441V35.4186L47.5982 38.3957C47.7659 38.5122 47.9644 38.5764 48.1686 38.58C48.2847 38.5776 48.3991 38.5513 48.5047 38.5029C48.6102 38.4545 48.7048 38.385 48.7824 38.2986C48.86 38.2123 48.9191 38.1109 48.956 38.0008C48.9929 37.8906 49.0068 37.7741 48.9969 37.6584V27.8591C49.0065 27.7408 48.9917 27.6218 48.9533 27.5095C48.9149 27.3972 48.8538 27.294 48.7738 27.2063C48.6938 27.1187 48.5966 27.0484 48.4883 27C48.3799 26.9515 48.2628 26.9259 48.1441 26.9247Z" fill="#DB762D"/>
<defs>
<filter id="filter0_d_344_64289" x="0.823486" y="0.49707" width="67.5293" height="67.6465" filterUnits="userSpaceOnUse" color-interpolation-filters="sRGB">
<feFlood flood-opacity="0" result="BackgroundImageFix"/>
<feColorMatrix in="SourceAlpha" type="matrix" values="0 0 0 0 0 0 0 0 0 0 0 0 0 0 0 0 0 0 127 0" result="hardAlpha"/>
<feOffset dy="1"/>
<feGaussianBlur stdDeviation="1"/>
<feColorMatrix type="matrix" values="0 0 0 0 0 0 0 0 0 0 0 0 0 0 0 0 0 0 0.502 0"/>
<feBlend mode="normal" in2="BackgroundImageFix" result="effect1_dropShadow_344_64289"/>
<feBlend mode="normal" in="SourceGraphic" in2="effect1_dropShadow_344_64289" result="shape"/>
</filter>
</defs>
</svg>
