<?xml version="1.0" encoding="UTF-8"?>
<svg width="24px" height="24px" viewBox="0 0 24 24" version="1.1" xmlns="http://www.w3.org/2000/svg" xmlns:xlink="http://www.w3.org/1999/xlink">
    <title>Group</title>
    <g id="Symbols" stroke="none" stroke-width="1" fill="none" fill-rule="evenodd">
        <g id="Group">
            <rect id="Rectangle" x="0" y="0" width="24" height="24"></rect>
            <g id="Basic-/-user-group" transform="translate(4.000000, 5.200000)" fill="#FFFFFF">
                <path d="M11.5,13.0465133 C11.5,13.4626534 11.1626518,13.8000017 10.7465116,13.8000017 L5.25348837,13.8000017 C4.83734824,13.8000017 4.5,13.4626534 4.5,13.0465133 L4.5,9.50415925 C4.5,9.4346392 4.50202688,9.36559255 4.50602477,9.29707517 L4.5,9.50415925 C4.5,9.40369067 4.50423319,9.30421081 4.51253095,9.2058883 C4.51603175,9.16436956 4.52028829,9.1228002 4.52526575,9.08145269 C4.52839725,9.05543402 4.5318264,9.0294182 4.53553964,9.00349406 C4.5430513,8.95108176 4.55167082,8.89932494 4.56141252,8.84796533 C4.56396619,8.83449721 4.56664135,8.82083705 4.56939572,8.80720559 C4.57989069,8.75528118 4.5914863,8.70396795 4.60419513,8.6530956 C4.60992502,8.63015728 4.61590021,8.60723879 4.62210058,8.58441303 C4.65804504,8.45206087 4.70162906,8.32265595 4.75230854,8.19687201 C4.75661939,8.18617212 4.76100606,8.1754394 4.76544434,8.16473347 C4.81359447,8.04858252 4.86783945,7.93554844 4.92776608,7.82606787 C4.93793752,7.80748401 4.94833345,7.78889613 4.95889302,7.7704138 C4.98315863,7.72794742 5.00818344,7.68620491 5.03404155,7.64503884 C5.04392918,7.6292953 5.05407235,7.61343061 5.06433925,7.59765384 C5.0914875,7.55594163 5.11937807,7.51501597 5.14810116,7.47472481 C5.18042966,7.42936806 5.21399662,7.38458218 5.24859339,7.34064519 C5.26340198,7.32184052 5.27829189,7.30332212 5.29336499,7.28495983 C5.313815,7.26004358 5.3347707,7.23522074 5.35606194,7.21069704 C5.37970437,7.18347062 5.40352403,7.15686899 5.42773985,7.13063858 C5.437642,7.11991169 5.44771633,7.10913498 5.45785764,7.09842233 C6.09579908,6.42454062 6.99880688,6.00415925 8,6.00415925 C9.45856868,6.00415925 10.7087532,6.8963578 11.2345723,8.1647735 C11.2387022,8.17516533 11.2429601,8.18556728 11.247169,8.19599418 C11.2983909,8.32259189 11.3422927,8.4529951 11.3784843,8.58656893 C11.3844085,8.60860869 11.3902039,8.63085133 11.3957846,8.65317899 C11.4085137,8.70396795 11.4201093,8.75528118 11.4305643,8.80700791 C11.4333395,8.82084364 11.4360159,8.8345034 11.4386124,8.8481914 C11.4483292,8.89932494 11.4569487,8.95108176 11.4644196,9.00320934 C11.4681674,9.02942033 11.4715975,9.05543582 11.4747402,9.08153978 C11.4797117,9.1228002 11.4839683,9.16436956 11.4874909,9.20614785 C11.4899633,9.23545684 11.4920914,9.26512957 11.4938473,9.29490241 C11.4941924,9.30075101 11.4945135,9.30643572 11.4948211,9.31212405 L11.5,9.50415925 L11.5,13.0465133 Z M3.38058165,6.3411633 C3.65500293,6.3411633 3.92142973,6.37539173 4.17582566,6.4398122 C3.50262812,7.27951072 3.1,8.34481557 3.1,9.50415925 L3.1,12.8000017 L0.753488372,12.8 C0.337348235,12.8 1.61984771e-16,12.4626518 0,12.0465116 L0,9.57058165 C-2.18422922e-16,7.78702314 1.44585985,6.3411633 3.22941835,6.3411633 L3.38058165,6.3411633 Z M12.7705816,6.3411633 C14.5541402,6.3411633 16,7.78702314 16,9.57058165 L16,12.0465116 C16,12.4626518 15.6626518,12.8 15.2465116,12.8 L12.9,12.8000017 L12.9,9.50415925 C12.9,8.34481557 12.4973719,7.27951072 11.8243164,6.44044545 C12.0785703,6.37539173 12.3449971,6.3411633 12.6194184,6.3411633 L12.7705816,6.3411633 Z M3.304134,2.06330257 C4.2229481,2.06330257 4.967794,2.80874846 4.967794,3.72830257 C4.967794,4.64785667 4.2229481,5.39330257 3.304134,5.39330257 C2.3853199,5.39330257 1.640474,4.64785667 1.640474,3.72830257 C1.640474,2.80874846 2.3853199,2.06330257 3.304134,2.06330257 Z M12.6936601,2.06330257 C13.6124742,2.06330257 14.3573202,2.80874846 14.3573202,3.72830257 C14.3573202,4.64785667 13.6124742,5.39330257 12.6936601,5.39330257 C11.774846,5.39330257 11.03,4.64785667 11.03,3.72830257 C11.03,2.80874846 11.774846,2.06330257 12.6936601,2.06330257 Z M8,0 C9.38071187,0 10.5,1.11928813 10.5,2.5 C10.5,3.88071187 9.38071187,5 8,5 C6.61928813,5 5.5,3.88071187 5.5,2.5 C5.5,1.11928813 6.61928813,0 8,0 Z" id="Combined-Shape"></path>
            </g>
        </g>
    </g>
</svg>