<svg width="24" height="24" viewBox="0 0 24 24" fill="none" xmlns="http://www.w3.org/2000/svg">
<path d="M3.80434 24.0001C2.81157 24.0001 2 23.1995 2 22.2118V4.36956C2 3.39308 2.80403 2.5887 3.79301 2.58496H7.63573C8.10002 2.58496 8.4775 2.95909 8.4775 3.41927C8.4775 3.87945 8.10002 4.25358 7.63573 4.25358H3.79679C3.73639 4.25358 3.67977 4.30596 3.67977 4.3733V22.2118C3.67977 22.2754 3.73262 22.3315 3.80056 22.3315H20.0283C20.0887 22.3315 20.1453 22.2791 20.1453 22.2118V4.3733C20.1453 4.30596 20.0925 4.25358 20.0245 4.25358H16.6952C16.2309 4.25358 15.8534 3.87945 15.8534 3.41927C15.8534 2.95909 16.2309 2.58496 16.6952 2.58496H20.0245C21.0173 2.58496 21.8288 3.3856 21.8288 4.3733V22.2155C21.8288 23.1957 21.0248 23.9964 20.0358 24.0001H3.80434Z" fill="#EFEFEF"/>
<path d="M9.93146 9.72656H7.552V11.3129H9.93146V9.72656Z" fill="#EFEFEF"/>
<path d="M9.93146 12.8984H7.552V14.4847H9.93146V12.8984Z" fill="#EFEFEF"/>
<path d="M9.93146 16.0684H7.552V17.6547H9.93146V16.0684Z" fill="#EFEFEF"/>
<path d="M17.0697 9.72656H11.5176V11.3129H17.0697V9.72656Z" fill="#EFEFEF"/>
<path d="M17.0697 12.8984H11.5176V14.4847H17.0697V12.8984Z" fill="#EFEFEF"/>
<path d="M17.0697 16.0684H11.5176V17.6547H17.0697V16.0684Z" fill="#EFEFEF"/>
<path d="M15.9123 5.75892H8.71288C8.07389 5.75892 7.552 5.1669 7.552 4.44206V2.31686C7.552 1.59202 8.07389 1 8.71288 1H15.909C16.548 1 17.0698 1.59202 17.0698 2.31686V4.44206C17.0698 5.1669 16.548 5.75892 15.909 5.75892H15.9123ZM9.04408 4.06636H15.5811V2.68877H9.04408V4.06636Z" fill="#EFEFEF"/>
</svg>
