<?xml version="1.0" encoding="UTF-8"?>
<svg width="10px" height="10px" viewBox="0 0 10 10" version="1.1" xmlns="http://www.w3.org/2000/svg" xmlns:xlink="http://www.w3.org/1999/xlink">
    <title>ic_list_message</title>
    <g id="Symbols" stroke="none" stroke-width="1" fill="none" fill-rule="evenodd">
        <g id="ic_list_message">
            <rect id="btn-Area" x="0" y="0" width="10" height="10"></rect>
            <path d="M7.90569468,0.5 L2.09430177,0.5 C1.21379321,0.5 0.5,1.23355473 0.5,2.13844036 L0.5,6.076797 C0.5,6.98168262 1.21379321,7.71523735 2.09430177,7.71523735 L2.44799642,7.71523735 L2.44799642,9.0626883 C2.44807001,9.24041304 2.55275746,9.40043025 2.71287987,9.46756887 C2.87300229,9.53470749 3.05673467,9.49562343 3.17776531,9.36867717 L4.78666245,7.71523735 L7.90569468,7.71523735 C8.78620323,7.71523735 9.5,6.98168262 9.5,6.076797 L9.5,2.14044029 C9.50051298,1.70555248 9.33277045,1.28829479 9.03372486,0.980594935 C8.73467928,0.672895081 8.32886719,0.5 7.90569468,0.5 L7.90569468,0.5 Z M2.7486612,4.84984166 C2.34965138,4.84984166 2.02619,4.51742519 2.02619,4.10736869 C2.02619,3.69731219 2.34965138,3.36489571 2.7486612,3.36489571 C3.14767103,3.36489571 3.47113257,3.69731219 3.47113257,4.10736869 C3.47126149,4.30437138 3.3952012,4.49335075 3.25969757,4.6326996 C3.12419395,4.77204845 2.9403568,4.85034164 2.7486612,4.85034164 L2.7486612,4.84984166 Z M5.00170102,4.84984166 C4.60269119,4.84984166 4.27922982,4.51742519 4.27922982,4.10736869 C4.27922982,3.69731219 4.60269119,3.36489571 5.00170102,3.36489571 C5.40071084,3.36489571 5.72417238,3.69731219 5.72417238,4.10736869 C5.72430223,4.30471839 5.64797493,4.49400164 5.51205005,4.63340819 C5.37612517,4.77281474 5.19178753,4.85087327 4.99975497,4.85034434 L5.00170102,4.84984166 Z M7.25474083,4.84984166 C6.85573101,4.84984166 6.53226963,4.51742519 6.53226963,4.10736869 C6.53226963,3.69731219 6.85573101,3.36489571 7.25474083,3.36489571 C7.65375066,3.36489571 7.9772122,3.69731219 7.9772122,4.10736869 C7.97734168,4.30463154 7.90108113,4.4938387 7.76526161,4.6332308 C7.6294421,4.7726229 7.44522966,4.8507402 7.2532813,4.85034316 L7.25474083,4.84984166 Z" id="ic_message" fill="#AFAFAF"></path>
        </g>
    </g>
</svg>