<?xml version="1.0" encoding="UTF-8"?>
<svg width="32px" height="32px" viewBox="0 0 32 32" version="1.1" xmlns="http://www.w3.org/2000/svg" xmlns:xlink="http://www.w3.org/1999/xlink">
    <title>Group 4</title>
    <g id="Dispatcher_20221118" stroke="none" stroke-width="1" fill="none" fill-rule="evenodd">
        <g id="Main-&gt;--통화상태에서-카드-더보기-클릭시" transform="translate(-496.000000, -283.000000)">
            <g id="Group-5-Copy-2" transform="translate(440.000000, 187.000000)">
                <g id="Group-8-Copy-3" transform="translate(42.000000, 96.000000)">
                    <g id="Group-4" transform="translate(14.000000, 0.000000)">
                        <g id="Group">
                            <rect id="Rectangle" fill-opacity="0" fill="#D8D8D8" x="0" y="0" width="32" height="32"></rect>
                            <g id="Combined-Shape" transform="translate(6.666667, 2.666667)" fill="#434547">
                                <path d="M12.5882353,0 C13.3679314,-1.43227853e-16 14,0.632068588 14,1.41176471 L14,3.999 L14.5490196,4 C15.7185638,4 16.6666667,4.94810288 16.6666667,6.11764706 L16.6666667,22.5490196 C16.6666667,23.7185638 15.7185638,24.6666667 14.5490196,24.6666667 L3.45098039,24.6666667 C2.28143622,24.6666667 1.33333333,23.7185638 1.33333333,22.5490196 L1.33333333,14 C0.596953667,14 5.3426971e-16,13.4030463 0,12.6666667 L0,10 C-9.01805001e-17,9.26362033 0.596953667,8.66666667 1.33333333,8.66666667 L1.33333333,6.11764706 C1.33333333,4.94810288 2.28143622,4 3.45098039,4 L10.666,3.999 L10.6666667,1.41176471 C10.6666667,0.632068588 11.2987353,1.43227853e-16 12.0784314,0 L12.5882353,0 Z M12.3425,13.659 L5.5286105,13.659 C5.14891473,13.659 4.8411105,13.9668042 4.8411105,14.3465 C4.8411105,14.7261957 5.14891473,15.034 5.5286105,15.034 L12.3425,15.034 C12.7221958,15.034 13.03,14.7261957 13.03,14.3465 C13.03,13.9668042 12.7221958,13.659 12.3425,13.659 Z M13.5647228,10.7256666 L4.3063895,10.7256666 C3.92669373,10.7256666 3.6188895,11.0334709 3.6188895,11.4131666 C3.6188895,11.7928624 3.92669373,12.1006666 4.3063895,12.1006666 L13.5647228,12.1006666 C13.9444186,12.1006666 14.2522228,11.7928624 14.2522228,11.4131666 C14.2522228,11.0334709 13.9444186,10.7256666 13.5647228,10.7256666 Z M12.3425,7.79233332 L5.5286105,7.79233332 C5.14891473,7.79233332 4.8411105,8.10013755 4.8411105,8.47983332 C4.8411105,8.85952908 5.14891473,9.16733332 5.5286105,9.16733332 L12.3425,9.16733332 C12.7221958,9.16733332 13.03,8.85952908 13.03,8.47983332 C13.03,8.10013755 12.7221958,7.79233332 12.3425,7.79233332 Z"></path>
                            </g>
                        </g>
                        <g id="icon_change" transform="translate(8.000000, 8.000000)">
                            <rect id="Rectangle" x="0" y="0" width="16" height="16"></rect>
                            <path d="M7.67063666,11.5185185 C6.41656259,11.5185185 5.2476737,10.842963 4.62063666,9.75518519 C3.95619222,8.6037037 4.00174777,7.20518519 4.74619222,5.91777778 L3.46359962,5.1762963 C2.44693296,6.93444444 2.40100703,8.87333333 3.33730333,10.4955556 C4.22841444,12.0403704 5.88878481,13 7.67063666,13 L7.67063666,14.6666667 L11.2735996,12.2592593 L7.67063666,9.85185185 L7.67063666,11.5185185 Z M12.00397,5.50444444 C12.9402663,7.12666667 12.8943404,9.06555556 11.8776737,10.8237037 L10.5950811,10.0822222 C11.3395256,8.79481481 11.3850811,7.3962963 10.7206367,6.24481481 C10.0932293,5.15703704 8.92471074,4.48148148 7.67063666,4.48148148 L7.67063666,6.14814815 L4.0676737,3.74074074 L7.67063666,1.33333333 L7.67063666,3 C9.45248851,3 11.1128589,3.95962963 12.00397,5.50444444 L12.00397,5.50444444 Z" id="Fill-1" fill="#FFFFFF"></path>
                        </g>
                    </g>
                </g>
            </g>
        </g>
    </g>
</svg>