<?xml version="1.0" encoding="UTF-8"?>
<svg width="25px" height="24px" viewBox="0 0 25 24" version="1.1" xmlns="http://www.w3.org/2000/svg" xmlns:xlink="http://www.w3.org/1999/xlink">
    <title>icon_eye copy</title>
    <defs>
        <polygon id="path-1" points="0 0 20 0 20 10.1944588 0 10.1944588"></polygon>
    </defs>
    <g id="Dispatcher_20221118" stroke="none" stroke-width="1" fill="none" fill-rule="evenodd">
        <g id="Main-&gt;-Settings-&gt;-Account-&gt;-Change-Password" transform="translate(-805.000000, -272.000000)">
            <g id="icon_eye-copy" transform="translate(805.830548, 272.000000)">
                <rect id="Rectangle" fill-opacity="0" fill="#D8D8D8" x="0" y="0" width="24" height="24"></rect>
                <g id="Group-3" transform="translate(2.000000, 7.000000)">
                    <g>
                        <mask id="mask-2" fill="white">
                            <use xlink:href="#path-1"></use>
                        </mask>
                        <g id="Clip-2"></g>
                        <path d="M10,9.239868 C5.89254409,9.239868 2.36086762,6.1203465 1.3131209,5.09631845 C2.35914888,4.0729779 5.88429411,0.954487642 10,0.954487642 C14.1074559,0.954487642 17.6391324,4.07332165 18.6868791,5.09700595 C17.6391324,6.1203465 14.1074559,9.239868 10,9.239868 L10,9.239868 Z M19.7091884,4.7762882 C19.5325015,4.58138256 15.3174521,-0.000103124678 10,-0.000103124678 C4.68254787,-0.000103124678 0.467842288,4.58138256 0.290467842,4.7762882 L0,5.09700595 L0.290467842,5.41737995 C0.467842288,5.61297308 4.68254787,10.1944588 10,10.1944588 C15.3174521,10.1944588 19.5325015,5.61297308 19.7091884,5.41737995 L20,5.09700595 L19.7091884,4.7762882 Z" id="Fill-1" fill="#AFAFAF" mask="url(#mask-2)"></path>
                    </g>
                    <path d="M7.44102987,5.0969372 C7.44102987,3.68619161 8.58880753,2.53841394 9.99989688,2.53841394 C11.4109862,2.53841394 12.5591076,3.68619161 12.5591076,5.0969372 C12.5591076,6.50768279 11.4109862,7.65546045 9.99989688,7.65546045 C8.58880753,7.65546045 7.44102987,6.50768279 7.44102987,5.0969372 M6.3922519,5.0969372 C6.3922519,7.08655598 8.01062184,8.70526967 9.99989688,8.70526967 C11.9891719,8.70526967 13.6078856,7.08655598 13.6078856,5.0969372 C13.6078856,3.10766216 11.9891719,1.48929222 9.99989688,1.48929222 C8.01062184,1.48929222 6.3922519,3.10766216 6.3922519,5.0969372" id="Fill-4" fill="#AFAFAF"></path>
                </g>
            </g>
        </g>
    </g>
</svg>