<?xml version="1.0" encoding="UTF-8"?>
<svg width="22px" height="22px" viewBox="0 0 22 22" version="1.1" xmlns="http://www.w3.org/2000/svg" xmlns:xlink="http://www.w3.org/1999/xlink">
    <title>Path</title>
    <g id="Dispatcher_20221118" stroke="none" stroke-width="1" fill="none" fill-rule="evenodd">
        <g id="Main-&gt;-GIS" transform="translate(-1024.000000, -225.000000)" fill="#3F4246" fill-rule="nonzero">
            <g id="Group-5" transform="translate(1011.000000, 212.010438)">
                <path d="M32.6711533,14.7695333 L32.6711533,13.5118667 C32.6711533,13.2295333 32.4386133,13 32.1531267,13 L17.1316,13 C16.8461133,13 16.6136467,13.2295333 16.6136467,13.5118667 L16.6136467,19.2692667 C16.6136467,19.5516 16.8461133,19.7811333 17.1316,19.7811333 L19.6726,19.7811333 L19.98258,21.382 L21.1286333,21.382 L20.2354333,25.9814667 L14.9332867,27.465 L14.9332867,21.4465333 L13.1182867,21.4465333 L13.1182867,27.9732 L13,28.0054667 L13.1182867,28.4168667 L13.1182867,34.3715333 L14.92918,34.3715333 L14.92918,29.3276667 L21.79758,27.4048667 L22.9681267,21.382 L24.1182867,21.382 L24.4282667,19.7811333 L32.14902,19.7811333 C32.43458,19.7811333 32.6670467,19.5516 32.6670467,19.2692667 L32.6670467,18.0072 L34.9958933,18.4992667 L34.9958933,14.2782 L32.6711533,14.7695333 Z" id="Path"></path>
            </g>
        </g>
    </g>
</svg>