<?xml version="1.0" encoding="UTF-8"?>
<svg width="24px" height="24px" viewBox="0 0 24 24" version="1.1" xmlns="http://www.w3.org/2000/svg" xmlns:xlink="http://www.w3.org/1999/xlink">
    <title>ic_mylocationg_24_gray</title>
    <g id="Dispatcher_20221118_demo" stroke="none" stroke-width="1" fill="none" fill-rule="evenodd">
        <g id="Main-&gt;-GIS-&gt;-Contacts" transform="translate(-1027.000000, -428.000000)">
            <g id="Group-8" transform="translate(1018.000000, 197.000000)">
                <g id="Group-4-Copy" transform="translate(0.000000, 222.000000)">
                    <g id="ic_mylocationg_24_gray" transform="translate(9.000000, 9.000000)">
                        <polygon id="패스_8691" points="0 0 24 0 24 24 0 24"></polygon>
                        <path d="M12,8 C9.790861,8 8,9.790861 8,12 C8,14.209139 9.790861,16 12,16 C14.209139,16 16,14.209139 16,12 C16,10.939134 15.5785726,9.92171839 14.8284271,9.17157288 C14.0782816,8.42142736 13.060866,8 12,8 Z M20.94,11 C20.4734687,6.82331836 17.1766816,3.52653132 13,3.06 L13,2 C13,1.44771525 12.5522847,1 12,1 C11.4477153,1 11,1.44771525 11,2 L11,3.06 C6.82331836,3.52653132 3.52653132,6.82331836 3.06,11 L2,11 C1.44771525,11 1,11.4477153 1,12 C1,12.5522847 1.44771525,13 2,13 L3.06,13 C3.52653132,17.1766816 6.82331836,20.4734687 11,20.94 L11,22 C11,22.5522847 11.4477153,23 12,23 C12.5522847,23 13,22.5522847 13,22 L13,20.94 C17.1766816,20.4734687 20.4734687,17.1766816 20.94,13 L22,13 C22.5522847,13 23,12.5522847 23,12 C23,11.4477153 22.5522847,11 22,11 L20.94,11 Z M12,19 C8.13400675,19 5,15.8659932 5,12 C5,8.13400675 8.13400675,5 12,5 C15.8659932,5 19,8.13400675 19,12 C19.0013278,13.8569222 18.2642563,15.6381711 16.9512137,16.9512137 C15.6381711,18.2642563 13.8569222,19.0013278 12,19 Z" id="패스_8692" fill="#000000" fill-rule="nonzero"></path>
                    </g>
                </g>
            </g>
        </g>
    </g>
</svg>