<?xml version="1.0" encoding="UTF-8"?>
<svg width="24px" height="24px" viewBox="0 0 24 24" version="1.1" xmlns="http://www.w3.org/2000/svg" xmlns:xlink="http://www.w3.org/1999/xlink">
    <title>Group</title>
    <g id="Symbols" stroke="none" stroke-width="1" fill="none" fill-rule="evenodd">
        <g id="Group">
            <rect id="Rectangle" x="0" y="0" width="24" height="24"></rect>
            <g id="Basic-/-user" transform="translate(5.000000, 4.000000)" fill="#FFFFFF">
                <path d="M7,7 C8.93299662,7 10.5,5.43299662 10.5,3.5 C10.5,1.56700338 8.93299662,0 7,0 C5.06700338,0 3.5,1.56700338 3.5,3.5 C3.5,5.43299662 5.06700338,7 7,7 Z M0,15 L0,15 L0,15 L0.0040590183,14.7593502 C0.130901317,11.0047834 3.21454828,8 7,8 C10.7854517,8 13.8690987,11.0047834 13.995941,14.7593502 L14,15 C14,15.5522847 13.5522847,16 13,16 L1,16 C0.44771525,16 -4.87476137e-16,15.5522847 0,15 Z" id="Icon-color"></path>
            </g>
        </g>
    </g>
</svg>