<svg width="48" height="48" viewBox="0 0 48 48" fill="none" xmlns="http://www.w3.org/2000/svg">
    <path d="m40.694 28.484-3.55-3.044a.586.586 0 0 1-.205-.462c0-.143.006-.286.006-.43 0-.146 0-.288-.006-.43a.586.586 0 0 1 .206-.462l3.549-3.035a2.357 2.357 0 0 0 .509-2.971l-2.746-4.751a2.358 2.358 0 0 0-2.827-1.044l-4.405 1.56a.587.587 0 0 1-.504-.054 12.55 12.55 0 0 0-.742-.43.587.587 0 0 1-.298-.409l-.858-4.602A2.358 2.358 0 0 0 26.505 6h-5.492a2.358 2.358 0 0 0-2.318 1.92l-.856 4.597a.586.586 0 0 1-.298.41 10.35 10.35 0 0 0-.742.429.586.586 0 0 1-.504.054l-4.405-1.56a2.358 2.358 0 0 0-2.827 1.044l-2.747 4.758a2.358 2.358 0 0 0 .509 2.971l3.548 3.035a.587.587 0 0 1 .207.462c0 .144-.006.288-.006.43 0 .141 0 .288.006.43a.587.587 0 0 1-.205.462l-3.551 3.042a2.358 2.358 0 0 0-.508 2.97l2.746 4.755a2.358 2.358 0 0 0 2.827 1.044l4.405-1.56a.587.587 0 0 1 .504.054c.24.151.49.294.742.43a.587.587 0 0 1 .297.409l.857 4.59a2.358 2.358 0 0 0 2.319 1.92h5.492a2.358 2.358 0 0 0 2.318-1.92l.857-4.59a.586.586 0 0 1 .298-.41c.252-.135.498-.278.741-.43a.586.586 0 0 1 .504-.053l4.406 1.56a2.358 2.358 0 0 0 2.827-1.044l2.745-4.755a2.358 2.358 0 0 0-.507-2.97zm-16.935 2.937a6.868 6.868 0 1 1 0-13.736 6.868 6.868 0 0 1 0 13.736z" fill="#fff"/>
</svg>
