<?xml version="1.0" encoding="UTF-8"?>
<svg width="24px" height="24px" viewBox="0 0 24 24" version="1.1" xmlns="http://www.w3.org/2000/svg" xmlns:xlink="http://www.w3.org/1999/xlink">
    <title>Group</title>
    <g id="Dispatcher_20221118" stroke="none" stroke-width="1" fill="none" fill-rule="evenodd">
        <g id="Main-&gt;--통화상태에서-카드-더보기-클릭시" transform="translate(-293.000000, -390.000000)">
            <g id="Group" transform="translate(293.000000, 390.000000)">
                <rect id="Rectangle-Copy-20" fill-opacity="0" fill="#D8D8D8" x="0" y="0" width="24" height="24"></rect>
                <g id="Basic-/-user-Copy-2" transform="translate(4.000000, 9.000000)" fill="#FF291B" fill-rule="nonzero">
                    <path d="M1.20318372,6.61540971 C1.27391883,6.68614482 1.39596909,6.69321829 1.47442081,6.63122855 L4.69235583,4.60035728 C4.782511,4.55727312 4.85646141,4.44010999 4.85646145,4.34005192 L4.85646193,3.04855694 C4.85646196,2.96851049 4.90691801,2.88558317 4.97615717,2.84132507 L5.03895352,2.81390348 L5.12757051,2.79030929 C6.86469702,2.3219318 8.69486239,2.28659045 10.4460007,2.68418233 L10.9690067,2.81628619 C11.0650778,2.84419438 11.1437867,2.94888236 11.1437867,3.0486832 L11.1436576,4.34082123 C11.1436576,4.42066191 11.1909034,4.51169672 11.2560271,4.56704193 L14.5255679,6.63135229 C14.6040196,6.69334196 14.7263271,6.6862684 14.7970622,6.61553324 L15.7568741,5.65546417 C15.8099254,5.6024128 15.8602278,5.51073039 15.8860783,5.42620993 L15.9047802,5.32675589 L15.9611605,4.60838472 L15.9908057,4.03930892 L15.9997724,3.65493818 C16.0027903,3.21961032 15.976391,2.85175342 15.8852273,2.77821599 C13.5899371,0.92637098 10.7947421,-0.000129652857 8.00044696,0 C5.20499438,0 2.41018449,0.926375155 0.114892927,2.7784791 C0.0235396553,2.8520166 -0.00285745978,3.21985606 0.000238902021,3.65516187 L0.00928870084,4.03951287 L0.0278215769,4.42516485 L0.0734857316,5.0733967 L0.0975297073,5.34590734 C0.107175371,5.44532235 0.1730233,5.58473485 0.24375841,5.65546996 L1.20318372,6.61540971 Z" id="Icon-color"></path>
                </g>
            </g>
        </g>
    </g>
</svg>