<?xml version="1.0" encoding="UTF-8"?>
<svg width="24px" height="24px" viewBox="0 0 24 24" version="1.1" xmlns="http://www.w3.org/2000/svg" xmlns:xlink="http://www.w3.org/1999/xlink">
    <title>Group 7 Copy</title>
    <g id="Dispatcher_20221118_demo" stroke="none" stroke-width="1" fill="none" fill-rule="evenodd">
        <g id="common-&gt;-Video-Player--" transform="translate(-1104.000000, -89.000000)">
            <g id="Group-7-Copy" transform="translate(1104.000000, 89.000000)">
                <g id="Basic-/-close-edit" transform="translate(4.416702, 4.414529)" fill="#FFFFFF">
                    <path d="M15.0292399,0.960247564 C15.2492472,1.17991748 15.2492472,1.53607278 15.0292399,1.75574269 L9.19055688,7.58547067 L15.0292399,13.4151987 C15.2492472,13.6348686 15.2492472,13.9910239 15.0292399,14.2106938 L14.2325228,15.0061889 C14.0125155,15.2258588 13.6558131,15.2258588 13.4358057,15.0061889 L7.5971227,9.17646093 L1.75843969,15.0061889 C1.53843234,15.2258588 1.18172995,15.2258588 0.961722599,15.0061889 L0.165005512,14.2106938 C-0.0550018372,13.9910239 -0.0550018372,13.6348686 0.165005512,13.4151987 L6.00368853,7.58547067 L0.165005512,1.75574269 C-0.0550018372,1.53607278 -0.0550018372,1.17991748 0.165005512,0.960247564 L0.961722599,0.164752436 C1.18172995,-0.0549174785 1.53843234,-0.0549174785 1.75843969,0.164752436 L7.5971227,5.99448042 L13.4358057,0.164752436 C13.6558131,-0.0549174785 14.0125155,-0.0549174785 14.2325228,0.164752436 L15.0292399,0.960247564 Z" id="Icon-color"></path>
                </g>
                <rect id="Rectangle" x="0" y="0" width="24" height="24"></rect>
            </g>
        </g>
    </g>
</svg>