<?xml version="1.0" encoding="UTF-8"?>
<svg width="68px" height="68px" viewBox="0 0 68 68" version="1.1" xmlns="http://www.w3.org/2000/svg" xmlns:xlink="http://www.w3.org/1999/xlink">
    <title>Group 23 Copy</title>
    <defs>
        <path d="M6,30 C6,16.7451657 16.7451657,6 30,6 C43.2548343,6 54,16.7451657 54,30 C54,43.2548343 43.2548343,54 30,54 C16.7451657,54 6,43.2548343 6,30 Z" id="path-1"></path>
        <filter x="-9.4%" y="-9.4%" width="118.8%" height="118.8%" filterUnits="objectBoundingBox" id="filter-2">
            <feOffset dx="0" dy="0" in="SourceAlpha" result="shadowOffsetOuter1"></feOffset>
            <feGaussianBlur stdDeviation="1.5" in="shadowOffsetOuter1" result="shadowBlurOuter1"></feGaussianBlur>
            <feColorMatrix values="0 0 0 0 0   0 0 0 0 0   0 0 0 0 0  0 0 0 0.4 0" type="matrix" in="shadowBlurOuter1"></feColorMatrix>
        </filter>
    </defs>
    <g id="Dispatcher_20221118_데모버젼" stroke="none" stroke-width="1" fill="none" fill-rule="evenodd">
        <g id="Emergency-declaration--" transform="translate(-936.000000, 0.000000)">
            <g id="Group-23-Copy" transform="translate(936.000000, 0.000000)">
                <rect id="btn_area" x="0" y="0" width="68" height="68"></rect>
                <g id="Group-3" transform="translate(4.000000, 4.000000)">
                    <path d="M0,30 C0,13.4314571 13.4314571,0 30,0 C46.5685429,0 60,13.4314571 60,30 C60,46.5685429 46.5685429,60 30,60 C13.4314571,60 0,46.5685429 0,30 Z" id="타원-338" fill-opacity="0.2" fill="#3C3C3C"></path>
                    <g id="타원-338">
                        <use fill="black" fill-opacity="1" filter="url(#filter-2)" xlink:href="#path-1"></use>
                        <use fill="#161719" fill-rule="evenodd" xlink:href="#path-1"></use>
                    </g>
                    <path d="M29.9996346,9.76 C18.8393217,9.76 9.76,18.8398475 9.76,30.0001827 C9.76,41.1605403 18.8393217,50.24 29.9996346,50.24 C41.1600407,50.24 50.24,41.1605441 50.24,30.0001827 C50.24,18.8398475 41.1600407,9.76 29.9996346,9.76 Z M29.9996346,52 C27.0296942,52 24.1485108,51.4187153 21.4363807,50.2714637 C18.8166542,49.1633573 16.46384,47.5770864 14.4433973,45.5565766 C12.4229098,43.5361115 10.8366614,41.1833234 9.72867051,38.5635485 C8.58153085,35.8512132 8,32.9700559 8,30.0001827 C8,27.0302871 8.58153085,24.1491708 9.72867051,21.4368169 C10.8366651,18.8170644 12.4229098,16.4642763 14.4433973,14.4437888 C16.46384,12.4233237 18.8166505,10.8370081 21.4363807,9.72890169 C24.1485108,8.58167254 27.0296905,8 29.9996346,8 C32.9696681,8 35.8508478,8.58167254 38.5631607,9.72890169 C41.1828871,10.836941 43.5356119,12.423279 45.5561441,14.4437888 C47.5764936,16.4642539 49.1629695,18.817042 50.2709641,21.4368169 C51.4181932,24.1491522 52,27.0302871 52,30.0001827 C52,32.9700559 51.4181932,35.8512169 50.2709641,38.5635485 C49.1629695,41.1833458 47.5764973,43.5361339 45.5561441,45.5565766 C43.5356119,47.5771088 41.1828908,49.163402 38.5631607,50.2714637 C35.8508478,51.4187153 32.9696681,52 29.9996346,52 Z" id="패스-9036" fill="#37393C"></path>
                    <g id="Group" transform="translate(18.000000, 18.000000)">
                        <rect id="Rectangle" fill-opacity="0" fill="#D8D8D8" x="0" y="0" width="24" height="24"></rect>
                        <path d="M15.9741833,5 C16.7455125,5 17.3911086,5.58497463 17.4669204,6.35256917 L18.636,18.2 L19.35,18.2 C19.7089851,18.2 20,18.4910149 20,18.85 C20,19.2089851 19.7089851,19.5 19.35,19.5 L4.65,19.5 C4.29101491,19.5 4,19.2089851 4,18.85 C4,18.4910149 4.29101491,18.2 4.65,18.2 L5.363,18.2 L6.53307959,6.35256917 C6.60889139,5.58497463 7.25448747,5 8.02581672,5 L15.9741833,5 Z M12,15.0404588 C11.4477153,15.0404588 11,15.488174 11,16.0404588 C11,16.5927435 11.4477153,17.0404588 12,17.0404588 C12.5522847,17.0404588 13,16.5927435 13,16.0404588 C13,15.488174 12.5522847,15.0404588 12,15.0404588 Z M12.5833333,7.30625 C12.2180827,7.11449341 11.7819173,7.11449341 11.4166667,7.30625 C11.0635839,7.49161846 10.8569841,7.87147548 10.8932518,8.26860717 L11.4166667,14 L12.5833333,14 L13.1067482,8.26860717 C13.1430159,7.87147548 12.9364161,7.49161846 12.5833333,7.30625 Z" id="Combined-Shape" fill="#393B3F" fill-rule="nonzero"></path>
                    </g>
                </g>
            </g>
        </g>
    </g>
</svg>