<svg width="24" height="24" viewBox="0 0 24 24" xmlns="http://www.w3.org/2000/svg">
    <g fill="none" fill-rule="evenodd">
        <path fill="none" d="M0 0h24v24H0z"/>
        <path d="M16.716 4c.729 0 1.339.552 1.41 1.277l1.34 13.572.803.001a.731.731 0 0 1 0 1.462H3.73a.731.731 0 0 1 0-1.462l.801-.001L5.874 5.277A1.417 1.417 0 0 1 7.284 4h9.432zM12 15.296a1.125 1.125 0 1 0 0 2.25 1.125 1.125 0 0 0 0-2.25zm.656-8.701a1.412 1.412 0 0 0-1.312 0c-.397.208-.63.635-.59 1.082l.59 6.448h1.312l.59-6.448a1.109 1.109 0 0 0-.59-1.082z" fill="#BF1024"/>
    </g>
</svg>
