<?xml version="1.0" encoding="UTF-8"?>
<svg width="24px" height="24px" viewBox="0 0 24 24" version="1.1" xmlns="http://www.w3.org/2000/svg" xmlns:xlink="http://www.w3.org/1999/xlink">
    <title>Group</title>
    <g id="Symbols" stroke="none" stroke-width="1" fill="none" fill-rule="evenodd">
        <g id="Group">
            <rect id="Rectangle" x="0" y="0" width="24" height="24"></rect>
            <g id="Basic-/-user-group-Copy" transform="translate(4.318019, 4.318019)" fill="#FFFFFF">
                <path d="M3.79289322,5.20710678 L5.20710678,6.62132034 L2.73223305,9.09619408 C1.79497475,10.0334524 1.75748441,11.5297548 2.61976205,12.5117367 L2.73223305,12.631728 C3.66949135,13.5689863 5.16579379,13.6064766 6.14777562,12.744199 L6.26776695,12.631728 L8.74264069,10.1568542 L10.1568542,11.5710678 L7.68198052,14.0459415 C5.97483147,15.7530906 3.23730132,15.8018663 1.47127335,14.1922686 L1.31801948,14.0459415 C-0.389129562,12.3387925 -0.437905249,9.60126235 1.17169242,7.83523438 L1.31801948,7.68198052 L3.79289322,5.20710678 Z M7.68198052,1.31801948 C9.43933983,-0.439339828 12.2885822,-0.439339828 14.0459415,1.31801948 C15.7530906,3.02516853 15.8018663,5.76269868 14.1922686,7.52872665 L14.0459415,7.68198052 L11.5710678,10.1568542 L10.1568542,8.74264069 L12.631728,6.26776695 C13.5689863,5.33050865 13.6064766,3.83420621 12.744199,2.85222438 L12.631728,2.73223305 C11.6944697,1.79497475 10.1981672,1.75748441 9.21618541,2.61976205 L9.09619408,2.73223305 L6.62132034,5.20710678 L5.20710678,3.79289322 L7.68198052,1.31801948 Z M9.80330086,4.14644661 L11.2175144,5.56066017 L5.56066017,11.2175144 L4.14644661,9.80330086 L9.80330086,4.14644661 Z" id="Icon-color"></path>
            </g>
        </g>
    </g>
</svg>