<?xml version="1.0" encoding="UTF-8"?>
<svg width="24px" height="24px" viewBox="0 0 24 24" version="1.1" xmlns="http://www.w3.org/2000/svg" xmlns:xlink="http://www.w3.org/1999/xlink">
    <title>ic_calling</title>
    <g id="v0.1-1108-2022-chaewon.min-&gt;-1111-전달받음-" stroke="none" stroke-width="1" fill="none" fill-rule="evenodd">
        <g id="Call-type" transform="translate(-40.000000, -426.000000)" fill="#FFFFFF" fill-rule="nonzero">
            <g id="ic_calling" transform="translate(40.000000, 426.000000)">
                <g id="Group-3" transform="translate(2.000000, 2.000000)">
                    <path d="M2.90973721,15.5120226 C5.07225069,18.459657 7.7399324,20.2966828 10.2347558,20.5487116 C11.9097915,20.7185554 14.9142256,19.7689851 14.8586158,17.8566759 C14.830454,16.8554623 13.8986534,16.1657744 13.2198336,15.4936182 C13.0100079,15.2853791 12.8010548,15.0770607 12.5912292,14.8713601 C10.8633603,13.1691145 9.80368105,15.4840194 8.00703376,14.9527518 C6.99407944,14.6516976 6.42814506,13.6513566 5.82072152,12.9214488 C5.49777242,12.6265029 5.23852465,12.2696009 5.05844741,11.8723204 C4.8784495,11.4750399 4.78150924,11.045631 4.77341766,10.6101138 C4.99641199,9.04788423 7.78840253,8.78443202 6.85565002,6.77238219 C6.73229314,6.50981847 6.60885693,6.23851267 6.48542073,5.97245846 C6.00936631,4.95111111 5.42748676,3.43440063 3.92269152,3.52191658 C0.698753593,3.71446437 -0.273663512,6.99993001 0.0630888624,9.51695768 C0.472030792,11.707871 1.43897418,13.758451 2.87181786,15.4735479 C2.88419321,15.4892551 2.8983138,15.504169 2.90973721,15.5163857" id="Path"></path>
                    <path d="M8.99084225,4.21165208 C8.77355963,4.23597441 8.57309478,4.33961798 8.42839836,4.50244906 C8.28378126,4.66528014 8.20524537,4.87567699 8.20810122,5.09276923 C8.21095707,5.30986147 8.295046,5.51814817 8.44386755,5.67717145 C8.59276842,5.83620266 8.79593046,5.93460257 9.01376839,5.95328459 C10.3623645,5.98645213 11.6476559,6.52777066 12.6088876,7.46736135 C13.5653595,8.51756865 13.9400312,10.0806708 13.7196548,12.1199068 C13.7073587,12.2335855 13.7176715,12.3486128 13.7501172,12.4584044 C13.7825628,12.5681167 13.8365066,12.6704513 13.9087755,12.759538 C13.9810444,12.8486246 14.0702897,12.9226388 14.1714344,12.9775346 C14.2724998,13.032351 14.3835607,13.0668592 14.498112,13.0790759 C14.6126633,13.0912926 14.728484,13.0810591 14.8390688,13.0488515 C14.9496537,13.0166438 15.0527023,12.9630966 15.1424236,12.8913831 C15.2321449,12.8195902 15.3067144,12.7309795 15.3620068,12.630628 C15.4172199,12.5301973 15.4519661,12.4200091 15.4643414,12.3063304 C15.741121,9.74288719 15.2148512,7.71591554 13.8960035,6.28147735 C12.5980988,4.97945543 10.836753,4.2360696 8.99171488,4.21165208" id="Path"></path>
                    <path d="M17.3706217,3.32572758 C15.2848195,1.23294445 12.4537197,0.0384072232 9.48847421,0 C9.25619837,0.00460109252 9.03510794,0.100037271 8.87335574,0.265562368 C8.71152421,0.431086671 8.62212022,0.653317853 8.62445377,0.883943649 C8.62822857,1.1147519 8.72405822,1.33465239 8.89104614,1.49531778 C9.05803407,1.65598318 9.282377,1.74426069 9.51489083,1.74075434 C11.9765547,1.79160434 14.3245398,2.77913366 16.0738275,4.49935522 C17.8369979,6.42477758 18.5351741,9.25517138 18.1402734,12.9195449 C18.1154434,13.1490442 18.1835078,13.3788609 18.3293942,13.5584622 C18.4752805,13.7381427 18.6870894,13.8528527 18.9182547,13.8774448 C19.1493406,13.9020368 19.3809025,13.8345277 19.5618523,13.6896726 C19.7428022,13.5448175 19.8583848,13.3345952 19.8831355,13.1050959 C20.3318214,8.92698656 19.4872829,5.63622966 17.3706217,3.32572758 Z" id="Path"></path>
                </g>
            </g>
        </g>
    </g>
</svg>