<?xml version="1.0" encoding="UTF-8"?>
<svg width="24px" height="24px" viewBox="0 0 24 24" version="1.1" xmlns="http://www.w3.org/2000/svg" xmlns:xlink="http://www.w3.org/1999/xlink">
    <title>Group 2</title>
    <g id="Symbols" stroke="none" stroke-width="1" fill="none" fill-rule="evenodd">
        <g id="Group-2">
            <g id="Group">
                <rect id="Rectangle" x="0" y="0" width="24" height="24"></rect>
                <path d="M21.4497703,7.89040541 C21.3269978,7.89203423 21.2068043,7.92671458 21.101813,7.99071375 L17.7240414,9.92555182 L17.7240414,7.33239781 C17.7194943,6.97616065 17.5750041,6.63614386 17.3221294,6.38652674 C17.0692546,6.13697749 16.7284913,5.99805247 16.3741544,6 L5.3499006,6 C4.99555016,5.99805247 4.65477325,6.13697749 4.4018917,6.38652674 C4.14901015,6.63614386 4.00454713,6.97616065 4,7.33239781 L4,15.9804297 C4.00474395,16.3363954 4.1493427,16.6760728 4.40224462,16.9252827 C4.65514653,17.1744248 4.99581485,17.3129426 5.3499006,17.3105311 L16.3741544,17.3105311 C16.7282198,17.3129426 17.0689153,17.1744248 17.32179,16.9252827 C17.5746648,16.6760728 17.7192907,16.3363954 17.7240414,15.9804297 L17.7240414,13.3804889 L21.0988269,15.3048075 C21.2066007,15.3801406 21.3342597,15.4215398 21.4655156,15.4239152 C21.54017,15.4223542 21.6136707,15.4053873 21.6815383,15.3741003 C21.7494059,15.3428134 21.8101474,15.297885 21.860098,15.2420299 C21.9099807,15.1862428 21.9479866,15.1206826 21.9716724,15.0495574 C21.995426,14.9783642 22.0043846,14.9030312 21.998005,14.828241 L21.998005,8.49435938 C22.004181,8.41794044 21.9946116,8.34097856 21.9699757,8.26842807 C21.9452719,8.19580971 21.9059765,8.1291637 21.8546007,8.07249424 C21.8031571,8.01582477 21.740651,7.97042133 21.6710188,7.93906649 C21.6013866,7.90777952 21.5260536,7.89115195 21.4497703,7.89040541 Z" id="Path" fill-opacity="0.2" fill="#FFFFFF" fill-rule="nonzero"></path>
            </g>
            <g id="icon_change-copy" transform="translate(11.000000, 2.000000)">
                <rect id="Rectangle" x="0" y="0" width="12" height="12"></rect>
                <path d="M5.7529775,8.63888889 C4.81242194,8.63888889 3.93575527,8.13222222 3.4654775,7.31638889 C2.96714416,6.45277778 3.00131083,5.40388889 3.55964416,4.43833333 L2.59769972,3.88222222 C1.83519972,5.20083333 1.80075527,6.655 2.5029775,7.87166667 C3.17131083,9.03027778 4.41658861,9.75 5.7529775,9.75 L5.7529775,11 L8.45519972,9.19444444 L5.7529775,7.38888889 L5.7529775,8.63888889 Z M9.0029775,4.12833333 C9.70519972,5.345 9.67075527,6.79916667 8.90825527,8.11777778 L7.94631083,7.56166667 C8.50464416,6.59611111 8.53881083,5.54722222 8.0404775,4.68361111 C7.56992194,3.86777778 6.69353305,3.36111111 5.7529775,3.36111111 L5.7529775,4.61111111 L3.05075527,2.80555556 L5.7529775,1 L5.7529775,2.25 C7.08936639,2.25 8.33464416,2.96972222 9.0029775,4.12833333 L9.0029775,4.12833333 Z" id="Fill-1" fill="#FFFFFF"></path>
            </g>
        </g>
    </g>
</svg>