<?xml version="1.0" encoding="UTF-8"?>
<svg width="24px" height="24px" viewBox="0 0 24 24" version="1.1" xmlns="http://www.w3.org/2000/svg" xmlns:xlink="http://www.w3.org/1999/xlink">
    <title>ic_Stop</title>
    <g id="Dispatcher_20221118_데모버젼" stroke="none" stroke-width="1" fill="none" fill-rule="evenodd">
        <g id="message" transform="translate(-794.000000, -241.000000)">
            <g id="Group-5-Copy-10" transform="translate(780.000000, 233.000000)">
                <g id="Group" transform="translate(14.000000, 8.000000)">
                    <rect id="Rectangle" fill-opacity="0" fill="#D8D8D8" x="0" y="0" width="24" height="24"></rect>
                    <path d="M9.62200726,9.96643995 C9.62200726,9.96661921 9.62186194,9.96676452 9.62168269,9.96676452 L1.4195,9.96676452 C0.86721525,9.96676452 0.4195,10.4144798 0.4195,10.9667645 L0.4195,12.9661154 C0.4195,13.5184001 0.86721525,13.9661154 1.4195,13.9661154 L11.9229605,13.9661154 C11.923319,13.9661154 11.9236097,13.9658248 11.9236097,13.9654662 C11.9236097,13.9651077 11.9239003,13.9648171 11.9242588,13.9648171 L15.4195,13.9648171 C15.9717847,13.9648171 16.4195,13.5171019 16.4195,12.9648171 L16.4195,10.9661154 C16.4195,10.4138306 15.9717847,9.96611538 15.4195,9.96611538 L9.62233183,9.96611538 C9.62215257,9.96611538 9.62200726,9.9662607 9.62200726,9.96643995 Z" id="Fill-1" fill="#FFFFFF" transform="translate(8.419500, 11.966115) scale(1, -1) rotate(-90.000000) translate(-8.419500, -11.966115) "></path>
                    <path d="M17.6220073,9.96643995 C17.6220073,9.96661921 17.6218619,9.96676452 17.6216827,9.96676452 L9.4195,9.96676452 C8.86721525,9.96676452 8.4195,10.4144798 8.4195,10.9667645 L8.4195,12.9661154 C8.4195,13.5184001 8.86721525,13.9661154 9.4195,13.9661154 L19.9229605,13.9661154 C19.923319,13.9661154 19.9236097,13.9658248 19.9236097,13.9654662 C19.9236097,13.9651077 19.9239003,13.9648171 19.9242588,13.9648171 L23.4195,13.9648171 C23.9717847,13.9648171 24.4195,13.5171019 24.4195,12.9648171 L24.4195,10.9661154 C24.4195,10.4138306 23.9717847,9.96611538 23.4195,9.96611538 L17.6223318,9.96611538 C17.6221526,9.96611538 17.6220073,9.9662607 17.6220073,9.96643995 Z" id="Fill-1-Copy" fill="#FFFFFF" transform="translate(16.419500, 11.966115) scale(1, -1) rotate(-90.000000) translate(-16.419500, -11.966115) "></path>
                </g>
            </g>
        </g>
    </g>
</svg>