<?xml version="1.0" encoding="UTF-8"?>
<svg width="28px" height="28px" viewBox="0 0 28 28" version="1.1" xmlns="http://www.w3.org/2000/svg" xmlns:xlink="http://www.w3.org/1999/xlink">
    <title>Call type / Card / Group Copy 5</title>
    <g id="Dispatcher_20221118" stroke="none" stroke-width="1" fill="none" fill-rule="evenodd">
        <g id="Main-&gt;-Channel-&gt;-Regroup-&gt;--Regroup--tab" transform="translate(-248.000000, -138.000000)">
            <g id="Group-5" transform="translate(248.000000, 138.000000)">
                <circle id="타원_109" fill="#54595F" fill-rule="nonzero" cx="14" cy="14" r="14"></circle>
                <g id="Basic-/-user" transform="translate(6.588235, 7.700000)" fill="#FFFFFF">
                    <path d="M7.41176471,5.56267696 C8.40720149,5.56267696 9.2978756,6.01121933 9.89270001,6.71721707 L9.76640485,6.57641046 C9.81985814,6.63284092 9.87129978,6.6911819 9.9206168,6.75131999 C9.94673317,6.78265827 9.97230116,6.81507826 9.99725519,6.8479894 C10.0133636,6.86970782 10.0296324,6.89171898 10.0456264,6.91393992 C10.0718095,6.94986482 10.0970998,6.98658591 10.1216424,7.0238432 C10.1320546,7.04007662 10.1424191,7.0561093 10.1526448,7.07223807 C10.1761438,7.1088962 10.198932,7.14651773 10.220967,7.18462935 C10.2317259,7.20361328 10.242145,7.22204615 10.2523874,7.24058966 C10.2744658,7.2802054 10.2959312,7.3211085 10.3165374,7.36251445 C10.323027,7.37586941 10.3291473,7.38837119 10.3351891,7.40091772 C10.3909949,7.5164566 10.4404451,7.63707524 10.4825966,7.76106723 C10.4893278,7.78103762 10.495876,7.80092774 10.5022358,7.82090169 C10.5161518,7.86447582 10.5290876,7.90832522 10.541111,7.95255047 C10.5464918,7.97243762 10.5518929,7.99308584 10.5570943,8.01381311 C10.5671079,8.05365197 10.5762589,8.09331284 10.5846752,8.13324448 C10.589984,8.15849917 10.5950245,8.18391321 10.5997659,8.20943213 C10.6247579,8.34388473 10.6414525,8.48141688 10.6492786,8.62131736 L10.6544118,8.80532401 L10.6544118,11.8588251 C10.6544118,12.3705006 10.2396168,12.7852956 9.72794118,12.7852956 L5.09558824,12.7852956 C4.58391266,12.7852956 4.16911765,12.3705006 4.16911765,11.8588251 L4.16911765,8.80532401 C4.16911765,8.67181129 4.17718668,8.54018318 4.19286368,8.41090076 C4.19623141,8.38307944 4.20004972,8.35470253 4.20423258,8.32644443 C4.20984016,8.28859265 4.21603151,8.25133516 4.22285221,8.21429807 C4.22833832,8.18450208 4.23425526,8.15473864 4.2405765,8.12512494 C4.24827512,8.08904986 4.25661168,8.05304508 4.26554224,8.0172755 C4.27142432,7.99373062 4.27743913,7.97074304 4.28369839,7.94785644 C4.29521609,7.90570348 4.30779097,7.86317665 4.32120438,7.82102372 C4.32759002,7.80095831 4.33413421,7.78107015 4.34086456,7.76126802 C4.38089774,7.64350721 4.42742376,7.52897965 4.48007461,7.4179208 C4.49570153,7.38496215 4.51179982,7.35244082 4.5284219,7.3202338 C4.54064979,7.29653341 4.55336095,7.27263891 4.56635994,7.24892461 C4.58185304,7.22066761 4.59757407,7.19297416 4.61368709,7.16553868 C4.62835119,7.14056658 4.64344954,7.1156327 4.65887137,7.0909215 C4.67797558,7.0603087 4.69760614,7.02999306 4.71772329,7.00003149 C4.7307951,6.98056201 4.7441135,6.96118355 4.75763549,6.94195864 C4.77998984,6.91017737 4.80286957,6.87885659 4.82629011,6.84796845 C4.84399014,6.8246244 4.86201549,6.80150695 4.88034419,6.77864315 C4.89755995,6.75716903 4.9149778,6.73599629 4.93265627,6.71505067 C5.5273033,6.01038908 6.41724962,5.56267696 7.41176471,5.56267696 Z M3.13200947,5.87490129 C3.38617138,5.87490129 3.63293138,5.90659264 3.86855346,5.96623933 C3.24505937,6.7443123 2.87205882,7.73125869 2.87205882,8.80532401 L2.87205882,11.8588251 L0.926470588,11.8588235 C0.414795011,11.8588235 -8.25516234e-16,11.4440285 -8.8817842e-16,10.9323529 L-8.8817842e-16,8.86686241 C-1.09054083e-15,7.21444791 1.33954662,5.87490129 2.99196112,5.87490129 L3.13200947,5.87490129 Z M11.8315683,5.87490129 C13.4839828,5.87490129 14.8235294,7.21444791 14.8235294,8.86686241 L14.8235294,10.9323529 C14.8235294,11.4440285 14.4087344,11.8588235 13.8970588,11.8588235 L11.9514706,11.8588251 L11.9514706,8.80532401 C11.9514706,7.73125869 11.57847,6.7443123 10.9549379,5.96695385 C11.190598,5.90659264 11.437358,5.87490129 11.6915199,5.87490129 L11.8315683,5.87490129 Z M3.06118297,1.91158914 C3.91243721,1.91158914 4.60251503,2.60222284 4.60251503,3.45416267 C4.60251503,4.30610251 3.91243721,4.9967362 3.06118297,4.9967362 C2.20992873,4.9967362 1.51985091,4.30610251 1.51985091,3.45416267 C1.51985091,2.60222284 2.20992873,1.91158914 3.06118297,1.91158914 Z M11.7603027,1.91158914 C12.611557,1.91158914 13.3016349,2.60222284 13.3016349,3.45416267 C13.3016349,4.30610251 12.611557,4.9967362 11.7603027,4.9967362 C10.9090485,4.9967362 10.2189706,4.30610251 10.2189706,3.45416267 C10.2189706,2.60222284 10.9090485,1.91158914 11.7603027,1.91158914 Z M7.41176471,0 C8.69095365,0 9.72794118,1.03698753 9.72794118,2.31617647 C9.72794118,3.59536541 8.69095365,4.63235294 7.41176471,4.63235294 C6.13257576,4.63235294 5.09558824,3.59536541 5.09558824,2.31617647 C5.09558824,1.03698753 6.13257576,0 7.41176471,0 Z" id="Combined-Shape"></path>
                </g>
            </g>
        </g>
    </g>
</svg>