<?xml version="1.0" encoding="UTF-8"?>
<svg width="32px" height="32px" viewBox="0 0 32 32" version="1.1" xmlns="http://www.w3.org/2000/svg" xmlns:xlink="http://www.w3.org/1999/xlink">
    <title>ic_voice</title>
    <g id="v0.1-1108-2022-chaewon.min-&gt;-1111-전달받음-" stroke="none" stroke-width="1" fill="none" fill-rule="evenodd">
        <g id="PTT-BTN" transform="translate(-854.000000, -523.000000)">
            <g id="Button-/-PTT-/-Large-/-Enable" transform="translate(832.000000, 463.000000)">
                <g id="ic_voice" transform="translate(22.000000, 60.000000)">
                    <rect id="Rectangle_2435" x="0" y="0" width="31.0588235" height="31.0588235"></rect>
                    <path d="M19.7647059,1.41176471 C20.544402,1.41176471 21.1764706,2.04383329 21.1764706,2.82352941 L21.1759412,5.64676471 L21.8823529,5.64705882 C23.0518971,5.64705882 24,6.59516171 24,7.76470588 L24,25.4117647 C24,26.5813089 23.0518971,27.5294118 21.8823529,27.5294118 L9.88235294,27.5294118 C8.71280877,27.5294118 7.76470588,26.5813089 7.76470588,25.4117647 L7.76470588,16.2352941 C6.98500976,16.2352941 6.35294118,15.6032255 6.35294118,14.8235294 L6.35294118,12 C6.35294118,11.2203039 6.98500976,10.5882353 7.76470588,10.5882353 L7.76470588,7.76470588 C7.76470588,6.59516171 8.71280877,5.64705882 9.88235294,5.64705882 L17.6469412,5.64676471 L17.6470588,2.82352941 C17.6470588,2.04383329 18.2791274,1.41176471 19.0588235,1.41176471 L19.7647059,1.41176471 Z M19.4214706,15.8742353 L12.2067641,15.8742353 C11.8047332,15.8742353 11.4788229,16.2001456 11.4788229,16.6021765 C11.4788229,17.0042073 11.8047332,17.3301176 12.2067641,17.3301176 L19.4214706,17.3301176 C19.8235014,17.3301176 20.1494118,17.0042073 20.1494118,16.6021765 C20.1494118,16.2001456 19.8235014,15.8742353 19.4214706,15.8742353 Z M20.7155889,12.7683529 L10.9126477,12.7683529 C10.5106169,12.7683529 10.1847065,13.0942633 10.1847065,13.4962941 C10.1847065,13.8983249 10.5106169,14.2242353 10.9126477,14.2242353 L20.7155889,14.2242353 C21.1176197,14.2242353 21.4435301,13.8983249 21.4435301,13.4962941 C21.4435301,13.0942633 21.1176197,12.7683529 20.7155889,12.7683529 Z M19.4214706,9.66247057 L12.2067641,9.66247057 C11.8047332,9.66247057 11.4788229,9.98838094 11.4788229,10.3904117 C11.4788229,10.7924426 11.8047332,11.1183529 12.2067641,11.1183529 L19.4214706,11.1183529 C19.8235014,11.1183529 20.1494118,10.7924426 20.1494118,10.3904117 C20.1494118,9.98838094 19.8235014,9.66247057 19.4214706,9.66247057 Z" id="Combined-Shape" fill="#3E91FF"></path>
                </g>
            </g>
        </g>
    </g>
</svg>