<?xml version="1.0" encoding="UTF-8"?>
<svg width="24px" height="24px" viewBox="0 0 24 24" version="1.1" xmlns="http://www.w3.org/2000/svg" xmlns:xlink="http://www.w3.org/1999/xlink">
    <title>Group</title>
    <g id="Symbols" stroke="none" stroke-width="1" fill="none" fill-rule="evenodd">
        <g id="Group">
            <rect id="Rectangle" fill-opacity="0" fill="#D8D8D8" x="0" y="0" width="24" height="24"></rect>
            <path d="M15.9741833,5 C16.7455125,5 17.3911086,5.58497463 17.4669204,6.35256917 L18.636,18.199 L19.35,18.2 C19.7089851,18.2 20,18.4910149 20,18.85 C20,19.2089851 19.7089851,19.5 19.35,19.5 L4.65,19.5 C4.29101491,19.5 4,19.2089851 4,18.85 C4,18.4910149 4.29101491,18.2 4.65,18.2 L5.363,18.199 L6.53307959,6.35256917 C6.60889139,5.58497463 7.25448747,5 8.02581672,5 L15.9741833,5 Z M12,15.0404588 C11.4477153,15.0404588 11,15.488174 11,16.0404588 C11,16.5927435 11.4477153,17.0404588 12,17.0404588 C12.5522847,17.0404588 13,16.5927435 13,16.0404588 C13,15.488174 12.5522847,15.0404588 12,15.0404588 Z M12.5833333,7.30625 C12.2180827,7.11449341 11.7819173,7.11449341 11.4166667,7.30625 C11.0635839,7.49161846 10.8569841,7.87147548 10.8932518,8.26860717 L11.4166667,14 L12.5833333,14 L13.1067482,8.26860717 C13.1430159,7.87147548 12.9364161,7.49161846 12.5833333,7.30625 Z" id="Combined-Shape" fill="#FF291B" fill-rule="nonzero"></path>
        </g>
    </g>
</svg>