<svg width="32" height="32" viewBox="0 0 32 32" fill="none" xmlns="http://www.w3.org/2000/svg">
<path d="M21.8436 27.9975V23.8117C21.7909 21.5258 20.9093 19.3398 19.3674 17.6719C20.0446 17.5107 20.7358 17.4172 21.4311 17.393C25.6948 17.393 29.1335 20.6011 28.996 24.0895V26.6027C28.996 26.9726 28.8512 27.3274 28.5933 27.589C28.3354 27.8506 27.9857 27.9975 27.621 27.9975H21.8436ZM4.375 27.9975C4.19443 27.9975 4.01563 27.9614 3.84881 27.8913C3.68199 27.8212 3.53041 27.7185 3.40273 27.589C3.27505 27.4594 3.17377 27.3057 3.10467 27.1365C3.03557 26.9672 3 26.7858 3 26.6027V23.8117C3 20.1889 6.71372 16.7018 11.1162 16.7018C15.5186 16.7018 19.2311 20.0506 19.2311 23.818L19.3219 26.5578C19.3282 26.7449 19.2973 26.9314 19.231 27.1062C19.1647 27.2809 19.0644 27.4403 18.9361 27.5749C18.8078 27.7095 18.6541 27.8164 18.4841 27.8895C18.3142 27.9625 18.1315 28.0001 17.9469 28L4.375 27.9975ZM17.9924 11.3939C17.9924 10.6212 18.2182 9.86588 18.6414 9.2234C19.0646 8.58093 19.6661 8.08019 20.3698 7.78449C21.0735 7.4888 21.8479 7.41143 22.5949 7.56217C23.342 7.71292 24.0282 8.08501 24.5668 8.63138C25.1054 9.17776 25.4722 9.87388 25.6208 10.6317C25.7694 11.3896 25.6931 12.1751 25.4016 12.889C25.1102 13.6029 24.6165 14.213 23.9832 14.6423C23.3499 15.0716 22.6053 15.3007 21.8436 15.3007C20.8222 15.3007 19.8426 14.8891 19.1204 14.1564C18.3981 13.4238 17.9924 12.4301 17.9924 11.3939V11.3939ZM6.02499 9.02766C6.02402 8.03421 6.31348 7.06279 6.85678 6.23624C7.40007 5.40969 8.17279 4.76515 9.0772 4.38412C9.98162 4.00309 10.9771 3.9027 11.9378 4.09563C12.8984 4.28857 13.7811 4.76617 14.4742 5.46803C15.1673 6.16989 15.6396 7.06449 15.8315 8.03868C16.0233 9.01287 15.9261 10.0229 15.5521 10.941C15.178 11.8592 14.544 12.6441 13.7301 13.1967C12.9163 13.7493 11.9592 14.0446 10.9799 14.0454C10.3293 14.0457 9.68506 13.916 9.08392 13.6636C8.48277 13.4113 7.93653 13.0413 7.4764 12.5748C7.01626 12.1082 6.65124 11.5543 6.40221 10.9446C6.15317 10.3349 6.02499 9.68139 6.02499 9.02143V9.02766Z" fill="white"/>
</svg>
