<?xml version="1.0" encoding="UTF-8"?>
<svg width="20px" height="20px" viewBox="0 0 20 20" version="1.1" xmlns="http://www.w3.org/2000/svg" xmlns:xlink="http://www.w3.org/1999/xlink">
    <title>Status / alert 2</title>
    <g id="Dispatcher_20221118_demo" stroke="none" stroke-width="1" fill="none" fill-rule="evenodd">
        <g id="Main-&gt;-GIS-&gt;-POI-Search--" transform="translate(-1029.000000, -208.000000)" fill="#000000">
            <g id="Group-8" transform="translate(1018.000000, 197.000000)">
                <g id="Status-/-alert-2" transform="translate(11.934150, 11.114394)">
                    <path d="M15.851,14.10475 L17.7570538,14.9380072 C17.9011092,15.0010314 18.0161161,15.1160384 18.0791403,15.2600938 C18.2174942,15.5763311 18.0732911,15.94485 17.7570538,16.0832039 L9.56687351,19.6664077 C9.24747288,19.8061455 8.88422706,19.8061455 8.56482643,19.6664077 L0.374646161,16.0832039 C0.230590764,16.0201796 0.115583835,15.9051727 0.0525595983,15.7611173 C-0.0857942326,15.44488 0.0584088335,15.076361 0.374646161,14.9380072 L2.279,14.10475 L8.56482643,16.8539077 C8.88422706,16.9936455 9.24747288,16.9936455 9.56687351,16.8539077 L15.851,14.10475 Z M15.851,8.47975 L17.7570538,9.3130072 C17.9011092,9.37603143 18.0161161,9.49103836 18.0791403,9.63509376 C18.2174942,9.95133109 18.0732911,10.31985 17.7570538,10.4582039 L9.56687351,14.0414077 C9.24747288,14.1811455 8.88422706,14.1811455 8.56482643,14.0414077 L0.374646161,10.4582039 C0.230590764,10.3951796 0.115583835,10.2801727 0.0525595983,10.1361173 C-0.0857942326,9.81987997 0.0584088335,9.45136103 0.374646161,9.3130072 L2.279,8.47975 L8.56482643,11.2289077 C8.88422706,11.3686455 9.24747288,11.3686455 9.56687351,11.2289077 L15.851,8.47975 Z M9.56687351,0.104803331 L17.7570538,3.6880072 C17.9011092,3.75103143 18.0161161,3.86603836 18.0791403,4.01009376 C18.2174942,4.32633109 18.0732911,4.69485003 17.7570538,4.83320387 L9.56687351,8.41640773 C9.24747288,8.55614551 8.88422706,8.55614551 8.56482643,8.41640773 L0.374646161,4.83320387 C0.230590764,4.77017963 0.115583835,4.6551727 0.0525595983,4.5111173 C-0.0857942326,4.19487997 0.0584088335,3.82636103 0.374646161,3.6880072 L8.56482643,0.104803331 C8.88422706,-0.0349344438 9.24747288,-0.0349344438 9.56687351,0.104803331 Z" id="Icon-color"></path>
                </g>
            </g>
        </g>
    </g>
</svg>