<?xml version="1.0" encoding="UTF-8"?>
<svg width="36px" height="36px" viewBox="0 0 36 36" version="1.1" xmlns="http://www.w3.org/2000/svg" xmlns:xlink="http://www.w3.org/1999/xlink">
    <title>Call type / Top / Group Copy 5</title>
    <g id="Symbols" stroke="none" stroke-width="1" fill="none" fill-rule="evenodd">
        <g id="Call-type-/-Top-/-Group-Copy-5">
            <circle id="타원_135" fill="#BF1024" fill-rule="nonzero" cx="18" cy="18" r="18"></circle>
            <g id="Status-/-alert-2" transform="translate(9.000000, 9.225000)">
                <path d="M13.6408499,0 C14.4121792,-1.51184688e-15 15.0577753,0.584974628 15.1335871,1.35256917 L16.466,14.849 L17.26875,14.85 C17.6726082,14.85 18,15.1773918 18,15.58125 C18,15.9851082 17.6726082,16.3125 17.26875,16.3125 L0.73125,16.3125 C0.327391777,16.3125 4.9458368e-17,15.9851082 0,15.58125 C-4.9458368e-17,15.1773918 0.327391777,14.85 0.73125,14.85 L1.532,14.849 L2.86641292,1.35256917 C2.94222473,0.584974628 3.5878208,3.6373549e-16 4.35915006,0 L13.6408499,0 Z" id="Combined-Shape" fill="#FFFFFF"></path>
                <path d="M9,13.5455161 C9.62132034,13.5455161 10.125,13.0418364 10.125,12.4205161 C10.125,11.7991958 9.62132034,11.2955161 9,11.2955161 C8.37867966,11.2955161 7.875,11.7991958 7.875,12.4205161 C7.875,13.0418364 8.37867966,13.5455161 9,13.5455161 Z M8.34375,2.59453125 C8.75465698,2.37880508 9.24534302,2.37880508 9.65625,2.59453125 C10.0534681,2.80307077 10.2858929,3.23040992 10.2450917,3.67718307 L9.65625,10.125 L9.65625,10.125 L8.34375,10.125 L7.75490827,3.67718307 C7.71410707,3.23040992 7.94653186,2.80307077 8.34375,2.59453125 Z" id="Exclamation-mark" fill="#BF1024"></path>
            </g>
        </g>
    </g>
</svg>