<?xml version="1.0" encoding="UTF-8"?>
<svg width="54px" height="54px" viewBox="0 0 54 54" version="1.1" xmlns="http://www.w3.org/2000/svg" xmlns:xlink="http://www.w3.org/1999/xlink">
    <title>Group 3</title>
    <defs>
        <path d="M0,24 C0,10.7451657 10.7451657,0 24,0 C37.2548343,0 48,10.7451657 48,24 C48,37.2548343 37.2548343,48 24,48 C10.7451657,48 0,37.2548343 0,24 Z" id="path-1"></path>
        <filter x="-9.4%" y="-9.4%" width="118.8%" height="118.8%" filterUnits="objectBoundingBox" id="filter-2">
            <feOffset dx="0" dy="0" in="SourceAlpha" result="shadowOffsetOuter1"></feOffset>
            <feGaussianBlur stdDeviation="1.5" in="shadowOffsetOuter1" result="shadowBlurOuter1"></feGaussianBlur>
            <feColorMatrix values="0 0 0 0 0   0 0 0 0 0   0 0 0 0 0  0 0 0 0.4 0" type="matrix" in="shadowBlurOuter1"></feColorMatrix>
        </filter>
    </defs>
    <g id="Dispatcher_20221118_데모버젼" stroke="none" stroke-width="1" fill="none" fill-rule="evenodd">
        <g id="Group-23-Copy-4" transform="translate(-7.000000, -7.000000)">
            <g id="Group-3" transform="translate(10.000000, 10.000000)">
                <g id="타원-338">
                    <use fill="black" fill-opacity="1" filter="url(#filter-2)" xlink:href="#path-1"></use>
                    <use fill="#161719" fill-rule="evenodd" xlink:href="#path-1"></use>
                </g>
                <path d="M23.9996346,3.76 C12.8393217,3.76 3.76,12.8398475 3.76,24.0001827 C3.76,35.1605403 12.8393217,44.24 23.9996346,44.24 C35.1600407,44.24 44.24,35.1605441 44.24,24.0001827 C44.24,12.8398475 35.1600407,3.76 23.9996346,3.76 Z M23.9996346,46 C21.0296942,46 18.1485108,45.4187153 15.4363807,44.2714637 C12.8166542,43.1633573 10.46384,41.5770864 8.44339729,39.5565766 C6.42290983,37.5361115 4.83666136,35.1833234 3.72867051,32.5635485 C2.58153085,29.8512132 2,26.9700559 2,24.0001827 C2,21.0302871 2.58153085,18.1491708 3.72867051,15.4368169 C4.83666508,12.8170644 6.42290983,10.4642763 8.44339729,8.44378881 C10.46384,6.42332373 12.8166505,4.83700814 15.4363807,3.72890169 C18.1485108,2.58167254 21.0296905,2 23.9996346,2 C26.9696681,2 29.8508478,2.58167254 32.5631607,3.72890169 C35.1828871,4.83694102 37.5356119,6.42327898 39.5561441,8.44378881 C41.5764936,10.4642539 43.1629695,12.817042 44.2709641,15.4368169 C45.4181932,18.1491522 46,21.0302871 46,24.0001827 C46,26.9700559 45.4181932,29.8512169 44.2709641,32.5635485 C43.1629695,35.1833458 41.5764973,37.5361339 39.5561441,39.5565766 C37.5356119,41.5771088 35.1828908,43.163402 32.5631607,44.2714637 C29.8508478,45.4187153 26.9696681,46 23.9996346,46 Z" id="패스-9036" fill="#FF291B"></path>
                <g id="Group" transform="translate(12.000000, 12.000000)">
                    <rect id="Rectangle" fill-opacity="0" fill="#D8D8D8" x="0" y="0" width="24" height="24"></rect>
                    <path d="M15.9741833,5 C16.7455125,5 17.3911086,5.58497463 17.4669204,6.35256917 L18.636,18.199 L19.35,18.2 C19.7089851,18.2 20,18.4910149 20,18.85 C20,19.2089851 19.7089851,19.5 19.35,19.5 L4.65,19.5 C4.29101491,19.5 4,19.2089851 4,18.85 C4,18.4910149 4.29101491,18.2 4.65,18.2 L5.363,18.199 L6.53307959,6.35256917 C6.60889139,5.58497463 7.25448747,5 8.02581672,5 L15.9741833,5 Z M12,15.0404588 C11.4477153,15.0404588 11,15.488174 11,16.0404588 C11,16.5927435 11.4477153,17.0404588 12,17.0404588 C12.5522847,17.0404588 13,16.5927435 13,16.0404588 C13,15.488174 12.5522847,15.0404588 12,15.0404588 Z M12.5833333,7.30625 C12.2180827,7.11449341 11.7819173,7.11449341 11.4166667,7.30625 C11.0635839,7.49161846 10.8569841,7.87147548 10.8932518,8.26860717 L11.4166667,14 L12.5833333,14 L13.1067482,8.26860717 C13.1430159,7.87147548 12.9364161,7.49161846 12.5833333,7.30625 Z" id="Combined-Shape" fill="#FF291B" fill-rule="nonzero"></path>
                </g>
            </g>
        </g>
    </g>
</svg>