<?xml version="1.0" encoding="UTF-8"?>
<svg width="60px" height="60px" viewBox="0 0 60 60" version="1.1" xmlns="http://www.w3.org/2000/svg" xmlns:xlink="http://www.w3.org/1999/xlink">
    <title>Group 12</title>
    <g id="Dispatcher_20221118_demo+container" stroke="none" stroke-width="1" fill="none" fill-rule="evenodd">
        <g id="Loading" transform="translate(-760.000000, -347.000000)" fill="#3E91FF">
            <g id="Group-12" transform="translate(760.000000, 347.000000)">
                <g id="Circle-loader_determinate_W_M" fill-rule="nonzero">
                    <path d="M30,0 C46.5685425,0 60,13.4314575 60,30 C60,46.5685425 46.5685425,60 30,60 C13.4314575,60 0,46.5685425 0,30 C0,13.4314575 13.4314575,0 30,0 Z M30,5 C16.1928813,5 5,16.1928813 5,30 C5,43.8071187 16.1928813,55 30,55 C43.8071187,55 55,43.8071187 55,30 C55,16.1928813 43.8071187,5 30,5 Z" id="Track"></path>
                </g>
                <polygon id="Fill-1" stroke="#3E91FF" stroke-width="2" points="38.201405 23 27.1034568 34.0979482 20.4510259 27.4455173 18 29.8965432 27.1034568 39 40.6524309 25.4510259"></polygon>
            </g>
        </g>
    </g>
</svg>