<svg width="230" height="42" viewBox="0 0 230 42" fill="none" xmlns="http://www.w3.org/2000/svg">
    <g clip-path="url(#uj75asoppa)" fill="#fff">
        <path d="M115.613 12.497h4.125c1.276 0 2.404.209 3.395.626.991.418 1.833.993 2.514 1.724a7.464 7.464 0 0 1 1.561 2.585c.347.993.533 2.077.533 3.239a9.017 9.017 0 0 1-.583 3.251 7.568 7.568 0 0 1-1.622 2.586 7.696 7.696 0 0 1-2.503 1.71c-.966.418-2.019.627-3.171.627h-4.249V12.497zm2.825 2.82v10.72h1.102c.83 0 1.573-.13 2.242-.404a4.78 4.78 0 0 0 1.685-1.136 5.33 5.33 0 0 0 1.078-1.71c.26-.654.384-1.359.384-2.116 0-.758-.112-1.515-.335-2.168a4.557 4.557 0 0 0-1.016-1.697c-.458-.483-1.028-.85-1.721-1.11-.694-.261-1.512-.392-2.441-.392h-.978v.013zM128.942 15.84h3.233v13.018h-3.233V15.839zm-.409-3.187c0-.561.186-1.018.545-1.37.36-.353.855-.523 1.475-.523.619 0 1.127.17 1.486.522.359.353.533.81.533 1.371 0 .562-.174 1.019-.533 1.358-.359.34-.855.51-1.486.51-.632 0-1.152-.17-1.499-.51-.347-.34-.521-.796-.521-1.358zM138.456 28.858c-1.363 0-2.49-.261-3.382-.797-.892-.535-1.586-1.305-2.081-2.31l2.626-1.32c.297.6.694 1.058 1.202 1.384.508.327 1.09.483 1.771.483.681 0 1.226-.156 1.573-.456.347-.3.521-.666.521-1.097a.763.763 0 0 0-.248-.575 2.148 2.148 0 0 0-.632-.379 6.103 6.103 0 0 0-.917-.274 75.612 75.612 0 0 0-1.09-.235 19.8 19.8 0 0 1-1.561-.418 4.884 4.884 0 0 1-1.375-.666 3.442 3.442 0 0 1-.991-1.096c-.247-.444-.384-1.006-.384-1.672 0-.51.112-1.005.347-1.475.236-.47.558-.888.979-1.254a4.639 4.639 0 0 1 1.524-.862 5.976 5.976 0 0 1 1.982-.313c1.238 0 2.254.235 3.084.705a5.344 5.344 0 0 1 1.945 1.933l-2.416 1.266a2.745 2.745 0 0 0-1.053-1.07c-.446-.262-.966-.392-1.56-.392-.669 0-1.165.143-1.487.418-.322.274-.483.6-.483.966 0 .418.235.731.718.914.471.183 1.177.379 2.106.574.508.105 1.016.235 1.524.405.508.17.979.392 1.4.68.421.287.755.652 1.016 1.096.26.444.384 1.005.384 1.671 0 .457-.1.927-.298 1.41-.198.484-.495.94-.916 1.359-.409.418-.942.757-1.561 1.018-.632.261-1.388.392-2.267.392v-.013zM151.772 28.832a5.544 5.544 0 0 1-2.254-.457 4.05 4.05 0 0 1-1.66-1.32v7.404h-2.738V15.774h2.738v1.71c.421-.6.979-1.07 1.648-1.436a4.795 4.795 0 0 1 2.242-.535c.755 0 1.486.143 2.192.444.706.3 1.338.73 1.883 1.305a6.632 6.632 0 0 1 1.326 2.09c.334.822.495 1.762.495 2.833 0 1.071-.173 1.985-.508 2.808a6.877 6.877 0 0 1-1.338 2.089 5.697 5.697 0 0 1-1.882 1.306 5.4 5.4 0 0 1-2.144.444zm-.445-2.716c.507 0 .978-.105 1.412-.3a3.738 3.738 0 0 0 1.152-.85c.334-.365.582-.783.768-1.266a4.322 4.322 0 0 0 .272-1.567c0-.561-.086-1.07-.272-1.554a3.944 3.944 0 0 0-.768-1.253 3.605 3.605 0 0 0-1.152-.836 3.204 3.204 0 0 0-1.412-.3c-.508 0-.991.104-1.437.3a3.362 3.362 0 0 0-1.128.849 4.3 4.3 0 0 0-.743 1.253c-.173.483-.26.993-.26 1.528s.087 1.07.26 1.554c.173.483.421.9.743 1.266a3.2 3.2 0 0 0 1.128.85c.433.208.916.3 1.437.3v.026zM165.56 28.858a5.336 5.336 0 0 1-2.131-.444 5.745 5.745 0 0 1-1.895-1.306c-.558-.574-1.003-1.267-1.35-2.09-.347-.822-.508-1.762-.508-2.82 0-1.057.161-2.01.495-2.833.335-.823.781-1.528 1.326-2.09a5.748 5.748 0 0 1 1.895-1.305 5.584 5.584 0 0 1 2.193-.444c.792 0 1.523.157 2.192.483a4.703 4.703 0 0 1 1.66 1.319v-1.541h2.763V28.61h-2.763v-1.672c-.433.601-.991 1.071-1.672 1.41-.681.34-1.412.51-2.205.51zm.446-2.716c.52 0 .991-.105 1.437-.314a3.69 3.69 0 0 0 1.127-.848c.322-.353.557-.784.743-1.267a4.301 4.301 0 0 0 .273-1.554c0-.548-.087-1.057-.273-1.54a4.349 4.349 0 0 0-.743-1.267 3.369 3.369 0 0 0-1.127-.849 3.28 3.28 0 0 0-1.437-.313c-.52 0-.979.104-1.425.313-.446.209-.83.483-1.152.836-.322.352-.582.77-.768 1.253a4.3 4.3 0 0 0-.272 1.554c0 .549.086 1.084.272 1.567.186.496.434.914.768 1.267.322.352.706.64 1.152.848.446.21.917.314 1.425.314zM173.414 16.048h2.167v-1.946l2.949-2.037v3.983h2.576v2.65h-2.576v4.793c0 .548.024 1.005.086 1.345.062.34.174.6.36.783.185.183.446.3.78.366.334.052.793.091 1.35.091v2.782h-.409c-.978 0-1.796-.092-2.452-.261-.657-.17-1.177-.47-1.574-.888-.396-.418-.668-.967-.829-1.646-.162-.679-.248-1.527-.248-2.546V18.7h-2.168v-2.65h-.012zM188.204 28.858c-.879 0-1.709-.17-2.477-.523a6.239 6.239 0 0 1-1.995-1.423 6.804 6.804 0 0 1-1.338-2.115 6.95 6.95 0 0 1-.483-2.599c0-.927.161-1.815.483-2.624a6.8 6.8 0 0 1 1.338-2.129 6.306 6.306 0 0 1 1.995-1.423 6.072 6.072 0 0 1 2.477-.51 6.176 6.176 0 0 1 3.568 1.124c.495.352.929.77 1.301 1.253.371.483.681 1.019.916 1.606l-2.502 1.123a3.6 3.6 0 0 0-1.276-1.671c-.57-.418-1.239-.627-1.982-.627-.508 0-.979.105-1.425.314a3.699 3.699 0 0 0-1.895 2.076c-.186.47-.272.979-.272 1.527 0 .549.086 1.032.272 1.502a4 4 0 0 0 .756 1.24c.322.353.706.627 1.152.836.446.21.917.314 1.424.314.793 0 1.462-.222 2.02-.666a4.016 4.016 0 0 0 1.251-1.724l2.502 1.136a7.058 7.058 0 0 1-.917 1.62 5.894 5.894 0 0 1-1.3 1.279 6.029 6.029 0 0 1-1.648.836 6.38 6.38 0 0 1-1.97.3l.025-.052zM195.24 12.497h2.825v4.975a4.615 4.615 0 0 1 1.561-1.332c.619-.327 1.313-.483 2.093-.483 1.511 0 2.701.483 3.555 1.462.855.98 1.289 2.324 1.289 4.074v7.678h-2.887v-7.338c0-1.019-.235-1.816-.693-2.403-.459-.588-1.152-.875-2.069-.875-.384 0-.756.078-1.103.235a2.486 2.486 0 0 0-.904.68c-.26.3-.458.665-.607 1.109-.148.444-.223.94-.223 1.502v7.103h-2.837V12.497zM214.169 28.858c-.954 0-1.821-.17-2.614-.51a5.854 5.854 0 0 1-2.019-1.41 6.47 6.47 0 0 1-1.301-2.115 7.19 7.19 0 0 1-.471-2.599c0-.927.161-1.815.484-2.637a6.496 6.496 0 0 1 1.337-2.129c.57-.6 1.227-1.07 1.995-1.423a5.832 5.832 0 0 1 2.477-.522c.892 0 1.735.17 2.49.496a5.701 5.701 0 0 1 1.982 1.384c.558.588.979 1.293 1.301 2.09a7.3 7.3 0 0 1 .471 2.637v1.123h-9.861c.198.9.619 1.632 1.264 2.194.644.561 1.474.835 2.465.835.793 0 1.474-.209 2.056-.613a3.643 3.643 0 0 0 1.301-1.646l2.304 1.397a6.478 6.478 0 0 1-2.205 2.508c-.942.64-2.094.953-3.444.953l-.012-.013zm-.099-10.747c-.843 0-1.574.235-2.181.718-.619.483-1.04 1.123-1.3 1.907h6.875c-.211-.862-.607-1.515-1.202-1.959-.594-.444-1.325-.666-2.192-.666zM221.923 15.944h2.8v1.854c.57-1.24 1.61-1.854 3.134-1.854.446 0 .842.052 1.202.143.359.105.669.223.953.38l-1.065 2.728a3.18 3.18 0 0 0-.694-.352c-.247-.092-.594-.144-.991-.144-.817 0-1.449.235-1.87.718-.421.483-.632 1.254-.632 2.338v6.659h-2.824v-12.47h-.013z"/>
        <path fill-rule="evenodd" clip-rule="evenodd" d="M97.862 19.705v2.285h1.511v2.272c0 .209 0 .418-.037.6-.062.418-.434 1.15-1.511 1.15-1.078 0-1.437-.719-1.5-1.15a4.456 4.456 0 0 1-.037-.6v-7.169c0-.248.013-.535.062-.744.075-.379.397-1.136 1.462-1.136 1.127 0 1.412.796 1.474 1.136.037.222.05.6.05.6v.875h3.716v-.509s.012-.535-.025-1.032c-.285-2.938-2.552-3.878-5.165-3.878-2.614 0-4.844.94-5.178 3.878-.025.275-.075.745-.075 1.032v6.594c0 .287 0 .51.062 1.032.248 2.86 2.577 3.878 5.178 3.878 2.602 0 4.931-1.019 5.178-3.878.05-.523.05-.745.05-1.032v-4.204h-5.215zM72.281 12.823h-3.728v11.595c0 .196 0 .431-.037.6-.075.392-.385 1.137-1.413 1.137s-1.337-.745-1.4-1.136c-.037-.17-.037-.392-.037-.6V12.822h-3.728v11.242c0 .288.012.888.037 1.032.26 2.925 2.428 3.878 5.14 3.878 2.714 0 4.882-.953 5.142-3.878.024-.157.05-.744.037-1.032V12.823h-.013zM38.03 12.823l-1.858 12.261-1.859-12.261h-6.008l-.322 15.682h3.692l.099-14.52 2.527 14.52h3.741l2.54-14.52.099 14.52h3.691l-.334-15.682H38.03zM15.782 12.823l-2.738 15.682h3.989l2.056-14.52 2.007 14.52h3.952l-2.725-15.682h-6.541zM85.3 25.45l-3.468-12.627h-5.475v15.526h3.617l-.21-13.032 3.728 13.032h5.252V12.823h-3.641L85.3 25.45zM51.83 16.1c.111-.496.42-1.044 1.338-1.044.854 0 1.35.561 1.35 1.41v.953h3.63v-1.097c0-3.382-2.85-3.904-4.906-3.904-2.601 0-4.72.914-5.104 3.447-.099.692-.124 1.306.037 2.09.632 3.173 5.823 4.087 6.566 6.098.136.378.099.861.025 1.148-.112.523-.446 1.045-1.425 1.045-.917 0-1.474-.561-1.474-1.41v-1.502h-3.915v1.202c0 3.46 2.552 4.518 5.302 4.518 2.75 0 4.807-.954 5.154-3.552.16-1.345.037-2.22-.025-2.546-.607-3.252-6.132-4.231-6.553-6.046a2.235 2.235 0 0 1-.013-.81h.013zM3.902 16.048c.1-.496.421-1.058 1.35-1.058.867 0 1.375.575 1.375 1.424v.966h3.68v-1.097c0-3.408-2.887-3.956-4.98-3.956-2.614 0-4.757.927-5.141 3.486a5.8 5.8 0 0 0 .025 2.115c.631 3.2 5.871 4.14 6.64 6.164.136.378.098.861.024 1.162-.124.522-.458 1.057-1.437 1.057-.917 0-1.474-.574-1.474-1.423v-1.515H0v1.202c0 3.512 2.589 4.557 5.351 4.557 2.763 0 4.844-.966 5.203-3.59.174-1.359.05-2.234-.012-2.573-.62-3.29-6.206-4.27-6.628-6.098a2.05 2.05 0 0 1-.012-.823z"/>
    </g>
    <defs>
        <clipPath id="uj75asoppa">
            <path fill="#fff" d="M0 0h230v41.785H0z"/>
        </clipPath>
    </defs>
</svg>
