<?xml version="1.0" encoding="UTF-8"?>
<svg width="130px" height="33px" viewBox="0 0 130 33" version="1.1" xmlns="http://www.w3.org/2000/svg" xmlns:xlink="http://www.w3.org/1999/xlink">
    <title>Top / Logo / Portrait</title>
    <g id="Dispatcher_20221118_demo+container" stroke="none" stroke-width="1" fill="none" fill-rule="evenodd">
        <g id="Title-layout-" transform="translate(-24.000000, -468.000000)">
            <g id="Top-/-Active-session-bar-/-Portrait-Copy" transform="translate(0.000000, 447.000000)">
                <g id="Group-6" transform="translate(24.000000, 21.000000)">
                    <text id="APP-name-Copy" font-family="SamsungOne-700, SamsungOne" font-size="15.2" font-weight="bold" line-spacing="16" fill="#FFFFFF">
                        <tspan x="0" y="30">cDispatcher</tspan>
                    </text>
                    <g id="Group-9">
                        <g id="Group-17-Copy" transform="translate(0.565217, 0.578231)" fill="#FFFFFF">
                            <path d="M68.0205217,4.93 L68.0205217,6.45826531 L69.0701304,6.45826531 L69.0701304,7.97438776 C69.0729565,8.10969388 69.0661739,8.25598639 69.0435652,8.37278912 C69.0017391,8.65554422 68.738913,9.13663265 67.9939565,9.13663265 C67.2535217,9.13663265 66.9957826,8.65554422 66.9505652,8.37278912 C66.9313478,8.25598639 66.924,8.10969388 66.924,7.97438776 L66.924,3.18489796 C66.924,3.01605442 66.9347391,2.83044218 66.9703478,2.6905102 C67.0206522,2.4355102 67.2422174,1.93129252 67.9883043,1.93129252 C68.7716957,1.93129252 68.9672609,2.46210884 69.011913,2.6905102 C69.0418696,2.84142857 69.0435652,3.09469388 69.0435652,3.09469388 L69.0435652,3.67581633 L71.6226522,3.67581633 L71.6226522,3.33234694 C71.6226522,3.33234694 71.6345217,2.97326531 71.6034348,2.63846939 C71.409,0.673639456 69.8263913,0.051462585 68.010913,0.051462585 C66.1931739,0.051462585 64.6416522,0.678843537 64.4155652,2.63846939 C64.3952174,2.81829932 64.3641304,3.14037415 64.3641304,3.33234694 L64.3641304,7.73731293 C64.3641304,7.92928571 64.3703478,8.07731293 64.4053913,8.42829932 C64.5732609,10.3393537 66.1931739,11.0170408 68.0041304,11.0170408 C69.8263913,11.0170408 71.4344348,10.3393537 71.6056957,8.42829932 C71.6356522,8.07731293 71.6390435,7.92928571 71.643,7.73731293 L71.643,4.93 L68.0205217,4.93 Z M50.2348261,0.333639456 L47.6444348,0.333639456 L47.6444348,8.08482993 C47.6489565,8.21955782 47.6444348,8.37163265 47.6218261,8.48323129 C47.5675652,8.74343537 47.3527826,9.24360544 46.6377826,9.24360544 C45.9323913,9.24360544 45.7108261,8.74343537 45.661087,8.48323129 C45.6356522,8.37163265 45.6322609,8.21955782 45.6356522,8.08482993 L45.6356522,0.333639456 L43.0452609,0.333639456 L43.0452609,7.84428571 C43.0424348,8.03741497 43.0571304,8.4335034 43.0684348,8.53642857 C43.2470435,10.4943197 44.7550435,11.1297959 46.6377826,11.1297959 C48.5244783,11.1297959 50.0313478,10.4943197 50.2127826,8.53642857 C50.2274783,8.4335034 50.2461304,8.03741497 50.2348261,7.84428571 L50.2348261,0.333639456 Z M26.4352174,0.333639456 L25.1431304,8.52370748 L23.8510435,0.333639456 L19.6735217,0.333639456 L19.4513913,10.8111905 L22.0118261,10.8111905 L22.0807826,1.11136054 L23.842,10.8111905 L26.4391739,10.8111905 L28.202087,1.11136054 L28.2716087,10.8111905 L30.8376957,10.8111905 L30.6087826,0.333639456 L26.4352174,0.333639456 Z M10.9652174,0.333639456 L9.06778261,10.8111905 L11.8345217,10.8111905 L13.2639565,1.11136054 L14.6594783,10.8111905 L17.407,10.8111905 L15.5174783,0.333639456 L10.9652174,0.333639456 Z M59.287913,8.76945578 L56.8755652,0.333639456 L53.0750435,0.333639456 L53.0750435,10.7019048 L55.5891304,10.7019048 L55.4433043,1.99605442 L58.0336957,10.7019048 L61.6787826,10.7019048 L61.6787826,0.333639456 L59.1483043,0.333639456 L59.287913,8.76945578 Z M36.030913,3.06057823 C35.9851304,2.8529932 35.9986957,2.63326531 36.0224348,2.51819728 C36.095913,2.18282313 36.3157826,1.81738095 36.9505217,1.81738095 C37.5417391,1.81738095 37.8887826,2.19496599 37.8887826,2.76047619 L37.8887826,3.40115646 L40.4136087,3.40115646 L40.4136087,2.67142857 C40.4136087,0.413435374 38.4353478,0.0589795918 37.003087,0.0589795918 C35.198913,0.0589795918 33.7253913,0.667278912 33.4563478,2.36554422 C33.3856957,2.82812925 33.3676087,3.23867347 33.4812174,3.76197279 C33.9198261,5.88061224 37.5242174,6.49469388 38.0470435,7.83387755 C38.1397391,8.08829932 38.1131739,8.41153061 38.0656957,8.60234694 C37.9871304,8.95102041 37.7582174,9.3020068 37.0788261,9.3020068 C36.4412609,9.3020068 36.0580435,8.92673469 36.0580435,8.36180272 L36.056913,7.35568027 L33.3393478,7.35568027 L33.3393478,8.15537415 C33.3393478,10.4717687 35.1124348,11.1702721 37.0223043,11.1702721 C38.851913,11.1702721 40.3621739,10.5313265 40.6052174,8.79721088 C40.7205217,7.90210884 40.6334783,7.31867347 40.5871304,7.09894558 C40.1637826,4.92595238 36.322,4.27255102 36.030913,3.06057823 L36.030913,3.06057823 Z M2.72208696,3.03455782 C2.67291304,2.82292517 2.68421739,2.60030612 2.71191304,2.48465986 C2.78143478,2.14986395 3.00356522,1.77806122 3.64904348,1.77806122 C4.24817391,1.77806122 4.60086957,2.15911565 4.60086957,2.7292517 L4.60086957,3.37802721 L7.15565217,3.37802721 L7.15565217,2.64193878 C7.15565217,0.363129252 5.14686957,0 3.69878261,0 C1.87934783,0 0.393391304,0.61755102 0.120956522,2.32853741 C0.0463478261,2.79748299 0.0339130435,3.21091837 0.141304348,3.74057823 C0.585,5.88234694 4.225,6.50221088 4.7546087,7.85758503 C4.85352174,8.10969388 4.82356522,8.4335034 4.77495652,8.6312585 C4.69073913,8.98397959 4.45956522,9.33901361 3.77452174,9.33901361 C3.13413043,9.33901361 2.75147826,8.95795918 2.75147826,8.3855102 L2.74865217,7.3764966 L0,7.3764966 L0,8.17792517 C0,10.5209184 1.79852174,11.2252041 3.72308696,11.2252041 C5.5736087,11.2252041 7.09347826,10.579898 7.3416087,8.82612245 C7.46426087,7.92292517 7.37213043,7.33428571 7.33030435,7.11108844 C6.89791304,4.91265306 3.01373913,4.26098639 2.72208696,3.03455782 L2.72208696,3.03455782 Z" id="Fill-1"></path>
                            <polygon id="Fill-3" points="80.4431522 0.255 82.382413 0.255 85.5561087 4.76462585 88.8592391 0.255 90.7114565 0.255 90.7114565 10.9794558 88.7586304 10.9794558 88.7586304 3.45782313 85.541413 7.89459184 82.3959783 3.53068027 82.3959783 10.9794558 80.4431522 10.9794558"></polygon>
                            <path d="M97.5663565,10.9935068 C96.7620522,10.9935068 96.0267043,10.8529966 95.3625739,10.5719762 C94.697313,10.2892211 94.1292696,9.9070102 93.6607043,9.42360884 C93.1921391,8.94078571 92.8270087,8.37296259 92.5687043,7.71782653 C92.3104,7.06269048 92.1809652,6.36187415 92.1809652,5.61711224 C92.1809652,4.83303061 92.3200087,4.11486735 92.5980957,3.45915306 C92.8750522,2.80401701 93.2560087,2.23735034 93.7398348,1.76030952 C94.2225304,1.28211224 94.7934,0.909153061 95.448487,0.641431973 C96.1041391,0.373710884 96.8100957,0.239561224 97.5663565,0.239561224 C98.0547043,0.239561224 98.5266609,0.304323129 98.9816609,0.433268707 C99.4360957,0.562214286 99.8617043,0.743778912 100.259052,0.976227891 C100.6564,1.2092551 101.015313,1.49258844 101.336357,1.82507143 C101.65627,2.15755442 101.932661,2.52646599 102.161574,2.93354082 L100.452922,3.99690816 C100.146574,3.44469728 99.7588348,3.00813265 99.2902696,2.68952721 C98.8205739,2.36860884 98.246313,2.20901701 97.5663565,2.20901701 C97.0684,2.20901701 96.6094435,2.2957517 96.1883565,2.47037755 C95.7661391,2.6450034 95.4032696,2.88554762 95.0969217,3.19143197 C94.7905739,3.49731633 94.5509217,3.85871088 94.3779652,4.27330272 C94.2067043,4.68847279 94.1196609,5.13544558 94.1196609,5.61595578 C94.1196609,6.08837075 94.2067043,6.52956122 94.3779652,6.93837075 C94.5509217,7.34833673 94.788313,7.70684014 95.0895739,8.01330272 C95.3914,8.31918707 95.750313,8.56088776 96.1657478,8.73435714 C96.5834435,8.90898299 97.0361826,8.99571769 97.5234,8.99571769 C98.2514,8.99571769 98.8657913,8.81646599 99.3682696,8.45680612 C99.8718783,8.09772449 100.261313,7.63745238 100.5394,7.07830272 L102.3204,7.98843878 C102.090357,8.43136395 101.810009,8.83786054 101.480487,9.2085068 C101.14927,9.58088776 100.780748,9.89833673 100.374922,10.1625884 C99.9668348,10.4279966 99.5276609,10.6326905 99.0528783,10.7772483 C98.5797913,10.9218061 98.0840957,10.9935068 97.5663565,10.9935068" id="Fill-5"></path>
                            <path d="M105.572717,2.14332993 L105.585152,6.09611905 L107.079022,6.09091497 C107.366717,6.0897585 107.629543,6.03713946 107.86863,5.93247959 C108.107717,5.82897619 108.313457,5.68730952 108.484152,5.50458844 C108.656543,5.32360204 108.789935,5.11312585 108.885457,4.87258163 C108.979283,4.63145918 109.026196,4.37414626 109.025085,4.10064286 C109.0245,3.82540476 108.975891,3.56867007 108.88037,3.32986054 C108.783717,3.08989456 108.64863,2.88230952 108.475109,2.70594898 C108.302717,2.5307449 108.096413,2.39196939 107.856761,2.28962245 C107.616543,2.18785374 107.353152,2.13696939 107.066587,2.13810657 L105.572717,2.14332993 Z M103.613674,0.299928571 L107.203935,0.287167832 C107.749935,0.284894558 108.252413,0.383772109 108.7125,0.583261905 C109.173152,0.782173469 109.5705,1.05220748 109.906804,1.39394218 C110.243674,1.73509864 110.50763,2.13812585 110.700935,2.60244558 C110.894239,3.0685 110.992022,3.56404422 110.99374,4.09370408 C110.995413,4.62220748 110.901022,5.12179932 110.711109,5.59305782 C110.521196,6.06315986 110.2595,6.47023469 109.924891,6.81486054 C109.590283,7.15948639 109.191804,7.43183333 108.728891,7.63421429 C108.265413,7.83717347 107.760674,7.93894218 107.214674,7.94067687 L105.591935,7.94645918 L105.602109,11.0168673 L103.649283,11.0232279 L103.613674,0.299928571 Z" id="Fill-7"></path>
                            <polygon id="Fill-9" points="114.525648 2.17096939 111.72443 2.18079932 111.717648 0.271479592 119.285909 0.244880952 119.292691 2.15420068 116.478474 2.16403061 116.5073 10.9785884 114.555039 10.9855272"></polygon>
                            <polygon id="Fill-11" points="124.772417 7.26322109 122.616113 10.958119 120.418548 10.9650578 123.602983 5.53373129 120.455287 0.240602041 122.637591 0.233663265 124.760548 3.79614626 126.859765 0.218629252 129.056765 0.211112245 125.915287 5.52563605 129.149461 10.935568 126.966591 10.9425068"></polygon>
                        </g>
                        <rect id="Rectangle" x="0" y="0" width="130" height="12.1428571"></rect>
                    </g>
                </g>
            </g>
        </g>
    </g>
</svg>