<?xml version="1.0" encoding="UTF-8"?>
<svg width="234px" height="18px" viewBox="0 0 234 18" version="1.1" xmlns="http://www.w3.org/2000/svg" xmlns:xlink="http://www.w3.org/1999/xlink">
    <title>logo</title>
    <g id="v0.1-1108-2022-chaewon.min-&gt;-1111-전달받음-" stroke="none" stroke-width="1" fill="none" fill-rule="evenodd">
        <g id="Top" transform="translate(-24.000000, -27.000000)">
            <g id="logo" transform="translate(24.000000, 27.000000)">
                <text id="APP-name-Copy" font-family="SamsungOne-700, SamsungOne" font-size="15.2" font-weight="bold" line-spacing="16" fill="#FFFFFF">
                    <tspan x="152.8" y="14.8">cDispatcher</tspan>
                </text>
                <g id="Divider-/-Vertical-Copy" transform="translate(140.924515, 0.000000)" fill="#FFFFFF">
                    <polygon id="Shape" points="0 0 0.8 0 0.8 16.1904762 0 16.1904762"></polygon>
                </g>
                <g id="Group-9" transform="translate(0.000000, 2.428571)">
                    <g id="Group-17-Copy" transform="translate(0.563975, 0.578231)" fill="#FFFFFF">
                        <path d="M67.8710261,4.93 L67.8710261,6.45826531 L68.918328,6.45826531 L68.918328,7.97438776 C68.9211478,8.10969388 68.9143801,8.25598639 68.8918211,8.37278912 C68.850087,8.65554422 68.5878385,9.13663265 67.8445193,9.13663265 C67.1057118,9.13663265 66.8485391,8.65554422 66.8034211,8.37278912 C66.784246,8.25598639 66.7769143,8.10969388 66.7769143,7.97438776 L66.7769143,3.18489796 C66.7769143,3.01605442 66.7876298,2.83044218 66.8231602,2.6905102 C66.873354,2.4355102 67.0944323,1.93129252 67.8388795,1.93129252 C68.6205491,1.93129252 68.8156845,2.46210884 68.8602385,2.6905102 C68.8901292,2.84142857 68.8918211,3.09469388 68.8918211,3.09469388 L68.8918211,3.67581633 L71.4652398,3.67581633 L71.4652398,3.33234694 C71.4652398,3.33234694 71.4770832,2.97326531 71.4460646,2.63846939 C71.2520571,0.673639456 69.6729267,0.051462585 67.8614385,0.051462585 C66.0476944,0.051462585 64.4995826,0.678843537 64.2739925,2.63846939 C64.2536894,2.81829932 64.2226708,3.14037415 64.2226708,3.33234694 L64.2226708,7.73731293 C64.2226708,7.92928571 64.2288745,8.07731293 64.263841,8.42829932 C64.4313416,10.3393537 66.0476944,11.0170408 67.8546708,11.0170408 C69.6729267,11.0170408 71.277436,10.3393537 71.4483205,8.42829932 C71.4782112,8.07731293 71.481595,7.92928571 71.4855429,7.73731293 L71.4855429,4.93 L67.8710261,4.93 Z M50.1244199,0.333639456 L47.5397217,0.333639456 L47.5397217,8.08482993 C47.5442335,8.21955782 47.5397217,8.37163265 47.5171627,8.48323129 C47.4630211,8.74343537 47.2487106,9.24360544 46.535282,9.24360544 C45.831441,9.24360544 45.6103627,8.74343537 45.5607329,8.48323129 C45.535354,8.37163265 45.5319702,8.21955782 45.535354,8.08482993 L45.535354,0.333639456 L42.9506559,0.333639456 L42.9506559,7.84428571 C42.947836,8.03741497 42.9624994,8.4335034 42.9737789,8.53642857 C43.151995,10.4943197 44.6566807,11.1297959 46.535282,11.1297959 C48.4178311,11.1297959 49.9213888,10.4943197 50.1024248,8.53642857 C50.1170882,8.4335034 50.1356994,8.03741497 50.1244199,7.84428571 L50.1244199,0.333639456 Z M26.377118,0.333639456 L25.0878708,8.52370748 L23.7986236,0.333639456 L19.6302832,0.333639456 L19.408641,10.8111905 L21.9634484,10.8111905 L22.0322534,1.11136054 L23.7896,10.8111905 L26.3810658,10.8111905 L28.1401043,1.11136054 L28.2094733,10.8111905 L30.7699205,10.8111905 L30.5415106,0.333639456 L26.377118,0.333639456 Z M10.941118,0.333639456 L9.04785342,10.8111905 L11.8085118,10.8111905 L13.234805,1.11136054 L14.6272596,10.8111905 L17.3687429,10.8111905 L15.4833739,0.333639456 L10.941118,0.333639456 Z M59.1576099,8.76945578 L56.750564,0.333639456 L52.958395,0.333639456 L52.958395,10.7019048 L55.4669565,10.7019048 L55.3214509,1.99605442 L57.9061491,10.7019048 L61.5432248,10.7019048 L61.5432248,0.333639456 L59.0183081,0.333639456 L59.1576099,8.76945578 Z M35.9517242,3.06057823 C35.9060422,2.8529932 35.9195776,2.63326531 35.9432646,2.51819728 C36.0165814,2.18282313 36.2359677,1.81738095 36.8693118,1.81738095 C37.4592298,1.81738095 37.8055106,2.19496599 37.8055106,2.76047619 L37.8055106,3.40115646 L40.3247876,3.40115646 L40.3247876,2.67142857 C40.3247876,0.413435374 38.3508745,0.0589795918 36.9217615,0.0589795918 C35.1215528,0.0589795918 33.6512696,0.667278912 33.3828174,2.36554422 C33.3123205,2.82812925 33.2942733,3.23867347 33.4076323,3.76197279 C33.845277,5.88061224 37.4417466,6.49469388 37.9634236,7.83387755 C38.0559155,8.08829932 38.0294087,8.41153061 37.9820348,8.60234694 C37.9036422,8.95102041 37.6752323,9.3020068 36.9973342,9.3020068 C36.3611702,9.3020068 35.978795,8.92673469 35.978795,8.36180272 L35.9776671,7.35568027 L33.2660745,7.35568027 L33.2660745,8.15537415 C33.2660745,10.4717687 35.0352646,11.1702721 36.9409366,11.1702721 C38.7665242,11.1702721 40.2734658,10.5313265 40.5159752,8.79721088 C40.6310261,7.90210884 40.5441739,7.31867347 40.497928,7.09894558 C40.0755106,4.92595238 36.2421714,4.27255102 35.9517242,3.06057823 L35.9517242,3.06057823 Z M2.71610435,3.03455782 C2.66703851,2.82292517 2.67831801,2.60030612 2.7059528,2.48465986 C2.77532174,2.14986395 2.99696398,1.77806122 3.6410236,1.77806122 C4.23883727,1.77806122 4.59075776,2.15911565 4.59075776,2.7292517 L4.59075776,3.37802721 L7.13992547,3.37802721 L7.13992547,2.64193878 C7.13992547,0.363129252 5.13555776,0 3.69065342,0 C1.87521739,0 0.392526708,0.61755102 0.120690683,2.32853741 C0.0462459627,2.79748299 0.0338385093,3.21091837 0.140993789,3.74057823 C0.583714286,5.88234694 4.21571429,6.50221088 4.74415901,7.85758503 C4.84285466,8.10969388 4.81296398,8.4335034 4.76446211,8.6312585 C4.68042981,8.98397959 4.44976398,9.33901361 3.76622609,9.33901361 C3.12724224,9.33901361 2.74543106,8.95795918 2.74543106,8.3855102 L2.74261118,7.3764966 L0,7.3764966 L0,8.17792517 C0,10.5209184 1.79456894,11.2252041 3.71490435,11.2252041 C5.56135901,11.2252041 7.0778882,10.579898 7.32547329,8.82612245 C7.4478559,7.92292517 7.35592795,7.33428571 7.31419379,7.11108844 C6.8827528,4.91265306 3.00711553,4.26098639 2.71610435,3.03455782 L2.71610435,3.03455782 Z" id="Fill-1"></path>
                        <polygon id="Fill-3" points="80.266354 0.255 82.2013528 0.255 85.3680733 4.76462585 88.6639441 0.255 90.5120907 0.255 90.5120907 10.9794558 88.5635565 10.9794558 88.5635565 3.45782313 85.3534099 7.89459184 82.2148882 3.53068027 82.2148882 10.9794558 80.266354 10.9794558"></polygon>
                        <path d="M97.351925,10.9935068 C96.5493883,10.9935068 95.8156566,10.8529966 95.1529858,10.5719762 C94.4891871,10.2892211 93.922392,9.9070102 93.4548566,9.42360884 C92.9873212,8.94078571 92.6229933,8.37296259 92.3652566,7.71782653 C92.10752,7.06269048 91.9783697,6.36187415 91.9783697,5.61711224 C91.9783697,4.83303061 92.1171076,4.11486735 92.3945834,3.45915306 C92.6709312,2.80401701 93.0510504,2.23735034 93.5338132,1.76030952 C94.015448,1.28211224 94.5850629,0.909153061 95.2387101,0.641431973 C95.8929212,0.373710884 96.5973262,0.239561224 97.351925,0.239561224 C97.8391995,0.239561224 98.3101188,0.304323129 98.7641188,0.433268707 C99.2175548,0.562214286 99.6422281,0.743778912 100.038703,0.976227891 C100.435177,1.2092551 100.793301,1.49258844 101.113639,1.82507143 C101.432849,2.15755442 101.708633,2.52646599 101.937043,2.93354082 L100.232146,3.99690816 C99.9264716,3.44469728 99.5395846,3.00813265 99.0720492,2.68952721 C98.6033858,2.36860884 98.0303871,2.20901701 97.351925,2.20901701 C96.8550629,2.20901701 96.397115,2.2957517 95.9769535,2.47037755 C95.5556641,2.6450034 95.193592,2.88554762 94.8879175,3.19143197 C94.582243,3.49731633 94.3431175,3.85871088 94.1705411,4.27330272 C93.9996566,4.68847279 93.9128045,5.13544558 93.9128045,5.61595578 C93.9128045,6.08837075 93.9996566,6.52956122 94.1705411,6.93837075 C94.3431175,7.34833673 94.5799871,7.70684014 94.8805858,8.01330272 C95.1817486,8.31918707 95.5398728,8.56088776 95.9543945,8.73435714 C96.3711722,8.90898299 96.8229163,8.99571769 97.3090629,8.99571769 C98.0354629,8.99571769 98.6485039,8.81646599 99.1498778,8.45680612 C99.6523796,8.09772449 100.040959,7.63745238 100.318434,7.07830272 L102.09552,7.98843878 C101.865982,8.43136395 101.58625,8.83786054 101.257453,9.2085068 C100.926963,9.58088776 100.559252,9.89833673 100.154318,10.1625884 C99.7471275,10.4279966 99.3089188,10.6326905 98.8351796,10.7772483 C98.3631324,10.9218061 97.8685262,10.9935068 97.351925,10.9935068" id="Fill-5"></path>
                        <path d="M105.340689,2.14332993 L105.353097,6.09611905 L106.843683,6.09091497 C107.130747,6.0897585 107.392995,6.03713946 107.631557,5.93247959 C107.870118,5.82897619 108.075405,5.68730952 108.245725,5.50458844 C108.417738,5.32360204 108.550836,5.11312585 108.646148,4.87258163 C108.739768,4.63145918 108.786578,4.37414626 108.78547,4.10064286 C108.784886,3.82540476 108.736384,3.56867007 108.641072,3.32986054 C108.544632,3.08989456 108.409842,2.88230952 108.236702,2.70594898 C108.064689,2.5307449 107.858839,2.39196939 107.619713,2.28962245 C107.380024,2.18785374 107.117211,2.13696939 106.831276,2.13810657 L105.340689,2.14332993 Z M103.385952,0.299928571 L106.968322,0.287167832 C107.513122,0.284894558 108.014496,0.383772109 108.473571,0.583261905 C108.933211,0.782173469 109.329686,1.05220748 109.665251,1.39394218 C110.00138,1.73509864 110.264757,2.13812585 110.457636,2.60244558 C110.650516,3.0685 110.748083,3.56404422 110.749798,4.09370408 C110.751467,4.62220748 110.657283,5.12179932 110.467788,5.59305782 C110.278292,6.06315986 110.017171,6.47023469 109.683298,6.81486054 C109.349425,7.15948639 108.951822,7.43183333 108.489927,7.63421429 C108.027467,7.83717347 107.523837,7.93894218 106.979037,7.94067687 L105.359865,7.94645918 L105.370016,11.0168673 L103.421482,11.0232279 L103.385952,0.299928571 Z" id="Fill-7"></path>
                        <polygon id="Fill-9" points="114.273943 2.17096939 111.478882 2.18079932 111.472115 0.271479592 119.023742 0.244880952 119.03051 2.15420068 116.222477 2.16403061 116.25124 10.9785884 114.30327 10.9855272"></polygon>
                        <polygon id="Fill-11" points="124.498192 7.26322109 122.346627 10.958119 120.153892 10.9650578 123.331328 5.53373129 120.19055 0.240602041 122.368058 0.233663265 124.486349 3.79614626 126.580953 0.218629252 128.773124 0.211112245 125.63855 5.52563605 128.865616 10.935568 126.687544 10.9425068"></polygon>
                    </g>
                    <rect id="Rectangle" x="0" y="0" width="129.714286" height="12.1428571"></rect>
                </g>
            </g>
        </g>
    </g>
</svg>