<svg width="200" height="37" viewBox="0 0 200 37" fill="none" xmlns="http://www.w3.org/2000/svg">
    <g clip-path="url(#3cxf9hc8ta)" fill="#fff">
        <path d="M100.533 10.866h3.587c1.11 0 2.09.182 2.952.545.861.364 1.594.863 2.186 1.499a6.506 6.506 0 0 1 1.358 2.248c.301.863.463 1.806.463 2.816a7.88 7.88 0 0 1-.506 2.828 6.564 6.564 0 0 1-1.412 2.248 6.688 6.688 0 0 1-2.175 1.487c-.841.364-1.756.545-2.758.545h-3.695V10.866zm2.456 2.453v9.322h.959c.722 0 1.368-.114 1.95-.352a4.169 4.169 0 0 0 1.465-.988c.398-.42.71-.92.937-1.487.226-.568.334-1.181.334-1.84 0-.658-.097-1.317-.291-1.885a3.967 3.967 0 0 0-.884-1.476c-.398-.42-.894-.738-1.497-.965-.603-.227-1.314-.34-2.122-.34h-.851v.01zM112.124 13.773h2.811v11.32h-2.811v-11.32zm-.356-2.77c0-.489.162-.886.474-1.193.312-.306.743-.454 1.282-.454.538 0 .98.148 1.292.454.313.307.464.704.464 1.192 0 .489-.151.886-.464 1.181-.312.296-.743.443-1.292.443s-1.002-.147-1.304-.443c-.301-.295-.452-.692-.452-1.18zM120.396 25.093c-1.185 0-2.165-.227-2.94-.692-.776-.466-1.379-1.136-1.81-2.01l2.284-1.147c.258.523.603.92 1.044 1.204.442.284.948.42 1.541.42.592 0 1.066-.136 1.368-.397.301-.262.452-.58.452-.954a.663.663 0 0 0-.215-.5 1.86 1.86 0 0 0-.55-.33 5.289 5.289 0 0 0-.797-.238 64.65 64.65 0 0 0-.948-.204 17.193 17.193 0 0 1-1.357-.363 4.234 4.234 0 0 1-1.195-.58 2.968 2.968 0 0 1-.862-.953c-.216-.386-.334-.874-.334-1.454 0-.442.097-.874.301-1.283a3.52 3.52 0 0 1 .851-1.09 4.047 4.047 0 0 1 1.325-.749 5.203 5.203 0 0 1 1.724-.272c1.077 0 1.96.204 2.682.613a4.648 4.648 0 0 1 1.691 1.68l-2.1 1.101a2.395 2.395 0 0 0-.916-.93c-.388-.228-.84-.341-1.357-.341-.582 0-1.013.125-1.293.363-.28.239-.42.522-.42.84 0 .364.205.636.625.795.409.16 1.023.33 1.831.5.442.09.883.204 1.325.352.442.147.851.34 1.217.59.367.25.657.568.884.954.226.386.333.874.333 1.453 0 .398-.086.807-.258 1.227-.172.42-.431.817-.797 1.18-.356.364-.819.66-1.357.886-.55.227-1.207.34-1.972.34v-.01zM131.976 25.07a4.817 4.817 0 0 1-1.96-.396 3.517 3.517 0 0 1-1.444-1.147v6.438h-2.38V13.716h2.38v1.488c.366-.523.851-.931 1.433-1.25a4.171 4.171 0 0 1 1.95-.465c.657 0 1.292.125 1.906.386a4.84 4.84 0 0 1 1.637 1.136 5.76 5.76 0 0 1 1.153 1.817c.291.715.431 1.532.431 2.463s-.151 1.726-.442 2.442a5.963 5.963 0 0 1-1.163 1.816 4.96 4.96 0 0 1-1.637 1.136 4.691 4.691 0 0 1-1.864.386zm-.388-2.36c.442 0 .851-.092 1.228-.262.377-.182.711-.42 1.002-.738.291-.318.506-.681.668-1.101.162-.42.237-.875.237-1.363s-.075-.931-.237-1.351a3.435 3.435 0 0 0-.668-1.09 3.135 3.135 0 0 0-1.002-.727 2.782 2.782 0 0 0-1.228-.261c-.441 0-.861.09-1.249.261-.377.182-.711.42-.98.738-.27.307-.485.681-.647 1.09-.151.42-.226.863-.226 1.329 0 .465.075.93.226 1.35.151.421.366.784.647 1.102.269.318.603.568.98.738.377.182.797.261 1.249.261v.023zM143.965 25.093a4.643 4.643 0 0 1-1.853-.386 5.004 5.004 0 0 1-1.648-1.135c-.484-.5-.872-1.101-1.174-1.817-.301-.715-.441-1.533-.441-2.452 0-.92.14-1.749.431-2.464.29-.716.678-1.329 1.152-1.817a5.004 5.004 0 0 1 1.648-1.136 4.857 4.857 0 0 1 1.907-.385 4.28 4.28 0 0 1 1.906.42 4.091 4.091 0 0 1 1.444 1.146v-1.34h2.402v11.15h-2.402v-1.453a3.921 3.921 0 0 1-1.454 1.227 4.231 4.231 0 0 1-1.918.442zm.388-2.361c.452 0 .862-.091 1.25-.273.377-.181.7-.431.98-.738.28-.306.485-.681.646-1.101.162-.42.237-.875.237-1.351 0-.477-.075-.92-.237-1.34a3.777 3.777 0 0 0-.646-1.102 2.93 2.93 0 0 0-.98-.738 2.856 2.856 0 0 0-1.25-.272c-.452 0-.851.09-1.239.272-.388.182-.721.42-1.002.727-.28.307-.506.67-.667 1.09-.162.42-.237.874-.237 1.351s.075.943.237 1.363c.161.431.377.795.667 1.101.281.307.614.557 1.002.738.388.182.797.273 1.239.273zM150.794 13.954h1.885v-1.692l2.564-1.77v3.462h2.241v2.305h-2.241v4.168c0 .476.022.874.076 1.169.053.295.15.522.312.681.162.16.388.261.679.318.29.046.689.08 1.174.08v2.418h-.356c-.851 0-1.562-.08-2.133-.227-.57-.148-1.023-.409-1.368-.772-.344-.363-.581-.84-.721-1.43-.14-.591-.216-1.33-.216-2.215v-4.19h-1.885v-2.305h-.011zM163.656 25.094a5.105 5.105 0 0 1-2.154-.454 5.424 5.424 0 0 1-1.735-1.238 5.906 5.906 0 0 1-1.583-4.1c0-.805.14-1.578.42-2.282a5.893 5.893 0 0 1 1.163-1.85 5.48 5.48 0 0 1 1.735-1.238 5.276 5.276 0 0 1 2.154-.443 5.378 5.378 0 0 1 3.102.977c.431.306.808.67 1.131 1.09.323.42.593.886.797 1.396l-2.176.977a3.132 3.132 0 0 0-1.109-1.453 2.853 2.853 0 0 0-1.724-.545c-.441 0-.851.09-1.238.272a3.214 3.214 0 0 0-1.648 1.805 3.571 3.571 0 0 0-.237 1.329c0 .477.075.897.237 1.306.161.408.377.772.657 1.078.28.307.614.545 1.001.727.388.182.798.273 1.239.273.69 0 1.271-.194 1.756-.58a3.485 3.485 0 0 0 1.088-1.498l2.176.988a6.178 6.178 0 0 1-.797 1.407c-.323.432-.7.807-1.131 1.113a5.232 5.232 0 0 1-1.433.727 5.55 5.55 0 0 1-1.713.261l.022-.045zM169.774 10.866h2.456v4.326a4.026 4.026 0 0 1 1.358-1.158c.538-.284 1.141-.42 1.82-.42 1.314 0 2.348.42 3.092 1.272.743.851 1.12 2.02 1.12 3.542v6.677h-2.51v-6.381c0-.886-.205-1.579-.603-2.09-.399-.51-1.002-.76-1.799-.76-.334 0-.657.068-.959.204-.301.136-.571.33-.786.59-.226.262-.399.58-.528.966a4.09 4.09 0 0 0-.194 1.305v6.177h-2.467v-14.25zM186.234 25.094c-.83 0-1.584-.148-2.273-.443a5.093 5.093 0 0 1-1.756-1.227 5.618 5.618 0 0 1-1.131-1.839 6.264 6.264 0 0 1-.409-2.26c0-.806.14-1.578.42-2.293a5.645 5.645 0 0 1 1.163-1.85 5.543 5.543 0 0 1 1.734-1.239 5.077 5.077 0 0 1 2.155-.454c.775 0 1.508.148 2.165.432a4.951 4.951 0 0 1 1.723 1.203c.485.511.851 1.124 1.131 1.817.27.704.41 1.465.41 2.294v.976h-8.575c.173.784.539 1.42 1.099 1.908.56.488 1.282.726 2.144.726.689 0 1.281-.181 1.788-.533a3.17 3.17 0 0 0 1.131-1.43l2.003 1.214a5.624 5.624 0 0 1-1.917 2.18c-.819.556-1.821.829-2.995.829l-.01-.011zm-.087-9.345c-.732 0-1.368.204-1.895.624-.539.42-.905.977-1.131 1.658h5.978c-.183-.75-.528-1.317-1.045-1.703-.517-.386-1.153-.58-1.907-.58zM192.977 13.864h2.434v1.612c.496-1.079 1.401-1.612 2.726-1.612.387 0 .732.045 1.044.125.313.09.582.193.83.329l-.927 2.373a2.762 2.762 0 0 0-.603-.306c-.215-.08-.517-.125-.862-.125-.71 0-1.26.204-1.626.624-.366.42-.549 1.09-.549 2.033v5.79h-2.456V13.864h-.011z"/>
        <path fill-rule="evenodd" clip-rule="evenodd" d="M85.097 17.134v1.987h1.314v1.976c0 .181 0 .363-.032.522-.054.363-.377 1-1.314 1s-1.25-.625-1.303-1a3.853 3.853 0 0 1-.033-.522v-6.234c0-.216.011-.466.054-.647.065-.33.345-.988 1.271-.988.98 0 1.228.693 1.282.988.032.193.043.522.043.522v.76h3.232v-.442s.01-.466-.022-.897c-.248-2.555-2.219-3.372-4.492-3.372s-4.212.817-4.502 3.372c-.022.238-.065.647-.065.897v5.734c0 .25 0 .443.054.897.215 2.487 2.24 3.372 4.502 3.372 2.263 0 4.288-.885 4.503-3.372.043-.454.043-.647.043-.897v-3.656h-4.535zM62.853 11.15h-3.242v10.083c0 .17 0 .375-.032.522-.065.34-.334.988-1.228.988-.894 0-1.164-.647-1.218-.988-.032-.147-.032-.34-.032-.522V11.15H53.86v9.776c0 .25.01.772.032.897.226 2.544 2.111 3.372 4.47 3.372 2.36 0 4.245-.828 4.47-3.372.022-.136.044-.647.033-.897V11.15h-.01zM33.07 11.15l-1.616 10.662-1.616-10.662h-5.224l-.28 13.637h3.21l.086-12.626 2.197 12.626h3.253l2.208-12.626.087 12.626h3.21l-.291-13.637h-5.225zM13.723 11.15l-2.38 13.637h3.468L16.6 12.16l1.745 12.626h3.437L19.41 11.15h-5.688zM74.175 22.13l-3.016-10.98h-4.762v13.5h3.146L69.36 13.32l3.242 11.332h4.567V11.15h-3.167l.173 10.98zM45.07 14c.096-.432.366-.909 1.163-.909.743 0 1.174.489 1.174 1.227v.829h3.156v-.954c0-2.941-2.478-3.395-4.266-3.395-2.262 0-4.104.795-4.438 2.998-.086.601-.107 1.135.033 1.816.549 2.76 5.062 3.554 5.709 5.303.118.33.086.75.021.999-.097.454-.388.908-1.239.908-.797 0-1.281-.488-1.281-1.226V20.29h-3.404v1.045c0 3.009 2.219 3.929 4.61 3.929 2.391 0 4.18-.83 4.481-3.089.14-1.17.032-1.93-.021-2.214-.528-2.827-5.332-3.679-5.699-5.257a1.941 1.941 0 0 1-.01-.704h.01zM3.393 13.954c.086-.431.366-.92 1.174-.92.754 0 1.196.5 1.196 1.238v.84h3.2v-.953c0-2.964-2.51-3.44-4.331-3.44-2.273 0-4.136.805-4.47 3.03a5.045 5.045 0 0 0 .021 1.84c.55 2.782 5.106 3.6 5.774 5.36.118.329.086.75.021 1.01-.107.454-.398.92-1.25.92-.796 0-1.281-.5-1.281-1.238v-1.317H0v1.045c0 3.054 2.251 3.963 4.653 3.963 2.403 0 4.212-.84 4.525-3.123.15-1.18.043-1.942-.011-2.237-.539-2.861-5.397-3.713-5.763-5.302a1.782 1.782 0 0 1-.01-.716z"/>
    </g>
    <defs>
        <clipPath id="3cxf9hc8ta">
            <path fill="#fff" d="M0 0h200v36.335H0z"/>
        </clipPath>
    </defs>
</svg>
