<?xml version="1.0" encoding="UTF-8"?>
<svg width="234px" height="18px" viewBox="0 0 234 18" version="1.1" xmlns="http://www.w3.org/2000/svg" xmlns:xlink="http://www.w3.org/1999/xlink">
    <title>Group 3</title>
    <g id="Symbols" stroke="none" stroke-width="1" fill="none" fill-rule="evenodd">
        <g id="Top-/-Active-session-bar-" transform="translate(-43.000000, -27.000000)">
            <g id="Group-3" transform="translate(43.000000, 27.000000)">
                <rect id="Rectangle" x="0" y="0" width="234" height="18"></rect>
                <g id="logo" transform="translate(0.000000, 1.000000)">
                    <g id="APP-name-Copy" transform="translate(151.393750, 2.370313)" fill="#FFFFFF" fill-rule="nonzero">
                        <path d="M3.8,11.6078125 C2.59270833,11.6078125 1.65755208,11.2466146 0.99453125,10.5242187 C0.331510417,9.80182292 0,8.7875 0,7.48125 C0,6.6203125 0.153385417,5.86575521 0.46015625,5.21757812 C0.766927083,4.56940104 1.20234375,4.0671875 1.76640625,3.7109375 C2.33046875,3.3546875 2.98359375,3.1765625 3.72578125,3.1765625 C4.16119792,3.1765625 4.58919271,3.23841146 5.00976562,3.36210937 C5.43033854,3.48580729 5.79895833,3.66145833 6.115625,3.8890625 L5.47734375,5.2546875 C4.81432292,4.93802083 4.22057292,4.7796875 3.69609375,4.7796875 C3.09244792,4.7796875 2.62486979,5.00729167 2.29335937,5.4625 C1.96184896,5.91770833 1.79609375,6.55598958 1.79609375,7.37734375 C1.79609375,9.12890625 2.49375,10.0046875 3.8890625,10.0046875 C4.44322917,10.0046875 5.01223958,9.85130208 5.59609375,9.54453125 L6.2046875,10.8953125 C5.56145833,11.3703125 4.75989583,11.6078125 3.8,11.6078125 Z" id="Path"></path>
                        <path d="M11.1625,0.6828125 C12.7557292,0.6828125 13.9679687,1.13307292 14.7992187,2.03359375 C15.6304687,2.93411458 16.0460937,4.27005208 16.0460937,6.04140625 C16.0460937,7.82265625 15.6279948,9.16601563 14.7917969,10.0714844 C13.955599,10.9769531 12.7408854,11.4296875 11.1476562,11.4296875 L7.8078125,11.4296875 L7.8078125,0.6828125 L11.1625,0.6828125 Z M11.1328125,9.84140625 C12.1520833,9.84140625 12.9190104,9.52226563 13.4335937,8.88398438 C13.9481771,8.24570313 14.2054687,7.29817708 14.2054687,6.04140625 C14.2054687,3.52786458 13.1763021,2.27109375 11.1179687,2.27109375 L9.5890625,2.27109375 L9.5890625,9.84140625 L11.1328125,9.84140625 Z" id="Shape"></path>
                        <path d="M18.0203125,3.36953125 L19.771875,3.36953125 L19.771875,11.4296875 L18.0203125,11.4296875 L18.0203125,3.36953125 Z M18.8960938,2.21171875 C18.5596354,2.21171875 18.2949219,2.11770833 18.1019531,1.9296875 C17.9089844,1.74166667 17.8125,1.48932292 17.8125,1.17265625 C17.8125,0.836197917 17.9065104,0.576432292 18.0945312,0.393359375 C18.2825521,0.210286458 18.5497396,0.11875 18.8960938,0.11875 C19.2325521,0.11875 19.4972656,0.212760417 19.6902344,0.40078125 C19.8832031,0.588802083 19.9796875,0.841145833 19.9796875,1.1578125 C19.9796875,1.49427083 19.8856771,1.75403646 19.6976562,1.93710938 C19.5096354,2.12018229 19.2424479,2.21171875 18.8960938,2.21171875 Z" id="Shape"></path>
                        <path d="M24.2695313,11.6078125 C23.7252604,11.6078125 23.1983073,11.5385417 22.6886719,11.4 C22.1790365,11.2614583 21.73125,11.0684896 21.3453125,10.8210937 L21.9539063,9.39609375 C22.6861979,9.84140625 23.4580729,10.0640625 24.2695313,10.0640625 C25.2195313,10.0640625 25.6945313,9.7671875 25.6945313,9.1734375 C25.6945313,8.9359375 25.6128906,8.74296875 25.4496094,8.59453125 C25.2863281,8.44609375 25.0265625,8.32734375 24.6703125,8.23828125 L23.6164063,7.9859375 C22.8742188,7.81770833 22.3324219,7.55299479 21.9910156,7.19179688 C21.6496094,6.83059896 21.4789063,6.33828125 21.4789063,5.71484375 C21.4789063,4.92317708 21.7386719,4.3046875 22.2582031,3.859375 C22.7777344,3.4140625 23.5125,3.19140625 24.4625,3.19140625 C24.9375,3.19140625 25.4125,3.25078125 25.8875,3.36953125 C26.3625,3.48828125 26.7929688,3.6515625 27.1789063,3.859375 L26.5109375,5.26953125 C25.8182292,4.91328125 25.1255208,4.73515625 24.4328125,4.73515625 C23.5817708,4.73515625 23.15625,5.00729167 23.15625,5.5515625 C23.15625,5.76927083 23.2403646,5.94986979 23.4085938,6.09335938 C23.5768229,6.23684896 23.8390625,6.353125 24.1953125,6.4421875 L25.2492188,6.69453125 C26.0013021,6.87265625 26.5455729,7.14479167 26.8820313,7.5109375 C27.2184896,7.87708333 27.3867188,8.37682292 27.3867188,9.01015625 C27.3867188,9.83151042 27.1145833,10.4697917 26.5703125,10.925 C26.0260417,11.3802083 25.2591146,11.6078125 24.2695313,11.6078125 Z" id="Path"></path>
                        <path d="M32.9234375,3.1765625 C33.8536458,3.1765625 34.5760417,3.54765625 35.090625,4.28984375 C35.6052083,5.03203125 35.8625,6.07109375 35.8625,7.40703125 C35.8625,8.74296875 35.6002604,9.77955729 35.0757813,10.5167969 C34.5513021,11.2540365 33.8140625,11.6226562 32.8640625,11.6226562 C32.4484375,11.6226562 32.064974,11.5459635 31.7136719,11.3925781 C31.3623698,11.2391927 31.0679688,11.0190104 30.8304688,10.7320312 L30.8304688,14.5023437 L29.0789063,14.5023437 L29.0789063,3.36953125 L30.6671875,3.36953125 L30.6671875,4.49765625 C31.1916667,3.61692708 31.94375,3.1765625 32.9234375,3.1765625 Z M32.4484375,10.0492187 C33.5270833,10.0492187 34.0664063,9.18828125 34.0664063,7.46640625 C34.0664063,5.70494792 33.5023438,4.82421875 32.3742188,4.82421875 C32.0773438,4.82421875 31.8076823,4.88359375 31.5652344,5.00234375 C31.3227865,5.12109375 31.0778646,5.3140625 30.8304688,5.58125 L30.8304688,9.30703125 C31.0382813,9.54453125 31.2832031,9.72760417 31.5652344,9.85625 C31.8472656,9.98489583 32.1416667,10.0492187 32.4484375,10.0492187 Z" id="Shape"></path>
                        <path d="M40.3304687,3.1765625 C41.2903646,3.1765625 42.039974,3.40416667 42.5792969,3.859375 C43.1186198,4.31458333 43.3882812,4.96276042 43.3882812,5.80390625 L43.3882812,11.4296875 L41.8148437,11.4296875 L41.8148437,10.3015625 C41.3101562,11.1625 40.5135417,11.5929687 39.425,11.5929687 C38.6432292,11.5929687 38.0395833,11.3802083 37.6140625,10.9546875 C37.1885417,10.5291667 36.9757812,9.93541667 36.9757812,9.1734375 C36.9757812,8.21354167 37.349349,7.50846354 38.0964844,7.05820312 C38.8436198,6.60794271 40.0286458,6.37786458 41.6515625,6.36796875 L41.6515625,5.996875 C41.6515625,5.165625 41.1122396,4.75 40.0335937,4.75 C39.4002604,4.75 38.771875,4.88854167 38.1484375,5.165625 L37.703125,3.8 C38.5640625,3.384375 39.4398437,3.1765625 40.3304687,3.1765625 Z M39.8554687,10.09375 C40.5580729,10.09375 41.1567708,9.81666667 41.6515625,9.2625 L41.6515625,7.5703125 C40.6125,7.59010417 39.8554687,7.71627604 39.3804687,7.94882812 C38.9054687,8.18138021 38.6679687,8.54505208 38.6679687,9.03984375 C38.6679687,9.74244792 39.0638021,10.09375 39.8554687,10.09375 Z" id="Shape"></path>
                        <path d="M48.628125,11.5484375 C46.8270833,11.5484375 45.9265625,10.6726563 45.9265625,8.92109375 L45.9265625,4.88359375 L44.65,4.88359375 L44.65,3.36953125 L45.9265625,3.36953125 L45.9265625,1.128125 L47.678125,1.128125 L47.678125,3.36953125 L49.934375,3.36953125 L49.934375,4.88359375 L47.678125,4.88359375 L47.678125,8.62421875 C47.678125,9.09921875 47.7746094,9.44309896 47.9675781,9.65585938 C48.1605469,9.86861979 48.4747396,9.975 48.9101563,9.975 C49.1872396,9.975 49.4742188,9.93541667 49.7710938,9.85625 L50.0382813,11.340625 C49.5929688,11.4791667 49.1229167,11.5484375 48.628125,11.5484375 Z" id="Path"></path>
                        <path d="M54.74375,11.6078125 C53.5364583,11.6078125 52.6013021,11.2466146 51.9382812,10.5242187 C51.2752604,9.80182292 50.94375,8.7875 50.94375,7.48125 C50.94375,6.6203125 51.0971354,5.86575521 51.4039062,5.21757812 C51.7106771,4.56940104 52.1460937,4.0671875 52.7101562,3.7109375 C53.2742187,3.3546875 53.9273437,3.1765625 54.6695312,3.1765625 C55.1049479,3.1765625 55.5329427,3.23841146 55.9535156,3.36210937 C56.3740885,3.48580729 56.7427083,3.66145833 57.059375,3.8890625 L56.4210937,5.2546875 C55.7580729,4.93802083 55.1643229,4.7796875 54.6398437,4.7796875 C54.0361979,4.7796875 53.5686198,5.00729167 53.2371094,5.4625 C52.905599,5.91770833 52.7398437,6.55598958 52.7398437,7.37734375 C52.7398437,9.12890625 53.4375,10.0046875 54.8328125,10.0046875 C55.3869792,10.0046875 55.9559896,9.85130208 56.5398437,9.54453125 L57.1484375,10.8953125 C56.5052083,11.3703125 55.7036458,11.6078125 54.74375,11.6078125 Z" id="Path"></path>
                        <path d="M62.7,3.1765625 C63.4817708,3.1765625 64.0854167,3.40664063 64.5109375,3.86679688 C64.9364583,4.32695313 65.1492187,4.97265625 65.1492187,5.80390625 L65.1492187,11.4296875 L63.3976562,11.4296875 L63.3976562,6.0265625 C63.3976562,5.225 62.9523437,4.82421875 62.0617187,4.82421875 C61.7549479,4.82421875 61.4679687,4.87369792 61.2007812,4.97265625 C60.9335937,5.07161458 60.6713542,5.225 60.4140625,5.4328125 L60.4140625,11.4296875 L58.6625,11.4296875 L58.6625,0 L60.4140625,0 L60.4140625,4.17109375 C61.0473958,3.50807292 61.809375,3.1765625 62.7,3.1765625 Z" id="Path"></path>
                        <path d="M73.74375,7.065625 C73.74375,7.37239583 73.7190104,7.66432292 73.6695313,7.94140625 L68.6375,7.94140625 C68.7760417,9.32682292 69.4934896,10.0195312 70.7898438,10.0195312 C71.4924479,10.0195312 72.1505208,9.84635417 72.7640625,9.5 L73.4023438,10.8210937 C73.0361979,11.0684896 72.6082031,11.2614583 72.1183594,11.4 C71.6285156,11.5385417 71.1263021,11.6078125 70.6117188,11.6078125 C69.4143229,11.6078125 68.4890625,11.2391927 67.8359375,10.5019531 C67.1828125,9.76471354 66.85625,8.73307292 66.85625,7.40703125 C66.85625,6.06119792 67.1630208,5.01966146 67.7765625,4.28242187 C68.3901042,3.54518229 69.2510417,3.1765625 70.359375,3.1765625 C71.428125,3.1765625 72.259375,3.51796875 72.853125,4.20078125 C73.446875,4.88359375 73.74375,5.83854167 73.74375,7.065625 Z M70.3148438,4.7203125 C69.3351563,4.7203125 68.7760417,5.38333333 68.6375,6.709375 L71.9921875,6.709375 C71.9723958,6.07604167 71.8165365,5.58619792 71.5246094,5.23984375 C71.2326823,4.89348958 70.8294271,4.7203125 70.3148438,4.7203125 Z" id="Shape"></path>
                        <path d="M79.1765625,3.20625 C79.5229167,3.20625 79.8296875,3.27057292 80.096875,3.39921875 L79.740625,5.06171875 C79.44375,4.96276042 79.1221354,4.91328125 78.7757813,4.91328125 C78.4195313,4.91328125 78.1177083,4.97760417 77.8703125,5.10625 C77.6229167,5.23489583 77.4052083,5.44270833 77.2171875,5.7296875 L77.2171875,11.4296875 L75.465625,11.4296875 L75.465625,3.36953125 L77.0539063,3.36953125 L77.0539063,4.6015625 C77.5486979,3.67135417 78.25625,3.20625 79.1765625,3.20625 Z" id="Path"></path>
                    </g>
                    <g id="Divider-/-Vertical-Copy" transform="translate(140.924515, 0.000000)" fill="#FFFFFF">
                        <polygon id="Shape" points="0 0 0.8 0 0.8 16.1904762 0 16.1904762"></polygon>
                    </g>
                    <g id="Group-9" transform="translate(0.000000, 2.428571)">
                        <g id="Group-17-Copy" transform="translate(0.563975, 0.578231)" fill="#FFFFFF">
                            <path d="M67.8710261,4.93 L67.8710261,6.45826531 L68.918328,6.45826531 L68.918328,7.97438776 C68.9211478,8.10969388 68.9143801,8.25598639 68.8918211,8.37278912 C68.850087,8.65554422 68.5878385,9.13663265 67.8445193,9.13663265 C67.1057118,9.13663265 66.8485391,8.65554422 66.8034211,8.37278912 C66.784246,8.25598639 66.7769143,8.10969388 66.7769143,7.97438776 L66.7769143,3.18489796 C66.7769143,3.01605442 66.7876298,2.83044218 66.8231602,2.6905102 C66.873354,2.4355102 67.0944323,1.93129252 67.8388795,1.93129252 C68.6205491,1.93129252 68.8156845,2.46210884 68.8602385,2.6905102 C68.8901292,2.84142857 68.8918211,3.09469388 68.8918211,3.09469388 L68.8918211,3.67581633 L71.4652398,3.67581633 L71.4652398,3.33234694 C71.4652398,3.33234694 71.4770832,2.97326531 71.4460646,2.63846939 C71.2520571,0.673639456 69.6729267,0.051462585 67.8614385,0.051462585 C66.0476944,0.051462585 64.4995826,0.678843537 64.2739925,2.63846939 C64.2536894,2.81829932 64.2226708,3.14037415 64.2226708,3.33234694 L64.2226708,7.73731293 C64.2226708,7.92928571 64.2288745,8.07731293 64.263841,8.42829932 C64.4313416,10.3393537 66.0476944,11.0170408 67.8546708,11.0170408 C69.6729267,11.0170408 71.277436,10.3393537 71.4483205,8.42829932 C71.4782112,8.07731293 71.481595,7.92928571 71.4855429,7.73731293 L71.4855429,4.93 L67.8710261,4.93 Z M50.1244199,0.333639456 L47.5397217,0.333639456 L47.5397217,8.08482993 C47.5442335,8.21955782 47.5397217,8.37163265 47.5171627,8.48323129 C47.4630211,8.74343537 47.2487106,9.24360544 46.535282,9.24360544 C45.831441,9.24360544 45.6103627,8.74343537 45.5607329,8.48323129 C45.535354,8.37163265 45.5319702,8.21955782 45.535354,8.08482993 L45.535354,0.333639456 L42.9506559,0.333639456 L42.9506559,7.84428571 C42.947836,8.03741497 42.9624994,8.4335034 42.9737789,8.53642857 C43.151995,10.4943197 44.6566807,11.1297959 46.535282,11.1297959 C48.4178311,11.1297959 49.9213888,10.4943197 50.1024248,8.53642857 C50.1170882,8.4335034 50.1356994,8.03741497 50.1244199,7.84428571 L50.1244199,0.333639456 Z M26.377118,0.333639456 L25.0878708,8.52370748 L23.7986236,0.333639456 L19.6302832,0.333639456 L19.408641,10.8111905 L21.9634484,10.8111905 L22.0322534,1.11136054 L23.7896,10.8111905 L26.3810658,10.8111905 L28.1401043,1.11136054 L28.2094733,10.8111905 L30.7699205,10.8111905 L30.5415106,0.333639456 L26.377118,0.333639456 Z M10.941118,0.333639456 L9.04785342,10.8111905 L11.8085118,10.8111905 L13.234805,1.11136054 L14.6272596,10.8111905 L17.3687429,10.8111905 L15.4833739,0.333639456 L10.941118,0.333639456 Z M59.1576099,8.76945578 L56.750564,0.333639456 L52.958395,0.333639456 L52.958395,10.7019048 L55.4669565,10.7019048 L55.3214509,1.99605442 L57.9061491,10.7019048 L61.5432248,10.7019048 L61.5432248,0.333639456 L59.0183081,0.333639456 L59.1576099,8.76945578 Z M35.9517242,3.06057823 C35.9060422,2.8529932 35.9195776,2.63326531 35.9432646,2.51819728 C36.0165814,2.18282313 36.2359677,1.81738095 36.8693118,1.81738095 C37.4592298,1.81738095 37.8055106,2.19496599 37.8055106,2.76047619 L37.8055106,3.40115646 L40.3247876,3.40115646 L40.3247876,2.67142857 C40.3247876,0.413435374 38.3508745,0.0589795918 36.9217615,0.0589795918 C35.1215528,0.0589795918 33.6512696,0.667278912 33.3828174,2.36554422 C33.3123205,2.82812925 33.2942733,3.23867347 33.4076323,3.76197279 C33.845277,5.88061224 37.4417466,6.49469388 37.9634236,7.83387755 C38.0559155,8.08829932 38.0294087,8.41153061 37.9820348,8.60234694 C37.9036422,8.95102041 37.6752323,9.3020068 36.9973342,9.3020068 C36.3611702,9.3020068 35.978795,8.92673469 35.978795,8.36180272 L35.9776671,7.35568027 L33.2660745,7.35568027 L33.2660745,8.15537415 C33.2660745,10.4717687 35.0352646,11.1702721 36.9409366,11.1702721 C38.7665242,11.1702721 40.2734658,10.5313265 40.5159752,8.79721088 C40.6310261,7.90210884 40.5441739,7.31867347 40.497928,7.09894558 C40.0755106,4.92595238 36.2421714,4.27255102 35.9517242,3.06057823 L35.9517242,3.06057823 Z M2.71610435,3.03455782 C2.66703851,2.82292517 2.67831801,2.60030612 2.7059528,2.48465986 C2.77532174,2.14986395 2.99696398,1.77806122 3.6410236,1.77806122 C4.23883727,1.77806122 4.59075776,2.15911565 4.59075776,2.7292517 L4.59075776,3.37802721 L7.13992547,3.37802721 L7.13992547,2.64193878 C7.13992547,0.363129252 5.13555776,0 3.69065342,0 C1.87521739,0 0.392526708,0.61755102 0.120690683,2.32853741 C0.0462459627,2.79748299 0.0338385093,3.21091837 0.140993789,3.74057823 C0.583714286,5.88234694 4.21571429,6.50221088 4.74415901,7.85758503 C4.84285466,8.10969388 4.81296398,8.4335034 4.76446211,8.6312585 C4.68042981,8.98397959 4.44976398,9.33901361 3.76622609,9.33901361 C3.12724224,9.33901361 2.74543106,8.95795918 2.74543106,8.3855102 L2.74261118,7.3764966 L0,7.3764966 L0,8.17792517 C0,10.5209184 1.79456894,11.2252041 3.71490435,11.2252041 C5.56135901,11.2252041 7.0778882,10.579898 7.32547329,8.82612245 C7.4478559,7.92292517 7.35592795,7.33428571 7.31419379,7.11108844 C6.8827528,4.91265306 3.00711553,4.26098639 2.71610435,3.03455782 L2.71610435,3.03455782 Z" id="Fill-1"></path>
                            <polygon id="Fill-3" points="80.266354 0.255 82.2013528 0.255 85.3680733 4.76462585 88.6639441 0.255 90.5120907 0.255 90.5120907 10.9794558 88.5635565 10.9794558 88.5635565 3.45782313 85.3534099 7.89459184 82.2148882 3.53068027 82.2148882 10.9794558 80.266354 10.9794558"></polygon>
                            <path d="M97.351925,10.9935068 C96.5493883,10.9935068 95.8156566,10.8529966 95.1529858,10.5719762 C94.4891871,10.2892211 93.922392,9.9070102 93.4548566,9.42360884 C92.9873212,8.94078571 92.6229933,8.37296259 92.3652566,7.71782653 C92.10752,7.06269048 91.9783697,6.36187415 91.9783697,5.61711224 C91.9783697,4.83303061 92.1171076,4.11486735 92.3945834,3.45915306 C92.6709312,2.80401701 93.0510504,2.23735034 93.5338132,1.76030952 C94.015448,1.28211224 94.5850629,0.909153061 95.2387101,0.641431973 C95.8929212,0.373710884 96.5973262,0.239561224 97.351925,0.239561224 C97.8391995,0.239561224 98.3101188,0.304323129 98.7641188,0.433268707 C99.2175548,0.562214286 99.6422281,0.743778912 100.038703,0.976227891 C100.435177,1.2092551 100.793301,1.49258844 101.113639,1.82507143 C101.432849,2.15755442 101.708633,2.52646599 101.937043,2.93354082 L100.232146,3.99690816 C99.9264716,3.44469728 99.5395846,3.00813265 99.0720492,2.68952721 C98.6033858,2.36860884 98.0303871,2.20901701 97.351925,2.20901701 C96.8550629,2.20901701 96.397115,2.2957517 95.9769535,2.47037755 C95.5556641,2.6450034 95.193592,2.88554762 94.8879175,3.19143197 C94.582243,3.49731633 94.3431175,3.85871088 94.1705411,4.27330272 C93.9996566,4.68847279 93.9128045,5.13544558 93.9128045,5.61595578 C93.9128045,6.08837075 93.9996566,6.52956122 94.1705411,6.93837075 C94.3431175,7.34833673 94.5799871,7.70684014 94.8805858,8.01330272 C95.1817486,8.31918707 95.5398728,8.56088776 95.9543945,8.73435714 C96.3711722,8.90898299 96.8229163,8.99571769 97.3090629,8.99571769 C98.0354629,8.99571769 98.6485039,8.81646599 99.1498778,8.45680612 C99.6523796,8.09772449 100.040959,7.63745238 100.318434,7.07830272 L102.09552,7.98843878 C101.865982,8.43136395 101.58625,8.83786054 101.257453,9.2085068 C100.926963,9.58088776 100.559252,9.89833673 100.154318,10.1625884 C99.7471275,10.4279966 99.3089188,10.6326905 98.8351796,10.7772483 C98.3631324,10.9218061 97.8685262,10.9935068 97.351925,10.9935068" id="Fill-5"></path>
                            <path d="M105.340689,2.14332993 L105.353097,6.09611905 L106.843683,6.09091497 C107.130747,6.0897585 107.392995,6.03713946 107.631557,5.93247959 C107.870118,5.82897619 108.075405,5.68730952 108.245725,5.50458844 C108.417738,5.32360204 108.550836,5.11312585 108.646148,4.87258163 C108.739768,4.63145918 108.786578,4.37414626 108.78547,4.10064286 C108.784886,3.82540476 108.736384,3.56867007 108.641072,3.32986054 C108.544632,3.08989456 108.409842,2.88230952 108.236702,2.70594898 C108.064689,2.5307449 107.858839,2.39196939 107.619713,2.28962245 C107.380024,2.18785374 107.117211,2.13696939 106.831276,2.13810657 L105.340689,2.14332993 Z M103.385952,0.299928571 L106.968322,0.287167832 C107.513122,0.284894558 108.014496,0.383772109 108.473571,0.583261905 C108.933211,0.782173469 109.329686,1.05220748 109.665251,1.39394218 C110.00138,1.73509864 110.264757,2.13812585 110.457636,2.60244558 C110.650516,3.0685 110.748083,3.56404422 110.749798,4.09370408 C110.751467,4.62220748 110.657283,5.12179932 110.467788,5.59305782 C110.278292,6.06315986 110.017171,6.47023469 109.683298,6.81486054 C109.349425,7.15948639 108.951822,7.43183333 108.489927,7.63421429 C108.027467,7.83717347 107.523837,7.93894218 106.979037,7.94067687 L105.359865,7.94645918 L105.370016,11.0168673 L103.421482,11.0232279 L103.385952,0.299928571 Z" id="Fill-7"></path>
                            <polygon id="Fill-9" points="114.273943 2.17096939 111.478882 2.18079932 111.472115 0.271479592 119.023742 0.244880952 119.03051 2.15420068 116.222477 2.16403061 116.25124 10.9785884 114.30327 10.9855272"></polygon>
                            <polygon id="Fill-11" points="124.498192 7.26322109 122.346627 10.958119 120.153892 10.9650578 123.331328 5.53373129 120.19055 0.240602041 122.368058 0.233663265 124.486349 3.79614626 126.580953 0.218629252 128.773124 0.211112245 125.63855 5.52563605 128.865616 10.935568 126.687544 10.9425068"></polygon>
                        </g>
                        <rect id="Rectangle" x="0" y="0" width="129.714286" height="12.1428571"></rect>
                    </g>
                </g>
            </g>
        </g>
    </g>
</svg>