<?xml version="1.0" encoding="UTF-8"?>
<svg width="40px" height="40px" viewBox="0 0 40 40" version="1.1" xmlns="http://www.w3.org/2000/svg" xmlns:xlink="http://www.w3.org/1999/xlink">
    <title>ic_message  copy</title>
    <g id="Dispatcher_20221118" stroke="none" stroke-width="1" fill="none" fill-rule="evenodd">
        <g id="Main-&gt;-GIS" transform="translate(-270.000000, -349.000000)">
            <g id="ic_message-" transform="translate(270.000000, 349.000000)">
                <rect id="Rectangle" x="0" y="0" width="40" height="40"></rect>
                <g id="Group" transform="translate(8.333333, 3.333333)" fill="#3E91FF" fill-rule="nonzero">
                    <path d="M12.4109719,-4.13380803e-16 C9.11935928,-4.13380803e-16 5.96260214,1.30757855 3.63509035,3.63509035 C1.30757855,5.96260214 0,9.11935928 0,12.4109719 C0,21.6309251 12.4109719,33.3333333 12.4109719,33.3333333 C12.4109719,33.3333333 24.8226884,21.6309251 24.8226884,12.4109719 C24.8226884,10.7810521 24.501669,9.16714295 23.8778749,7.66133661 C23.2541428,6.15551166 22.3398611,4.78730369 21.1873437,3.63482971 C20.0347642,2.48235572 18.6665376,1.56818575 17.1606692,0.944515706 C15.6548008,0.320851244 14.0408917,-4.13380803e-16 12.4109719,-4.13380803e-16 M12.4109719,18.2268037 C11.1204403,18.2268037 9.85888922,17.8440999 8.7858044,17.1270965 C7.71278164,16.4101552 6.87644321,15.3910597 6.38253376,14.198764 C5.88869258,13.0064061 5.75947187,11.694465 6.0112484,10.428694 C6.26301252,9.16298515 6.88444852,8.00029043 7.79705466,7.08774634 C8.70959875,6.17518985 9.87223142,5.55373523 11.1380024,5.3019649 C12.4037112,5.05018837 13.7157144,5.17940908 14.9080102,5.67328129 C16.100306,6.1671473 17.1194015,7.00347331 17.8364048,8.07655814 C18.5534082,9.1495809 18.936112,10.411132 18.936112,11.7016636 C18.936112,12.5586048 18.7673177,13.4071064 18.43941,14.198764 C18.1115023,14.9904215 17.6308109,15.709721 17.0249511,16.3156428 C16.4190293,16.9215646 15.6996678,17.402194 14.9080102,17.7301017 C14.1163526,18.0580094 13.2678511,18.2268037 12.4109719,18.2268037 Z" id="Shape"></path>
                </g>
            </g>
        </g>
    </g>
</svg>