<?xml version="1.0" encoding="UTF-8"?>
<svg width="74px" height="32px" viewBox="0 0 74 32" version="1.1" xmlns="http://www.w3.org/2000/svg" xmlns:xlink="http://www.w3.org/1999/xlink">
    <title>Toggle / Mode / PTT</title>
    <g id="Symbols" stroke="none" stroke-width="1" fill="none" fill-rule="evenodd">
        <g id="Menu-/-Basic-set" transform="translate(-13.000000, -548.000000)">
            <g id="Group-2-Copy" transform="translate(13.000000, 548.000000)">
                <rect id="Rectangle" stroke="#000000" fill="#0F1011" x="0.5" y="0.5" width="73" height="31" rx="15.5"></rect>
                <rect id="Rectangle-Copy-5" fill="#393B3F" x="37" y="2" width="35" height="28" rx="14"></rect>
                <g id="ic_call_voice-copy" transform="translate(10.000000, 6.000000)">
                    <rect id="Rectangle_2435" x="0" y="0" width="20" height="20"></rect>
                    <path d="M12.6948052,1.11111111 C13.3224015,1.11111111 13.8311688,1.61987844 13.8311688,2.24747475 L13.8307143,3.83811111 L14.2857143,3.83838384 C15.0388299,3.83838384 15.6493506,4.44890463 15.6493506,5.2020202 L15.6493506,16.5656566 C15.6493506,17.3187721 15.0388299,17.9292929 14.2857143,17.9292929 L6.55844156,17.9292929 C5.80532599,17.9292929 5.19480519,17.3187721 5.19480519,16.5656566 L5.19480519,10.6565657 C4.69272815,10.6565657 4.28571429,10.2495518 4.28571429,9.74747475 L4.28571429,7.92929293 C4.28571429,7.42721588 4.69272815,7.02020202 5.19480519,7.02020202 L5.19480519,5.2020202 C5.19480519,4.44890463 5.80532599,3.83838384 6.55844156,3.83838384 L11.5577143,3.83811111 L11.5584416,2.24747475 C11.5584416,1.61987844 12.0672089,1.11111111 12.6948052,1.11111111 Z M12.7010552,10.4240656 L8.05522144,10.4240656 C7.79633797,10.4240656 7.58647144,10.6339322 7.58647144,10.8928156 C7.58647144,11.1516991 7.79633797,11.3615656 8.05522144,11.3615656 L12.7010552,11.3615656 C12.9599387,11.3615656 13.1698052,11.1516991 13.1698052,10.8928156 C13.1698052,10.6339322 12.9599387,10.4240656 12.7010552,10.4240656 Z M13.5343889,8.42406564 L7.22188894,8.42406564 C6.96300547,8.42406564 6.75313894,8.63393217 6.75313894,8.89281564 C6.75313894,9.15169912 6.96300547,9.36156564 7.22188894,9.36156564 L13.5343889,9.36156564 C13.7932724,9.36156564 14.0031389,9.15169912 14.0031389,8.89281564 C14.0031389,8.63393217 13.7932724,8.42406564 13.5343889,8.42406564 Z M12.7010552,6.42406564 L8.05522144,6.42406564 C7.79633797,6.42406564 7.58647144,6.63393217 7.58647144,6.89281564 C7.58647144,7.15169912 7.79633797,7.36156564 8.05522144,7.36156564 L12.7010552,7.36156564 C12.9599387,7.36156564 13.1698052,7.15169912 13.1698052,6.89281564 C13.1698052,6.63393217 12.9599387,6.42406564 12.7010552,6.42406564 Z" id="Combined-Shape" fill="#AFAFAF"></path>
                </g>
                <g id="Icon-/-Call-/-PTT-Copy-5" transform="translate(47.857143, 11.535714)" fill="#FFFFFF" fill-opacity="2">
                    <g id="Call-/-video">
                        <path d="M13.850147,1.4923255 C13.7570389,1.4923255 13.6645685,1.51920749 13.5740114,1.57172115 L10.8930086,3.09899324 L10.8930086,1.05152321 C10.8930086,0.473873025 10.4102495,0 9.82162786,0 L1.07201847,0 C0.482121334,0 0,0.473873025 0,1.05152321 L0,7.87829821 C0,8.4559484 0.482121334,8.92857143 1.07201847,8.92857143 L9.82162786,8.92857143 C10.4102495,8.92857143 10.8930086,8.4559484 10.8930086,7.87829821 L10.8930086,5.82645238 L13.5720982,7.34559736 C13.6671195,7.40811361 13.7653294,7.43937174 13.8629015,7.43937174 C14.0727136,7.43937174 14.2857143,7.27682948 14.2857143,6.9692495 L14.2857143,1.9680742 C14.2857143,1.65611809 14.0669741,1.4923255 13.850147,1.4923255 Z" id="Icon-color"></path>
                    </g>
                </g>
            </g>
        </g>
    </g>
</svg>