<?xml version="1.0" encoding="UTF-8"?>
<svg width="22px" height="22px" viewBox="0 0 22 22" version="1.1" xmlns="http://www.w3.org/2000/svg" xmlns:xlink="http://www.w3.org/1999/xlink">
    <title>Icon / Toggle / Checkbox /  Available</title>
    <g id="v0.1-1108-2022-chaewon.min-&gt;-1111-전달받음-" stroke="none" stroke-width="1" fill="none" fill-rule="evenodd">
        <g id="[Dispatcher-v0.1]-key-screen-4" transform="translate(-464.000000, -153.000000)">
            <g id="Card" transform="translate(24.000000, 128.000000)">
                <g id="Card-/-Idle-Copy-3" transform="translate(416.000000, 0.000000)">
                    <g id="Group" transform="translate(23.000000, 24.000000)">
                        <rect id="check_on_area" x="0" y="0" width="24" height="24"></rect>
                        <g id="Status-/-checked-1" transform="translate(1.846154, 1.846154)">
                            <circle id="Icon-color" fill="#3E91FF" cx="10.1538462" cy="10.1538462" r="10.1538462"></circle>
                            <path d="M14.8205239,6.21474067 L15.4936352,6.88785194 C15.7414679,7.13568466 15.7414679,7.5375009 15.4936352,7.78533362 L9.3718521,13.9071167 C9.12401938,14.1549494 8.72220314,14.1549494 8.47437042,13.9071167 L5.26279762,10.6955439 C5.0149649,10.4477112 5.0149649,10.0458949 5.26279762,9.7980622 L5.93590888,9.12495094 C6.1836926,8.87706921 6.58550884,8.87706921 6.83334156,9.12490194 C6.8333579,9.12491827 6.83337423,9.12493461 6.83334156,9.12499994 L8.92311126,11.2152261 L8.92311126,11.2152261 L13.9230651,6.21476351 C14.1708623,5.96689534 14.5726786,5.9668749 14.8205239,6.21469501 C14.8205315,6.21470262 14.8205391,6.21471023 14.8205239,6.21474067 Z" id="Check-mark" fill="#FFFFFF"></path>
                        </g>
                    </g>
                </g>
            </g>
        </g>
    </g>
</svg>