<svg width="16" height="16" viewBox="0 0 16 16" fill="none" xmlns="http://www.w3.org/2000/svg">
<rect width="16" height="16" rx="2" fill="#3674EC"/>
<path d="M11.4394 5.14639C11.5332 5.05266 11.6603 5 11.7929 5C11.9255 5 12.0526 5.05266 12.1464 5.14639L12.8534 5.85339C12.9471 5.94716 12.9998 6.07431 12.9998 6.20689C12.9998 6.33948 12.9471 6.46663 12.8534 6.56039L7.85339 11.5604C7.75963 11.6541 7.63248 11.7068 7.49989 11.7068C7.36731 11.7068 7.24016 11.6541 7.14639 11.5604L4.14639 8.56039C4.05266 8.46663 4 8.33948 4 8.20689C4 8.07431 4.05266 7.94716 4.14639 7.85339L4.85339 7.14639C4.94716 7.05266 5.07431 7 5.20689 7C5.33948 7 5.46663 7.05266 5.56039 7.14639L7.50039 9.08539L11.4394 5.14639Z" fill="white"/>
</svg>
