<?xml version="1.0" encoding="UTF-8"?>
<svg width="24px" height="24px" viewBox="0 0 24 24" version="1.1" xmlns="http://www.w3.org/2000/svg" xmlns:xlink="http://www.w3.org/1999/xlink">
    <title>ic_star</title>
    <g id="Dispatcher_20221118" stroke="none" stroke-width="1" fill="none" fill-rule="evenodd">
        <g id="Group">
            <rect id="Rectangle-Copy-19" fill-opacity="0" fill="#D8D8D8" x="0" y="0" width="24" height="24"></rect>
            <path d="M11.9999859,17.1173144 L7.51546201,19.6275587 C7.3690611,19.7095077 7.18394696,19.657259 7.10199801,19.5108581 C7.06668883,19.4477787 7.05503119,19.3741752 7.06911959,19.303272 L8.07070969,14.2625281 L4.29753138,10.7732005 C4.17435292,10.6592886 4.16684091,10.4670889 4.28075283,10.3439105 C4.32983383,10.2908368 4.39623243,10.257005 4.46801901,10.2484936 L9.57155967,9.64338684 L11.7241312,4.97661951 C11.7944036,4.82426912 11.974875,4.75773179 12.1272254,4.82800422 C12.1928684,4.85828237 12.2455626,4.9109766 12.2758407,4.97661951 L14.4284122,9.64338684 L19.5319529,10.2484936 C19.6985621,10.2682478 19.8176116,10.4193252 19.7978574,10.5859344 C19.7893459,10.6577209 19.7555142,10.7241195 19.7024405,10.7732005 L15.9292622,14.2625281 L16.9308523,19.303272 C16.96355,19.4678311 16.8566552,19.6277394 16.692096,19.6604371 C16.6211928,19.6745255 16.5475893,19.6628679 16.4845099,19.6275587 L11.9999859,17.1173144 Z" id="Star-Copy-2" fill="#FFC300"></path>
        </g>
    </g>
</svg>