<svg width="48" height="48" viewBox="0 0 48 48" fill="none" xmlns="http://www.w3.org/2000/svg">
<path d="M37.1919 36V30.9395C37.127 28.1775 36.042 25.5363 34.1444 23.5211C34.9781 23.327 35.8289 23.215 36.6845 23.1865C41.9317 23.1865 46.1642 27.0635 45.9951 31.2786V34.3135C45.9953 34.535 45.9516 34.7542 45.8666 34.9588C45.7816 35.1634 45.657 35.3494 45.4998 35.506C45.3427 35.6626 45.1561 35.7868 44.9507 35.8716C44.7453 35.9564 44.5251 36 44.3028 36H37.1919ZM15.6878 36C15.2392 35.9988 14.8094 35.8203 14.4929 35.5036C14.1764 35.187 13.9991 34.7581 14 34.3113V30.9395C14 26.556 18.5707 22.341 23.9882 22.341C29.4056 22.341 33.9752 26.3876 33.9752 30.9395L34.0872 34.2544C34.0954 34.4809 34.0576 34.7066 33.9761 34.9181C33.8946 35.1297 33.7712 35.3227 33.6131 35.4857C33.455 35.6486 33.2655 35.7782 33.0561 35.8665C32.8466 35.9549 32.6213 36.0003 32.3938 36H15.6878ZM32.452 15.9353C32.452 15.0018 32.73 14.0891 33.2508 13.3129C33.7717 12.5366 34.5119 11.9316 35.378 11.5744C36.2441 11.2171 37.1971 11.1236 38.1166 11.3057C39.036 11.4879 39.8806 11.9374 40.5435 12.5976C41.2063 13.2577 41.6578 14.0988 41.8407 15.0145C42.0236 15.9301 41.9297 16.8792 41.5709 17.7417C41.2122 18.6043 40.6047 19.3415 39.8252 19.8601C39.0457 20.3788 38.1293 20.6557 37.1919 20.6557C35.9348 20.6557 34.7292 20.1583 33.8403 19.2731C32.9514 18.3879 32.452 17.1873 32.452 15.9353ZM17.724 13.0688C17.724 11.8685 18.0814 10.6952 18.751 9.69716C19.4206 8.69915 20.3724 7.9213 21.4859 7.46196C22.5994 7.00263 23.8247 6.88245 25.0068 7.11661C26.1889 7.35078 27.2748 7.92878 28.127 8.77752C28.9793 9.62625 29.5596 10.7076 29.7948 11.8848C30.0299 13.0621 29.9092 14.2823 29.448 15.3912C28.9868 16.5002 28.2057 17.448 27.2035 18.1148C26.2014 18.7817 25.0232 19.1376 23.8179 19.1376C22.2018 19.1373 20.652 18.4978 19.5092 17.3598C18.3664 16.2217 17.7243 14.6783 17.724 13.0688Z" fill="white"/>
<circle cx="13" cy="34" r="10.5" fill="white" stroke="#505459" stroke-width="3"/>
</svg>
