<svg width="50" height="50" viewBox="0 0 50 50" fill="none" xmlns="http://www.w3.org/2000/svg">
<g clip-path="url(#clip0_113_1931)">
<path d="M43.0461 11.2725H7.37041C6.17628 11.2725 5.20825 12.1679 5.20825 13.2725C5.20825 14.377 6.17628 15.2725 7.37041 15.2725H43.0461C44.2402 15.2725 45.2083 14.377 45.2083 13.2725C45.2083 12.1679 44.2402 11.2725 43.0461 11.2725Z" fill="white"/>
<path d="M43.0461 25.2734H7.37041C6.17628 25.2734 5.20825 26.1689 5.20825 27.2734C5.20825 28.378 6.17628 29.2734 7.37041 29.2734H43.0461C44.2402 29.2734 45.2083 28.378 45.2083 27.2734C45.2083 26.1689 44.2402 25.2734 43.0461 25.2734Z" fill="white"/>
<path d="M43.0461 39.2734H7.37041C6.17628 39.2734 5.20825 40.1689 5.20825 41.2734C5.20825 42.378 6.17628 43.2734 7.37041 43.2734H43.0461C44.2402 43.2734 45.2083 42.378 45.2083 41.2734C45.2083 40.1689 44.2402 39.2734 43.0461 39.2734Z" fill="white"/>
</g>
<defs>
<clipPath id="clip0_113_1931">
<rect width="50" height="50" fill="white"/>
</clipPath>
</defs>
</svg>
