<svg width="36" height="36" viewBox="0 0 36 36" fill="none" xmlns="http://www.w3.org/2000/svg">
    <path d="M7.06 25.698c2.944 4.05 6.576 6.573 9.972 6.92 2.28.233 6.37-1.072 6.295-3.699-.039-1.375-1.307-2.323-2.231-3.246-.286-.286-.57-.572-.856-.855-2.352-2.339-3.795.842-6.24.112-1.38-.414-2.15-1.788-2.977-2.791a4.425 4.425 0 0 1-1.426-3.175c.304-2.147 4.104-2.508 2.835-5.273-.168-.36-.336-.733-.504-1.099-.648-1.403-1.44-3.487-3.49-3.366-4.388.264-5.712 4.778-5.253 8.236a17.952 17.952 0 0 0 3.823 8.183c.017.022.036.042.052.06M18.061 10.172a1.2 1.2 0 0 0-1.065 1.21 1.203 1.203 0 0 0 1.097 1.183 7.224 7.224 0 0 1 4.894 2.08c1.302 1.443 1.812 3.59 1.512 6.392a1.198 1.198 0 0 0 1.524 1.276 1.192 1.192 0 0 0 .851-1.02c.377-3.522-.34-6.306-2.135-8.277a9.563 9.563 0 0 0-6.677-2.844" fill="#3F4246"/>
    <path d="M29.469 8.956a15.363 15.363 0 0 0-10.73-4.569 1.2 1.2 0 0 0-.814 2.055c.227.22.533.342.85.337a13.063 13.063 0 0 1 8.929 3.79c2.4 2.645 3.35 6.533 2.813 11.568a1.197 1.197 0 0 0 1.059 1.316 1.192 1.192 0 0 0 1.313-1.062c.611-5.74-.538-10.26-3.42-13.435z" fill="#3F4246"/>
</svg>
