<svg width="28" height="28" viewBox="0 0 28 28" fill="none" xmlns="http://www.w3.org/2000/svg">
    <path d="M10.551 27v-2.617h6.9V27h-6.9zM5.002 12.578h2.7l.007.341c.043 1.765.721 3.444 1.893 4.69 1.172 1.245 2.748 1.96 4.4 1.998 1.708-.041 3.33-.805 4.511-2.122 1.181-1.318 1.825-3.083 1.79-4.907h2.7l-.006.369c-.035 2.542-.993 4.97-2.67 6.772-1.679 1.803-3.946 2.84-6.325 2.893-2.439-.056-4.757-1.145-6.445-3.026-1.688-1.882-2.607-4.402-2.555-7.008zm4.628-.469V4.658C9.63 1.522 11.586 1 14.002 1s4.372.522 4.372 3.658v7.451c0 3.136-1.956 5.15-4.372 5.15S9.63 15.241 9.63 12.11z" fill="#fff"/>
</svg>
