<svg width="24" height="24" viewBox="0 0 24 24" fill="none" xmlns="http://www.w3.org/2000/svg">
<path d="M5.06548 16.7243C6.91899 19.2508 9.20547 20.8253 11.3439 21.0413C12.7795 21.1869 15.3546 20.373 15.307 18.7339C15.2828 17.8758 14.4842 17.2846 13.9023 16.7085C13.7225 16.53 13.5434 16.3515 13.3636 16.1752C11.8826 14.7162 10.9744 16.7003 9.43442 16.245C8.56622 15.9869 8.08112 15.1295 7.56051 14.5039C7.28373 14.2511 7.06148 13.9452 6.90719 13.6047C6.7529 13.2641 6.66977 12.8961 6.66284 12.5228C6.85401 11.1838 9.24703 10.958 8.44759 9.23345C8.34181 9.00841 8.23602 8.77586 8.13024 8.54782C7.72221 7.67241 7.2235 6.37243 5.93368 6.44744C3.17041 6.61247 2.33697 9.42848 2.62561 11.5859C2.97612 13.4637 3.80487 15.2213 5.03299 16.6913C5.04357 16.7048 5.05566 16.7175 5.06548 16.728" fill="#9B9FA4"/>
<path d="M11.9915 7.03711C11.8053 7.05795 11.6334 7.14679 11.5095 7.28635C11.3855 7.42592 11.3182 7.60625 11.3206 7.79232C11.3231 7.9784 11.3951 8.15692 11.5227 8.29323C11.6503 8.42953 11.8244 8.51387 12.0112 8.52988C13.167 8.55831 14.2687 9.02228 15.0926 9.82761C15.9124 10.7278 16.2335 12.0675 16.0446 13.8153C16.0341 13.9128 16.0429 14.0114 16.0707 14.1055C16.0986 14.1995 16.1448 14.2872 16.2067 14.3636C16.2687 14.4399 16.3452 14.5034 16.4318 14.5504C16.5185 14.5974 16.6136 14.627 16.7118 14.6375C16.81 14.648 16.9093 14.6392 17.0041 14.6116C17.0988 14.5839 17.1872 14.5381 17.2641 14.4766C17.341 14.4151 17.4049 14.3391 17.4523 14.2531C17.4996 14.167 17.5294 14.0726 17.54 13.9751C17.7772 11.778 17.3261 10.0407 16.1957 8.81118C15.0833 7.69521 13.5736 7.05804 11.9923 7.03711" fill="#9B9FA4"/>
<path d="M19.1748 6.27923C17.3871 4.48548 14.9605 3.46163 12.4189 3.42871C12.2198 3.43265 12.0303 3.51445 11.8917 3.65633C11.753 3.7982 11.6764 3.98868 11.6784 4.18635C11.6816 4.38418 11.7637 4.57266 11.9068 4.71037C12.05 4.84807 12.2423 4.92374 12.4416 4.92073C14.5515 4.96431 16.564 5.81074 18.0633 7.28516C19.5745 8.93546 20.173 11.3614 19.8345 14.5022C19.8132 14.6989 19.8715 14.8959 19.9966 15.0498C20.1216 15.2038 20.3032 15.3021 20.5013 15.3232C20.6994 15.3443 20.8978 15.2864 21.0529 15.1623C21.208 15.0381 21.3071 14.8579 21.3283 14.6612C21.7129 11.0801 20.989 8.25958 19.1748 6.27923Z" fill="#9B9FA4"/>
</svg>
