<svg width="20" height="20" viewBox="0 0 20 20" fill="none" xmlns="http://www.w3.org/2000/svg">
    <path d="m10.9 2.54 6.974 12.92a1.05 1.05 0 0 1-.406 1.412 1.01 1.01 0 0 1-.492.128H3.024A1.03 1.03 0 0 1 2 15.96c0-.175.043-.347.126-.5L9.1 2.54a1.016 1.016 0 0 1 1.392-.412c.173.095.314.238.408.412z" fill="#EE2113"/>
    <path d="M9 14.187a1.007 1.007 0 0 1 1-1.015 1.016 1.016 0 0 1 0 2.03 1.006 1.006 0 0 1-1-1.015zm.73-2.031a.255.255 0 0 1-.253-.23l-.42-4.228A.873.873 0 0 1 9.5 6.85a1.024 1.024 0 0 1 1 0 .874.874 0 0 1 .443.849l-.42 4.229a.254.254 0 0 1-.253.229l-.54-.001z" fill="#fff"/>
</svg>
