<svg width="48" height="48" viewBox="0 0 48 48" fill="none" xmlns="http://www.w3.org/2000/svg">
    <path d="M16.63 39.598a1.43 1.43 0 0 1-.558-.112 1.51 1.51 0 0 1-.918-1.404v-4.67h-1.226a5.61 5.61 0 0 1-5.527-5.68V14.079a5.612 5.612 0 0 1 5.527-5.68h20.147a5.413 5.413 0 0 1 3.91 1.666 5.8 5.8 0 0 1 1.616 4.02v13.647a5.61 5.61 0 0 1-5.526 5.68H23.26l-5.576 5.732a1.466 1.466 0 0 1-1.055.454zm15.186-21.267a2.574 2.574 0 0 0 0 5.147h.01a2.475 2.475 0 0 0 1.76-.75 2.594 2.594 0 0 0 .735-1.824 2.543 2.543 0 0 0-2.505-2.573zm-7.815 0a2.574 2.574 0 0 0 0 5.147h.01a2.472 2.472 0 0 0 1.759-.75 2.62 2.62 0 0 0 .735-1.824 2.543 2.543 0 0 0-2.504-2.573zm-7.811 0a2.574 2.574 0 0 0 0 5.147h.01a2.443 2.443 0 0 0 1.762-.753c.474-.487.737-1.14.734-1.82A2.542 2.542 0 0 0 16.2 18.33h-.011z" fill="#fff"/>
</svg>
