<?xml version="1.0" encoding="UTF-8"?>
<svg width="24px" height="24px" viewBox="0 0 24 24" version="1.1" xmlns="http://www.w3.org/2000/svg" xmlns:xlink="http://www.w3.org/1999/xlink">
    <title>ic_location wh </title>
    <g id="Symbols" stroke="none" stroke-width="1" fill="none" fill-rule="evenodd">
        <g id="ic_location-wh-">
            <rect id="Rectangle" x="0" y="0" width="24" height="24"></rect>
            <g id="Group" transform="translate(5.000000, 3.000000)" fill="#FFFFFF" fill-rule="nonzero">
                <path d="M6.70192481,-2.23225634e-16 C4.92445401,-2.23225634e-16 3.21980515,0.706092419 1.96294879,1.96294879 C0.706092419,3.21980515 0,4.92445401 0,6.70192481 C0,11.6806996 6.70192481,18 6.70192481,18 C6.70192481,18 13.4042518,11.6806996 13.4042518,6.70192481 C13.4042518,5.82176813 13.2309013,4.95025719 12.8940524,4.13712177 C12.5572371,3.3239763 12.063525,2.58514399 11.4411656,1.96280804 C10.8187727,1.34047209 10.0799303,0.846820307 9.26676137,0.510038481 C8.45359243,0.173259672 7.58208149,-2.23225634e-16 6.70192481,-2.23225634e-16 M6.70192481,9.84247398 C6.00503776,9.84247398 5.32380018,9.63581393 4.74433438,9.24863211 C4.16490208,8.86148381 3.71327933,8.31117226 3.44656823,7.66733254 C3.17989399,7.0234593 3.11011481,6.31501109 3.24607414,5.63149478 C3.38202676,4.94801198 3.7176022,4.32015683 4.21040952,3.82738302 C4.70318332,3.33460252 5.33100497,2.99901702 6.01452127,2.86306105 C6.69800407,2.72710172 7.4064858,2.79688091 8.05032552,3.0635719 C8.69416524,3.33025954 9.2444768,3.78187559 9.63165861,4.36134139 C10.0188404,4.94077369 10.2255005,5.62201127 10.2255005,6.31889832 C10.2255005,6.7816466 10.1343516,7.23983744 9.95728139,7.66733254 C9.78021123,8.09482763 9.52063789,8.48324934 9.19347362,8.81044712 C8.86627583,9.13764491 8.47782062,9.39718473 8.05032552,9.5742549 C7.62283042,9.75132507 7.16463958,9.84247398 6.70192481,9.84247398 Z" id="Shape"></path>
            </g>
        </g>
    </g>
</svg>