<?xml version="1.0" encoding="UTF-8"?>
<svg width="24px" height="24px" viewBox="0 0 24 24" version="1.1" xmlns="http://www.w3.org/2000/svg" xmlns:xlink="http://www.w3.org/1999/xlink">
    <title>icon_speaker off</title>
    <g id="Dispatcher_20221118" stroke="none" stroke-width="1" fill="none" fill-rule="evenodd">
        <g id="Main-&gt;-Settings-&gt;-Device--" transform="translate(-931.000000, -361.000000)">
            <g id="icon_speaker-off" transform="translate(931.000000, 361.000000)">
                <rect id="Rectangle-Copy" fill-opacity="0" fill="#D8D8D8" x="0" y="0" width="24" height="24"></rect>
                <path d="M20.1805714,22 L15.8609286,17.68 L15.8609286,20.7371429 C15.8611429,20.8642857 15.8235714,20.9892857 15.7528571,21.095 C15.6822143,21.2007143 15.5816429,21.2835714 15.4639286,21.3321429 C15.3462857,21.3807143 15.2167857,21.3935714 15.0918571,21.3685714 C14.967,21.3435714 14.8523571,21.2821429 14.7625,21.1914286 L9.42771429,15.8571429 L4.92810714,15.8571429 C4.75770714,15.8564286 4.59447857,15.7885714 4.47417857,15.6678571 C4.35387857,15.5471429 4.28632857,15.3835714 4.28632857,15.2128571 L4.28632857,8.78785714 C4.2866,8.61785714 4.35427143,8.45428571 4.47454286,8.33428571 C4.59480714,8.21357143 4.75788571,8.14571429 4.92810714,8.145 L6.3248,8.145 L2,3.81714286 L3.81734286,2 L9.69414286,7.87714286 L15.8568571,14.0335714 L22,20.1778571 L20.1816429,21.9957143 L20.1805714,22 Z M15.8609286,10.4 L11.5135,6.05714286 L14.7584286,2.81285714 C14.8482857,2.72214286 14.9628571,2.66071429 15.0877857,2.63571429 C15.2126429,2.61071429 15.3421429,2.62357143 15.4598571,2.67214286 C15.5775,2.72071429 15.6780714,2.80357143 15.7487857,2.90928571 C15.8194286,3.015 15.8570714,3.14 15.8568571,3.26714286 L15.8568571,10.4 L15.8609286,10.4 Z" id="Shape" fill="#AFAFAF" fill-rule="nonzero"></path>
            </g>
        </g>
    </g>
</svg>