<svg width="50" height="50" viewBox="0 0 50 50" fill="none" xmlns="http://www.w3.org/2000/svg">
<path d="M24.9994 3.125C20.5793 3.125 16.3402 4.8809 13.2147 8.00641C10.0891 11.1319 8.33325 15.371 8.33325 19.7912C8.33325 32.1722 24.9994 47.8869 24.9994 47.8869C24.9994 47.8869 41.6666 32.1722 41.6666 19.7912C41.6666 17.6025 41.2355 15.4352 40.3979 13.4131C39.5602 11.391 38.3325 9.55367 36.7848 8.00606C35.2371 6.45845 33.3997 5.23085 31.3776 4.39335C29.3554 3.55586 27.1881 3.12487 24.9994 3.125M24.9994 27.601C23.2664 27.601 21.5723 27.0871 20.1314 26.1243C18.6904 25.1615 17.5673 23.793 16.9041 22.1919C16.2409 20.5908 16.0674 18.829 16.4055 17.1293C16.7436 15.4296 17.5781 13.8683 18.8035 12.6428C20.029 11.4174 21.5903 10.5829 23.29 10.2448C24.9897 9.90669 26.7515 10.0802 28.3526 10.7434C29.9537 11.4066 31.3222 12.5297 32.285 13.9706C33.2478 15.4116 33.7617 17.1057 33.7617 18.8387C33.7617 19.9894 33.5351 21.1288 33.0947 22.1919C32.6544 23.255 32.009 24.2209 31.1953 25.0346C30.3816 25.8482 29.4157 26.4937 28.3526 26.934C27.2895 27.3744 26.1501 27.601 24.9994 27.601Z" fill="white"/>
</svg>
