<svg width="32" height="33" viewBox="0 0 32 33" fill="none" xmlns="http://www.w3.org/2000/svg">
<path d="M24.4318 31.5483H8.51387C8.20484 31.547 7.90884 31.404 7.69061 31.1506C7.47238 30.8972 7.34968 30.5539 7.34936 30.196V18.6048H6.53818C6.33195 18.6046 6.13421 18.5097 5.98833 18.3408C5.84244 18.172 5.76033 17.943 5.76001 17.7042V13.0347C5.76017 12.7957 5.84221 12.5666 5.98811 12.3976C6.13401 12.2286 6.33185 12.1336 6.53818 12.1334H7.34936V7.82287C7.34968 7.465 7.4724 7.12185 7.69064 6.86854C7.90889 6.61522 8.2049 6.47236 8.51387 6.47124H18.4571V2.519C18.4573 2.28001 18.5393 2.05087 18.6852 1.88188C18.8311 1.71288 19.0289 1.61786 19.2353 1.61768H21.6474C21.8537 1.61786 22.0516 1.71288 22.1975 1.88188C22.3434 2.05087 22.4254 2.28001 22.4256 2.519V6.47124H24.4324C24.7419 6.47161 25.0386 6.61412 25.2575 6.8675C25.4763 7.12087 25.5995 7.46445 25.6 7.82287V30.1967C25.5995 30.5553 25.4763 30.8989 25.2572 31.1523C25.0382 31.4057 24.7414 31.5482 24.4318 31.5483ZM12.3405 18.1913C12.2383 18.1762 12.1344 18.1866 12.0358 18.2216C11.9372 18.2566 11.8462 18.3156 11.7689 18.3945C11.6915 18.4735 11.6295 18.5706 11.5871 18.6794C11.5446 18.7882 11.5227 18.9063 11.5227 19.0257C11.5227 19.1451 11.5446 19.2632 11.5871 19.372C11.6295 19.4809 11.6915 19.578 11.7689 19.6569C11.8462 19.7359 11.9372 19.7948 12.0358 19.8298C12.1344 19.8649 12.2383 19.8752 12.3405 19.8601H20.4517C20.554 19.8752 20.6579 19.8649 20.7565 19.8298C20.855 19.7948 20.946 19.7359 21.0234 19.6569C21.1008 19.578 21.1627 19.4809 21.2052 19.372C21.2476 19.2632 21.2696 19.1451 21.2696 19.0257C21.2696 18.9063 21.2476 18.7882 21.2052 18.6794C21.1627 18.5706 21.1008 18.4735 21.0234 18.3945C20.946 18.3156 20.855 18.2566 20.7565 18.2216C20.6579 18.1866 20.554 18.1762 20.4517 18.1913H12.3405ZM10.8857 14.632C10.7832 14.6165 10.6791 14.6265 10.5803 14.6614C10.4814 14.6962 10.3902 14.755 10.3125 14.834C10.2349 14.9129 10.1727 15.0101 10.1301 15.1191C10.0875 15.2281 10.0654 15.3464 10.0654 15.4661C10.0654 15.5857 10.0875 15.704 10.1301 15.813C10.1727 15.922 10.2349 16.0193 10.3125 16.0982C10.3902 16.1771 10.4814 16.236 10.5803 16.2708C10.6791 16.3056 10.7832 16.3156 10.8857 16.3001H21.9072C22.0096 16.3156 22.1138 16.3056 22.2126 16.2708C22.3114 16.236 22.4027 16.1771 22.4804 16.0982C22.558 16.0193 22.6202 15.922 22.6628 15.813C22.7054 15.704 22.7274 15.5857 22.7274 15.4661C22.7274 15.3464 22.7054 15.2281 22.6628 15.1191C22.6202 15.0101 22.558 14.9129 22.4804 14.834C22.4027 14.755 22.3114 14.6962 22.2126 14.6614C22.1138 14.6265 22.0096 14.6165 21.9072 14.632H10.8857ZM12.3405 11.0735C12.1368 11.0597 11.9367 11.1395 11.7835 11.2957C11.6304 11.4519 11.5366 11.6717 11.5226 11.9075C11.5366 12.1433 11.6304 12.3632 11.7835 12.5193C11.9367 12.6755 12.1368 12.7554 12.3405 12.7416H20.4517C20.6554 12.7554 20.8556 12.6755 21.0087 12.5193C21.1619 12.3632 21.2557 12.1433 21.2696 11.9075C21.2557 11.6717 21.1619 11.4519 21.0087 11.2957C20.8556 11.1395 20.6554 11.0597 20.4517 11.0735H12.3405Z" fill="white"/>
</svg>
