<?xml version="1.0" encoding="UTF-8"?>
<svg width="20px" height="20px" viewBox="0 0 20 20" version="1.1" xmlns="http://www.w3.org/2000/svg" xmlns:xlink="http://www.w3.org/1999/xlink">
    <title>Map / map-2</title>
    <g id="v0.1-1108-2022-chaewon.min-&gt;-1111-전달받음-" stroke="none" stroke-width="1" fill="none" fill-rule="evenodd">
        <g id="Main-&gt;--Group-List--" transform="translate(-1036.000000, -90.000000)" fill="#FFFFFF">
            <g id="Group-panel" transform="translate(720.000000, 72.000000)">
                <g id="Group-4" transform="translate(276.000000, 18.000000)">
                    <g id="Map-/-map-2" transform="translate(40.625000, 0.625000)">
                        <path d="M18.75,10 C18.75,10.345178 18.470178,10.625 18.125,10.625 L10.625,10.625 L10.625,18.125 C10.625,18.470178 10.345178,18.75 10,18.75 L8.75,18.75 C8.40482203,18.75 8.125,18.470178 8.125,18.125 L8.125,10.625 L0.625,10.625 C0.279822031,10.625 0,10.345178 0,10 L0,8.75 C0,8.40482203 0.279822031,8.125 0.625,8.125 L8.125,8.125 L8.125,0.625 C8.125,0.279822031 8.40482203,4.4408921e-16 8.75,4.4408921e-16 L10,4.4408921e-16 C10.345178,4.4408921e-16 10.625,0.279822031 10.625,0.625 L10.625,8.125 L18.125,8.125 C18.470178,8.125 18.75,8.40482203 18.75,8.75 L18.75,10 Z" id="Icon-color"></path>
                    </g>
                </g>
            </g>
        </g>
    </g>
</svg>