<?xml version="1.0" encoding="UTF-8"?>
<svg width="24px" height="24px" viewBox="0 0 24 24" version="1.1" xmlns="http://www.w3.org/2000/svg" xmlns:xlink="http://www.w3.org/1999/xlink">
    <title>ic_message</title>
    <g id="Dispatcher_20221118" stroke="none" stroke-width="1" fill="none" fill-rule="evenodd">
        <g id="ic_message">
            <path d="M17.3428261,5 L7.65716996,5 C6.18965551,5 5,6.17165008 5,7.61695369 L5,13.9073853 C5,15.3526889 6.18965551,16.5243389 7.65716996,16.5243389 L8.24666113,16.5243389 L8.24666113,18.6765178 C8.24678378,18.9603838 8.42126288,19.2159668 8.6881336,19.3232022 C8.95500433,19.4304375 9.26122501,19.3680115 9.46294277,19.1652501 L12.1444384,16.5243389 L17.3428261,16.5243389 C18.8103405,16.5243389 20,15.3526889 20,13.9073853 L20,7.62014802 C20.0008569,6.92553546 19.721286,6.25908212 19.2228766,5.76761701 C18.7244673,5.2761519 18.0481137,5 17.3428261,5 L17.3428261,5 Z M8.74776916,11.9476647 C8.0827527,11.9476647 7.54365034,11.4167216 7.54365034,10.7617702 C7.54365034,10.1068187 8.0827527,9.5758757 8.74776916,9.5758757 C9.41278562,9.5758757 9.95188826,10.1068187 9.95188826,10.7617702 C9.95210313,11.0764273 9.82533596,11.3782694 9.59949656,11.6008405 C9.37365715,11.8234116 9.06726187,11.9484633 8.74776916,11.9484633 L8.74776916,11.9476647 Z M12.502836,11.9476647 C11.8378195,11.9476647 11.2987172,11.4167216 11.2987172,10.7617702 C11.2987172,10.1068187 11.8378195,9.5758757 12.502836,9.5758757 C13.1678525,9.5758757 13.7069551,10.1068187 13.7069551,10.7617702 C13.7071715,11.0769816 13.5799593,11.379309 13.3534178,11.6019723 C13.1268763,11.8246355 12.8196469,11.9493124 12.4995926,11.9484676 L12.502836,11.9476647 Z M16.2579029,11.9476647 C15.5928864,11.9476647 15.053784,11.4167216 15.053784,10.7617702 C15.053784,10.1068187 15.5928864,9.5758757 16.2579029,9.5758757 C16.9229193,9.5758757 17.462022,10.1068187 17.462022,10.7617702 C17.4622378,11.0768428 17.3351368,11.3790488 17.1087709,11.601689 C16.8824051,11.8243291 16.5753843,11.9490998 16.2554703,11.9484657 L16.2579029,11.9476647 Z" fill="#FFFFFF"></path>
            <rect id="Rectangle" x="0" y="0" width="24" height="24"></rect>
        </g>
    </g>
</svg>