<svg width="20" height="20" viewBox="0 0 20 20" fill="none" xmlns="http://www.w3.org/2000/svg">
    <path d="M11.154 17.222a.713.713 0 0 1-.432-.145l-4.437-3.325a.723.723 0 0 0-.433-.144H3.199a1.445 1.445 0 0 1-1.445-1.445v-4.34a1.445 1.445 0 0 1 1.445-1.446h2.655c.156 0 .308-.05.433-.145l4.43-3.324a.725.725 0 0 1 1.16.58v13.01a.725.725 0 0 1-.724.725zm4.2-1.9a.721.721 0 0 1-.06-1.02 6.47 6.47 0 0 0 0-8.618.723.723 0 0 1 1.08-.958 7.919 7.919 0 0 1 0 10.542.716.716 0 0 1-1.02.056v-.002zm-1.818-2.226a.724.724 0 0 1-.167-1.009 3.6 3.6 0 0 0 0-4.2.724.724 0 1 1 1.175-.842 5.045 5.045 0 0 1 0 5.88.724.724 0 0 1-1.008.168v.003z" fill="#fff"/>
</svg>
