<?xml version="1.0" encoding="UTF-8"?>
<svg width="24px" height="24px" viewBox="0 0 24 24" version="1.1" xmlns="http://www.w3.org/2000/svg" xmlns:xlink="http://www.w3.org/1999/xlink">
    <title>ic_message </title>
    <g id="ic_message-" stroke="none" stroke-width="1" fill="none" fill-rule="evenodd">
        <rect id="Rectangle" x="0" y="0" width="24" height="24"></rect>
        <g id="ic_message" transform="translate(3.000000, 3.000000)" fill="#FFFFFF">
            <path d="M14.5967315,0 L3.14239189,0 C1.40689677,0 0,1.38560339 0,3.09483179 L0,10.5339499 C0,12.2431783 1.40689677,13.6287817 3.14239189,13.6287817 L3.83952918,13.6287817 L3.83952918,16.1739668 C3.83967423,16.5096691 4.0460147,16.8119238 4.3616183,16.9387412 C4.6772219,17.0655586 5.03936109,16.9917331 5.27791423,16.7519458 L8.44907382,13.6287817 L14.5967315,13.6287817 C16.3322267,13.6287817 17.7391258,12.2431783 17.7391258,10.5339499 L17.7391258,3.09860943 C17.7401415,2.27715468 17.4095186,1.48900127 16.8200954,0.907790434 C16.2306722,0.326579597 15.4308107,0 14.5967315,0 L14.5967315,0 Z M4.43214382,8.21636758 C3.64568967,8.21636758 3.00814261,7.5884698 3.00814261,6.81391863 C3.00814261,6.03936746 3.64568967,5.41146968 4.43214382,5.41146968 C5.21859797,5.41146968 5.85614535,6.03936746 5.85614535,6.81391863 C5.85639946,7.18603482 5.70648352,7.54299587 5.43940391,7.80621036 C5.1723243,8.06942485 4.80997862,8.21731199 4.43214382,8.21731199 L4.43214382,8.21636758 Z M8.87291795,8.21636758 C8.0864638,8.21636758 7.44891674,7.5884698 7.44891674,6.81391863 C7.44891674,6.03936746 8.0864638,5.41146968 8.87291795,5.41146968 C9.6593721,5.41146968 10.2969195,6.03936746 10.2969195,6.81391863 C10.2971754,7.18669029 10.1467332,7.54422531 9.87882329,7.8075488 C9.61091338,8.07087229 9.24758123,8.21831617 8.86908226,8.21731708 L8.87291795,8.21636758 Z M13.3136921,8.21636758 C12.5272379,8.21636758 11.8896909,7.5884698 11.8896909,6.81391863 C11.8896909,6.03936746 12.5272379,5.41146968 13.3136921,5.41146968 C14.1001462,5.41146968 14.7376936,6.03936746 14.7376936,6.81391863 C14.7379488,7.18652625 14.5876382,7.54391755 14.3199359,7.80721374 C14.0522337,8.07050993 13.6891483,8.21806482 13.3108153,8.21731485 L13.3136921,8.21636758 Z"></path>
        </g>
    </g>
</svg>