<svg width="20" height="20" viewBox="0 0 20 20" fill="none" xmlns="http://www.w3.org/2000/svg">
    <path d="M5.546 13.451c1.892 2.569 4.225 4.17 6.408 4.39 1.465.147 4.094-.68 4.045-2.347-.024-.872-.84-1.473-1.433-2.059l-.55-.542c-1.512-1.483-2.44.534-4.01.071-.887-.262-1.382-1.134-1.914-1.77a2.781 2.781 0 0 1-.916-2.014c.195-1.362 2.638-1.591 1.822-3.344l-.324-.697c-.417-.89-.926-2.212-2.242-2.136-2.82.168-3.671 3.03-3.377 5.224a11.322 11.322 0 0 0 2.457 5.19c.011.014.024.027.034.038" fill="#fff"/>
</svg>
