<svg width="36" height="36" viewBox="0 0 36 36" fill="none" xmlns="http://www.w3.org/2000/svg">
<path d="M32.5057 12.1336C32.3022 12.1363 32.103 12.1937 31.9289 12.2998L26.3298 15.5071V11.2086C26.3223 10.6181 26.0828 10.0545 25.6636 9.64074C25.2444 9.227 24.6796 8.99669 24.0922 9.00004H5.81798C5.23058 8.99669 4.6657 9.227 4.24652 9.64074C3.82733 10.0545 3.58786 10.6181 3.58032 11.2086L3.58032 25.5439C3.58819 26.134 3.82788 26.697 4.2471 27.1101C4.66632 27.5232 5.23102 27.7528 5.81798 27.7487H24.0922C24.6791 27.7528 25.2438 27.5232 25.663 27.1101C26.0823 26.697 26.3219 26.134 26.3298 25.5439V21.2342L31.9239 24.424C32.1027 24.5488 32.3142 24.6175 32.5318 24.6215C32.6556 24.6188 32.7775 24.5907 32.8899 24.5389C33.0024 24.487 33.1032 24.4125 33.1859 24.32C33.2686 24.2274 33.3316 24.1188 33.3709 24.0008C33.4102 23.8828 33.425 23.758 33.4145 23.634V13.1347C33.4247 13.008 33.4089 12.8805 33.368 12.7602C33.3271 12.6399 33.262 12.5293 33.1768 12.4354C33.0915 12.3414 32.9879 12.2662 32.8725 12.2143C32.757 12.1623 32.6322 12.1349 32.5057 12.1336Z" fill="white"/>
</svg>
