<?xml version="1.0" encoding="UTF-8"?>
<svg width="16px" height="16px" viewBox="0 0 16 16" version="1.1" xmlns="http://www.w3.org/2000/svg" xmlns:xlink="http://www.w3.org/1999/xlink">
    <title>Group</title>
    <g id="Symbols" stroke="none" stroke-width="1" fill="none" fill-rule="evenodd">
        <g id="*card-Private" transform="translate(-170.000000, -7.000000)">
            <g id="Group" transform="translate(170.000000, 7.000000)">
                <rect id="Rectangle-Copy-19" fill-opacity="0" fill="#D8D8D8" x="0" y="0" width="16" height="16"></rect>
                <path d="M7.99999063,11.4115429 L5.01030801,13.0850391 C4.9127074,13.1396718 4.78929798,13.1048394 4.73466534,13.0072388 C4.71112588,12.9651858 4.70335413,12.9161168 4.71274639,12.868848 L5.38047313,9.50835207 L2.86502092,7.1821337 C2.78290195,7.10619242 2.77789394,6.97805927 2.85383522,6.8959403 C2.88655589,6.86055786 2.93082162,6.83800335 2.97867934,6.83232905 L6.38103978,6.42892456 L7.81608744,3.31774634 C7.86293573,3.21617941 7.98325003,3.17182119 8.08481696,3.21866948 C8.1285789,3.23885491 8.16370839,3.2739844 8.18389382,3.31774634 L9.61894147,6.42892456 L13.0213019,6.83232905 C13.1323747,6.84549851 13.2117411,6.94621677 13.1985716,7.05728958 C13.1928973,7.1051473 13.1703428,7.14941303 13.1349603,7.1821337 L10.6195081,9.50835207 L11.2872349,12.868848 C11.3090333,12.9785541 11.2377701,13.0851596 11.128064,13.1069581 C11.0807952,13.1163504 11.0317262,13.1085786 10.9896732,13.0850391 L7.99999063,11.4115429 Z" id="Star-Copy-2" fill="#FFC300"></path>
            </g>
        </g>
    </g>
</svg>