<svg width="18" height="18" viewBox="0 0 18 18" fill="none" xmlns="http://www.w3.org/2000/svg">
<path d="M18 9.6C18 9.75913 17.9368 9.91174 17.8243 10.0243C17.7117 10.1368 17.5591 10.2 17.4 10.2H10.2V17.4C10.2 17.5591 10.1368 17.7117 10.0243 17.8243C9.91174 17.9368 9.75913 18 9.6 18H8.4C8.24087 18 8.08826 17.9368 7.97574 17.8243C7.86321 17.7117 7.8 17.5591 7.8 17.4V10.2H0.6C0.44087 10.2 0.288258 10.1368 0.175736 10.0243C0.0632141 9.91174 0 9.75913 0 9.6L0 8.4C0 8.24087 0.0632141 8.08826 0.175736 7.97574C0.288258 7.86321 0.44087 7.8 0.6 7.8H7.8V0.6C7.8 0.44087 7.86321 0.288258 7.97574 0.175736C8.08826 0.0632141 8.24087 0 8.4 0L9.6 0C9.75913 0 9.91174 0.0632141 10.0243 0.175736C10.1368 0.288258 10.2 0.44087 10.2 0.6V7.8H17.4C17.5591 7.8 17.7117 7.86321 17.8243 7.97574C17.9368 8.08826 18 8.24087 18 8.4V9.6Z" fill="#CDD0D3"/>
</svg>
