<svg width="35" height="35" viewBox="0 0 35 35" fill="none" xmlns="http://www.w3.org/2000/svg">
    <path d="M31.49 11.754c-.197.003-.39.059-.559.161l-5.424 3.108v-4.165a2.173 2.173 0 0 0-.645-1.519 2.15 2.15 0 0 0-1.522-.62H5.636a2.15 2.15 0 0 0-1.522.62c-.406.401-.638.947-.645 1.52v13.887a2.17 2.17 0 0 0 .646 1.517c.406.4.953.622 1.521.619H23.34a2.147 2.147 0 0 0 1.521-.619c.406-.4.639-.946.646-1.517V20.57l5.42 3.09c.173.12.378.187.588.191a.874.874 0 0 0 .813-.601.885.885 0 0 0 .042-.356v-10.17a.901.901 0 0 0-.524-.892.889.889 0 0 0-.356-.079z" fill="#fff"/>
</svg>
