<?xml version="1.0" encoding="UTF-8"?>
<svg width="28px" height="28px" viewBox="0 0 28 28" version="1.1" xmlns="http://www.w3.org/2000/svg" xmlns:xlink="http://www.w3.org/1999/xlink">
    <title>Call type / Card / Group</title>
    <g id="Symbols" stroke="none" stroke-width="1" fill="none" fill-rule="evenodd">
        <g id="List-/-User" transform="translate(-12.000000, -17.000000)">
            <g id="Call-type-/-Card-/-Group" transform="translate(12.000000, 17.000000)">
                <circle id="타원_109" fill="#268B5C" fill-rule="nonzero" cx="14" cy="14" r="14"></circle>
                <g id="Basic-/-user" transform="translate(8.487500, 7.700000)" fill="#FFFFFF">
                    <path d="M5.5125,5.5125 C7.03473484,5.5125 8.26875,4.27848484 8.26875,2.75625 C8.26875,1.23401516 7.03473484,8.8817842e-16 5.5125,8.8817842e-16 C3.99026516,8.8817842e-16 2.75625,1.23401516 2.75625,2.75625 C2.75625,4.27848484 3.99026516,5.5125 5.5125,5.5125 Z M0,11.8125 L0,11.8125 L0,11.8125 L0.00319647691,11.6229883 C0.103084787,8.66626691 2.53145677,6.3 5.5125,6.3 C8.49354323,6.3 10.9219152,8.66626691 11.0218035,11.6229883 L11.025,11.8125 C11.025,12.2474242 10.6724242,12.6 10.2375,12.6 L0.7875,12.6 C0.35257576,12.6 5.32628579e-17,12.2474242 0,11.8125 Z" id="Icon-color"></path>
                </g>
            </g>
        </g>
    </g>
</svg>