<svg width="31" height="46" viewBox="0 0 31 46" fill="none" xmlns="http://www.w3.org/2000/svg">
<path d="M29.1747 46H4.3029C3.82005 45.998 3.35754 45.7782 3.01656 45.3887C2.67557 44.9992 2.48386 44.4717 2.48336 43.9216V26.1073H1.21589C0.89366 26.107 0.584685 25.9611 0.356743 25.7016C0.128801 25.4421 0.00050576 25.0902 0 24.7231L0 17.5467C0.00025296 17.1794 0.128437 16.8272 0.356406 16.5675C0.584375 16.3078 0.893495 16.1617 1.21589 16.1614H2.48336V9.53668C2.48386 8.98667 2.67561 8.45929 3.01662 8.06997C3.35763 7.68065 3.82013 7.4611 4.3029 7.45937H19.8392V1.38523C19.8394 1.01794 19.9676 0.665763 20.1956 0.406044C20.4236 0.146325 20.7327 0.00028819 21.0551 0L24.8241 0C25.1465 0.00028819 25.4556 0.146325 25.6836 0.406044C25.9115 0.665763 26.0397 1.01794 26.04 1.38523V7.45937H29.1757C29.6592 7.45995 30.1228 7.67896 30.4648 8.06837C30.8068 8.45778 30.9992 8.98582 31 9.53668V43.9227C30.9992 44.4737 30.8066 45.0019 30.4644 45.3914C30.1222 45.7808 29.6584 45.9997 29.1747 46ZM10.2821 25.4718C10.1223 25.4486 9.95994 25.4645 9.80593 25.5183C9.65192 25.5722 9.50974 25.6628 9.38884 25.7841C9.26795 25.9054 9.17112 26.0547 9.10479 26.2219C9.03846 26.3892 9.00416 26.5706 9.00416 26.7542C9.00416 26.9377 9.03846 27.1191 9.10479 27.2864C9.17112 27.4537 9.26795 27.6029 9.38884 27.7242C9.50974 27.8456 9.65192 27.9362 9.80593 27.99C9.95994 28.0439 10.1223 28.0597 10.2821 28.0366H22.9558C23.1156 28.0597 23.2779 28.0439 23.432 27.99C23.586 27.9362 23.7282 27.8456 23.849 27.7242C23.9699 27.6029 24.0668 27.4537 24.1331 27.2864C24.1994 27.1191 24.2337 26.9377 24.2337 26.7542C24.2337 26.5706 24.1994 26.3892 24.1331 26.2219C24.0668 26.0547 23.9699 25.9054 23.849 25.7841C23.7282 25.6628 23.586 25.5722 23.432 25.5183C23.2779 25.4645 23.1156 25.4486 22.9558 25.4718H10.2821ZM8.00884 20.0016C7.84878 19.9778 7.68611 19.9931 7.53168 20.0466C7.37724 20.1002 7.23461 20.1906 7.11331 20.3119C6.99201 20.4333 6.89482 20.5827 6.82824 20.7502C6.76166 20.9177 6.72722 21.0995 6.72722 21.2834C6.72722 21.4673 6.76166 21.6491 6.82824 21.8166C6.89482 21.9842 6.99201 22.1336 7.11331 22.2549C7.23461 22.3762 7.37724 22.4667 7.53168 22.5202C7.68611 22.5737 7.84878 22.5891 8.00884 22.5653H25.23C25.3901 22.5891 25.5527 22.5737 25.7072 22.5202C25.8616 22.4667 26.0042 22.3762 26.1255 22.2549C26.2468 22.1336 26.344 21.9842 26.4106 21.8166C26.4772 21.6491 26.5116 21.4673 26.5116 21.2834C26.5116 21.0995 26.4772 20.9177 26.4106 20.7502C26.344 20.5827 26.2468 20.4333 26.1255 20.3119C26.0042 20.1906 25.8616 20.1002 25.7072 20.0466C25.5527 19.9931 25.3901 19.9778 25.23 20.0016H8.00884ZM10.2821 14.5324C9.96379 14.5112 9.65103 14.634 9.41173 14.874C9.17244 15.114 9.02595 15.4519 9.0041 15.8143C9.02595 16.1767 9.17244 16.5146 9.41173 16.7546C9.65103 16.9946 9.96379 17.1174 10.2821 17.0962H22.9558C23.2741 17.1174 23.5869 16.9946 23.8262 16.7546C24.0655 16.5146 24.2119 16.1767 24.2338 15.8143C24.2119 15.4519 24.0655 15.114 23.8262 14.874C23.5869 14.634 23.2741 14.5112 22.9558 14.5324H10.2821Z" fill="white"/>
</svg>
