<?xml version="1.0" encoding="UTF-8"?>
<svg width="68px" height="68px" viewBox="0 0 68 68" version="1.1" xmlns="http://www.w3.org/2000/svg" xmlns:xlink="http://www.w3.org/1999/xlink">
    <title>ic_ptt_small_idel copy</title>
    <defs>
        <path d="M4.65753425,34 C4.65753425,17.7946033 17.7946033,4.65753425 34,4.65753425 C50.2053967,4.65753425 63.3424658,17.7946033 63.3424658,34 C63.3424658,50.2053967 50.2053967,63.3424658 34,63.3424658 C17.7946033,63.3424658 4.65753425,50.2053967 4.65753425,34 Z" id="path-1"></path>
        <filter x="-7.7%" y="-7.7%" width="115.3%" height="115.3%" filterUnits="objectBoundingBox" id="filter-2">
            <feOffset dx="0" dy="0" in="SourceAlpha" result="shadowOffsetOuter1"></feOffset>
            <feGaussianBlur stdDeviation="1.5" in="shadowOffsetOuter1" result="shadowBlurOuter1"></feGaussianBlur>
            <feColorMatrix values="0 0 0 0 0   0 0 0 0 0   0 0 0 0 0  0 0 0 0.4 0" type="matrix" in="shadowBlurOuter1"></feColorMatrix>
        </filter>
    </defs>
    <g id="Dispatcher_20221118_demo+container" stroke="none" stroke-width="1" fill="none" fill-rule="evenodd">
        <g id="Context-menu-basic-(Ambient-Card-)-" transform="translate(-466.000000, -234.000000)">
            <g id="ic_ptt_small_idel-copy" transform="translate(466.000000, 234.000000)">
                <rect id="btn_area" x="0" y="0" width="68" height="68"></rect>
                <g id="타원-338">
                    <use fill="black" fill-opacity="1" filter="url(#filter-2)" xlink:href="#path-1"></use>
                    <use fill="#161719" fill-rule="evenodd" xlink:href="#path-1"></use>
                </g>
                <path d="M33.9995436,8.71890411 C20.0595762,8.71890411 8.71890411,20.0602329 8.71890411,34.0002282 C8.71890411,47.9402515 20.0595762,59.2810959 33.9995436,59.2810959 C47.9396274,59.2810959 59.2810959,47.9402562 59.2810959,34.0002282 C59.2810959,20.0602329 47.9396274,8.71890411 33.9995436,8.71890411 Z M33.9995436,61.4794521 C30.2898921,61.4794521 26.6911038,60.753389 23.3034742,59.3203962 C20.031263,57.9362981 17.0924427,55.9549411 14.5687764,53.431191 C12.0450542,50.9074967 10.0637252,47.968709 8.67977151,44.6964373 C7.24691836,41.3085515 6.52054795,37.7097959 6.52054795,34.0002282 C6.52054795,30.2906326 7.24691836,26.6919282 8.67977151,23.3040192 C10.0637299,20.0317753 12.0450542,17.0929877 14.5687764,14.5692655 C17.0924427,12.0455712 20.0312584,10.0641584 23.3034742,8.68006027 C26.6911038,7.24709534 30.2898874,6.52054795 33.9995436,6.52054795 C37.7093115,6.52054795 41.3080951,7.24709534 44.6959529,8.68006027 C47.9681641,10.0640745 50.9068726,12.0455153 53.4306507,14.5692655 C55.9542005,17.0929597 57.9358137,20.0317474 59.3197721,23.3040192 C60.752737,26.6919049 61.4794521,30.2906326 61.4794521,34.0002282 C61.4794521,37.7097959 60.752737,41.3085562 59.3197721,44.6964373 C57.9358137,47.968737 55.9542052,50.9075247 53.4306507,53.431191 C50.9068726,55.954969 47.9681688,57.936354 44.6959529,59.3203962 C41.3080951,60.753389 37.7093115,61.4794521 33.9995436,61.4794521 Z" id="패스-9036" fill="#EEEEEE"></path>
                <g id="ic_Call-end" transform="translate(18.000000, 18.000000)">
                    <rect id="Rectangle-Copy-20" fill-opacity="0" fill="#D8D8D8" x="0" y="0" width="32" height="32"></rect>
                    <path d="M4.47144224,21.9231146 C4.57754491,22.0292172 4.7606203,22.0398274 4.87829788,21.9468428 L9.70520042,18.9005359 C9.84043316,18.8359097 9.95135878,18.660165 9.95135884,18.5100779 L9.95135956,16.5728354 C9.9513596,16.4527657 10.0270437,16.3283748 10.1309024,16.2619876 L10.225097,16.2208552 L10.3580224,16.1854639 C12.9637122,15.4828977 15.7089603,15.4298857 18.3356677,16.0262735 L19.1201767,16.2244293 C19.2642834,16.2662916 19.3823467,16.4233235 19.3823467,16.5730248 L19.382153,18.5112318 C19.382153,18.6309929 19.4530218,18.7675451 19.5507073,18.8505629 L24.4550185,21.9470284 C24.572696,22.0400129 24.7561573,22.0294026 24.86226,21.9232999 L26.3019778,20.4831963 C26.3815548,20.4036192 26.4570084,20.2660956 26.4957841,20.1393149 L26.5238369,19.9901338 L26.6084074,18.9125771 L26.6528753,18.0589634 L26.6663252,17.4824073 C26.6708521,16.8294155 26.6312531,16.2776301 26.4945076,16.167324 C23.0515723,13.3895565 18.8587798,11.9998055 14.6673371,12 C10.4741582,12 6.2819434,13.3895627 2.83900606,16.1677187 C2.70197615,16.2780249 2.66238048,16.8297841 2.66702502,17.4827428 L2.68059972,18.0592693 L2.70839903,18.6377473 L2.77689526,19.6100951 L2.81296123,20.018861 C2.82742972,20.1679835 2.92620162,20.3771023 3.03230428,20.4832049 L4.47144224,21.9231146 Z" id="Icon-color" fill="#FFFFFF" fill-rule="nonzero" transform="translate(14.666667, 17.005188) scale(1, -1) rotate(-45.000000) translate(-14.666667, -17.005188) "></path>
                    <polygon id="Fill-1" fill="#FF291B" transform="translate(22.000000, 10.000104) rotate(45.000000) translate(-22.000000, -10.000104) " points="20.9462901 5.33333333 20.9462901 8.94629008 17.3333333 8.94629008 17.3333333 11.0539173 20.9458753 11.0539173 20.9458753 14.6668741 23.0537099 14.6668741 23.0537099 11.0535025 26.6666667 11.0535025 26.6666667 8.94608268 23.0537099 8.94608268 23.0537099 5.33333333"></polygon>
                </g>
            </g>
        </g>
    </g>
</svg>