<svg width="48" height="48" viewBox="0 0 48 48" fill="none" xmlns="http://www.w3.org/2000/svg">
<path d="M42 0H6C2.68629 0 0 2.68629 0 6V42C0 45.3137 2.68629 48 6 48H42C45.3137 48 48 45.3137 48 42V6C48 2.68629 45.3137 0 42 0Z" fill="#33363A"/>
<path d="M42 0.75H6C3.10051 0.75 0.75 3.10051 0.75 6V42C0.75 44.8995 3.10051 47.25 6 47.25H42C44.8995 47.25 47.25 44.8995 47.25 42V6C47.25 3.10051 44.8995 0.75 42 0.75Z" stroke="#3F4246" stroke-width="1.25" stroke-miterlimit="10"/>
<path d="M33 24.6C33 24.7591 32.9368 24.9117 32.8243 25.0243C32.7117 25.1368 32.5591 25.2 32.4 25.2H25.2V32.4C25.2 32.5591 25.1368 32.7117 25.0243 32.8243C24.9117 32.9368 24.7591 33 24.6 33H23.4C23.2409 33 23.0883 32.9368 22.9757 32.8243C22.8632 32.7117 22.8 32.5591 22.8 32.4V25.2H15.6C15.4409 25.2 15.2883 25.1368 15.1757 25.0243C15.0632 24.9117 15 24.7591 15 24.6V23.4C15 23.2409 15.0632 23.0883 15.1757 22.9757C15.2883 22.8632 15.4409 22.8 15.6 22.8H22.8V15.6C22.8 15.4409 22.8632 15.2883 22.9757 15.1757C23.0883 15.0632 23.2409 15 23.4 15H24.6C24.7591 15 24.9117 15.0632 25.0243 15.1757C25.1368 15.2883 25.2 15.4409 25.2 15.6V22.8H32.4C32.5591 22.8 32.7117 22.8632 32.8243 22.9757C32.9368 23.0883 33 23.2409 33 23.4V24.6Z" fill="#CDD0D3"/>
</svg>
