<svg width="64" height="64" viewBox="0 0 64 64" fill="none" xmlns="http://www.w3.org/2000/svg">
<path d="M32 64C49.6731 64 64 49.6731 64 32C64 14.3269 49.6731 0 32 0C14.3269 0 0 14.3269 0 32C0 49.6731 14.3269 64 32 64Z" fill="#DEDEDE"/>
<path d="M38.9482 36.0698C38.9482 36.388 39.0746 36.6933 39.2996 36.9183C39.5247 37.1433 39.8299 37.2698 40.1482 37.2698H46.4482C46.7807 37.2745 47.1028 37.1535 47.35 36.9311C47.5972 36.7086 47.7513 36.401 47.7815 36.0698V32.6031C47.7784 31.5503 47.4519 30.5238 46.8461 29.6626C46.2404 28.8015 45.3847 28.1472 44.3948 27.7884C40.3519 26.3225 36.0819 25.5818 31.7815 25.6004C27.481 25.5823 23.211 26.3234 19.1682 27.7898C18.1783 28.1486 17.3226 28.8028 16.7169 29.664C16.1111 30.5251 15.7846 31.5516 15.7815 32.6044V36.0711C15.7815 36.3894 15.9079 36.6946 16.133 36.9196C16.358 37.1447 16.6632 37.2711 16.9815 37.2711H23.4135C23.5711 37.2711 23.7271 37.2401 23.8727 37.1798C24.0183 37.1195 24.1506 37.0311 24.262 36.9196C24.3735 36.8082 24.4618 36.6759 24.5222 36.5303C24.5825 36.3847 24.6135 36.2287 24.6135 36.0711V32.0871C24.6125 31.861 24.6878 31.6412 24.8271 31.4631C24.9665 31.285 25.1618 31.1591 25.3815 31.1058C27.4783 30.6036 29.6255 30.3419 31.7815 30.3258C33.9375 30.3419 36.0847 30.6036 38.1815 31.1058C38.401 31.1594 38.596 31.2854 38.7351 31.4634C38.8742 31.6415 38.9492 31.8612 38.9482 32.0871V36.0698Z" fill="#C12335"/>
</svg>
