<?xml version="1.0" encoding="UTF-8"?>
<svg width="16px" height="16px" viewBox="0 0 16 16" version="1.1" xmlns="http://www.w3.org/2000/svg" xmlns:xlink="http://www.w3.org/1999/xlink">
    <title>Group</title>
    <g id="Symbols" stroke="none" stroke-width="1" fill="none" fill-rule="evenodd">
        <g id="*card-Private" transform="translate(-150.000000, -7.000000)">
            <g id="Group" transform="translate(150.000000, 7.000000)">
                <rect id="Rectangle" x="0" y="0" width="16" height="16"></rect>
                <g id="Basic-/-user-Copy-3" transform="translate(2.814550, 2.814550)" fill="#FFFFFF">
                    <path d="M0.942809042,2.22044605e-16 L3.989,3.047 L3.99,3.046 L7.185,6.241 L10.3708995,9.42809042 L9.42809042,10.3708995 L7.185,8.127 L7.18544973,9.31167628 C7.18544973,9.58781866 6.9615921,9.81167628 6.68544973,9.81167628 C6.55284148,9.81167628 6.42566453,9.75899786 6.33189634,9.66522967 L3.8521164,7.18544973 L1.68544973,7.18544973 C1.40930735,7.18544973 1.18544973,6.9615921 1.18544973,6.68544973 L1.18544973,3.68544973 C1.18544973,3.40930735 1.40930735,3.18544973 1.68544973,3.18544973 L2.243,3.185 L1.11022302e-16,0.942809042 L0.942809042,2.22044605e-16 Z M7.03900312,0.705669786 C7.13277131,0.799437975 7.18544973,0.926614932 7.18544973,1.05922318 L7.185,4.355 L4.933,2.103 L6.33189634,0.705669786 C6.52715848,0.51040764 6.84374097,0.51040764 7.03900312,0.705669786 Z" id="Icon-color"></path>
                </g>
            </g>
        </g>
    </g>
</svg>