<svg width="36" height="36" viewBox="0 0 36 36" fill="none" xmlns="http://www.w3.org/2000/svg">
    <path d="M7.186 25.698c2.954 4.05 6.6 6.573 10.008 6.92 2.289.233 6.394-1.072 6.318-3.699-.038-1.375-1.311-2.323-2.239-3.246-.287-.286-.572-.572-.859-.855-2.36-2.339-3.809.842-6.264.112-1.384-.414-2.157-1.788-2.987-2.791a4.427 4.427 0 0 1-1.431-3.175c.305-2.147 4.12-2.508 2.845-5.273-.168-.36-.337-.733-.506-1.099-.65-1.403-1.445-3.487-3.501-3.366-4.406.264-5.734 4.778-5.274 8.236a17.923 17.923 0 0 0 3.838 8.183c.017.022.036.042.051.059M18.227 10.172a1.205 1.205 0 0 0-1.07 1.21 1.201 1.201 0 0 0 1.102 1.183 7.264 7.264 0 0 1 4.912 2.08c1.307 1.443 1.819 3.59 1.518 6.392a1.194 1.194 0 0 0 1.064 1.318 1.2 1.2 0 0 0 1.32-1.062c.378-3.522-.341-6.306-2.143-8.277a9.616 9.616 0 0 0-6.701-2.844" fill="#fff"/>
    <path d="M29.677 8.956a15.448 15.448 0 0 0-10.77-4.569 1.205 1.205 0 0 0-1.18 1.215 1.195 1.195 0 0 0 1.216 1.177 13.134 13.134 0 0 1 8.962 3.79c2.41 2.645 3.364 6.533 2.824 11.568a1.194 1.194 0 0 0 1.063 1.316 1.2 1.2 0 0 0 1.318-1.062c.614-5.74-.54-10.26-3.433-13.435z" fill="#fff"/>
</svg>
