<svg width="36" height="36" viewBox="0 0 36 36" fill="none" xmlns="http://www.w3.org/2000/svg">
    <path d="M34.057 14.604a.905.905 0 0 0-.71-.637L23.27 12.425l-4.513-9.66a.886.886 0 0 0-.792-.524.881.881 0 0 0-.792.523l-4.507 9.661-10.071 1.542a.895.895 0 0 0-.71.637.98.98 0 0 0 .222.959L9.4 23.079l-1.724 10.62a.954.954 0 0 0 .349.911.848.848 0 0 0 .925.074l9.013-5.015 9.013 5.015a.848.848 0 0 0 .932-.074.954.954 0 0 0 .349-.911l-1.724-10.62 7.295-7.516a.962.962 0 0 0 .222-.959h.006z" fill="#E9BD2E"/>
</svg>
