<svg width="14" height="10" viewBox="0 0 14 10" fill="none" xmlns="http://www.w3.org/2000/svg">
    <path d="M11.496 5.837a5.49 5.49 0 0 0-8.985 0 .841.841 0 0 0 1.376.967 3.806 3.806 0 0 1 6.232 0 .835.835 0 0 0 .69.358.841.841 0 0 0 .688-1.325h-.001z" fill="#25C82D"/>
    <path d="M13.863 3.565a8.385 8.385 0 0 0-13.723 0 .852.852 0 0 0 1.395.98 6.68 6.68 0 0 1 10.93 0 .853.853 0 0 0 1.395-.98h.003z" fill="#818181"/>
    <path d="M7.766 7.355A1.212 1.212 0 0 0 5.796 8.4a1.214 1.214 0 0 0 2.153.662 1.217 1.217 0 0 0-.182-1.703" fill="#25C82D"/>
</svg>
