<?xml version="1.0" encoding="UTF-8"?>
<svg width="540px" height="41px" viewBox="0 0 540 41" version="1.1" xmlns="http://www.w3.org/2000/svg" xmlns:xlink="http://www.w3.org/1999/xlink">
    <title>Group 3</title>
    <g id="Dispatcher_20221118_demo+container" stroke="none" stroke-width="1" fill="none" fill-rule="evenodd">
        <g id="Login" transform="translate(-320.000000, -96.000000)">
            <g id="Group-3" transform="translate(320.000000, 96.000000)">
                <rect id="Rectangle" x="229" y="23" width="234" height="18"></rect>
                <g id="logo">
                    <g id="APP-name-Copy" transform="translate(354.000000, 5.000000)" fill="#FFFFFF" fill-rule="nonzero">
                        <path d="M9.18660287,27 C6.26794258,27 4.00717703,26.1431925 2.40430622,24.4295775 C0.801435407,22.7159624 0,20.3098592 0,17.2112676 C0,15.1690141 0.370813397,13.379108 1.11244019,11.8415493 C1.85406699,10.3039906 2.90669856,9.11267606 4.27033493,8.26760563 C5.63397129,7.42253521 7.21291866,7 9.00717703,7 C10.0598086,7 11.0944976,7.14671362 12.111244,7.44014085 C13.1279904,7.73356808 14.0191388,8.15023474 14.784689,8.69014085 L13.2416268,11.9295775 C11.638756,11.1784038 10.2033493,10.8028169 8.9354067,10.8028169 C7.47607656,10.8028169 6.34569378,11.342723 5.54425837,12.4225352 C4.74282297,13.5023474 4.34210526,15.0164319 4.34210526,16.9647887 C4.34210526,21.1197183 6.02870813,23.1971831 9.40191388,23.1971831 C10.7416268,23.1971831 12.1172249,22.8333333 13.5287081,22.1056338 L15,25.3098592 C13.4449761,26.4366197 11.507177,27 9.18660287,27 Z" id="Path"></path>
                        <path d="M26.1441441,1 C30.012012,1 32.954955,2.0893186 34.972973,4.2679558 C36.990991,6.446593 38,9.6786372 38,13.9640884 C38,18.2734807 36.984985,21.5234807 34.954955,23.7140884 C32.9249249,25.9046961 29.975976,27 26.1081081,27 L18,27 L18,1 L26.1441441,1 Z M26.0720721,23.1574586 C28.5465465,23.1574586 30.4084084,22.3853591 31.6576577,20.8411602 C32.9069069,19.2969613 33.5315315,17.0046041 33.5315315,13.9640884 C33.5315315,7.88305709 31.033033,4.84254144 26.036036,4.84254144 L22.3243243,4.84254144 L22.3243243,23.1574586 L26.0720721,23.1574586 Z" id="Shape"></path>
                        <path d="M42.4794521,8.47244094 L46.5205479,8.47244094 L46.5205479,27 L42.4794521,27 L42.4794521,8.47244094 Z M44.5,5.81102362 C43.7237443,5.81102362 43.1130137,5.59492563 42.6678082,5.16272966 C42.2226027,4.73053368 42,4.15048119 42,3.42257218 C42,2.64916885 42.216895,2.05205599 42.6506849,1.6312336 C43.0844749,1.2104112 43.7009132,1 44.5,1 C45.2762557,1 45.8869863,1.21609799 46.3321918,1.64829396 C46.7773973,2.08048994 47,2.66054243 47,3.38845144 C47,4.16185477 46.783105,4.75896763 46.3493151,5.17979003 C45.9155251,5.60061242 45.2990868,5.81102362 44.5,5.81102362 Z" id="Shape"></path>
                        <path d="M55.7764128,27 C54.5151515,27 53.2940213,26.8353909 52.1130221,26.5061728 C50.9320229,26.1769547 49.8943489,25.7184009 49,25.1305115 L50.4103194,21.7442681 C52.1072891,22.8024691 53.8959869,23.3315697 55.7764128,23.3315697 C57.977887,23.3315697 59.0786241,22.6261023 59.0786241,21.2151675 C59.0786241,20.6507937 58.8894349,20.1922399 58.5110565,19.8395062 C58.1326781,19.4867725 57.5307125,19.2045855 56.7051597,18.9929453 L54.2628993,18.3932981 C52.5429975,17.9935332 51.2874693,17.3644915 50.4963145,16.5061728 C49.7051597,15.6478542 49.3095823,14.4779541 49.3095823,12.9964727 C49.3095823,11.1152263 49.9115479,9.64550265 51.1154791,8.58730159 C52.3194103,7.52910053 54.022113,7 56.2235872,7 C57.3243243,7 58.4250614,7.14109347 59.5257985,7.42328042 C60.6265356,7.70546737 61.6240786,8.09347443 62.5184275,8.58730159 L60.970516,11.9382716 C59.3652744,11.0917108 57.7600328,10.6684303 56.1547912,10.6684303 C54.1826372,10.6684303 53.1965602,11.3151088 53.1965602,12.6084656 C53.1965602,13.1258083 53.3914824,13.5549677 53.7813268,13.8959436 C54.1711712,14.2369195 54.7788698,14.5132275 55.6044226,14.7248677 L58.046683,15.324515 C59.7895168,15.7477954 61.0507781,16.3944738 61.8304668,17.2645503 C62.6101556,18.1346267 63,19.3221634 63,20.8271605 C63,22.7789536 62.3693694,24.2957084 61.1081081,25.377425 C59.8468468,26.4591417 58.0696151,27 55.7764128,27 Z" id="Path"></path>
                        <path d="M76.5010941,8 C78.5579869,8 80.1553611,8.85190039 81.2932166,10.5557012 C82.4310722,12.259502 83,14.6448231 83,17.7116645 C83,20.7785059 82.4201313,23.1581477 81.2603939,24.8505898 C80.1006565,26.5430319 78.4704595,27.3892529 76.3698031,27.3892529 C75.4507659,27.3892529 74.6028446,27.2131935 73.8260394,26.8610747 C73.0492341,26.5089559 72.3982495,26.003495 71.8730853,25.344692 L71.8730853,34 L68,34 L68,8.4429882 L71.512035,8.4429882 L71.512035,11.0327654 C72.6717724,9.0109218 74.3347921,8 76.5010941,8 Z M75.4507659,23.7771953 C77.8358862,23.7771953 79.0284464,21.8007864 79.0284464,17.8479685 C79.0284464,13.8042813 77.7811816,11.7824377 75.2866521,11.7824377 C74.6301969,11.7824377 74.0339168,11.9187418 73.4978118,12.1913499 C72.9617068,12.4639581 72.4201313,12.9069463 71.8730853,13.5203145 L71.8730853,22.0733945 C72.3326039,22.6186107 72.8741794,23.0388816 73.4978118,23.3342071 C74.1214442,23.6295325 74.7724289,23.7771953 75.4507659,23.7771953 Z" id="Shape"></path>
                        <path d="M93.8472222,7 C96.0925926,7 97.8460648,7.54085832 99.1076389,8.62257496 C100.369213,9.70429159 101,11.244562 101,13.2433862 L101,26.6119929 L97.3194444,26.6119929 L97.3194444,23.9312169 C96.1388889,25.9770723 94.275463,27 91.7291667,27 C89.900463,27 88.4884259,26.494415 87.4930556,25.4832451 C86.4976852,24.4720752 86,23.0611405 86,21.2504409 C86,18.9694297 86.8738426,17.2939447 88.6215278,16.2239859 C90.369213,15.154027 93.1412037,14.6072898 96.9375,14.5837743 L96.9375,13.70194 C96.9375,11.7266314 95.6759259,10.7389771 93.1527778,10.7389771 C91.6712963,10.7389771 90.2013889,11.0681952 88.7430556,11.7266314 L87.7013889,8.48148148 C89.7152778,7.49382716 91.7638889,7 93.8472222,7 Z M92.7361111,23.4373898 C94.3796296,23.4373898 95.7800926,22.7789536 96.9375,21.4620811 L96.9375,17.4409171 C94.5069444,17.4879483 92.7361111,17.7877719 91.625,18.340388 C90.5138889,18.8930041 89.9583333,19.7572016 89.9583333,20.9329806 C89.9583333,22.6025867 90.8842593,23.4373898 92.7361111,23.4373898 Z" id="Shape"></path>
                        <path d="M112.859504,27 C108.848485,27 106.842975,24.982906 106.842975,20.9487179 L106.842975,11.6495726 L104,11.6495726 L104,8.16239316 L106.842975,8.16239316 L106.842975,3 L110.743802,3 L110.743802,8.16239316 L115.768595,8.16239316 L115.768595,11.6495726 L110.743802,11.6495726 L110.743802,20.2649573 C110.743802,21.3589744 110.958678,22.1509972 111.38843,22.6410256 C111.818182,23.1310541 112.517906,23.3760684 113.487603,23.3760684 C114.104683,23.3760684 114.743802,23.2849003 115.404959,23.1025641 L116,26.5213675 C115.008264,26.8404558 113.961433,27 112.859504,27 Z" id="Path"></path>
                        <path d="M128.186603,27 C125.267943,27 123.007177,26.1431925 121.404306,24.4295775 C119.801435,22.7159624 119,20.3098592 119,17.2112676 C119,15.1690141 119.370813,13.379108 120.11244,11.8415493 C120.854067,10.3039906 121.906699,9.11267606 123.270335,8.26760563 C124.633971,7.42253521 126.212919,7 128.007177,7 C129.059809,7 130.094498,7.14671362 131.111244,7.44014085 C132.12799,7.73356808 133.019139,8.15023474 133.784689,8.69014085 L132.241627,11.9295775 C130.638756,11.1784038 129.203349,10.8028169 127.935407,10.8028169 C126.476077,10.8028169 125.345694,11.342723 124.544258,12.4225352 C123.742823,13.5023474 123.342105,15.0164319 123.342105,16.9647887 C123.342105,21.1197183 125.028708,23.1971831 128.401914,23.1971831 C129.741627,23.1971831 131.117225,22.8333333 132.528708,22.1056338 L134,25.3098592 C132.444976,26.4366197 130.507177,27 128.186603,27 Z" id="Path"></path>
                        <path d="M146.336384,7.5038961 C148.144165,7.5038961 149.540046,8.0474026 150.524027,9.13441558 C151.508009,10.2214286 152,11.7467532 152,13.7103896 L152,27 L147.949657,27 L147.949657,14.2363636 C147.949657,12.3428571 146.919908,11.3961039 144.860412,11.3961039 C144.15103,11.3961039 143.487414,11.512987 142.869565,11.7467532 C142.251716,11.9805195 141.645309,12.3428571 141.050343,12.8337662 L141.050343,27 L137,27 L137,0 L141.050343,0 L141.050343,9.85324675 C142.514874,8.28701299 144.276888,7.5038961 146.336384,7.5038961 Z" id="Path"></path>
                        <path d="M171,16.2253521 C171,16.9530516 170.938937,17.6455399 170.81681,18.3028169 L158.396552,18.3028169 C158.738506,21.5892019 160.509339,23.2323944 163.709052,23.2323944 C165.443247,23.2323944 167.067529,22.8215962 168.581897,22 L170.157328,25.1338028 C169.253592,25.7206573 168.197198,26.1784038 166.988147,26.5070423 C165.779095,26.8356808 164.539511,27 163.269397,27 C160.313937,27 158.030172,26.1255869 156.418103,24.3767606 C154.806034,22.6279343 154,20.1807512 154,17.0352113 C154,13.842723 154.757184,11.3720657 156.271552,9.62323944 C157.78592,7.87441315 159.91092,7 162.646552,7 C165.284483,7 167.336207,7.80985915 168.801724,9.42957746 C170.267241,11.0492958 171,13.314554 171,16.2253521 Z M162.536638,10.6619718 C160.118534,10.6619718 158.738506,12.2347418 158.396552,15.3802817 L166.676724,15.3802817 C166.627874,13.8779343 166.243175,12.7159624 165.522629,11.8943662 C164.802083,11.07277 163.806753,10.6619718 162.536638,10.6619718 Z" id="Shape"></path>
                        <path d="M183.814103,7 C184.636752,7 185.365385,7.15643803 186,7.46931408 L185.153846,11.5126354 C184.448718,11.2719615 183.684829,11.1516245 182.862179,11.1516245 C182.016026,11.1516245 181.299145,11.3080626 180.711538,11.6209386 C180.123932,11.9338147 179.606838,12.4392298 179.160256,13.1371841 L179.160256,27 L175,27 L175,7.39711191 L178.772436,7.39711191 L178.772436,10.3935018 C179.94765,8.13116727 181.628205,7 183.814103,7 Z" id="Path"></path>
                    </g>
                    <g id="Divider-/-Vertical-Copy" transform="translate(326.000000, 0.000000)" fill="#FFFFFF">
                        <polygon id="Shape" points="0 0 1 0 1 38 0 38"></polygon>
                    </g>
                    <g id="Group-9" transform="translate(0.000000, 4.000000)">
                        <g id="Group-17-Copy" transform="translate(2.000000, 3.000000)" fill="#FFFFFF">
                            <path d="M156.950833,11.4189461 L156.950833,14.958739 L159.372705,14.958739 L159.372705,18.4704064 C159.379225,18.7838047 159.363575,19.1226498 159.311408,19.3931901 C159.214898,20.0481121 158.608452,21.1624169 156.889536,21.1624169 C155.181054,21.1624169 154.586346,20.0481121 154.482011,19.3931901 C154.437669,19.1226498 154.420714,18.7838047 154.420714,18.4704064 L154.420714,7.37691238 C154.420714,6.98583423 154.445494,6.55591614 154.527657,6.23180343 C154.64373,5.64116829 155.15497,4.47329109 156.876495,4.47329109 C158.684095,4.47329109 159.135343,5.70277649 159.238373,6.23180343 C159.307495,6.581363 159.311408,7.16798022 159.311408,7.16798022 L159.311408,8.51398547 L165.262404,8.51398547 L165.262404,7.7184361 C165.262404,7.7184361 165.289792,6.88672539 165.218061,6.11126565 C164.769422,1.56029465 161.117704,0.119198475 156.928662,0.119198475 C152.734403,0.119198475 149.154415,1.57234843 148.632742,6.11126565 C148.585791,6.52779066 148.514061,7.27378561 148.514061,7.7184361 L148.514061,17.9212899 C148.514061,18.3659403 148.528407,18.7088034 148.609266,19.5217638 C148.996609,23.9481791 152.734403,25.5178489 156.913012,25.5178489 C161.117704,25.5178489 164.82811,23.9481791 165.223278,19.5217638 C165.2924,18.7088034 165.300225,18.3659403 165.309354,17.9212899 L165.309354,11.4189461 L156.950833,11.4189461 Z M115.912045,0.772781126 L109.934966,0.772781126 L109.934966,18.7262144 C109.945399,19.0382733 109.934966,19.3905115 109.882798,19.6489981 C109.757597,20.251687 109.262006,21.410189 107.612212,21.410189 C105.98459,21.410189 105.473349,20.251687 105.358581,19.6489981 C105.299893,19.3905115 105.292067,19.0382733 105.299893,18.7262144 L105.299893,0.772781126 L99.3228129,0.772781126 L99.3228129,18.169062 C99.316292,18.6163911 99.3502008,19.5338175 99.3762845,19.7722145 C99.7884069,24.3071138 103.267972,25.7790141 107.612212,25.7790141 C111.965582,25.7790141 115.442539,24.3071138 115.861182,19.7722145 C115.895091,19.5338175 115.938129,18.6163911 115.912045,18.169062 L115.912045,0.772781126 Z M60.9967299,0.772781126 L58.0153631,19.7427497 L55.0339963,0.772781126 L45.3947654,0.772781126 L44.8822207,25.041055 L50.7901785,25.041055 L50.9492891,2.57415134 L55.0131294,25.041055 L61.0058592,25.041055 L65.073612,2.57415134 L65.2340268,25.041055 L71.1550265,25.041055 L70.6268315,0.772781126 L60.9967299,0.772781126 Z M25.3011879,0.772781126 L20.9230391,25.041055 L27.3070244,25.041055 L30.6053081,2.57415134 L33.8253408,25.041055 L40.1649838,25.041055 L35.8050935,0.772781126 L25.3011879,0.772781126 Z M136.801176,20.3119559 L131.234914,0.772781126 L122.465575,0.772781126 L122.465575,24.7879256 L128.266589,24.7879256 L127.93011,4.62329367 L133.907189,24.7879256 L142.317878,24.7879256 L142.317878,0.772781126 L136.479042,0.772781126 L136.801176,20.3119559 Z M83.1378777,7.08896101 C83.0322388,6.60814918 83.0635392,6.09921187 83.118315,5.83268943 C83.287859,5.05589038 83.7951869,4.20944728 85.2597866,4.20944728 C86.6239641,4.20944728 87.4247336,5.08401587 87.4247336,6.39385978 L87.4247336,7.87781384 L93.2505278,7.87781384 L93.2505278,6.18760624 C93.2505278,0.957605728 88.6858805,0.136609488 85.3810758,0.136609488 C81.2181175,0.136609488 77.8181073,1.54556225 77.1973153,5.47911194 C77.0342922,6.5505589 76.9925583,7.50146809 77.2546994,8.71354247 C78.266747,13.6207696 86.5835344,15.0431154 87.7899054,18.1449544 C88.0037918,18.7342502 87.9424951,19.4829238 87.8329435,19.9248957 C87.6516618,20.7324988 87.1234669,21.5454592 85.5558366,21.5454592 C84.084716,21.5454592 83.2004786,20.6762479 83.2004786,19.3677433 L83.1978702,17.0373461 L76.927349,17.0373461 L76.927349,18.8896101 C76.927349,24.2548808 81.0185772,25.8727657 85.4254181,25.8727657 C89.6470648,25.8727657 93.131847,24.3928295 93.6926465,20.3762427 C93.9587002,18.3029928 93.7578557,16.9516304 93.6509126,16.442693 C92.6740781,11.4095709 83.809533,9.89615206 83.1378777,7.08896101 L83.1378777,7.08896101 Z M6.2809547,7.02869211 C6.16749061,6.53850513 6.19357431,6.02287127 6.25747937,5.75500953 C6.41789412,4.97954979 6.9304388,4.11837429 8.41981801,4.11837429 C9.80225405,4.11837429 10.6160655,5.00097873 10.6160655,6.32153711 L10.6160655,7.82424149 L16.5109814,7.82424149 L16.5109814,6.1193015 C16.5109814,0.84108587 11.8759081,0 8.53458628,0 C4.33641494,0 0.907712722,1.4303817 0.279095578,5.39339618 C0.106943166,6.47957554 0.0782510967,7.43718127 0.326046236,8.66398805 C1.34983142,13.6247875 9.74878247,15.0605265 10.9708038,18.1998661 C11.1990361,18.7838047 11.1299143,19.5338175 11.0177544,19.9918611 C10.8234309,20.8088394 10.2900192,21.631175 8.70934707,21.631175 C7.23170552,21.631175 6.34877232,20.7485705 6.34877232,19.4226549 L6.34225139,17.0855612 L0,17.0855612 L0,18.9418431 C0,24.368722 4.1499165,26 8.59066624,26 C12.8605677,26 16.3675211,24.5053315 16.9400583,20.4432082 C17.2230664,18.351208 17.0104842,16.9877917 16.9139746,16.4708185 C15.9162731,11.3787668 6.95391413,9.86936589 6.2809547,7.02869211 L6.2809547,7.02869211 Z" id="Fill-1"></path>
                            <polygon id="Fill-3" points="185.614862 0.590635141 190.08952 0.590635141 197.412519 11.0359038 205.034176 0.590635141 209.30799 0.590635141 209.30799 25.4307938 204.802031 25.4307938 204.802031 8.00906609 197.37861 18.2855818 190.120821 8.17781899 190.120821 25.4307938 185.614862 25.4307938"></polygon>
                            <path d="M225.125014,25.463339 C223.269159,25.463339 221.572415,25.137887 220.039997,24.4869829 C218.504972,23.832061 217.194266,22.9467779 216.113096,21.8271159 C215.031927,20.7087931 214.189424,19.3935919 213.593411,17.8761552 C212.997399,16.3587184 212.69874,14.7354762 212.69874,13.0104466 C212.69874,11.194344 213.01957,9.53092258 213.661229,8.0121465 C214.300279,6.49470973 215.1793,5.18218719 216.295682,4.07725751 C217.409456,2.9696492 218.726683,2.10579509 220.238233,1.48569515 C221.751088,0.86559522 223.380015,0.554875599 225.125014,0.554875599 C226.25183,0.554875599 227.340825,0.704878174 228.390694,1.00354402 C229.439258,1.30220986 230.42131,1.72275279 231.338152,2.2611549 C232.254994,2.80089631 233.083151,3.45715757 233.823928,4.22726008 C234.562097,4.99736259 235.199843,5.85184155 235.728038,6.79471488 L231.785487,9.2577036 C231.078619,7.97866378 230.183948,6.96748571 229.102779,6.22952661 C228.019001,5.48621027 226.693949,5.11656107 225.125014,5.11656107 C223.976028,5.11656107 222.917029,5.31745737 221.945412,5.7219286 C220.971185,6.12639984 220.133899,6.68355226 219.42703,7.39204657 C218.720162,8.10054087 218.167188,8.93760882 217.768107,9.89789316 C217.372939,10.8595168 217.172095,11.8948025 217.172095,13.007768 C217.172095,14.1019832 217.372939,15.1238758 217.768107,16.070767 C218.167188,17.0203369 218.714945,17.8507083 219.410076,18.5605419 C220.106511,19.2690362 220.934668,19.8288673 221.893244,20.2306599 C222.857037,20.6351311 223.901689,20.8360274 225.025896,20.8360274 C226.705687,20.8360274 228.123336,20.4208417 229.282756,19.5877917 C230.444785,18.756081 231.343368,17.6899912 231.985027,16.3948797 L236.094514,18.5029516 C235.563711,19.5288621 234.916835,20.4703961 234.156495,21.328893 C233.392243,22.1914078 232.541914,22.9266883 231.605509,23.5387524 C230.663888,24.1534951 229.650536,24.6276104 228.555021,24.9624375 C227.463418,25.2972647 226.319648,25.463339 225.125014,25.463339" id="Fill-5"></path>
                            <path d="M243.598925,4.9644156 L243.627617,14.1199299 L247.074577,14.1078762 C247.738408,14.1051975 248.344854,13.9833205 248.896524,13.7409056 C249.448194,13.5011693 249.922917,13.1730387 250.316781,12.7498171 C250.714558,12.3306135 251.022345,11.8431051 251.242753,11.2859527 C251.459247,10.727461 251.567495,10.1314686 251.564932,9.49797558 C251.563582,8.86046464 251.451422,8.26581157 251.231015,7.71267707 C251.007999,7.15686396 250.696299,6.67605213 250.295914,6.26756297 C249.898138,5.86175243 249.42211,5.54031834 248.869136,5.3032607 C248.314857,5.06754237 247.707107,4.9496832 247.045885,4.95231717 L243.598925,4.9644156 Z M239.07862,0.694699428 L247.362802,0.665142796 C248.622645,0.659877402 249.782065,0.888899191 250.843672,1.3509607 C251.906583,1.81168289 252.823425,2.43714006 253.599415,3.22867151 C254.376709,4.01886365 254.985763,4.95236182 255.431795,6.02782671 C255.877826,7.10730953 256.10345,8.2550971 256.107414,9.48190388 C256.111275,10.706032 255.893476,11.8631948 255.45527,12.9547314 C255.017064,14.0435893 254.413226,14.9864627 253.641149,15.7846907 C252.869071,16.5829187 251.949621,17.2137331 250.881493,17.6824911 C249.812062,18.1525885 248.647425,18.3883068 247.387582,18.3923247 L243.643267,18.4057178 L243.666742,25.5174471 L239.160783,25.5321795 L239.07862,0.694699428 Z" id="Fill-7"></path>
                            <polygon id="Fill-9" points="264.256953 5.02843455 257.793413 5.0512028 257.777763 0.62880544 275.240799 0.567197239 275.256449 4.9895946 268.762912 5.01236285 268.829426 25.4287848 264.324771 25.4448565"></polygon>
                            <polygon id="Fill-11" points="287.900392 16.8231906 282.924926 25.3813733 277.854255 25.397445 285.202033 12.8173183 277.939027 0.557286355 282.974485 0.54121465 287.873004 8.79269562 292.716747 0.506392623 297.786114 0.48898161 290.537454 12.798568 298 25.3291403 292.963238 25.345212"></polygon>
                        </g>
                        <rect id="Rectangle" x="0" y="0" width="300" height="29"></rect>
                    </g>
                </g>
            </g>
        </g>
    </g>
</svg>