<svg width="520" height="90" viewBox="0 0 520 90" fill="none" xmlns="http://www.w3.org/2000/svg">
    <g clip-path="url(#hrcxqovk7a)" fill="#fff">
        <path d="M261.386 26.781h9.326c2.885 0 5.434.448 7.674 1.343 2.241.896 4.145 2.127 5.686 3.694 1.54 1.567 2.716 3.414 3.528 5.541.785 2.127 1.205 4.45 1.205 6.94s-.448 4.813-1.317 6.968c-.868 2.155-2.1 4.002-3.668 5.541-1.569 1.54-3.473 2.77-5.658 3.666-2.184.896-4.565 1.343-7.169 1.343h-9.607V26.781zm6.386 6.045V55.8h2.492c1.877 0 3.557-.28 5.07-.868 1.512-.587 2.772-1.399 3.808-2.434 1.037-1.036 1.849-2.267 2.437-3.666.588-1.4.868-2.91.868-4.534 0-1.623-.252-3.246-.756-4.645a9.7 9.7 0 0 0-2.296-3.638c-1.037-1.036-2.325-1.82-3.893-2.379-1.569-.56-3.417-.84-5.518-.84h-2.212v.029zM291.522 33.945h7.309v27.9h-7.309v-27.9zm-.925-6.828c0-1.204.42-2.183 1.233-2.939.812-.755 1.932-1.119 3.332-1.119 1.401 0 2.549.364 3.361 1.12.812.755 1.205 1.735 1.205 2.938s-.393 2.183-1.205 2.91c-.812.728-1.932 1.092-3.361 1.092-1.428 0-2.604-.364-3.388-1.092-.784-.727-1.177-1.707-1.177-2.91zM313.031 61.846c-3.081 0-5.63-.56-7.646-1.708-2.017-1.147-3.585-2.798-4.705-4.953l5.937-2.826c.672 1.287 1.568 2.267 2.717 2.966 1.148.7 2.464 1.035 4.005 1.035 1.54 0 2.772-.335 3.557-.979.784-.644 1.176-1.427 1.176-2.35 0-.504-.196-.896-.56-1.232-.364-.308-.84-.588-1.429-.812a14.384 14.384 0 0 0-2.072-.587c-.784-.168-1.625-.336-2.465-.504a46.506 46.506 0 0 1-3.529-.895 11.27 11.27 0 0 1-3.108-1.428c-.925-.615-1.653-1.399-2.241-2.35-.56-.952-.868-2.155-.868-3.582 0-1.092.252-2.155.784-3.163a8.727 8.727 0 0 1 2.213-2.686c.952-.784 2.1-1.4 3.444-1.847 1.345-.448 2.857-.672 4.482-.672 2.8 0 5.097.504 6.973 1.512a11.793 11.793 0 0 1 4.397 4.141l-5.461 2.715c-.56-.98-1.372-1.735-2.381-2.295-1.008-.56-2.184-.84-3.528-.84-1.513 0-2.633.308-3.361.896-.728.588-1.093 1.287-1.093 2.07 0 .896.533 1.568 1.625 1.96 1.064.392 2.661.811 4.761 1.231a31.01 31.01 0 0 1 3.445.868c1.148.363 2.212.84 3.165 1.455a7.363 7.363 0 0 1 2.296 2.35c.588.952.868 2.155.868 3.582 0 .98-.224 1.987-.672 3.023-.448 1.035-1.12 2.015-2.072 2.91-.925.896-2.129 1.623-3.529 2.183-1.428.56-3.137.84-5.125.84v-.029zM343.138 61.79c-1.849 0-3.557-.336-5.097-.98-1.541-.644-2.801-1.595-3.753-2.827v15.868h-6.19V33.805h6.19v3.666c.952-1.287 2.212-2.295 3.725-3.078 1.54-.756 3.22-1.148 5.069-1.148 1.708 0 3.361.308 4.957.952a12.65 12.65 0 0 1 4.257 2.798c1.232 1.232 2.24 2.715 2.997 4.478.756 1.763 1.12 3.778 1.12 6.072 0 2.295-.392 4.254-1.148 6.017-.785 1.763-1.793 3.246-3.025 4.477a12.93 12.93 0 0 1-4.257 2.799 12.769 12.769 0 0 1-4.845.951zm-1.009-5.821a8.03 8.03 0 0 0 3.193-.644 8.412 8.412 0 0 0 2.605-1.819c.756-.784 1.316-1.679 1.736-2.715.42-1.035.616-2.154.616-3.358 0-1.203-.196-2.294-.616-3.33a8.382 8.382 0 0 0-1.736-2.686c-.728-.756-1.597-1.343-2.605-1.791-.98-.448-2.044-.644-3.193-.644-1.148 0-2.24.224-3.248.644-.981.448-1.849 1.035-2.549 1.819-.7.755-1.26 1.679-1.68 2.686a9.169 9.169 0 0 0-.588 3.274c0 1.148.196 2.295.588 3.33a8.2 8.2 0 0 0 1.68 2.715c.7.784 1.568 1.4 2.549 1.819.98.448 2.072.644 3.248.644v.056zM374.309 61.846c-1.624 0-3.249-.308-4.817-.952a13.046 13.046 0 0 1-4.285-2.798c-1.26-1.232-2.268-2.715-3.053-4.478-.784-1.763-1.148-3.778-1.148-6.045 0-2.266.364-4.31 1.12-6.072.757-1.763 1.765-3.274 2.997-4.478a13.046 13.046 0 0 1 4.285-2.798 13.229 13.229 0 0 1 4.957-.952c1.793 0 3.445.336 4.957 1.036 1.513.7 2.745 1.623 3.753 2.826v-3.302h6.246v27.48h-6.246v-3.581c-.98 1.287-2.24 2.294-3.781 3.022-1.54.728-3.192 1.092-4.985 1.092zm1.009-5.821c1.176 0 2.24-.224 3.248-.672a8.297 8.297 0 0 0 2.549-1.819c.728-.755 1.26-1.679 1.68-2.714.42-1.036.616-2.155.616-3.33 0-1.176-.196-2.267-.616-3.303a9.233 9.233 0 0 0-1.68-2.714c-.7-.784-1.568-1.371-2.549-1.82-.98-.447-2.072-.67-3.248-.67a7.718 7.718 0 0 0-3.221.67c-1.008.449-1.877 1.036-2.605 1.792a8.38 8.38 0 0 0-1.736 2.686c-.42 1.036-.616 2.155-.616 3.33 0 1.176.196 2.323.616 3.359.42 1.063.98 1.959 1.736 2.714a8.23 8.23 0 0 0 2.605 1.82 7.813 7.813 0 0 0 3.221.67zM392.065 34.393h4.902v-4.17l6.665-4.366v8.536h5.826v5.68h-5.826v10.27c0 1.176.056 2.155.196 2.883.14.728.392 1.287.812 1.68.421.391 1.009.643 1.765.783.756.112 1.792.196 3.053.196v5.96h-.925c-2.212 0-4.061-.196-5.545-.56-1.484-.363-2.661-1.007-3.557-1.902-.896-.896-1.512-2.071-1.876-3.526-.364-1.456-.56-3.274-.56-5.457V40.074h-4.902v-5.681h-.028zM425.505 61.845c-1.988 0-3.864-.363-5.601-1.119-1.736-.756-3.249-1.763-4.509-3.05a14.472 14.472 0 0 1-3.025-4.534c-.728-1.735-1.092-3.582-1.092-5.569 0-1.986.364-3.89 1.092-5.624a14.44 14.44 0 0 1 3.025-4.562 14.264 14.264 0 0 1 4.509-3.05c1.737-.728 3.613-1.092 5.601-1.092 1.541 0 2.969.224 4.341.644a13.823 13.823 0 0 1 3.725 1.763 13.427 13.427 0 0 1 2.941 2.687 14.29 14.29 0 0 1 2.073 3.442l-5.658 2.406c-.616-1.51-1.596-2.714-2.884-3.582-1.289-.895-2.801-1.343-4.482-1.343a7.812 7.812 0 0 0-3.22.672c-.981.447-1.849 1.035-2.577 1.79a7.75 7.75 0 0 0-1.708 2.66c-.42 1.007-.616 2.098-.616 3.273 0 1.176.196 2.211.616 3.219.42 1.007.98 1.902 1.708 2.658s1.596 1.343 2.605 1.791a7.81 7.81 0 0 0 3.22.672c1.793 0 3.305-.476 4.566-1.428a8.63 8.63 0 0 0 2.828-3.694l5.658 2.435a15.03 15.03 0 0 1-2.073 3.47 13.012 13.012 0 0 1-2.941 2.743 13.898 13.898 0 0 1-3.724 1.79c-1.373.42-2.857.644-4.454.644l.056-.112zM441.413 26.781h6.386v10.662a10.315 10.315 0 0 1 3.529-2.854c1.4-.7 2.968-1.036 4.733-1.036 3.417 0 6.105 1.036 8.038 3.135 1.932 2.098 2.912 4.98 2.912 8.73v16.455h-6.525V46.146c0-2.183-.532-3.89-1.568-5.149-1.037-1.26-2.605-1.875-4.678-1.875-.868 0-1.708.168-2.492.504-.784.336-1.485.811-2.045 1.455-.588.644-1.036 1.427-1.372 2.379-.336.951-.504 2.014-.504 3.218V61.9h-6.414v-35.12zM484.207 61.845c-2.156 0-4.117-.363-5.909-1.091-1.792-.728-3.305-1.735-4.565-3.022a13.776 13.776 0 0 1-2.941-4.534 14.716 14.716 0 0 1-1.064-5.569c0-1.987.364-3.89 1.092-5.652a13.822 13.822 0 0 1 3.025-4.562 14.415 14.415 0 0 1 4.509-3.05c1.737-.756 3.585-1.12 5.601-1.12 2.017 0 3.921.364 5.63 1.064 1.736.7 3.221 1.679 4.481 2.966 1.26 1.26 2.212 2.77 2.941 4.478.7 1.735 1.064 3.61 1.064 5.652v2.407h-22.294c.449 1.931 1.401 3.498 2.857 4.702 1.456 1.203 3.333 1.79 5.573 1.79 1.793 0 3.333-.447 4.65-1.315 1.316-.867 2.296-2.043 2.94-3.526l5.21 2.995a14.147 14.147 0 0 1-4.986 5.373c-2.128 1.37-4.733 2.042-7.786 2.042l-.028-.028zm-.224-23.03c-1.904 0-3.556.503-4.929 1.538-1.4 1.036-2.352 2.407-2.94 4.086h15.543c-.476-1.847-1.372-3.246-2.716-4.198-1.345-.951-2.997-1.427-4.958-1.427zM501.74 34.169h6.329v3.974c1.289-2.659 3.641-3.974 7.086-3.974 1.008 0 1.904.112 2.717.308.812.224 1.512.476 2.156.811l-2.408 5.849a7.412 7.412 0 0 0-1.569-.755c-.56-.196-1.344-.308-2.24-.308-1.849 0-3.277.503-4.229 1.539-.953 1.035-1.429 2.686-1.429 5.009v14.272h-6.385V34.169h-.028z"/>
        <path fill-rule="evenodd" clip-rule="evenodd" d="M221.253 42.228v4.898h3.417v4.869c0 .448 0 .896-.084 1.287-.14.896-.981 2.463-3.417 2.463-2.437 0-3.249-1.54-3.389-2.463a9.035 9.035 0 0 1-.084-1.287V36.632c0-.532.028-1.148.14-1.596.168-.811.896-2.434 3.305-2.434 2.548 0 3.192 1.707 3.333 2.434.084.476.112 1.288.112 1.288v1.875h8.402v-1.092s.028-1.147-.056-2.21c-.645-6.297-5.77-8.312-11.679-8.312-5.91 0-10.951 2.015-11.707 8.312-.056.587-.168 1.595-.168 2.21V51.24c0 .616 0 1.092.14 2.211.56 6.129 5.825 8.311 11.707 8.311 5.881 0 11.146-2.182 11.707-8.31.112-1.12.112-1.596.112-2.212v-9.01h-11.791zM163.419 27.48h-8.43v24.85c0 .42 0 .924-.084 1.288-.168.84-.868 2.435-3.193 2.435-2.324 0-3.024-1.595-3.165-2.435-.084-.364-.084-.84-.084-1.287V27.48h-8.43v24.094c0 .616.028 1.903.084 2.211.589 6.268 5.49 8.311 11.623 8.311 6.134 0 11.035-2.043 11.623-8.311.056-.336.112-1.595.084-2.21V27.48h-.028zM85.98 27.48l-4.2 26.278-4.201-26.277H63.995l-.728 33.609h8.346l.224-31.119L77.55 61.09h8.459l5.74-31.119.225 31.119h8.346l-.756-33.61H85.98zM35.68 27.48l-6.189 33.61h9.018l4.65-31.119 4.536 31.119h8.934l-6.161-33.61H35.68zM192.854 54.542l-7.842-27.061h-12.379v33.273h8.178l-.476-27.928 8.43 27.928h11.875V27.481h-8.234l.448 27.06zM117.18 34.505c.252-1.064.952-2.24 3.025-2.24 1.932 0 3.052 1.204 3.052 3.023v2.043h8.206v-2.35c0-7.249-6.441-8.368-11.09-8.368-5.882 0-10.671 1.959-11.539 7.388-.224 1.483-.28 2.798.084 4.477 1.428 6.8 13.163 8.76 14.843 13.07.309.81.225 1.846.056 2.462-.252 1.12-1.008 2.239-3.22 2.239-2.073 0-3.333-1.204-3.333-3.023v-3.218h-8.85v2.575c0 7.415 5.769 9.682 11.987 9.682 6.217 0 10.866-2.043 11.65-7.612.365-2.882.084-4.757-.056-5.457-1.372-6.968-13.863-9.066-14.815-12.956-.14-.672-.112-1.372-.028-1.735h.028zM8.822 34.393c.224-1.064.952-2.267 3.053-2.267 1.96 0 3.109 1.231 3.109 3.05v2.071h8.318v-2.35c0-7.304-6.526-8.48-11.26-8.48-5.909 0-10.754 1.987-11.622 7.472-.252 1.511-.28 2.826.056 4.533 1.428 6.857 13.275 8.872 15.012 13.21.308.81.224 1.846.056 2.49-.28 1.12-1.037 2.267-3.25 2.267-2.072 0-3.332-1.232-3.332-3.05v-3.247H0v2.575c0 7.527 5.853 9.766 12.099 9.766 6.245 0 10.95-2.07 11.763-7.696.392-2.91.112-4.785-.028-5.513-1.4-7.052-14.032-9.15-14.984-13.068a4.168 4.168 0 0 1-.028-1.763z"/>
    </g>
    <defs>
        <clipPath id="hrcxqovk7a">
            <path fill="#fff" d="M0 0h520v89.55H0z"/>
        </clipPath>
    </defs>
</svg>
